%TF.GenerationSoftware,KiCad,Pcbnew,7.0.10*%
%TF.CreationDate,2024-01-29T00:07:58+11:00*%
%TF.ProjectId,RP2040-TestPatternGenerator,52503230-3430-42d5-9465-737450617474,rev?*%
%TF.SameCoordinates,Original*%
%TF.FileFunction,Legend,Bot*%
%TF.FilePolarity,Positive*%
%FSLAX46Y46*%
G04 Gerber Fmt 4.6, Leading zero omitted, Abs format (unit mm)*
G04 Created by KiCad (PCBNEW 7.0.10) date 2024-01-29 00:07:58*
%MOMM*%
%LPD*%
G01*
G04 APERTURE LIST*
%ADD10C,0.100000*%
%ADD11C,2.100000*%
%ADD12C,1.750000*%
%ADD13C,1.600000*%
%ADD14O,1.600000X1.600000*%
%ADD15C,4.000000*%
%ADD16O,4.000000X4.000000*%
%ADD17R,1.600000X1.600000*%
%ADD18O,1.500000X2.500000*%
%ADD19O,2.500000X1.500000*%
G04 APERTURE END LIST*
D10*
X117683609Y-75446741D02*
X117683609Y-75161027D01*
X117683609Y-75303884D02*
X117183609Y-75303884D01*
X117183609Y-75303884D02*
X117255038Y-75256265D01*
X117255038Y-75256265D02*
X117302657Y-75208646D01*
X117302657Y-75208646D02*
X117326466Y-75161027D01*
X117183609Y-75756264D02*
X117183609Y-75803883D01*
X117183609Y-75803883D02*
X117207419Y-75851502D01*
X117207419Y-75851502D02*
X117231228Y-75875312D01*
X117231228Y-75875312D02*
X117278847Y-75899121D01*
X117278847Y-75899121D02*
X117374085Y-75922931D01*
X117374085Y-75922931D02*
X117493133Y-75922931D01*
X117493133Y-75922931D02*
X117588371Y-75899121D01*
X117588371Y-75899121D02*
X117635990Y-75875312D01*
X117635990Y-75875312D02*
X117659800Y-75851502D01*
X117659800Y-75851502D02*
X117683609Y-75803883D01*
X117683609Y-75803883D02*
X117683609Y-75756264D01*
X117683609Y-75756264D02*
X117659800Y-75708645D01*
X117659800Y-75708645D02*
X117635990Y-75684836D01*
X117635990Y-75684836D02*
X117588371Y-75661026D01*
X117588371Y-75661026D02*
X117493133Y-75637217D01*
X117493133Y-75637217D02*
X117374085Y-75637217D01*
X117374085Y-75637217D02*
X117278847Y-75661026D01*
X117278847Y-75661026D02*
X117231228Y-75684836D01*
X117231228Y-75684836D02*
X117207419Y-75708645D01*
X117207419Y-75708645D02*
X117183609Y-75756264D01*
X117683609Y-96446741D02*
X117683609Y-96161027D01*
X117683609Y-96303884D02*
X117183609Y-96303884D01*
X117183609Y-96303884D02*
X117255038Y-96256265D01*
X117255038Y-96256265D02*
X117302657Y-96208646D01*
X117302657Y-96208646D02*
X117326466Y-96161027D01*
X163001609Y-80202741D02*
X163001609Y-79917027D01*
X163001609Y-80059884D02*
X162501609Y-80059884D01*
X162501609Y-80059884D02*
X162573038Y-80012265D01*
X162573038Y-80012265D02*
X162620657Y-79964646D01*
X162620657Y-79964646D02*
X162644466Y-79917027D01*
X167065609Y-92864741D02*
X167065609Y-92579027D01*
X167065609Y-92721884D02*
X166565609Y-92721884D01*
X166565609Y-92721884D02*
X166637038Y-92674265D01*
X166637038Y-92674265D02*
X166684657Y-92626646D01*
X166684657Y-92626646D02*
X166708466Y-92579027D01*
X166565609Y-93317121D02*
X166565609Y-93079026D01*
X166565609Y-93079026D02*
X166803704Y-93055217D01*
X166803704Y-93055217D02*
X166779895Y-93079026D01*
X166779895Y-93079026D02*
X166756085Y-93126645D01*
X166756085Y-93126645D02*
X166756085Y-93245693D01*
X166756085Y-93245693D02*
X166779895Y-93293312D01*
X166779895Y-93293312D02*
X166803704Y-93317121D01*
X166803704Y-93317121D02*
X166851323Y-93340931D01*
X166851323Y-93340931D02*
X166970371Y-93340931D01*
X166970371Y-93340931D02*
X167017990Y-93317121D01*
X167017990Y-93317121D02*
X167041800Y-93293312D01*
X167041800Y-93293312D02*
X167065609Y-93245693D01*
X167065609Y-93245693D02*
X167065609Y-93126645D01*
X167065609Y-93126645D02*
X167041800Y-93079026D01*
X167041800Y-93079026D02*
X167017990Y-93055217D01*
%LPC*%
D11*
%TO.C,SW1*%
X121265000Y-105400000D03*
X121265000Y-98390000D03*
D12*
X118775000Y-104150000D03*
X118775000Y-99650000D03*
%TD*%
D13*
%TO.C,R8*%
X144526000Y-69119750D03*
D14*
X154686000Y-69119750D03*
%TD*%
D13*
%TO.C,R7*%
X144526000Y-74739500D03*
D14*
X154686000Y-74739500D03*
%TD*%
D13*
%TO.C,R3*%
X144526000Y-97218500D03*
D14*
X154686000Y-97218500D03*
%TD*%
D13*
%TO.C,R6*%
X144526000Y-80359250D03*
D14*
X154686000Y-80359250D03*
%TD*%
D13*
%TO.C,R9*%
X144526000Y-63500000D03*
D14*
X154686000Y-63500000D03*
%TD*%
D13*
%TO.C,R1*%
X144526000Y-108458000D03*
D14*
X154686000Y-108458000D03*
%TD*%
D13*
%TO.C,R5*%
X144526000Y-85979000D03*
D14*
X154686000Y-85979000D03*
%TD*%
D13*
%TO.C,R4*%
X144526000Y-91598750D03*
D14*
X154686000Y-91598750D03*
%TD*%
D15*
%TO.C,RGBS OUT*%
X164968000Y-98515000D03*
D16*
X164968000Y-73515000D03*
D17*
X162918000Y-81700000D03*
D13*
X162918000Y-83990000D03*
X162918000Y-86280000D03*
X162918000Y-88570000D03*
X162918000Y-90860000D03*
X164898000Y-80555000D03*
X164898000Y-82845000D03*
X164898000Y-85135000D03*
X164898000Y-87425000D03*
X164898000Y-89715000D03*
X166878000Y-81700000D03*
X166878000Y-83990000D03*
X166878000Y-86280000D03*
X166878000Y-88570000D03*
X166878000Y-90860000D03*
%TD*%
%TO.C,R2*%
X144526000Y-102838250D03*
D14*
X154686000Y-102838250D03*
%TD*%
D18*
%TO.C,U1*%
X117602000Y-94099000D03*
X120142000Y-94099000D03*
X122682000Y-94099000D03*
X125222000Y-94099000D03*
X127762000Y-94099000D03*
X130302000Y-94099000D03*
X132842000Y-94099000D03*
X135382000Y-94099000D03*
X137922000Y-94099000D03*
D19*
X138422000Y-91059000D03*
X138422000Y-88519000D03*
X138422000Y-85979000D03*
X138422000Y-83439000D03*
X138422000Y-80899000D03*
D18*
X137922000Y-77859000D03*
X135382000Y-77859000D03*
X132842000Y-77859000D03*
X130302000Y-77859000D03*
X127762000Y-77859000D03*
X125222000Y-77859000D03*
X122682000Y-77859000D03*
X120142000Y-77859000D03*
X117602000Y-77859000D03*
%TD*%
%LPD*%
M02*
