%TF.GenerationSoftware,KiCad,Pcbnew,7.0.10*%
%TF.CreationDate,2024-01-30T15:37:57+11:00*%
%TF.ProjectId,RP2040-TestPatternGenerator,52503230-3430-42d5-9465-737450617474,rev?*%
%TF.SameCoordinates,Original*%
%TF.FileFunction,Copper,L2,Bot*%
%TF.FilePolarity,Positive*%
%FSLAX46Y46*%
G04 Gerber Fmt 4.6, Leading zero omitted, Abs format (unit mm)*
G04 Created by KiCad (PCBNEW 7.0.10) date 2024-01-30 15:37:57*
%MOMM*%
%LPD*%
G01*
G04 APERTURE LIST*
%TA.AperFunction,ComponentPad*%
%ADD10O,1.600000X1.600000*%
%TD*%
%TA.AperFunction,ComponentPad*%
%ADD11C,1.600000*%
%TD*%
%TA.AperFunction,ComponentPad*%
%ADD12C,4.000000*%
%TD*%
%TA.AperFunction,ComponentPad*%
%ADD13O,4.000000X4.000000*%
%TD*%
%TA.AperFunction,ComponentPad*%
%ADD14R,1.600000X1.600000*%
%TD*%
%TA.AperFunction,ComponentPad*%
%ADD15C,2.100000*%
%TD*%
%TA.AperFunction,ComponentPad*%
%ADD16C,1.750000*%
%TD*%
%TA.AperFunction,SMDPad,CuDef*%
%ADD17O,1.500000X2.500000*%
%TD*%
%TA.AperFunction,SMDPad,CuDef*%
%ADD18O,2.500000X1.500000*%
%TD*%
%TA.AperFunction,Conductor*%
%ADD19C,0.500000*%
%TD*%
G04 APERTURE END LIST*
D10*
%TO.P,R8,2*%
%TO.N,Net-(J1-Pad1)*%
X155580000Y-69875000D03*
D11*
%TO.P,R8,1*%
%TO.N,Net-(U1-14)*%
X145420000Y-69875000D03*
%TD*%
D10*
%TO.P,R7,2*%
%TO.N,Net-(J1-Pad1)*%
X155580000Y-75250000D03*
D11*
%TO.P,R7,1*%
%TO.N,Net-(U1-13)*%
X145420000Y-75250000D03*
%TD*%
D10*
%TO.P,R3,2*%
%TO.N,Net-(J1-Pad2)*%
X155580000Y-96750000D03*
D11*
%TO.P,R3,1*%
%TO.N,Net-(U1-9)*%
X145420000Y-96750000D03*
%TD*%
D10*
%TO.P,R6,2*%
%TO.N,Net-(J1-Pad1)*%
X155580000Y-80625000D03*
D11*
%TO.P,R6,1*%
%TO.N,Net-(U1-12)*%
X145420000Y-80625000D03*
%TD*%
D10*
%TO.P,R9,2*%
%TO.N,Net-(J1-Pad13)*%
X155580000Y-64500000D03*
D11*
%TO.P,R9,1*%
%TO.N,Net-(U1-15)*%
X145420000Y-64500000D03*
%TD*%
D10*
%TO.P,R1,2*%
%TO.N,Net-(J1-Pad3)*%
X155580000Y-107500000D03*
D11*
%TO.P,R1,1*%
%TO.N,Net-(U1-7)*%
X145420000Y-107500000D03*
%TD*%
D10*
%TO.P,R5,2*%
%TO.N,Net-(J1-Pad2)*%
X155580000Y-86000000D03*
D11*
%TO.P,R5,1*%
%TO.N,Net-(U1-11)*%
X145420000Y-86000000D03*
%TD*%
D10*
%TO.P,R4,2*%
%TO.N,Net-(J1-Pad2)*%
X155580000Y-91375000D03*
D11*
%TO.P,R4,1*%
%TO.N,Net-(U1-10)*%
X145420000Y-91375000D03*
%TD*%
D12*
%TO.P,RGBS OUT,0*%
%TO.N,Net-(U1-GND)*%
X163899669Y-98515000D03*
D13*
X163899669Y-73515000D03*
D14*
%TO.P,RGBS OUT,1*%
%TO.N,Net-(J1-Pad1)*%
X161849669Y-81700000D03*
D11*
%TO.P,RGBS OUT,2*%
%TO.N,Net-(J1-Pad2)*%
X161849669Y-83990000D03*
%TO.P,RGBS OUT,3*%
%TO.N,Net-(J1-Pad3)*%
X161849669Y-86280000D03*
%TO.P,RGBS OUT,4*%
%TO.N,unconnected-(J1-Pad4)*%
X161849669Y-88570000D03*
%TO.P,RGBS OUT,5*%
%TO.N,Net-(U1-GND)*%
X161849669Y-90860000D03*
%TO.P,RGBS OUT,6*%
X163829669Y-80555000D03*
%TO.P,RGBS OUT,7*%
X163829669Y-82845000D03*
%TO.P,RGBS OUT,8*%
X163829669Y-85135000D03*
%TO.P,RGBS OUT,9*%
%TO.N,unconnected-(J1-Pad9)*%
X163829669Y-87425000D03*
%TO.P,RGBS OUT,10*%
%TO.N,unconnected-(J1-Pad10)*%
X163829669Y-89715000D03*
%TO.P,RGBS OUT,11*%
%TO.N,unconnected-(J1-Pad11)*%
X165809669Y-81700000D03*
%TO.P,RGBS OUT,12*%
%TO.N,unconnected-(J1-Pad12)*%
X165809669Y-83990000D03*
%TO.P,RGBS OUT,13*%
%TO.N,Net-(J1-Pad13)*%
X165809669Y-86280000D03*
%TO.P,RGBS OUT,14*%
%TO.N,unconnected-(J1-Pad14)*%
X165809669Y-88570000D03*
%TO.P,RGBS OUT,15*%
%TO.N,unconnected-(J1-Pad15)*%
X165809669Y-90860000D03*
%TD*%
D15*
%TO.P,SW1,*%
%TO.N,*%
X122400000Y-103600000D03*
X122400000Y-96590000D03*
D16*
%TO.P,SW1,1,1*%
%TO.N,Net-(U1-GND)*%
X119910000Y-102350000D03*
%TO.P,SW1,2,2*%
%TO.N,Net-(U1-2)*%
X119910000Y-97850000D03*
%TD*%
D10*
%TO.P,R2,2*%
%TO.N,Net-(J1-Pad3)*%
X155580000Y-102125000D03*
D11*
%TO.P,R2,1*%
%TO.N,Net-(U1-8)*%
X145420000Y-102125000D03*
%TD*%
D17*
%TO.P,U1,23,5V*%
%TO.N,unconnected-(U1-5V-Pad23)*%
X118590000Y-77859000D03*
%TO.P,U1,22,GND*%
%TO.N,Net-(U1-GND)*%
X121130000Y-77859000D03*
%TO.P,U1,21,3V3*%
%TO.N,unconnected-(U1-3V3-Pad21)*%
X123670000Y-77859000D03*
%TO.P,U1,20,29*%
%TO.N,unconnected-(U1-29-Pad20)*%
X126210000Y-77859000D03*
%TO.P,U1,19,28*%
%TO.N,unconnected-(U1-28-Pad19)*%
X128750000Y-77859000D03*
%TO.P,U1,18,27*%
%TO.N,unconnected-(U1-27-Pad18)*%
X131290000Y-77859000D03*
%TO.P,U1,17,26*%
%TO.N,unconnected-(U1-26-Pad17)*%
X133830000Y-77859000D03*
%TO.P,U1,16,15*%
%TO.N,Net-(U1-15)*%
X136370000Y-77859000D03*
%TO.P,U1,15,14*%
%TO.N,Net-(U1-14)*%
X138910000Y-77859000D03*
D18*
%TO.P,U1,14,13*%
%TO.N,Net-(U1-13)*%
X139410000Y-80899000D03*
%TO.P,U1,13,12*%
%TO.N,Net-(U1-12)*%
X139410000Y-83439000D03*
%TO.P,U1,12,11*%
%TO.N,Net-(U1-11)*%
X139410000Y-85979000D03*
%TO.P,U1,11,10*%
%TO.N,Net-(U1-10)*%
X139410000Y-88519000D03*
%TO.P,U1,10,9*%
%TO.N,Net-(U1-9)*%
X139410000Y-91059000D03*
D17*
%TO.P,U1,9,8*%
%TO.N,Net-(U1-8)*%
X138910000Y-94099000D03*
%TO.P,U1,8,7*%
%TO.N,Net-(U1-7)*%
X136370000Y-94099000D03*
%TO.P,U1,7,6*%
%TO.N,unconnected-(U1-6-Pad7)*%
X133830000Y-94099000D03*
%TO.P,U1,6,5*%
%TO.N,unconnected-(U1-5-Pad6)*%
X131290000Y-94099000D03*
%TO.P,U1,5,4*%
%TO.N,unconnected-(U1-4-Pad5)*%
X128750000Y-94099000D03*
%TO.P,U1,4,3*%
%TO.N,unconnected-(U1-3-Pad4)*%
X126210000Y-94099000D03*
%TO.P,U1,3,2*%
%TO.N,Net-(U1-2)*%
X123670000Y-94099000D03*
%TO.P,U1,2,1*%
%TO.N,unconnected-(U1-1-Pad2)*%
X121130000Y-94099000D03*
%TO.P,U1,1,0*%
%TO.N,unconnected-(U1-0-Pad1)*%
X118590000Y-94099000D03*
%TD*%
D19*
%TO.N,Net-(U1-2)*%
X121194999Y-99134999D02*
X119910000Y-97850000D01*
X123865001Y-99134999D02*
X121194999Y-99134999D01*
X125200000Y-97800000D02*
X123865001Y-99134999D01*
X125200000Y-96200000D02*
X125200000Y-97800000D01*
X123670000Y-94670000D02*
X125200000Y-96200000D01*
X123670000Y-93599000D02*
X123670000Y-94670000D01*
%TO.N,Net-(J1-Pad1)*%
X158637500Y-81700000D02*
X161849669Y-81700000D01*
X155580000Y-80625000D02*
X157562500Y-80625000D01*
X157562500Y-80625000D02*
X158637500Y-81700000D01*
%TO.N,Net-(J1-Pad2)*%
X159510000Y-83990000D02*
X161849669Y-83990000D01*
X157500000Y-86000000D02*
X159510000Y-83990000D01*
X155580000Y-86000000D02*
X157500000Y-86000000D01*
%TO.N,Net-(J1-Pad13)*%
X168000000Y-81000000D02*
X168000000Y-85044835D01*
X160000000Y-78000000D02*
X165000000Y-78000000D01*
X158500000Y-76500000D02*
X160000000Y-78000000D01*
X158500000Y-67420000D02*
X158500000Y-76500000D01*
X168000000Y-85044835D02*
X166764835Y-86280000D01*
X155580000Y-64500000D02*
X158500000Y-67420000D01*
X165000000Y-78000000D02*
X168000000Y-81000000D01*
X166764835Y-86280000D02*
X165809669Y-86280000D01*
%TO.N,Net-(J1-Pad3)*%
X160220000Y-86280000D02*
X161849669Y-86280000D01*
X155580000Y-102125000D02*
X158500000Y-99205000D01*
X158500000Y-99205000D02*
X158500000Y-88000000D01*
X158500000Y-88000000D02*
X160220000Y-86280000D01*
%TO.N,Net-(J1-Pad1)*%
X161649669Y-81500000D02*
X161849669Y-81700000D01*
%TO.N,Net-(U1-GND)*%
X163829669Y-82845000D02*
X163829669Y-85135000D01*
X163829669Y-80555000D02*
X163829669Y-82845000D01*
%TO.N,Net-(J1-Pad1)*%
X155580000Y-75250000D02*
X155580000Y-80625000D01*
X155580000Y-69875000D02*
X155580000Y-75250000D01*
%TO.N,Net-(J1-Pad2)*%
X155580000Y-91375000D02*
X155580000Y-86000000D01*
X155580000Y-96750000D02*
X155580000Y-91375000D01*
%TO.N,Net-(J1-Pad3)*%
X155580000Y-107500000D02*
X155580000Y-102125000D01*
%TO.N,Net-(U1-11)*%
X138941000Y-86000000D02*
X145420000Y-86000000D01*
X138920000Y-85979000D02*
X138941000Y-86000000D01*
%TO.N,Net-(U1-10)*%
X143875000Y-91375000D02*
X145420000Y-91375000D01*
X141019000Y-88519000D02*
X143875000Y-91375000D01*
X138910000Y-88519000D02*
X141019000Y-88519000D01*
%TO.N,Net-(U1-9)*%
X139729000Y-91059000D02*
X145420000Y-96750000D01*
X138920000Y-91059000D02*
X139729000Y-91059000D01*
%TO.N,Net-(U1-8)*%
X138920000Y-93609000D02*
X138910000Y-93599000D01*
X138920000Y-99170000D02*
X138920000Y-93609000D01*
X141875000Y-102125000D02*
X138920000Y-99170000D01*
X145420000Y-102125000D02*
X141875000Y-102125000D01*
%TO.N,Net-(U1-7)*%
X136380000Y-101880000D02*
X142000000Y-107500000D01*
X136380000Y-93609000D02*
X136380000Y-101880000D01*
X136370000Y-93599000D02*
X136380000Y-93609000D01*
X142000000Y-107500000D02*
X145420000Y-107500000D01*
%TO.N,Net-(U1-12)*%
X143875000Y-80625000D02*
X145420000Y-80625000D01*
X141061000Y-83439000D02*
X143875000Y-80625000D01*
X138920000Y-83439000D02*
X141061000Y-83439000D01*
%TO.N,Net-(U1-13)*%
X139771000Y-80899000D02*
X145420000Y-75250000D01*
X138920000Y-80899000D02*
X139771000Y-80899000D01*
%TO.N,Net-(U1-14)*%
X138920000Y-78359000D02*
X138920000Y-72830000D01*
X138920000Y-72830000D02*
X141875000Y-69875000D01*
X141875000Y-69875000D02*
X145420000Y-69875000D01*
%TO.N,Net-(U1-15)*%
X143526000Y-64500000D02*
X145420000Y-64500000D01*
X136380000Y-71646000D02*
X143526000Y-64500000D01*
X136380000Y-78359000D02*
X136380000Y-71646000D01*
%TD*%
%TA.AperFunction,Conductor*%
%TO.N,Net-(U1-GND)*%
G36*
X164689418Y-61020185D02*
G01*
X164735173Y-61072989D01*
X164745117Y-61142147D01*
X164716092Y-61205703D01*
X164678030Y-61235310D01*
X164601875Y-61273556D01*
X164601873Y-61273557D01*
X164310383Y-61465272D01*
X164043150Y-61689508D01*
X164043140Y-61689518D01*
X163803735Y-61943271D01*
X163803730Y-61943277D01*
X163595404Y-62223108D01*
X163420971Y-62525234D01*
X163420965Y-62525247D01*
X163282789Y-62845575D01*
X163182730Y-63179797D01*
X163182728Y-63179806D01*
X163122153Y-63523346D01*
X163122152Y-63523357D01*
X163101867Y-63871633D01*
X163101867Y-63871640D01*
X163122152Y-64219916D01*
X163122153Y-64219927D01*
X163182728Y-64563467D01*
X163182730Y-64563476D01*
X163182732Y-64563485D01*
X163231593Y-64726692D01*
X163282789Y-64897698D01*
X163420965Y-65218026D01*
X163420971Y-65218039D01*
X163595404Y-65520165D01*
X163803730Y-65799996D01*
X163803735Y-65800002D01*
X163828939Y-65826716D01*
X164043142Y-66053758D01*
X164043148Y-66053763D01*
X164043150Y-66053765D01*
X164310383Y-66278001D01*
X164310386Y-66278003D01*
X164310391Y-66278007D01*
X164601867Y-66469713D01*
X164601873Y-66469716D01*
X164601875Y-66469717D01*
X164913620Y-66626281D01*
X164913621Y-66626282D01*
X164913624Y-66626283D01*
X164913628Y-66626285D01*
X165241457Y-66745606D01*
X165580922Y-66826060D01*
X165927433Y-66866561D01*
X165927440Y-66866561D01*
X166276294Y-66866561D01*
X166276301Y-66866561D01*
X166622812Y-66826060D01*
X166962277Y-66745606D01*
X167290106Y-66626285D01*
X167601867Y-66469713D01*
X167893343Y-66278007D01*
X168160592Y-66053758D01*
X168400000Y-65800000D01*
X168608330Y-65520164D01*
X168768114Y-65243410D01*
X168818680Y-65195196D01*
X168887287Y-65181973D01*
X168952152Y-65207941D01*
X168992680Y-65264856D01*
X168999500Y-65305412D01*
X168999500Y-80973252D01*
X168987205Y-81015123D01*
X168998284Y-81039552D01*
X168999500Y-81056877D01*
X168999500Y-85066491D01*
X168990541Y-85096998D01*
X168999084Y-85119184D01*
X168999500Y-85129333D01*
X168999500Y-106637861D01*
X168979815Y-106704900D01*
X168927011Y-106750655D01*
X168857853Y-106760599D01*
X168794297Y-106731574D01*
X168768113Y-106699861D01*
X168608329Y-106423108D01*
X168400003Y-106143277D01*
X168399998Y-106143271D01*
X168284237Y-106020572D01*
X168160592Y-105889516D01*
X168160585Y-105889510D01*
X168160583Y-105889508D01*
X167893350Y-105665272D01*
X167893345Y-105665268D01*
X167893343Y-105665267D01*
X167601867Y-105473561D01*
X167601863Y-105473559D01*
X167601860Y-105473557D01*
X167601858Y-105473556D01*
X167290113Y-105316992D01*
X167290112Y-105316991D01*
X166962274Y-105197667D01*
X166702693Y-105136146D01*
X166622812Y-105117214D01*
X166276301Y-105076713D01*
X165927433Y-105076713D01*
X165580922Y-105117214D01*
X165241459Y-105197667D01*
X164913621Y-105316991D01*
X164913620Y-105316992D01*
X164601875Y-105473556D01*
X164601873Y-105473557D01*
X164310383Y-105665272D01*
X164043150Y-105889508D01*
X164043140Y-105889518D01*
X163803735Y-106143271D01*
X163803730Y-106143277D01*
X163595404Y-106423108D01*
X163420971Y-106725234D01*
X163420965Y-106725247D01*
X163282789Y-107045575D01*
X163222504Y-107246939D01*
X163204177Y-107308160D01*
X163182730Y-107379797D01*
X163182728Y-107379806D01*
X163122153Y-107723346D01*
X163122152Y-107723357D01*
X163101867Y-108071633D01*
X163101867Y-108071640D01*
X163122152Y-108419916D01*
X163122153Y-108419927D01*
X163182728Y-108763467D01*
X163182730Y-108763476D01*
X163182732Y-108763485D01*
X163231654Y-108926896D01*
X163282789Y-109097698D01*
X163420965Y-109418026D01*
X163420971Y-109418039D01*
X163595404Y-109720165D01*
X163803730Y-109999996D01*
X163803735Y-110000002D01*
X163896709Y-110098548D01*
X164043142Y-110253758D01*
X164043148Y-110253763D01*
X164043150Y-110253765D01*
X164310383Y-110478001D01*
X164310386Y-110478003D01*
X164310391Y-110478007D01*
X164601867Y-110669713D01*
X164601873Y-110669716D01*
X164601874Y-110669717D01*
X164790981Y-110764690D01*
X164842055Y-110812368D01*
X164859245Y-110880090D01*
X164837093Y-110946355D01*
X164782631Y-110990124D01*
X164735330Y-110999500D01*
X121218753Y-110999500D01*
X121151714Y-110979815D01*
X121105959Y-110927011D01*
X121096015Y-110857853D01*
X121125040Y-110794297D01*
X121176343Y-110758978D01*
X121178895Y-110758048D01*
X121188239Y-110754648D01*
X121500000Y-110598076D01*
X121791476Y-110406370D01*
X122058725Y-110182121D01*
X122298133Y-109928363D01*
X122506463Y-109648527D01*
X122680898Y-109346398D01*
X122819078Y-109026060D01*
X122919135Y-108691848D01*
X122979715Y-108348279D01*
X123000000Y-108000000D01*
X122999535Y-107992023D01*
X122995976Y-107930925D01*
X122979715Y-107651721D01*
X122919135Y-107308152D01*
X122819078Y-106973940D01*
X122680898Y-106653602D01*
X122506463Y-106351473D01*
X122506462Y-106351471D01*
X122298136Y-106071640D01*
X122298131Y-106071634D01*
X122182370Y-105948935D01*
X122058725Y-105817879D01*
X122058718Y-105817873D01*
X122058716Y-105817871D01*
X121791483Y-105593635D01*
X121791478Y-105593631D01*
X121791476Y-105593630D01*
X121500000Y-105401924D01*
X121499996Y-105401922D01*
X121499993Y-105401920D01*
X121499991Y-105401919D01*
X121188246Y-105245355D01*
X121188245Y-105245354D01*
X120940806Y-105155293D01*
X120860410Y-105126031D01*
X120860409Y-105126030D01*
X120860407Y-105126030D01*
X120652319Y-105076713D01*
X120520945Y-105045577D01*
X120174434Y-105005076D01*
X119825566Y-105005076D01*
X119479055Y-105045577D01*
X119139592Y-105126030D01*
X118811754Y-105245354D01*
X118811753Y-105245355D01*
X118500008Y-105401919D01*
X118500006Y-105401920D01*
X118208516Y-105593635D01*
X117941283Y-105817871D01*
X117941273Y-105817881D01*
X117701868Y-106071634D01*
X117701863Y-106071640D01*
X117493537Y-106351471D01*
X117319104Y-106653597D01*
X117319098Y-106653610D01*
X117238359Y-106840785D01*
X117193731Y-106894545D01*
X117127123Y-106915643D01*
X117059682Y-106897381D01*
X117012821Y-106845557D01*
X117000500Y-106791671D01*
X117000500Y-102350006D01*
X118530288Y-102350006D01*
X118549103Y-102577085D01*
X118549105Y-102577093D01*
X118605045Y-102797993D01*
X118696579Y-103006669D01*
X118776874Y-103129570D01*
X119430951Y-102475495D01*
X119455102Y-102557745D01*
X119532057Y-102677489D01*
X119639631Y-102770702D01*
X119769108Y-102829833D01*
X119781882Y-102831669D01*
X119129015Y-103484536D01*
X119129015Y-103484538D01*
X119155360Y-103505043D01*
X119155371Y-103505050D01*
X119355769Y-103613499D01*
X119355780Y-103613504D01*
X119571298Y-103687492D01*
X119796065Y-103725000D01*
X120023935Y-103725000D01*
X120248701Y-103687492D01*
X120464219Y-103613504D01*
X120464230Y-103613499D01*
X120662506Y-103506199D01*
X120730834Y-103491604D01*
X120796206Y-103516267D01*
X120837867Y-103572358D01*
X120845140Y-103605523D01*
X120845769Y-103613504D01*
X120863853Y-103843297D01*
X120920830Y-104080619D01*
X121014222Y-104306089D01*
X121141737Y-104514173D01*
X121141738Y-104514176D01*
X121141741Y-104514179D01*
X121300241Y-104699759D01*
X121443897Y-104822453D01*
X121485823Y-104858261D01*
X121485826Y-104858262D01*
X121693910Y-104985777D01*
X121838282Y-105045577D01*
X121913451Y-105076713D01*
X121919381Y-105079169D01*
X121919378Y-105079169D01*
X121919384Y-105079170D01*
X121919388Y-105079172D01*
X122156698Y-105136146D01*
X122400000Y-105155294D01*
X122643302Y-105136146D01*
X122880612Y-105079172D01*
X123106089Y-104985777D01*
X123314179Y-104858259D01*
X123499759Y-104699759D01*
X123658259Y-104514179D01*
X123785777Y-104306089D01*
X123879172Y-104080612D01*
X123936146Y-103843302D01*
X123955294Y-103600000D01*
X123936146Y-103356698D01*
X123879172Y-103119388D01*
X123814867Y-102964141D01*
X123785777Y-102893910D01*
X123658262Y-102685826D01*
X123658261Y-102685823D01*
X123622137Y-102643528D01*
X123499759Y-102500241D01*
X123347307Y-102370035D01*
X123314176Y-102341738D01*
X123314173Y-102341737D01*
X123106089Y-102214222D01*
X122880618Y-102120830D01*
X122880621Y-102120830D01*
X122774992Y-102095470D01*
X122643302Y-102063854D01*
X122643300Y-102063853D01*
X122643297Y-102063853D01*
X122400000Y-102044706D01*
X122156702Y-102063853D01*
X121919380Y-102120830D01*
X121693910Y-102214222D01*
X121485826Y-102341737D01*
X121481885Y-102344601D01*
X121481214Y-102343677D01*
X121422363Y-102370035D01*
X121353280Y-102359585D01*
X121300812Y-102313444D01*
X121282039Y-102257410D01*
X121270894Y-102122905D01*
X121214954Y-101902006D01*
X121123421Y-101693333D01*
X121043123Y-101570427D01*
X120389048Y-102224503D01*
X120364898Y-102142255D01*
X120287943Y-102022511D01*
X120180369Y-101929298D01*
X120050892Y-101870167D01*
X120038117Y-101868330D01*
X120690983Y-101215462D01*
X120664626Y-101194948D01*
X120464230Y-101086500D01*
X120464219Y-101086495D01*
X120248701Y-101012507D01*
X120023935Y-100975000D01*
X119796065Y-100975000D01*
X119571298Y-101012507D01*
X119355780Y-101086495D01*
X119355769Y-101086500D01*
X119155366Y-101194952D01*
X119129015Y-101215461D01*
X119129015Y-101215463D01*
X119781883Y-101868330D01*
X119769108Y-101870167D01*
X119639631Y-101929298D01*
X119532057Y-102022511D01*
X119455102Y-102142255D01*
X119430951Y-102224504D01*
X118776874Y-101570427D01*
X118696579Y-101693330D01*
X118605045Y-101902006D01*
X118549105Y-102122906D01*
X118549103Y-102122914D01*
X118530288Y-102349993D01*
X118530288Y-102350006D01*
X117000500Y-102350006D01*
X117000500Y-92103500D01*
X117020185Y-92036461D01*
X117072989Y-91990706D01*
X117124500Y-91979500D01*
X137975240Y-91979500D01*
X137975381Y-91979528D01*
X137975382Y-91979524D01*
X137999999Y-91979540D01*
X138000000Y-91979541D01*
X138000000Y-91979540D01*
X138016570Y-91979552D01*
X138083596Y-91999282D01*
X138098068Y-92010168D01*
X138172004Y-92074765D01*
X138365236Y-92190215D01*
X138420389Y-92210914D01*
X138476237Y-92252900D01*
X138500520Y-92318414D01*
X138485529Y-92386656D01*
X138436022Y-92435960D01*
X138421593Y-92442162D01*
X138421651Y-92442297D01*
X138416536Y-92444482D01*
X138218321Y-92551146D01*
X138218318Y-92551148D01*
X138042336Y-92691489D01*
X137894236Y-92861003D01*
X137778787Y-93054232D01*
X137778782Y-93054241D01*
X137756691Y-93113102D01*
X137714705Y-93168950D01*
X137649191Y-93193232D01*
X137580949Y-93178240D01*
X137531645Y-93128733D01*
X137528899Y-93123373D01*
X137447829Y-92955027D01*
X137315526Y-92772927D01*
X137315525Y-92772925D01*
X137152823Y-92617366D01*
X136964966Y-92493363D01*
X136757995Y-92404899D01*
X136757982Y-92404895D01*
X136538542Y-92354810D01*
X136538538Y-92354809D01*
X136538537Y-92354809D01*
X136538536Y-92354808D01*
X136538531Y-92354808D01*
X136313674Y-92344710D01*
X136313673Y-92344710D01*
X136313670Y-92344710D01*
X136090613Y-92374925D01*
X136090610Y-92374925D01*
X136090609Y-92374926D01*
X135876534Y-92444483D01*
X135678321Y-92551146D01*
X135678318Y-92551148D01*
X135502336Y-92691489D01*
X135354236Y-92861003D01*
X135238787Y-93054232D01*
X135238782Y-93054241D01*
X135216691Y-93113102D01*
X135174705Y-93168950D01*
X135109191Y-93193232D01*
X135040949Y-93178240D01*
X134991645Y-93128733D01*
X134988899Y-93123373D01*
X134907829Y-92955027D01*
X134775526Y-92772927D01*
X134775525Y-92772925D01*
X134612823Y-92617366D01*
X134424966Y-92493363D01*
X134217995Y-92404899D01*
X134217982Y-92404895D01*
X133998542Y-92354810D01*
X133998538Y-92354809D01*
X133998537Y-92354809D01*
X133998536Y-92354808D01*
X133998531Y-92354808D01*
X133773674Y-92344710D01*
X133773673Y-92344710D01*
X133773670Y-92344710D01*
X133550613Y-92374925D01*
X133550610Y-92374925D01*
X133550609Y-92374926D01*
X133336534Y-92444483D01*
X133138321Y-92551146D01*
X133138318Y-92551148D01*
X132962336Y-92691489D01*
X132814236Y-92861003D01*
X132698787Y-93054232D01*
X132698782Y-93054241D01*
X132676691Y-93113102D01*
X132634705Y-93168950D01*
X132569191Y-93193232D01*
X132500949Y-93178240D01*
X132451645Y-93128733D01*
X132448899Y-93123373D01*
X132367829Y-92955027D01*
X132235526Y-92772927D01*
X132235525Y-92772925D01*
X132072823Y-92617366D01*
X131884966Y-92493363D01*
X131677995Y-92404899D01*
X131677982Y-92404895D01*
X131458542Y-92354810D01*
X131458538Y-92354809D01*
X131458537Y-92354809D01*
X131458536Y-92354808D01*
X131458531Y-92354808D01*
X131233674Y-92344710D01*
X131233673Y-92344710D01*
X131233670Y-92344710D01*
X131010613Y-92374925D01*
X131010610Y-92374925D01*
X131010609Y-92374926D01*
X130796534Y-92444483D01*
X130598321Y-92551146D01*
X130598318Y-92551148D01*
X130422336Y-92691489D01*
X130274236Y-92861003D01*
X130158787Y-93054232D01*
X130158782Y-93054241D01*
X130136691Y-93113102D01*
X130094705Y-93168950D01*
X130029191Y-93193232D01*
X129960949Y-93178240D01*
X129911645Y-93128733D01*
X129908899Y-93123373D01*
X129827829Y-92955027D01*
X129695526Y-92772927D01*
X129695525Y-92772925D01*
X129532823Y-92617366D01*
X129344966Y-92493363D01*
X129137995Y-92404899D01*
X129137982Y-92404895D01*
X128918542Y-92354810D01*
X128918538Y-92354809D01*
X128918537Y-92354809D01*
X128918536Y-92354808D01*
X128918531Y-92354808D01*
X128693674Y-92344710D01*
X128693673Y-92344710D01*
X128693670Y-92344710D01*
X128470613Y-92374925D01*
X128470610Y-92374925D01*
X128470609Y-92374926D01*
X128256534Y-92444483D01*
X128058321Y-92551146D01*
X128058318Y-92551148D01*
X127882336Y-92691489D01*
X127734236Y-92861003D01*
X127618787Y-93054232D01*
X127618782Y-93054241D01*
X127596691Y-93113102D01*
X127554705Y-93168950D01*
X127489191Y-93193232D01*
X127420949Y-93178240D01*
X127371645Y-93128733D01*
X127368899Y-93123373D01*
X127287829Y-92955027D01*
X127155526Y-92772927D01*
X127155525Y-92772925D01*
X126992823Y-92617366D01*
X126804966Y-92493363D01*
X126597995Y-92404899D01*
X126597982Y-92404895D01*
X126378542Y-92354810D01*
X126378538Y-92354809D01*
X126378537Y-92354809D01*
X126378536Y-92354808D01*
X126378531Y-92354808D01*
X126153674Y-92344710D01*
X126153673Y-92344710D01*
X126153670Y-92344710D01*
X125930613Y-92374925D01*
X125930610Y-92374925D01*
X125930609Y-92374926D01*
X125716534Y-92444483D01*
X125518321Y-92551146D01*
X125518318Y-92551148D01*
X125342336Y-92691489D01*
X125194236Y-92861003D01*
X125078787Y-93054232D01*
X125078782Y-93054241D01*
X125056691Y-93113102D01*
X125014705Y-93168950D01*
X124949191Y-93193232D01*
X124880949Y-93178240D01*
X124831645Y-93128733D01*
X124828899Y-93123373D01*
X124747829Y-92955027D01*
X124615526Y-92772927D01*
X124615525Y-92772925D01*
X124452823Y-92617366D01*
X124264966Y-92493363D01*
X124057995Y-92404899D01*
X124057982Y-92404895D01*
X123838542Y-92354810D01*
X123838538Y-92354809D01*
X123838537Y-92354809D01*
X123838536Y-92354808D01*
X123838531Y-92354808D01*
X123613674Y-92344710D01*
X123613673Y-92344710D01*
X123613670Y-92344710D01*
X123390613Y-92374925D01*
X123390610Y-92374925D01*
X123390609Y-92374926D01*
X123176534Y-92444483D01*
X122978321Y-92551146D01*
X122978318Y-92551148D01*
X122802336Y-92691489D01*
X122654236Y-92861003D01*
X122538787Y-93054232D01*
X122538782Y-93054241D01*
X122516691Y-93113102D01*
X122474705Y-93168950D01*
X122409191Y-93193232D01*
X122340949Y-93178240D01*
X122291645Y-93128733D01*
X122288899Y-93123373D01*
X122207829Y-92955027D01*
X122075526Y-92772927D01*
X122075525Y-92772925D01*
X121912823Y-92617366D01*
X121724966Y-92493363D01*
X121517995Y-92404899D01*
X121517982Y-92404895D01*
X121298542Y-92354810D01*
X121298538Y-92354809D01*
X121298537Y-92354809D01*
X121298536Y-92354808D01*
X121298531Y-92354808D01*
X121073674Y-92344710D01*
X121073673Y-92344710D01*
X121073670Y-92344710D01*
X120850613Y-92374925D01*
X120850610Y-92374925D01*
X120850609Y-92374926D01*
X120636534Y-92444483D01*
X120438321Y-92551146D01*
X120438318Y-92551148D01*
X120262336Y-92691489D01*
X120114236Y-92861003D01*
X119998787Y-93054232D01*
X119998782Y-93054241D01*
X119976691Y-93113102D01*
X119934705Y-93168950D01*
X119869191Y-93193232D01*
X119800949Y-93178240D01*
X119751645Y-93128733D01*
X119748899Y-93123373D01*
X119667829Y-92955027D01*
X119535526Y-92772927D01*
X119535525Y-92772925D01*
X119372823Y-92617366D01*
X119184966Y-92493363D01*
X118977995Y-92404899D01*
X118977982Y-92404895D01*
X118758542Y-92354810D01*
X118758538Y-92354809D01*
X118758537Y-92354809D01*
X118758536Y-92354808D01*
X118758531Y-92354808D01*
X118533674Y-92344710D01*
X118533673Y-92344710D01*
X118533670Y-92344710D01*
X118310613Y-92374925D01*
X118310610Y-92374925D01*
X118310609Y-92374926D01*
X118096534Y-92444483D01*
X117898321Y-92551146D01*
X117898318Y-92551148D01*
X117722336Y-92691489D01*
X117574236Y-92861003D01*
X117458787Y-93054232D01*
X117458786Y-93054234D01*
X117379692Y-93264976D01*
X117339500Y-93486450D01*
X117339500Y-94655151D01*
X117354622Y-94823186D01*
X117354623Y-94823192D01*
X117414503Y-95040160D01*
X117414508Y-95040173D01*
X117512167Y-95242966D01*
X117512171Y-95242974D01*
X117644473Y-95425072D01*
X117644474Y-95425074D01*
X117644477Y-95425077D01*
X117644478Y-95425078D01*
X117680093Y-95459129D01*
X117807176Y-95580633D01*
X117995033Y-95704636D01*
X118202004Y-95793100D01*
X118202007Y-95793101D01*
X118202012Y-95793103D01*
X118421463Y-95843191D01*
X118646330Y-95853290D01*
X118869387Y-95823075D01*
X119083464Y-95753517D01*
X119281681Y-95646852D01*
X119457666Y-95506508D01*
X119605765Y-95336996D01*
X119721215Y-95143764D01*
X119743307Y-95084897D01*
X119785292Y-95029051D01*
X119850806Y-95004767D01*
X119919048Y-95019758D01*
X119968353Y-95069264D01*
X119971120Y-95074668D01*
X120052167Y-95242966D01*
X120052171Y-95242974D01*
X120184473Y-95425072D01*
X120184474Y-95425074D01*
X120184477Y-95425077D01*
X120184478Y-95425078D01*
X120220093Y-95459129D01*
X120347176Y-95580633D01*
X120535033Y-95704636D01*
X120742004Y-95793100D01*
X120742008Y-95793101D01*
X120742012Y-95793103D01*
X120742015Y-95793103D01*
X120742019Y-95793105D01*
X120795979Y-95805420D01*
X120881911Y-95825034D01*
X120942889Y-95859141D01*
X120975748Y-95920802D01*
X120970053Y-95990439D01*
X120968880Y-95993376D01*
X120920831Y-96109376D01*
X120920830Y-96109378D01*
X120863853Y-96346702D01*
X120844429Y-96593520D01*
X120819545Y-96658808D01*
X120763314Y-96700279D01*
X120693589Y-96704766D01*
X120661794Y-96692846D01*
X120464432Y-96586040D01*
X120464429Y-96586039D01*
X120464426Y-96586037D01*
X120464420Y-96586035D01*
X120464418Y-96586034D01*
X120248826Y-96512020D01*
X120080188Y-96483880D01*
X120023977Y-96474500D01*
X119796023Y-96474500D01*
X119751053Y-96482004D01*
X119571173Y-96512020D01*
X119355581Y-96586034D01*
X119355567Y-96586040D01*
X119155099Y-96694527D01*
X119155090Y-96694533D01*
X118975212Y-96834538D01*
X118975208Y-96834541D01*
X118820814Y-97002257D01*
X118696137Y-97193091D01*
X118604569Y-97401844D01*
X118548610Y-97622820D01*
X118548608Y-97622831D01*
X118529786Y-97849993D01*
X118529786Y-97850006D01*
X118548608Y-98077168D01*
X118548610Y-98077179D01*
X118604569Y-98298155D01*
X118696137Y-98506908D01*
X118820814Y-98697742D01*
X118820817Y-98697745D01*
X118941592Y-98828942D01*
X118975208Y-98865458D01*
X118975212Y-98865461D01*
X119013743Y-98895451D01*
X119155094Y-99005469D01*
X119155096Y-99005470D01*
X119155099Y-99005472D01*
X119271646Y-99068543D01*
X119355574Y-99113963D01*
X119425469Y-99137958D01*
X119571173Y-99187979D01*
X119571175Y-99187979D01*
X119571177Y-99187980D01*
X119796023Y-99225500D01*
X119796024Y-99225500D01*
X120023975Y-99225500D01*
X120023977Y-99225500D01*
X120132553Y-99207381D01*
X120201914Y-99215762D01*
X120240641Y-99242009D01*
X120619269Y-99620637D01*
X120631050Y-99634269D01*
X120645387Y-99653527D01*
X120645388Y-99653528D01*
X120645389Y-99653529D01*
X120652252Y-99659288D01*
X120683336Y-99685371D01*
X120691309Y-99692678D01*
X120695216Y-99696585D01*
X120695222Y-99696590D01*
X120719536Y-99715815D01*
X120722317Y-99718079D01*
X120749955Y-99741270D01*
X120779788Y-99766304D01*
X120785817Y-99770269D01*
X120785784Y-99770318D01*
X120792146Y-99774371D01*
X120792178Y-99774320D01*
X120798318Y-99778107D01*
X120798322Y-99778110D01*
X120836976Y-99796134D01*
X120866319Y-99809818D01*
X120869565Y-99811390D01*
X120936561Y-99845037D01*
X120943356Y-99847510D01*
X120943335Y-99847566D01*
X120950456Y-99850042D01*
X120950475Y-99849985D01*
X120957318Y-99852252D01*
X120957326Y-99852256D01*
X121030894Y-99867446D01*
X121034227Y-99868185D01*
X121107278Y-99885499D01*
X121107280Y-99885499D01*
X121107284Y-99885500D01*
X121114452Y-99886338D01*
X121114445Y-99886397D01*
X121121943Y-99887163D01*
X121121949Y-99887104D01*
X121129138Y-99887733D01*
X121129142Y-99887732D01*
X121129143Y-99887733D01*
X121204129Y-99885551D01*
X121207736Y-99885499D01*
X123801296Y-99885499D01*
X123819266Y-99886808D01*
X123843024Y-99890288D01*
X123892370Y-99885970D01*
X123903177Y-99885499D01*
X123908705Y-99885499D01*
X123908710Y-99885499D01*
X123939557Y-99881892D01*
X123943031Y-99881538D01*
X124017798Y-99874998D01*
X124017806Y-99874995D01*
X124024867Y-99873538D01*
X124024879Y-99873597D01*
X124032244Y-99871964D01*
X124032230Y-99871905D01*
X124039250Y-99870240D01*
X124039256Y-99870240D01*
X124109780Y-99844571D01*
X124113118Y-99843411D01*
X124184335Y-99819813D01*
X124184343Y-99819807D01*
X124190883Y-99816759D01*
X124190909Y-99816815D01*
X124197691Y-99813531D01*
X124197664Y-99813477D01*
X124204114Y-99810237D01*
X124204118Y-99810236D01*
X124266838Y-99768983D01*
X124269733Y-99767139D01*
X124333657Y-99727711D01*
X124333663Y-99727704D01*
X124339326Y-99723228D01*
X124339363Y-99723276D01*
X124345205Y-99718517D01*
X124345165Y-99718470D01*
X124350687Y-99713834D01*
X124350697Y-99713829D01*
X124402186Y-99659252D01*
X124404633Y-99656733D01*
X125685638Y-98375727D01*
X125699267Y-98363950D01*
X125718530Y-98349610D01*
X125729230Y-98336857D01*
X125750366Y-98311669D01*
X125757683Y-98303684D01*
X125758992Y-98302373D01*
X125761591Y-98299776D01*
X125780853Y-98275413D01*
X125783076Y-98272686D01*
X125820301Y-98228324D01*
X125831302Y-98215214D01*
X125831304Y-98215209D01*
X125835274Y-98209175D01*
X125835325Y-98209208D01*
X125839372Y-98202856D01*
X125839320Y-98202824D01*
X125843108Y-98196680D01*
X125843111Y-98196677D01*
X125874821Y-98128673D01*
X125876362Y-98125488D01*
X125910040Y-98058433D01*
X125910043Y-98058417D01*
X125912509Y-98051646D01*
X125912567Y-98051667D01*
X125915043Y-98044546D01*
X125914986Y-98044527D01*
X125917255Y-98037678D01*
X125917255Y-98037676D01*
X125917257Y-98037673D01*
X125932435Y-97964157D01*
X125933200Y-97960708D01*
X125950500Y-97887721D01*
X125950500Y-97887719D01*
X125950501Y-97887715D01*
X125951339Y-97880548D01*
X125951398Y-97880554D01*
X125952164Y-97873054D01*
X125952105Y-97873049D01*
X125952734Y-97865859D01*
X125950552Y-97790869D01*
X125950500Y-97787262D01*
X125950500Y-96263705D01*
X125951809Y-96245735D01*
X125952129Y-96243547D01*
X125955289Y-96221977D01*
X125953199Y-96198091D01*
X125950972Y-96172630D01*
X125950500Y-96161822D01*
X125950500Y-96156296D01*
X125950500Y-96156291D01*
X125946901Y-96125509D01*
X125946536Y-96121929D01*
X125939999Y-96047201D01*
X125938539Y-96040129D01*
X125938597Y-96040116D01*
X125936965Y-96032757D01*
X125936906Y-96032772D01*
X125935241Y-96025749D01*
X125935241Y-96025745D01*
X125929484Y-96009929D01*
X125925052Y-95940203D01*
X125959021Y-95879147D01*
X126020607Y-95846148D01*
X126051562Y-95843644D01*
X126266330Y-95853290D01*
X126489387Y-95823075D01*
X126703464Y-95753517D01*
X126901681Y-95646852D01*
X127077666Y-95506508D01*
X127225765Y-95336996D01*
X127341215Y-95143764D01*
X127363307Y-95084897D01*
X127405292Y-95029051D01*
X127470806Y-95004767D01*
X127539048Y-95019758D01*
X127588353Y-95069264D01*
X127591120Y-95074668D01*
X127672167Y-95242966D01*
X127672171Y-95242974D01*
X127804473Y-95425072D01*
X127804474Y-95425074D01*
X127804477Y-95425077D01*
X127804478Y-95425078D01*
X127840093Y-95459129D01*
X127967176Y-95580633D01*
X128155033Y-95704636D01*
X128362004Y-95793100D01*
X128362007Y-95793101D01*
X128362012Y-95793103D01*
X128581463Y-95843191D01*
X128806330Y-95853290D01*
X129029387Y-95823075D01*
X129243464Y-95753517D01*
X129441681Y-95646852D01*
X129617666Y-95506508D01*
X129765765Y-95336996D01*
X129881215Y-95143764D01*
X129903307Y-95084897D01*
X129945292Y-95029051D01*
X130010806Y-95004767D01*
X130079048Y-95019758D01*
X130128353Y-95069264D01*
X130131120Y-95074668D01*
X130212167Y-95242966D01*
X130212171Y-95242974D01*
X130344473Y-95425072D01*
X130344474Y-95425074D01*
X130344477Y-95425077D01*
X130344478Y-95425078D01*
X130380093Y-95459129D01*
X130507176Y-95580633D01*
X130695033Y-95704636D01*
X130902004Y-95793100D01*
X130902007Y-95793101D01*
X130902012Y-95793103D01*
X131121463Y-95843191D01*
X131346330Y-95853290D01*
X131569387Y-95823075D01*
X131783464Y-95753517D01*
X131981681Y-95646852D01*
X132157666Y-95506508D01*
X132305765Y-95336996D01*
X132421215Y-95143764D01*
X132443307Y-95084897D01*
X132485292Y-95029051D01*
X132550806Y-95004767D01*
X132619048Y-95019758D01*
X132668353Y-95069264D01*
X132671120Y-95074668D01*
X132752167Y-95242966D01*
X132752171Y-95242974D01*
X132884473Y-95425072D01*
X132884474Y-95425074D01*
X132884477Y-95425077D01*
X132884478Y-95425078D01*
X132920093Y-95459129D01*
X133047176Y-95580633D01*
X133235033Y-95704636D01*
X133442004Y-95793100D01*
X133442007Y-95793101D01*
X133442012Y-95793103D01*
X133661463Y-95843191D01*
X133886330Y-95853290D01*
X134109387Y-95823075D01*
X134323464Y-95753517D01*
X134521681Y-95646852D01*
X134697666Y-95506508D01*
X134845765Y-95336996D01*
X134961215Y-95143764D01*
X134983307Y-95084897D01*
X135025292Y-95029051D01*
X135090806Y-95004767D01*
X135159048Y-95019758D01*
X135208353Y-95069264D01*
X135211120Y-95074668D01*
X135292167Y-95242966D01*
X135292171Y-95242974D01*
X135424473Y-95425072D01*
X135424475Y-95425074D01*
X135424478Y-95425078D01*
X135587175Y-95580632D01*
X135587177Y-95580633D01*
X135591191Y-95584471D01*
X135626044Y-95645027D01*
X135629500Y-95674098D01*
X135629500Y-101816294D01*
X135628191Y-101834263D01*
X135624710Y-101858025D01*
X135629028Y-101907368D01*
X135629500Y-101918176D01*
X135629500Y-101923711D01*
X135633098Y-101954495D01*
X135633464Y-101958083D01*
X135640000Y-102032791D01*
X135641461Y-102039867D01*
X135641403Y-102039878D01*
X135643034Y-102047237D01*
X135643092Y-102047224D01*
X135644757Y-102054249D01*
X135644758Y-102054254D01*
X135644759Y-102054255D01*
X135668989Y-102120830D01*
X135670400Y-102124705D01*
X135671582Y-102128107D01*
X135695182Y-102199326D01*
X135698236Y-102205874D01*
X135698182Y-102205898D01*
X135701470Y-102212688D01*
X135701521Y-102212663D01*
X135704761Y-102219114D01*
X135745979Y-102281784D01*
X135747889Y-102284782D01*
X135765569Y-102313444D01*
X135787289Y-102348658D01*
X135791766Y-102354319D01*
X135791719Y-102354356D01*
X135796482Y-102360202D01*
X135796528Y-102360164D01*
X135801173Y-102365699D01*
X135855708Y-102417150D01*
X135858296Y-102419664D01*
X141424267Y-107985634D01*
X141436048Y-107999266D01*
X141436597Y-108000003D01*
X141450390Y-108018530D01*
X141488343Y-108050376D01*
X141496319Y-108057686D01*
X141500219Y-108061587D01*
X141524544Y-108080821D01*
X141527340Y-108083099D01*
X141555062Y-108106360D01*
X141584786Y-108131302D01*
X141584794Y-108131306D01*
X141590824Y-108135273D01*
X141590790Y-108135323D01*
X141597137Y-108139366D01*
X141597169Y-108139316D01*
X141603321Y-108143110D01*
X141603322Y-108143110D01*
X141603323Y-108143111D01*
X141633644Y-108157250D01*
X141671294Y-108174806D01*
X141674510Y-108176362D01*
X141741567Y-108210040D01*
X141741576Y-108210042D01*
X141748355Y-108212510D01*
X141748334Y-108212567D01*
X141755451Y-108215040D01*
X141755470Y-108214984D01*
X141762324Y-108217255D01*
X141762325Y-108217255D01*
X141762327Y-108217256D01*
X141835848Y-108232436D01*
X141839209Y-108233181D01*
X141912279Y-108250500D01*
X141912285Y-108250500D01*
X141919452Y-108251338D01*
X141919445Y-108251397D01*
X141926946Y-108252163D01*
X141926952Y-108252104D01*
X141934141Y-108252733D01*
X141934143Y-108252732D01*
X141934144Y-108252733D01*
X142009111Y-108250552D01*
X142012717Y-108250500D01*
X144293337Y-108250500D01*
X144360376Y-108270185D01*
X144394912Y-108303377D01*
X144419954Y-108339141D01*
X144580858Y-108500045D01*
X144580861Y-108500047D01*
X144767266Y-108630568D01*
X144973504Y-108726739D01*
X145193308Y-108785635D01*
X145355230Y-108799801D01*
X145419998Y-108805468D01*
X145420000Y-108805468D01*
X145420002Y-108805468D01*
X145476673Y-108800509D01*
X145646692Y-108785635D01*
X145866496Y-108726739D01*
X146072734Y-108630568D01*
X146259139Y-108500047D01*
X146420047Y-108339139D01*
X146550568Y-108152734D01*
X146646739Y-107946496D01*
X146705635Y-107726692D01*
X146725468Y-107500001D01*
X154274532Y-107500001D01*
X154294364Y-107726686D01*
X154294366Y-107726697D01*
X154353258Y-107946488D01*
X154353261Y-107946497D01*
X154449431Y-108152732D01*
X154449432Y-108152734D01*
X154579954Y-108339141D01*
X154740858Y-108500045D01*
X154740861Y-108500047D01*
X154927266Y-108630568D01*
X155133504Y-108726739D01*
X155353308Y-108785635D01*
X155515230Y-108799801D01*
X155579998Y-108805468D01*
X155580000Y-108805468D01*
X155580002Y-108805468D01*
X155636673Y-108800509D01*
X155806692Y-108785635D01*
X156026496Y-108726739D01*
X156232734Y-108630568D01*
X156419139Y-108500047D01*
X156580047Y-108339139D01*
X156710568Y-108152734D01*
X156806739Y-107946496D01*
X156865635Y-107726692D01*
X156885468Y-107500000D01*
X156865635Y-107273308D01*
X156806739Y-107053504D01*
X156710568Y-106847266D01*
X156580047Y-106660861D01*
X156419139Y-106499953D01*
X156414373Y-106496615D01*
X156383375Y-106474910D01*
X156339751Y-106420332D01*
X156330500Y-106373336D01*
X156330500Y-103251662D01*
X156350185Y-103184623D01*
X156383379Y-103150086D01*
X156419140Y-103125046D01*
X156580045Y-102964141D01*
X156580047Y-102964139D01*
X156710568Y-102777734D01*
X156806739Y-102571496D01*
X156865635Y-102351692D01*
X156885468Y-102125000D01*
X156885285Y-102122914D01*
X156880118Y-102063853D01*
X156870869Y-101958137D01*
X156884635Y-101889639D01*
X156906713Y-101859653D01*
X158985638Y-99780727D01*
X158999267Y-99768950D01*
X159001779Y-99767080D01*
X159018530Y-99754610D01*
X159029230Y-99741857D01*
X159050366Y-99716669D01*
X159057683Y-99708684D01*
X159059218Y-99707149D01*
X159061591Y-99704776D01*
X159080853Y-99680413D01*
X159083076Y-99677686D01*
X159103348Y-99653527D01*
X159131302Y-99620214D01*
X159131304Y-99620209D01*
X159135274Y-99614175D01*
X159135325Y-99614208D01*
X159139369Y-99607860D01*
X159139317Y-99607828D01*
X159143106Y-99601682D01*
X159143111Y-99601677D01*
X159174832Y-99533647D01*
X159176358Y-99530496D01*
X159210040Y-99463433D01*
X159210041Y-99463428D01*
X159212508Y-99456650D01*
X159212566Y-99456671D01*
X159215043Y-99449544D01*
X159214986Y-99449526D01*
X159217256Y-99442676D01*
X159222329Y-99418107D01*
X159232439Y-99369139D01*
X159233187Y-99365762D01*
X159250500Y-99292721D01*
X159250500Y-99292717D01*
X159250501Y-99292713D01*
X159251339Y-99285548D01*
X159251398Y-99285554D01*
X159252164Y-99278054D01*
X159252105Y-99278049D01*
X159252734Y-99270859D01*
X159250552Y-99195869D01*
X159250500Y-99192262D01*
X159250500Y-98515005D01*
X161394726Y-98515005D01*
X161414476Y-98828942D01*
X161414477Y-98828949D01*
X161473424Y-99137958D01*
X161570632Y-99437132D01*
X161570634Y-99437137D01*
X161704569Y-99721761D01*
X161704572Y-99721767D01*
X161873126Y-99987367D01*
X161873129Y-99987371D01*
X161963955Y-100097160D01*
X163299669Y-98761446D01*
X163299669Y-99468551D01*
X162314640Y-100453579D01*
X162314641Y-100453581D01*
X162557441Y-100629985D01*
X162557459Y-100629996D01*
X162833116Y-100781540D01*
X162833124Y-100781544D01*
X163125595Y-100897340D01*
X163430289Y-100975573D01*
X163430298Y-100975575D01*
X163742370Y-101014999D01*
X163742384Y-101015000D01*
X164056954Y-101015000D01*
X164056967Y-101014999D01*
X164369039Y-100975575D01*
X164369048Y-100975573D01*
X164673742Y-100897340D01*
X164966213Y-100781544D01*
X164966221Y-100781540D01*
X165241878Y-100629996D01*
X165241888Y-100629990D01*
X165484695Y-100453579D01*
X165484696Y-100453579D01*
X164499669Y-99468552D01*
X164499669Y-98761448D01*
X165835381Y-100097160D01*
X165926213Y-99987364D01*
X166094765Y-99721767D01*
X166094768Y-99721761D01*
X166228703Y-99437137D01*
X166228705Y-99437132D01*
X166325913Y-99137958D01*
X166384860Y-98828949D01*
X166384861Y-98828942D01*
X166404612Y-98515005D01*
X166404612Y-98514994D01*
X166384861Y-98201057D01*
X166384860Y-98201050D01*
X166325913Y-97892041D01*
X166228705Y-97592867D01*
X166228703Y-97592862D01*
X166094768Y-97308238D01*
X166094765Y-97308232D01*
X165926211Y-97042632D01*
X165926208Y-97042628D01*
X165835381Y-96932838D01*
X164499669Y-98268550D01*
X164499669Y-97561447D01*
X165484696Y-96576419D01*
X165484695Y-96576417D01*
X165241896Y-96400014D01*
X165241878Y-96400003D01*
X164966221Y-96248459D01*
X164966213Y-96248455D01*
X164673742Y-96132659D01*
X164369048Y-96054426D01*
X164369039Y-96054424D01*
X164056967Y-96015000D01*
X163742370Y-96015000D01*
X163430298Y-96054424D01*
X163430289Y-96054426D01*
X163125595Y-96132659D01*
X162833124Y-96248455D01*
X162833116Y-96248459D01*
X162557456Y-96400004D01*
X162557451Y-96400007D01*
X162314641Y-96576418D01*
X162314640Y-96576419D01*
X163299669Y-97561447D01*
X163299669Y-98268552D01*
X161963955Y-96932838D01*
X161963954Y-96932838D01*
X161873128Y-97042629D01*
X161873126Y-97042632D01*
X161704572Y-97308232D01*
X161704569Y-97308238D01*
X161570634Y-97592862D01*
X161570632Y-97592867D01*
X161473424Y-97892041D01*
X161414477Y-98201050D01*
X161414476Y-98201057D01*
X161394726Y-98514994D01*
X161394726Y-98515005D01*
X159250500Y-98515005D01*
X159250500Y-88362229D01*
X159270185Y-88295190D01*
X159286819Y-88274548D01*
X160494548Y-87066819D01*
X160555871Y-87033334D01*
X160582229Y-87030500D01*
X160723006Y-87030500D01*
X160790045Y-87050185D01*
X160824581Y-87083377D01*
X160849623Y-87119141D01*
X161010528Y-87280046D01*
X161072480Y-87323425D01*
X161116105Y-87378002D01*
X161123299Y-87447500D01*
X161091776Y-87509855D01*
X161072480Y-87526575D01*
X161010528Y-87569953D01*
X160849623Y-87730858D01*
X160719101Y-87917265D01*
X160719100Y-87917267D01*
X160622930Y-88123502D01*
X160622927Y-88123511D01*
X160564035Y-88343302D01*
X160564033Y-88343313D01*
X160544201Y-88569998D01*
X160544201Y-88570001D01*
X160564033Y-88796686D01*
X160564035Y-88796697D01*
X160622927Y-89016488D01*
X160622930Y-89016497D01*
X160719100Y-89222732D01*
X160719101Y-89222734D01*
X160849623Y-89409141D01*
X161010527Y-89570045D01*
X161076378Y-89616154D01*
X161120003Y-89670730D01*
X161128783Y-89728536D01*
X161124195Y-89780974D01*
X161717135Y-90373913D01*
X161707354Y-90375320D01*
X161576569Y-90435048D01*
X161467908Y-90529202D01*
X161390176Y-90650156D01*
X161366592Y-90730475D01*
X160770643Y-90134526D01*
X160770642Y-90134526D01*
X160719537Y-90207512D01*
X160719535Y-90207516D01*
X160623403Y-90413673D01*
X160623399Y-90413682D01*
X160564529Y-90633389D01*
X160564527Y-90633400D01*
X160544703Y-90859997D01*
X160544703Y-90860002D01*
X160564527Y-91086599D01*
X160564529Y-91086610D01*
X160623399Y-91306317D01*
X160623404Y-91306331D01*
X160719532Y-91512478D01*
X160770643Y-91585472D01*
X161366592Y-90989523D01*
X161390176Y-91069844D01*
X161467908Y-91190798D01*
X161576569Y-91284952D01*
X161707354Y-91344680D01*
X161717135Y-91346086D01*
X161124195Y-91939025D01*
X161197182Y-91990132D01*
X161197190Y-91990136D01*
X161403337Y-92086264D01*
X161403351Y-92086269D01*
X161623058Y-92145139D01*
X161623069Y-92145141D01*
X161849667Y-92164966D01*
X161849671Y-92164966D01*
X162076268Y-92145141D01*
X162076279Y-92145139D01*
X162295986Y-92086269D01*
X162296000Y-92086264D01*
X162502147Y-91990136D01*
X162575140Y-91939024D01*
X161982202Y-91346086D01*
X161991984Y-91344680D01*
X162122769Y-91284952D01*
X162231430Y-91190798D01*
X162309162Y-91069844D01*
X162332745Y-90989523D01*
X162928693Y-91585471D01*
X162979805Y-91512478D01*
X163075933Y-91306331D01*
X163075938Y-91306317D01*
X163134808Y-91086610D01*
X163134810Y-91086599D01*
X163141287Y-91012560D01*
X163166738Y-90947491D01*
X163223329Y-90906512D01*
X163293091Y-90902633D01*
X163317216Y-90910982D01*
X163383173Y-90941739D01*
X163602977Y-91000635D01*
X163741818Y-91012782D01*
X163829667Y-91020468D01*
X163829669Y-91020468D01*
X163829671Y-91020468D01*
X163886342Y-91015509D01*
X164056361Y-91000635D01*
X164276165Y-90941739D01*
X164341634Y-90911209D01*
X164410710Y-90900717D01*
X164474494Y-90929236D01*
X164512735Y-90987712D01*
X164517567Y-91012782D01*
X164524033Y-91086687D01*
X164524035Y-91086697D01*
X164582927Y-91306488D01*
X164582930Y-91306497D01*
X164679100Y-91512732D01*
X164679101Y-91512734D01*
X164809623Y-91699141D01*
X164970527Y-91860045D01*
X164990843Y-91874270D01*
X165156935Y-91990568D01*
X165363173Y-92086739D01*
X165363178Y-92086740D01*
X165363180Y-92086741D01*
X165416084Y-92100916D01*
X165582977Y-92145635D01*
X165744899Y-92159801D01*
X165809667Y-92165468D01*
X165809669Y-92165468D01*
X165809671Y-92165468D01*
X165866342Y-92160509D01*
X166036361Y-92145635D01*
X166256165Y-92086739D01*
X166462403Y-91990568D01*
X166648808Y-91860047D01*
X166809716Y-91699139D01*
X166940237Y-91512734D01*
X167036408Y-91306496D01*
X167095304Y-91086692D01*
X167115137Y-90860000D01*
X167112369Y-90828367D01*
X167102455Y-90715047D01*
X167095304Y-90633308D01*
X167036408Y-90413504D01*
X166940237Y-90207266D01*
X166842508Y-90067693D01*
X166809714Y-90020858D01*
X166648811Y-89859955D01*
X166631807Y-89848049D01*
X166586857Y-89816574D01*
X166543232Y-89761999D01*
X166536038Y-89692501D01*
X166567560Y-89630146D01*
X166586855Y-89613426D01*
X166648808Y-89570047D01*
X166809716Y-89409139D01*
X166940237Y-89222734D01*
X167036408Y-89016496D01*
X167095304Y-88796692D01*
X167115137Y-88570000D01*
X167112369Y-88538367D01*
X167095304Y-88343313D01*
X167095304Y-88343308D01*
X167036408Y-88123504D01*
X166940237Y-87917266D01*
X166809716Y-87730861D01*
X166809714Y-87730858D01*
X166648811Y-87569955D01*
X166587945Y-87527337D01*
X166586857Y-87526574D01*
X166543232Y-87471999D01*
X166536038Y-87402501D01*
X166567560Y-87340146D01*
X166586857Y-87323425D01*
X166648808Y-87280047D01*
X166714478Y-87214377D01*
X166809710Y-87119146D01*
X166809714Y-87119141D01*
X166809716Y-87119139D01*
X166844370Y-87069645D01*
X166898944Y-87026021D01*
X166910804Y-87022401D01*
X166910762Y-87022275D01*
X166916080Y-87020512D01*
X166919436Y-87019767D01*
X166920878Y-87019328D01*
X166924715Y-87018536D01*
X166924727Y-87018595D01*
X166932078Y-87016965D01*
X166932064Y-87016906D01*
X166939084Y-87015241D01*
X166939090Y-87015241D01*
X167009614Y-86989572D01*
X167012952Y-86988412D01*
X167084169Y-86964814D01*
X167084177Y-86964808D01*
X167090717Y-86961760D01*
X167090743Y-86961816D01*
X167097525Y-86958532D01*
X167097498Y-86958478D01*
X167103948Y-86955238D01*
X167103952Y-86955237D01*
X167166672Y-86913984D01*
X167169567Y-86912140D01*
X167233491Y-86872712D01*
X167233497Y-86872705D01*
X167239160Y-86868229D01*
X167239198Y-86868277D01*
X167245035Y-86863522D01*
X167244996Y-86863475D01*
X167250526Y-86858833D01*
X167250531Y-86858830D01*
X167302019Y-86804254D01*
X167304466Y-86801735D01*
X168485642Y-85620559D01*
X168499271Y-85608782D01*
X168518530Y-85594445D01*
X168537708Y-85571589D01*
X168550360Y-85556511D01*
X168557677Y-85548526D01*
X168561587Y-85544616D01*
X168561587Y-85544615D01*
X168561591Y-85544612D01*
X168580833Y-85520273D01*
X168583069Y-85517528D01*
X168631302Y-85460049D01*
X168631307Y-85460038D01*
X168635274Y-85454010D01*
X168635325Y-85454043D01*
X168639372Y-85447691D01*
X168639320Y-85447659D01*
X168643108Y-85441515D01*
X168643111Y-85441512D01*
X168674821Y-85373508D01*
X168676362Y-85370323D01*
X168710040Y-85303268D01*
X168710043Y-85303252D01*
X168712509Y-85296481D01*
X168712567Y-85296502D01*
X168715043Y-85289381D01*
X168714986Y-85289362D01*
X168717256Y-85282512D01*
X168717257Y-85282508D01*
X168732433Y-85209003D01*
X168733194Y-85205569D01*
X168750500Y-85132556D01*
X168750500Y-85132554D01*
X168750501Y-85132550D01*
X168751339Y-85125383D01*
X168751397Y-85125389D01*
X168753063Y-85109095D01*
X168754063Y-85104253D01*
X168756303Y-85100044D01*
X168751552Y-85070097D01*
X168750552Y-85035724D01*
X168750500Y-85032118D01*
X168750500Y-81063705D01*
X168751809Y-81045736D01*
X168752809Y-81038908D01*
X168762592Y-81017631D01*
X168756523Y-81008187D01*
X168751972Y-80984059D01*
X168750972Y-80972629D01*
X168750500Y-80961822D01*
X168750500Y-80956296D01*
X168750500Y-80956291D01*
X168746901Y-80925509D01*
X168746536Y-80921929D01*
X168739999Y-80847201D01*
X168738539Y-80840129D01*
X168738597Y-80840116D01*
X168736965Y-80832757D01*
X168736906Y-80832772D01*
X168735241Y-80825751D01*
X168735241Y-80825745D01*
X168709569Y-80755212D01*
X168708421Y-80751909D01*
X168684814Y-80680666D01*
X168684810Y-80680659D01*
X168681760Y-80674118D01*
X168681815Y-80674091D01*
X168678533Y-80667313D01*
X168678480Y-80667340D01*
X168675235Y-80660880D01*
X168634025Y-80598223D01*
X168632086Y-80595181D01*
X168592710Y-80531342D01*
X168588234Y-80525682D01*
X168588281Y-80525644D01*
X168583519Y-80519799D01*
X168583474Y-80519838D01*
X168578831Y-80514305D01*
X168524272Y-80462831D01*
X168521685Y-80460318D01*
X165575729Y-77514361D01*
X165563949Y-77500730D01*
X165549610Y-77481470D01*
X165511651Y-77449619D01*
X165503686Y-77442318D01*
X165499780Y-77438411D01*
X165475443Y-77419168D01*
X165472647Y-77416890D01*
X165415214Y-77368698D01*
X165409180Y-77364729D01*
X165409212Y-77364680D01*
X165402853Y-77360628D01*
X165402822Y-77360679D01*
X165396680Y-77356891D01*
X165396678Y-77356890D01*
X165396677Y-77356889D01*
X165328688Y-77325184D01*
X165325447Y-77323615D01*
X165284089Y-77302845D01*
X165258433Y-77289960D01*
X165258431Y-77289959D01*
X165258430Y-77289959D01*
X165251645Y-77287489D01*
X165251665Y-77287433D01*
X165244549Y-77284959D01*
X165244531Y-77285015D01*
X165237674Y-77282743D01*
X165164210Y-77267573D01*
X165160693Y-77266793D01*
X165087718Y-77249499D01*
X165080547Y-77248661D01*
X165080553Y-77248601D01*
X165073055Y-77247835D01*
X165073050Y-77247895D01*
X165065860Y-77247265D01*
X164990870Y-77249448D01*
X164987263Y-77249500D01*
X160362230Y-77249500D01*
X160295191Y-77229815D01*
X160274549Y-77213181D01*
X159286819Y-76225451D01*
X159253334Y-76164128D01*
X159250500Y-76137770D01*
X159250500Y-73765000D01*
X161410453Y-73765000D01*
X161414476Y-73828943D01*
X161414477Y-73828947D01*
X161473425Y-74137959D01*
X161570632Y-74437132D01*
X161570634Y-74437137D01*
X161704569Y-74721761D01*
X161704572Y-74721767D01*
X161873124Y-74987364D01*
X162073645Y-75229752D01*
X162302956Y-75445090D01*
X162302966Y-75445098D01*
X162557441Y-75629985D01*
X162557459Y-75629996D01*
X162833116Y-75781540D01*
X162833124Y-75781544D01*
X163125595Y-75897340D01*
X163430289Y-75975573D01*
X163430298Y-75975575D01*
X163649668Y-76003287D01*
X163649669Y-76003286D01*
X163649669Y-75060881D01*
X163743038Y-75099556D01*
X163899669Y-75120177D01*
X164056300Y-75099556D01*
X164149669Y-75060881D01*
X164149669Y-76003287D01*
X164369039Y-75975575D01*
X164369048Y-75975573D01*
X164673742Y-75897340D01*
X164966213Y-75781544D01*
X164966221Y-75781540D01*
X165241878Y-75629996D01*
X165241896Y-75629985D01*
X165496371Y-75445098D01*
X165496381Y-75445090D01*
X165725692Y-75229752D01*
X165926213Y-74987364D01*
X166094765Y-74721767D01*
X166094768Y-74721761D01*
X166228703Y-74437137D01*
X166228705Y-74437132D01*
X166325912Y-74137959D01*
X166384860Y-73828947D01*
X166384861Y-73828943D01*
X166388884Y-73765000D01*
X164499669Y-73765000D01*
X164499669Y-73265000D01*
X166388884Y-73265000D01*
X166388884Y-73264999D01*
X166384861Y-73201056D01*
X166384860Y-73201052D01*
X166325912Y-72892040D01*
X166228705Y-72592867D01*
X166228703Y-72592862D01*
X166094768Y-72308238D01*
X166094765Y-72308232D01*
X165926213Y-72042635D01*
X165725692Y-71800247D01*
X165496381Y-71584909D01*
X165496371Y-71584901D01*
X165241896Y-71400014D01*
X165241878Y-71400003D01*
X164966221Y-71248459D01*
X164966213Y-71248455D01*
X164673742Y-71132659D01*
X164369048Y-71054426D01*
X164369039Y-71054424D01*
X164149669Y-71026711D01*
X164149669Y-71969118D01*
X164056300Y-71930444D01*
X163899669Y-71909823D01*
X163743038Y-71930444D01*
X163649669Y-71969118D01*
X163649669Y-71026712D01*
X163649668Y-71026711D01*
X163430298Y-71054424D01*
X163430289Y-71054426D01*
X163125595Y-71132659D01*
X162833124Y-71248455D01*
X162833116Y-71248459D01*
X162557459Y-71400003D01*
X162557441Y-71400014D01*
X162302966Y-71584901D01*
X162302956Y-71584909D01*
X162073645Y-71800247D01*
X161873124Y-72042635D01*
X161704572Y-72308232D01*
X161704569Y-72308238D01*
X161570634Y-72592862D01*
X161570632Y-72592867D01*
X161473425Y-72892040D01*
X161414477Y-73201052D01*
X161414476Y-73201056D01*
X161410453Y-73264999D01*
X161410454Y-73265000D01*
X163299669Y-73265000D01*
X163299669Y-73765000D01*
X161410453Y-73765000D01*
X159250500Y-73765000D01*
X159250500Y-67483705D01*
X159251809Y-67465735D01*
X159252129Y-67463547D01*
X159255289Y-67441977D01*
X159250972Y-67392630D01*
X159250500Y-67381822D01*
X159250500Y-67376296D01*
X159250500Y-67376291D01*
X159246901Y-67345509D01*
X159246536Y-67341929D01*
X159239999Y-67267201D01*
X159238539Y-67260129D01*
X159238597Y-67260116D01*
X159236965Y-67252757D01*
X159236906Y-67252772D01*
X159235241Y-67245751D01*
X159235241Y-67245745D01*
X159209569Y-67175212D01*
X159208421Y-67171909D01*
X159184814Y-67100666D01*
X159184810Y-67100659D01*
X159181760Y-67094118D01*
X159181815Y-67094091D01*
X159178533Y-67087313D01*
X159178480Y-67087340D01*
X159175235Y-67080880D01*
X159134025Y-67018223D01*
X159132086Y-67015181D01*
X159092710Y-66951342D01*
X159088234Y-66945682D01*
X159088281Y-66945644D01*
X159083519Y-66939799D01*
X159083474Y-66939838D01*
X159078831Y-66934305D01*
X159024272Y-66882831D01*
X159021685Y-66880318D01*
X156906716Y-64765348D01*
X156873231Y-64704025D01*
X156870869Y-64666863D01*
X156885468Y-64500000D01*
X156865635Y-64273308D01*
X156806739Y-64053504D01*
X156710568Y-63847266D01*
X156580047Y-63660861D01*
X156580045Y-63660858D01*
X156419141Y-63499954D01*
X156232734Y-63369432D01*
X156232732Y-63369431D01*
X156026497Y-63273261D01*
X156026488Y-63273258D01*
X155806697Y-63214366D01*
X155806693Y-63214365D01*
X155806692Y-63214365D01*
X155806691Y-63214364D01*
X155806686Y-63214364D01*
X155580002Y-63194532D01*
X155579998Y-63194532D01*
X155353313Y-63214364D01*
X155353302Y-63214366D01*
X155133511Y-63273258D01*
X155133502Y-63273261D01*
X154927267Y-63369431D01*
X154927265Y-63369432D01*
X154740858Y-63499954D01*
X154579954Y-63660858D01*
X154449432Y-63847265D01*
X154449431Y-63847267D01*
X154353261Y-64053502D01*
X154353258Y-64053511D01*
X154294366Y-64273302D01*
X154294364Y-64273313D01*
X154274532Y-64499998D01*
X154274532Y-64500001D01*
X154294364Y-64726686D01*
X154294366Y-64726697D01*
X154353258Y-64946488D01*
X154353261Y-64946497D01*
X154449431Y-65152732D01*
X154449432Y-65152734D01*
X154579954Y-65339141D01*
X154740858Y-65500045D01*
X154740861Y-65500047D01*
X154927266Y-65630568D01*
X155133504Y-65726739D01*
X155353308Y-65785635D01*
X155515230Y-65799801D01*
X155579998Y-65805468D01*
X155580000Y-65805468D01*
X155580001Y-65805468D01*
X155600062Y-65803712D01*
X155746861Y-65790869D01*
X155815359Y-65804635D01*
X155845348Y-65826716D01*
X157713181Y-67694548D01*
X157746666Y-67755871D01*
X157749500Y-67782229D01*
X157749500Y-76436294D01*
X157748191Y-76454263D01*
X157744710Y-76478025D01*
X157749028Y-76527368D01*
X157749500Y-76538176D01*
X157749500Y-76543711D01*
X157753098Y-76574495D01*
X157753464Y-76578083D01*
X157760000Y-76652791D01*
X157761461Y-76659867D01*
X157761403Y-76659878D01*
X157763034Y-76667237D01*
X157763092Y-76667224D01*
X157764757Y-76674249D01*
X157764758Y-76674254D01*
X157764759Y-76674255D01*
X157779691Y-76715283D01*
X157790400Y-76744705D01*
X157791582Y-76748107D01*
X157815182Y-76819326D01*
X157818236Y-76825874D01*
X157818182Y-76825898D01*
X157821470Y-76832688D01*
X157821521Y-76832663D01*
X157824761Y-76839114D01*
X157865979Y-76901784D01*
X157867889Y-76904782D01*
X157888927Y-76938888D01*
X157907289Y-76968658D01*
X157911766Y-76974319D01*
X157911719Y-76974356D01*
X157916482Y-76980202D01*
X157916528Y-76980164D01*
X157921173Y-76985699D01*
X157975708Y-77037150D01*
X157978296Y-77039664D01*
X159424267Y-78485634D01*
X159436048Y-78499266D01*
X159450390Y-78518530D01*
X159488343Y-78550376D01*
X159496319Y-78557686D01*
X159500219Y-78561587D01*
X159524544Y-78580821D01*
X159527340Y-78583099D01*
X159555062Y-78606360D01*
X159584786Y-78631302D01*
X159584794Y-78631306D01*
X159590824Y-78635273D01*
X159590790Y-78635323D01*
X159597137Y-78639366D01*
X159597169Y-78639316D01*
X159603321Y-78643110D01*
X159671294Y-78674806D01*
X159674510Y-78676362D01*
X159741567Y-78710040D01*
X159741576Y-78710042D01*
X159748355Y-78712510D01*
X159748334Y-78712567D01*
X159755451Y-78715040D01*
X159755470Y-78714984D01*
X159762324Y-78717255D01*
X159762325Y-78717255D01*
X159762327Y-78717256D01*
X159835848Y-78732436D01*
X159839209Y-78733181D01*
X159912279Y-78750500D01*
X159912285Y-78750500D01*
X159919452Y-78751338D01*
X159919445Y-78751397D01*
X159926946Y-78752163D01*
X159926952Y-78752104D01*
X159934141Y-78752733D01*
X159934143Y-78752732D01*
X159934144Y-78752733D01*
X160009111Y-78750552D01*
X160012717Y-78750500D01*
X164637770Y-78750500D01*
X164704809Y-78770185D01*
X164725451Y-78786819D01*
X166142691Y-80204059D01*
X166176176Y-80265382D01*
X166171192Y-80335074D01*
X166129320Y-80391007D01*
X166063856Y-80415424D01*
X166041802Y-80414288D01*
X166041755Y-80414837D01*
X166036361Y-80414365D01*
X165939697Y-80405908D01*
X165809671Y-80394532D01*
X165809667Y-80394532D01*
X165582982Y-80414364D01*
X165582971Y-80414366D01*
X165363180Y-80473258D01*
X165363175Y-80473260D01*
X165297219Y-80504016D01*
X165228141Y-80514507D01*
X165164358Y-80485987D01*
X165126119Y-80427510D01*
X165121287Y-80402439D01*
X165114810Y-80328400D01*
X165114808Y-80328389D01*
X165055938Y-80108682D01*
X165055933Y-80108668D01*
X164959805Y-79902521D01*
X164959801Y-79902513D01*
X164908694Y-79829526D01*
X164312745Y-80425474D01*
X164289162Y-80345156D01*
X164211430Y-80224202D01*
X164102769Y-80130048D01*
X163971984Y-80070320D01*
X163962202Y-80068913D01*
X164555141Y-79475974D01*
X164482147Y-79424863D01*
X164276000Y-79328735D01*
X164275986Y-79328730D01*
X164056279Y-79269860D01*
X164056268Y-79269858D01*
X163829671Y-79250034D01*
X163829667Y-79250034D01*
X163603069Y-79269858D01*
X163603058Y-79269860D01*
X163383351Y-79328730D01*
X163383342Y-79328734D01*
X163177185Y-79424866D01*
X163177181Y-79424868D01*
X163104195Y-79475973D01*
X163104195Y-79475974D01*
X163697135Y-80068913D01*
X163687354Y-80070320D01*
X163556569Y-80130048D01*
X163447908Y-80224202D01*
X163370176Y-80345156D01*
X163346592Y-80425475D01*
X162750643Y-79829526D01*
X162750642Y-79829526D01*
X162699537Y-79902512D01*
X162699535Y-79902516D01*
X162603403Y-80108673D01*
X162603400Y-80108680D01*
X162550101Y-80307594D01*
X162513736Y-80367254D01*
X162450889Y-80397783D01*
X162430326Y-80399500D01*
X161001798Y-80399500D01*
X161001792Y-80399501D01*
X160942185Y-80405908D01*
X160807340Y-80456202D01*
X160807333Y-80456206D01*
X160692124Y-80542452D01*
X160692121Y-80542455D01*
X160605875Y-80657664D01*
X160605871Y-80657671D01*
X160565899Y-80764844D01*
X160555578Y-80792517D01*
X160550606Y-80838757D01*
X160523870Y-80903306D01*
X160466478Y-80943154D01*
X160427318Y-80949500D01*
X158999729Y-80949500D01*
X158932690Y-80929815D01*
X158912048Y-80913181D01*
X158530212Y-80531345D01*
X158138229Y-80139361D01*
X158126449Y-80125730D01*
X158112110Y-80106470D01*
X158074151Y-80074619D01*
X158066186Y-80067318D01*
X158062280Y-80063411D01*
X158037943Y-80044168D01*
X158035147Y-80041890D01*
X157977714Y-79993698D01*
X157971680Y-79989729D01*
X157971712Y-79989680D01*
X157965353Y-79985628D01*
X157965322Y-79985679D01*
X157959180Y-79981891D01*
X157959178Y-79981890D01*
X157959177Y-79981889D01*
X157891188Y-79950184D01*
X157887947Y-79948615D01*
X157857030Y-79933088D01*
X157820933Y-79914960D01*
X157820931Y-79914959D01*
X157820930Y-79914959D01*
X157814145Y-79912489D01*
X157814165Y-79912433D01*
X157807049Y-79909959D01*
X157807031Y-79910015D01*
X157800174Y-79907743D01*
X157726710Y-79892573D01*
X157723193Y-79891793D01*
X157650218Y-79874499D01*
X157643047Y-79873661D01*
X157643053Y-79873601D01*
X157635555Y-79872835D01*
X157635550Y-79872895D01*
X157628360Y-79872265D01*
X157553370Y-79874448D01*
X157549763Y-79874500D01*
X156706663Y-79874500D01*
X156639624Y-79854815D01*
X156605088Y-79821623D01*
X156580048Y-79785862D01*
X156517693Y-79723507D01*
X156419139Y-79624953D01*
X156402483Y-79613290D01*
X156383375Y-79599910D01*
X156339751Y-79545332D01*
X156330500Y-79498336D01*
X156330500Y-76376662D01*
X156350185Y-76309623D01*
X156383379Y-76275086D01*
X156419139Y-76250047D01*
X156580047Y-76089139D01*
X156710568Y-75902734D01*
X156806739Y-75696496D01*
X156865635Y-75476692D01*
X156885468Y-75250000D01*
X156865635Y-75023308D01*
X156806739Y-74803504D01*
X156710568Y-74597266D01*
X156645307Y-74504063D01*
X156580048Y-74410862D01*
X156580044Y-74410858D01*
X156419139Y-74249953D01*
X156414373Y-74246615D01*
X156383375Y-74224910D01*
X156339751Y-74170332D01*
X156330500Y-74123336D01*
X156330500Y-71001662D01*
X156350185Y-70934623D01*
X156383379Y-70900086D01*
X156419140Y-70875046D01*
X156580045Y-70714141D01*
X156580047Y-70714139D01*
X156710568Y-70527734D01*
X156806739Y-70321496D01*
X156865635Y-70101692D01*
X156885468Y-69875000D01*
X156865635Y-69648308D01*
X156806739Y-69428504D01*
X156710568Y-69222266D01*
X156580047Y-69035861D01*
X156580045Y-69035858D01*
X156419141Y-68874954D01*
X156232734Y-68744432D01*
X156232732Y-68744431D01*
X156026497Y-68648261D01*
X156026488Y-68648258D01*
X155806697Y-68589366D01*
X155806693Y-68589365D01*
X155806692Y-68589365D01*
X155806691Y-68589364D01*
X155806686Y-68589364D01*
X155580002Y-68569532D01*
X155579998Y-68569532D01*
X155353313Y-68589364D01*
X155353302Y-68589366D01*
X155133511Y-68648258D01*
X155133502Y-68648261D01*
X154927267Y-68744431D01*
X154927265Y-68744432D01*
X154740858Y-68874954D01*
X154579954Y-69035858D01*
X154449432Y-69222265D01*
X154449431Y-69222267D01*
X154353261Y-69428502D01*
X154353258Y-69428511D01*
X154294366Y-69648302D01*
X154294364Y-69648313D01*
X154274532Y-69874998D01*
X154274532Y-69875001D01*
X154294364Y-70101686D01*
X154294366Y-70101697D01*
X154353258Y-70321488D01*
X154353261Y-70321497D01*
X154449431Y-70527732D01*
X154449432Y-70527734D01*
X154579954Y-70714141D01*
X154740859Y-70875046D01*
X154776621Y-70900086D01*
X154820247Y-70954662D01*
X154829500Y-71001662D01*
X154829500Y-74123336D01*
X154809815Y-74190375D01*
X154776625Y-74224910D01*
X154740863Y-74249951D01*
X154579951Y-74410862D01*
X154449432Y-74597265D01*
X154449431Y-74597267D01*
X154353261Y-74803502D01*
X154353258Y-74803511D01*
X154294366Y-75023302D01*
X154294364Y-75023313D01*
X154274532Y-75249998D01*
X154274532Y-75250001D01*
X154294364Y-75476686D01*
X154294366Y-75476697D01*
X154353258Y-75696488D01*
X154353261Y-75696497D01*
X154449431Y-75902732D01*
X154449432Y-75902734D01*
X154579954Y-76089141D01*
X154740859Y-76250046D01*
X154776621Y-76275086D01*
X154820247Y-76329662D01*
X154829500Y-76376662D01*
X154829500Y-79498336D01*
X154809815Y-79565375D01*
X154776625Y-79599910D01*
X154740863Y-79624951D01*
X154579951Y-79785862D01*
X154449432Y-79972265D01*
X154449431Y-79972267D01*
X154353261Y-80178502D01*
X154353258Y-80178511D01*
X154294366Y-80398302D01*
X154294364Y-80398313D01*
X154274532Y-80624998D01*
X154274532Y-80625001D01*
X154294364Y-80851686D01*
X154294366Y-80851697D01*
X154353258Y-81071488D01*
X154353261Y-81071497D01*
X154449431Y-81277732D01*
X154449432Y-81277734D01*
X154579954Y-81464141D01*
X154740858Y-81625045D01*
X154740861Y-81625047D01*
X154927266Y-81755568D01*
X155133504Y-81851739D01*
X155353308Y-81910635D01*
X155510425Y-81924381D01*
X155579998Y-81930468D01*
X155580000Y-81930468D01*
X155580002Y-81930468D01*
X155636673Y-81925509D01*
X155806692Y-81910635D01*
X156026496Y-81851739D01*
X156232734Y-81755568D01*
X156419139Y-81625047D01*
X156580047Y-81464139D01*
X156605088Y-81428377D01*
X156659665Y-81384752D01*
X156706663Y-81375500D01*
X157200270Y-81375500D01*
X157267309Y-81395185D01*
X157287951Y-81411819D01*
X158061769Y-82185637D01*
X158073549Y-82199268D01*
X158087889Y-82218530D01*
X158087892Y-82218532D01*
X158125836Y-82250371D01*
X158133812Y-82257680D01*
X158137718Y-82261586D01*
X158162043Y-82280820D01*
X158164804Y-82283069D01*
X158194260Y-82307785D01*
X158222289Y-82331305D01*
X158228318Y-82335270D01*
X158228285Y-82335319D01*
X158234643Y-82339369D01*
X158234675Y-82339319D01*
X158240817Y-82343107D01*
X158240819Y-82343108D01*
X158240823Y-82343111D01*
X158308815Y-82374816D01*
X158312060Y-82376388D01*
X158379065Y-82410039D01*
X158379067Y-82410040D01*
X158379069Y-82410040D01*
X158385861Y-82412513D01*
X158385840Y-82412570D01*
X158392955Y-82415043D01*
X158392975Y-82414986D01*
X158399823Y-82417254D01*
X158399828Y-82417257D01*
X158473352Y-82432437D01*
X158476786Y-82433199D01*
X158522063Y-82443931D01*
X158549774Y-82450499D01*
X158549775Y-82450499D01*
X158549779Y-82450500D01*
X158549783Y-82450500D01*
X158556952Y-82451338D01*
X158556944Y-82451397D01*
X158564445Y-82452164D01*
X158564451Y-82452105D01*
X158571640Y-82452734D01*
X158571644Y-82452733D01*
X158571645Y-82452734D01*
X158646631Y-82450552D01*
X158650238Y-82450500D01*
X160427318Y-82450500D01*
X160494357Y-82470185D01*
X160540112Y-82522989D01*
X160550608Y-82561248D01*
X160555577Y-82607483D01*
X160605871Y-82742328D01*
X160605875Y-82742335D01*
X160692121Y-82857544D01*
X160692124Y-82857547D01*
X160807333Y-82943793D01*
X160807344Y-82943799D01*
X160808166Y-82944106D01*
X160808867Y-82944631D01*
X160815123Y-82948047D01*
X160814631Y-82948946D01*
X160864100Y-82985977D01*
X160888516Y-83051442D01*
X160873664Y-83119715D01*
X160852520Y-83147962D01*
X160849622Y-83150860D01*
X160824581Y-83186623D01*
X160770004Y-83230248D01*
X160723006Y-83239500D01*
X159573705Y-83239500D01*
X159555735Y-83238191D01*
X159531972Y-83234710D01*
X159485642Y-83238764D01*
X159482632Y-83239028D01*
X159471826Y-83239500D01*
X159466282Y-83239500D01*
X159435488Y-83243099D01*
X159431905Y-83243465D01*
X159357200Y-83250001D01*
X159350134Y-83251461D01*
X159350122Y-83251404D01*
X159342753Y-83253038D01*
X159342767Y-83253095D01*
X159335743Y-83254759D01*
X159265245Y-83280417D01*
X159261845Y-83281598D01*
X159190665Y-83305186D01*
X159190663Y-83305186D01*
X159190660Y-83305188D01*
X159184123Y-83308236D01*
X159184098Y-83308184D01*
X159177310Y-83311470D01*
X159177336Y-83311521D01*
X159170884Y-83314761D01*
X159108236Y-83355965D01*
X159105196Y-83357902D01*
X159041347Y-83397285D01*
X159035682Y-83401765D01*
X159035646Y-83401719D01*
X159029798Y-83406484D01*
X159029835Y-83406528D01*
X159024310Y-83411164D01*
X158972848Y-83465709D01*
X158970336Y-83468294D01*
X157225451Y-85213181D01*
X157164128Y-85246666D01*
X157137770Y-85249500D01*
X156706663Y-85249500D01*
X156639624Y-85229815D01*
X156605088Y-85196623D01*
X156580045Y-85160858D01*
X156419141Y-84999954D01*
X156232734Y-84869432D01*
X156232732Y-84869431D01*
X156026497Y-84773261D01*
X156026488Y-84773258D01*
X155806697Y-84714366D01*
X155806693Y-84714365D01*
X155806692Y-84714365D01*
X155806691Y-84714364D01*
X155806686Y-84714364D01*
X155580002Y-84694532D01*
X155579998Y-84694532D01*
X155353313Y-84714364D01*
X155353302Y-84714366D01*
X155133511Y-84773258D01*
X155133502Y-84773261D01*
X154927267Y-84869431D01*
X154927265Y-84869432D01*
X154740858Y-84999954D01*
X154579954Y-85160858D01*
X154449432Y-85347265D01*
X154449431Y-85347267D01*
X154353261Y-85553502D01*
X154353258Y-85553511D01*
X154294366Y-85773302D01*
X154294364Y-85773313D01*
X154274532Y-85999998D01*
X154274532Y-86000001D01*
X154294364Y-86226686D01*
X154294366Y-86226697D01*
X154353258Y-86446488D01*
X154353261Y-86446497D01*
X154449431Y-86652732D01*
X154449432Y-86652734D01*
X154579954Y-86839141D01*
X154740859Y-87000046D01*
X154776621Y-87025086D01*
X154820247Y-87079662D01*
X154829500Y-87126662D01*
X154829500Y-90248336D01*
X154809815Y-90315375D01*
X154776625Y-90349910D01*
X154740863Y-90374951D01*
X154579951Y-90535862D01*
X154449432Y-90722265D01*
X154449431Y-90722267D01*
X154353261Y-90928502D01*
X154353258Y-90928511D01*
X154294366Y-91148302D01*
X154294364Y-91148313D01*
X154274532Y-91374998D01*
X154274532Y-91375001D01*
X154294364Y-91601686D01*
X154294366Y-91601697D01*
X154353258Y-91821488D01*
X154353261Y-91821497D01*
X154449431Y-92027732D01*
X154449432Y-92027734D01*
X154579954Y-92214141D01*
X154740859Y-92375046D01*
X154776621Y-92400086D01*
X154820247Y-92454662D01*
X154829500Y-92501662D01*
X154829500Y-95623336D01*
X154809815Y-95690375D01*
X154776625Y-95724910D01*
X154740863Y-95749951D01*
X154579951Y-95910862D01*
X154449432Y-96097265D01*
X154449431Y-96097267D01*
X154353261Y-96303502D01*
X154353258Y-96303511D01*
X154294366Y-96523302D01*
X154294364Y-96523313D01*
X154274532Y-96749998D01*
X154274532Y-96750001D01*
X154294364Y-96976686D01*
X154294366Y-96976697D01*
X154353258Y-97196488D01*
X154353261Y-97196497D01*
X154449431Y-97402732D01*
X154449432Y-97402734D01*
X154579954Y-97589141D01*
X154740858Y-97750045D01*
X154740861Y-97750047D01*
X154927266Y-97880568D01*
X155133504Y-97976739D01*
X155353308Y-98035635D01*
X155515230Y-98049801D01*
X155579998Y-98055468D01*
X155580000Y-98055468D01*
X155580002Y-98055468D01*
X155636673Y-98050509D01*
X155806692Y-98035635D01*
X156026496Y-97976739D01*
X156232734Y-97880568D01*
X156419139Y-97750047D01*
X156580047Y-97589139D01*
X156710568Y-97402734D01*
X156806739Y-97196496D01*
X156865635Y-96976692D01*
X156885468Y-96750000D01*
X156865635Y-96523308D01*
X156806739Y-96303504D01*
X156710568Y-96097266D01*
X156609956Y-95953576D01*
X156580048Y-95910862D01*
X156512375Y-95843189D01*
X156419139Y-95749953D01*
X156414373Y-95746615D01*
X156383375Y-95724910D01*
X156339751Y-95670332D01*
X156330500Y-95623336D01*
X156330500Y-92501662D01*
X156350185Y-92434623D01*
X156383379Y-92400086D01*
X156419140Y-92375046D01*
X156580045Y-92214141D01*
X156580047Y-92214139D01*
X156710568Y-92027734D01*
X156806739Y-91821496D01*
X156865635Y-91601692D01*
X156885468Y-91375000D01*
X156865635Y-91148308D01*
X156810285Y-90941738D01*
X156806741Y-90928511D01*
X156806738Y-90928502D01*
X156741272Y-90788111D01*
X156710568Y-90722266D01*
X156605088Y-90571623D01*
X156580048Y-90535862D01*
X156508218Y-90464032D01*
X156419139Y-90374953D01*
X156408829Y-90367734D01*
X156383375Y-90349910D01*
X156339751Y-90295332D01*
X156330500Y-90248336D01*
X156330500Y-87126662D01*
X156350185Y-87059623D01*
X156383379Y-87025086D01*
X156387394Y-87022275D01*
X156419139Y-87000047D01*
X156580047Y-86839139D01*
X156594232Y-86818880D01*
X156605088Y-86803377D01*
X156659665Y-86759752D01*
X156706663Y-86750500D01*
X157436295Y-86750500D01*
X157454265Y-86751809D01*
X157478023Y-86755289D01*
X157527369Y-86750971D01*
X157538176Y-86750500D01*
X157543704Y-86750500D01*
X157543709Y-86750500D01*
X157574556Y-86746893D01*
X157578030Y-86746539D01*
X157652797Y-86739999D01*
X157652805Y-86739996D01*
X157659866Y-86738539D01*
X157659878Y-86738598D01*
X157667243Y-86736965D01*
X157667229Y-86736906D01*
X157674249Y-86735241D01*
X157674255Y-86735241D01*
X157744779Y-86709572D01*
X157748117Y-86708412D01*
X157819334Y-86684814D01*
X157819342Y-86684808D01*
X157825882Y-86681760D01*
X157825908Y-86681816D01*
X157832690Y-86678532D01*
X157832663Y-86678478D01*
X157839113Y-86675238D01*
X157839117Y-86675237D01*
X157901837Y-86633984D01*
X157904732Y-86632140D01*
X157968656Y-86592712D01*
X157968662Y-86592705D01*
X157974325Y-86588229D01*
X157974362Y-86588277D01*
X157980204Y-86583518D01*
X157980164Y-86583471D01*
X157985686Y-86578835D01*
X157985696Y-86578830D01*
X158037185Y-86524253D01*
X158039632Y-86521734D01*
X159784548Y-84776819D01*
X159845871Y-84743334D01*
X159872229Y-84740500D01*
X160723006Y-84740500D01*
X160790045Y-84760185D01*
X160824581Y-84793377D01*
X160849623Y-84829141D01*
X161010528Y-84990046D01*
X161072480Y-85033425D01*
X161116105Y-85088002D01*
X161123299Y-85157500D01*
X161091776Y-85219855D01*
X161072480Y-85236575D01*
X161010528Y-85279953D01*
X160849623Y-85440858D01*
X160824581Y-85476623D01*
X160770004Y-85520248D01*
X160723006Y-85529500D01*
X160283705Y-85529500D01*
X160265735Y-85528191D01*
X160241972Y-85524710D01*
X160195642Y-85528764D01*
X160192632Y-85529028D01*
X160181826Y-85529500D01*
X160176284Y-85529500D01*
X160145484Y-85533100D01*
X160141899Y-85533466D01*
X160067200Y-85540001D01*
X160060133Y-85541461D01*
X160060121Y-85541404D01*
X160052754Y-85543038D01*
X160052768Y-85543094D01*
X160045745Y-85544758D01*
X159975270Y-85570407D01*
X159971870Y-85571589D01*
X159900666Y-85595185D01*
X159894119Y-85598238D01*
X159894094Y-85598186D01*
X159887310Y-85601470D01*
X159887336Y-85601521D01*
X159880884Y-85604761D01*
X159818236Y-85645965D01*
X159815196Y-85647902D01*
X159751347Y-85687285D01*
X159745682Y-85691765D01*
X159745646Y-85691719D01*
X159739798Y-85696484D01*
X159739835Y-85696528D01*
X159734310Y-85701164D01*
X159682848Y-85755709D01*
X159680336Y-85758294D01*
X158014358Y-87424272D01*
X158000729Y-87436051D01*
X157981469Y-87450390D01*
X157949632Y-87488331D01*
X157942346Y-87496284D01*
X157938407Y-87500224D01*
X157919176Y-87524545D01*
X157916902Y-87527337D01*
X157868694Y-87584790D01*
X157864729Y-87590819D01*
X157864682Y-87590788D01*
X157860630Y-87597147D01*
X157860679Y-87597177D01*
X157856889Y-87603321D01*
X157825192Y-87671294D01*
X157823623Y-87674536D01*
X157789957Y-87741572D01*
X157787488Y-87748357D01*
X157787432Y-87748336D01*
X157784960Y-87755450D01*
X157785015Y-87755469D01*
X157782743Y-87762325D01*
X157767573Y-87835788D01*
X157766793Y-87839304D01*
X157749499Y-87912279D01*
X157748661Y-87919454D01*
X157748601Y-87919447D01*
X157747835Y-87926945D01*
X157747895Y-87926951D01*
X157747265Y-87934140D01*
X157749448Y-88009128D01*
X157749500Y-88012735D01*
X157749500Y-98842769D01*
X157729815Y-98909808D01*
X157713181Y-98930450D01*
X155845348Y-100798282D01*
X155784025Y-100831767D01*
X155746861Y-100834129D01*
X155580003Y-100819532D01*
X155579998Y-100819532D01*
X155353313Y-100839364D01*
X155353302Y-100839366D01*
X155133511Y-100898258D01*
X155133502Y-100898261D01*
X154927267Y-100994431D01*
X154927265Y-100994432D01*
X154740858Y-101124954D01*
X154579954Y-101285858D01*
X154449432Y-101472265D01*
X154449431Y-101472267D01*
X154353261Y-101678502D01*
X154353258Y-101678511D01*
X154294366Y-101898302D01*
X154294364Y-101898313D01*
X154274532Y-102124998D01*
X154274532Y-102125001D01*
X154294364Y-102351686D01*
X154294366Y-102351697D01*
X154353258Y-102571488D01*
X154353261Y-102571497D01*
X154449431Y-102777732D01*
X154449432Y-102777734D01*
X154579954Y-102964141D01*
X154740859Y-103125046D01*
X154776621Y-103150086D01*
X154820247Y-103204662D01*
X154829500Y-103251662D01*
X154829500Y-106373336D01*
X154809815Y-106440375D01*
X154776625Y-106474910D01*
X154740863Y-106499951D01*
X154579951Y-106660862D01*
X154449432Y-106847265D01*
X154449431Y-106847267D01*
X154353261Y-107053502D01*
X154353258Y-107053511D01*
X154294366Y-107273302D01*
X154294364Y-107273313D01*
X154274532Y-107499998D01*
X154274532Y-107500001D01*
X146725468Y-107500001D01*
X146725468Y-107500000D01*
X146705635Y-107273308D01*
X146646739Y-107053504D01*
X146550568Y-106847266D01*
X146420047Y-106660861D01*
X146420045Y-106660858D01*
X146259141Y-106499954D01*
X146072734Y-106369432D01*
X146072732Y-106369431D01*
X145866497Y-106273261D01*
X145866488Y-106273258D01*
X145646697Y-106214366D01*
X145646693Y-106214365D01*
X145646692Y-106214365D01*
X145646691Y-106214364D01*
X145646686Y-106214364D01*
X145420002Y-106194532D01*
X145419998Y-106194532D01*
X145193313Y-106214364D01*
X145193302Y-106214366D01*
X144973511Y-106273258D01*
X144973502Y-106273261D01*
X144767267Y-106369431D01*
X144767265Y-106369432D01*
X144580858Y-106499954D01*
X144419954Y-106660858D01*
X144394912Y-106696623D01*
X144340335Y-106740248D01*
X144293337Y-106749500D01*
X142362230Y-106749500D01*
X142295191Y-106729815D01*
X142274549Y-106713181D01*
X137166819Y-101605451D01*
X137133334Y-101544128D01*
X137130500Y-101517770D01*
X137130500Y-95651685D01*
X137150185Y-95584646D01*
X137177186Y-95554739D01*
X137237666Y-95506508D01*
X137385765Y-95336996D01*
X137501215Y-95143764D01*
X137523307Y-95084897D01*
X137565292Y-95029051D01*
X137630806Y-95004767D01*
X137699048Y-95019758D01*
X137748353Y-95069264D01*
X137751120Y-95074668D01*
X137832167Y-95242966D01*
X137832171Y-95242974D01*
X137964473Y-95425072D01*
X137964475Y-95425074D01*
X137964478Y-95425078D01*
X138127175Y-95580632D01*
X138127177Y-95580633D01*
X138131191Y-95584471D01*
X138166044Y-95645027D01*
X138169500Y-95674098D01*
X138169500Y-99106294D01*
X138168191Y-99124263D01*
X138164710Y-99148025D01*
X138169028Y-99197368D01*
X138169500Y-99208176D01*
X138169500Y-99213711D01*
X138173098Y-99244495D01*
X138173464Y-99248083D01*
X138180000Y-99322791D01*
X138181461Y-99329867D01*
X138181403Y-99329878D01*
X138183034Y-99337237D01*
X138183092Y-99337224D01*
X138184757Y-99344249D01*
X138210400Y-99414705D01*
X138211582Y-99418107D01*
X138235182Y-99489326D01*
X138238236Y-99495874D01*
X138238182Y-99495898D01*
X138241470Y-99502688D01*
X138241521Y-99502663D01*
X138244761Y-99509114D01*
X138285979Y-99571784D01*
X138287889Y-99574782D01*
X138304479Y-99601677D01*
X138327289Y-99638658D01*
X138331766Y-99644319D01*
X138331719Y-99644356D01*
X138336482Y-99650202D01*
X138336528Y-99650164D01*
X138341173Y-99655699D01*
X138395707Y-99707149D01*
X138398295Y-99709663D01*
X141299270Y-102610638D01*
X141311051Y-102624270D01*
X141325388Y-102643528D01*
X141363337Y-102675372D01*
X141371310Y-102682679D01*
X141375217Y-102686586D01*
X141375223Y-102686591D01*
X141399537Y-102705816D01*
X141402318Y-102708080D01*
X141429956Y-102731271D01*
X141459789Y-102756305D01*
X141465818Y-102760270D01*
X141465785Y-102760319D01*
X141472147Y-102764372D01*
X141472179Y-102764321D01*
X141478319Y-102768108D01*
X141478323Y-102768111D01*
X141498960Y-102777734D01*
X141546320Y-102799819D01*
X141549566Y-102801391D01*
X141616562Y-102835038D01*
X141623357Y-102837511D01*
X141623336Y-102837567D01*
X141630455Y-102840042D01*
X141630474Y-102839986D01*
X141637323Y-102842256D01*
X141637326Y-102842256D01*
X141637327Y-102842257D01*
X141710815Y-102857429D01*
X141714307Y-102858204D01*
X141787279Y-102875500D01*
X141787281Y-102875500D01*
X141794452Y-102876339D01*
X141794445Y-102876397D01*
X141801946Y-102877163D01*
X141801952Y-102877104D01*
X141809141Y-102877733D01*
X141809143Y-102877732D01*
X141809144Y-102877733D01*
X141884111Y-102875552D01*
X141887717Y-102875500D01*
X144293337Y-102875500D01*
X144360376Y-102895185D01*
X144394912Y-102928377D01*
X144419954Y-102964141D01*
X144580858Y-103125045D01*
X144616621Y-103150086D01*
X144767266Y-103255568D01*
X144973504Y-103351739D01*
X145193308Y-103410635D01*
X145355230Y-103424801D01*
X145419998Y-103430468D01*
X145420000Y-103430468D01*
X145420002Y-103430468D01*
X145476673Y-103425509D01*
X145646692Y-103410635D01*
X145866496Y-103351739D01*
X146072734Y-103255568D01*
X146259139Y-103125047D01*
X146420047Y-102964139D01*
X146550568Y-102777734D01*
X146646739Y-102571496D01*
X146705635Y-102351692D01*
X146725468Y-102125000D01*
X146725285Y-102122914D01*
X146714221Y-101996447D01*
X146705635Y-101898308D01*
X146646739Y-101678504D01*
X146550568Y-101472266D01*
X146420047Y-101285861D01*
X146420045Y-101285858D01*
X146259141Y-101124954D01*
X146072734Y-100994432D01*
X146072732Y-100994431D01*
X145866497Y-100898261D01*
X145866488Y-100898258D01*
X145646697Y-100839366D01*
X145646693Y-100839365D01*
X145646692Y-100839365D01*
X145646691Y-100839364D01*
X145646686Y-100839364D01*
X145420002Y-100819532D01*
X145419998Y-100819532D01*
X145193313Y-100839364D01*
X145193302Y-100839366D01*
X144973511Y-100898258D01*
X144973502Y-100898261D01*
X144767267Y-100994431D01*
X144767265Y-100994432D01*
X144580858Y-101124954D01*
X144419954Y-101285858D01*
X144394912Y-101321623D01*
X144340335Y-101365248D01*
X144293337Y-101374500D01*
X142237230Y-101374500D01*
X142170191Y-101354815D01*
X142149549Y-101338181D01*
X139706819Y-98895451D01*
X139673334Y-98834128D01*
X139670500Y-98807770D01*
X139670500Y-95651685D01*
X139690185Y-95584646D01*
X139717186Y-95554739D01*
X139777666Y-95506508D01*
X139925765Y-95336996D01*
X140041215Y-95143764D01*
X140120307Y-94933024D01*
X140160500Y-94711547D01*
X140160500Y-93542845D01*
X140145377Y-93374812D01*
X140115064Y-93264976D01*
X140085496Y-93157839D01*
X140085491Y-93157826D01*
X139987832Y-92955033D01*
X139987828Y-92955025D01*
X139855526Y-92772927D01*
X139855525Y-92772925D01*
X139692823Y-92617366D01*
X139571053Y-92536987D01*
X139525948Y-92483627D01*
X139516851Y-92414352D01*
X139546652Y-92351156D01*
X139605888Y-92314104D01*
X139639364Y-92309500D01*
X139866770Y-92309500D01*
X139933809Y-92329185D01*
X139954451Y-92345819D01*
X144093282Y-96484650D01*
X144126767Y-96545973D01*
X144129129Y-96583137D01*
X144114532Y-96749996D01*
X144114532Y-96750001D01*
X144134364Y-96976686D01*
X144134366Y-96976697D01*
X144193258Y-97196488D01*
X144193261Y-97196497D01*
X144289431Y-97402732D01*
X144289432Y-97402734D01*
X144419954Y-97589141D01*
X144580858Y-97750045D01*
X144580861Y-97750047D01*
X144767266Y-97880568D01*
X144973504Y-97976739D01*
X145193308Y-98035635D01*
X145355230Y-98049801D01*
X145419998Y-98055468D01*
X145420000Y-98055468D01*
X145420002Y-98055468D01*
X145476673Y-98050509D01*
X145646692Y-98035635D01*
X145866496Y-97976739D01*
X146072734Y-97880568D01*
X146259139Y-97750047D01*
X146420047Y-97589139D01*
X146550568Y-97402734D01*
X146646739Y-97196496D01*
X146705635Y-96976692D01*
X146725468Y-96750000D01*
X146705635Y-96523308D01*
X146646739Y-96303504D01*
X146550568Y-96097266D01*
X146420047Y-95910861D01*
X146420045Y-95910858D01*
X146259141Y-95749954D01*
X146072734Y-95619432D01*
X146072732Y-95619431D01*
X145866497Y-95523261D01*
X145866488Y-95523258D01*
X145646697Y-95464366D01*
X145646693Y-95464365D01*
X145646692Y-95464365D01*
X145646691Y-95464364D01*
X145646686Y-95464364D01*
X145420002Y-95444532D01*
X145419997Y-95444532D01*
X145253137Y-95459129D01*
X145184637Y-95445362D01*
X145154650Y-95423282D01*
X141166360Y-91434992D01*
X141132875Y-91373669D01*
X141133149Y-91319723D01*
X141154191Y-91227537D01*
X141164290Y-91002670D01*
X141134075Y-90779613D01*
X141064517Y-90565536D01*
X140957852Y-90367319D01*
X140862966Y-90248336D01*
X140817510Y-90191336D01*
X140817508Y-90191334D01*
X140647996Y-90043235D01*
X140454767Y-89927787D01*
X140454768Y-89927787D01*
X140454766Y-89927786D01*
X140454764Y-89927785D01*
X140395896Y-89905691D01*
X140340050Y-89863706D01*
X140315767Y-89798191D01*
X140330759Y-89729949D01*
X140380265Y-89680645D01*
X140385610Y-89677907D01*
X140553973Y-89596829D01*
X140675117Y-89508812D01*
X140736072Y-89464527D01*
X140737948Y-89462888D01*
X140738990Y-89462406D01*
X140740584Y-89461249D01*
X140740813Y-89461565D01*
X140801384Y-89433602D01*
X140870582Y-89443260D01*
X140907217Y-89468585D01*
X143299270Y-91860638D01*
X143311051Y-91874270D01*
X143325388Y-91893528D01*
X143363337Y-91925372D01*
X143371310Y-91932679D01*
X143375217Y-91936586D01*
X143375223Y-91936591D01*
X143399537Y-91955816D01*
X143402318Y-91958080D01*
X143427130Y-91978900D01*
X143459789Y-92006305D01*
X143465818Y-92010270D01*
X143465785Y-92010319D01*
X143472147Y-92014372D01*
X143472179Y-92014321D01*
X143478319Y-92018108D01*
X143478323Y-92018111D01*
X143498960Y-92027734D01*
X143546320Y-92049819D01*
X143549566Y-92051391D01*
X143616562Y-92085038D01*
X143623357Y-92087511D01*
X143623336Y-92087567D01*
X143630457Y-92090043D01*
X143630476Y-92089986D01*
X143637319Y-92092253D01*
X143637327Y-92092257D01*
X143710895Y-92107447D01*
X143714228Y-92108186D01*
X143787279Y-92125500D01*
X143787281Y-92125500D01*
X143787285Y-92125501D01*
X143794453Y-92126339D01*
X143794446Y-92126398D01*
X143801944Y-92127164D01*
X143801950Y-92127105D01*
X143809139Y-92127734D01*
X143809143Y-92127733D01*
X143809144Y-92127734D01*
X143884130Y-92125552D01*
X143887737Y-92125500D01*
X144293337Y-92125500D01*
X144360376Y-92145185D01*
X144394912Y-92178377D01*
X144419954Y-92214141D01*
X144580858Y-92375045D01*
X144616621Y-92400086D01*
X144767266Y-92505568D01*
X144973504Y-92601739D01*
X145193308Y-92660635D01*
X145355230Y-92674801D01*
X145419998Y-92680468D01*
X145420000Y-92680468D01*
X145420002Y-92680468D01*
X145476673Y-92675509D01*
X145646692Y-92660635D01*
X145866496Y-92601739D01*
X146072734Y-92505568D01*
X146259139Y-92375047D01*
X146420047Y-92214139D01*
X146550568Y-92027734D01*
X146646739Y-91821496D01*
X146705635Y-91601692D01*
X146725468Y-91375000D01*
X146705635Y-91148308D01*
X146650285Y-90941738D01*
X146646741Y-90928511D01*
X146646738Y-90928502D01*
X146581272Y-90788111D01*
X146550568Y-90722266D01*
X146445088Y-90571623D01*
X146420045Y-90535858D01*
X146259141Y-90374954D01*
X146072734Y-90244432D01*
X146072732Y-90244431D01*
X145866497Y-90148261D01*
X145866488Y-90148258D01*
X145646697Y-90089366D01*
X145646693Y-90089365D01*
X145646692Y-90089365D01*
X145646691Y-90089364D01*
X145646686Y-90089364D01*
X145420002Y-90069532D01*
X145419998Y-90069532D01*
X145193313Y-90089364D01*
X145193302Y-90089366D01*
X144973511Y-90148258D01*
X144973502Y-90148261D01*
X144767267Y-90244431D01*
X144767265Y-90244432D01*
X144580858Y-90374954D01*
X144419954Y-90535858D01*
X144394912Y-90571623D01*
X144340335Y-90615248D01*
X144293337Y-90624500D01*
X144237229Y-90624500D01*
X144170190Y-90604815D01*
X144149548Y-90588181D01*
X141594729Y-88033361D01*
X141582949Y-88019730D01*
X141568610Y-88000470D01*
X141530651Y-87968619D01*
X141522686Y-87961318D01*
X141518780Y-87957411D01*
X141494443Y-87938168D01*
X141491647Y-87935890D01*
X141434214Y-87887698D01*
X141428180Y-87883729D01*
X141428212Y-87883680D01*
X141421853Y-87879628D01*
X141421822Y-87879679D01*
X141415680Y-87875891D01*
X141415678Y-87875890D01*
X141415677Y-87875889D01*
X141347688Y-87844184D01*
X141344447Y-87842615D01*
X141313530Y-87827088D01*
X141277433Y-87808960D01*
X141277431Y-87808959D01*
X141277430Y-87808959D01*
X141270645Y-87806489D01*
X141270665Y-87806433D01*
X141263549Y-87803959D01*
X141263531Y-87804015D01*
X141256674Y-87801743D01*
X141183210Y-87786573D01*
X141179693Y-87785793D01*
X141106718Y-87768499D01*
X141099547Y-87767661D01*
X141099553Y-87767601D01*
X141092055Y-87766835D01*
X141092050Y-87766895D01*
X141084860Y-87766265D01*
X141009870Y-87768448D01*
X141006263Y-87768500D01*
X140970660Y-87768500D01*
X140903621Y-87748815D01*
X140873713Y-87721812D01*
X140817512Y-87651338D01*
X140817509Y-87651335D01*
X140817508Y-87651334D01*
X140647996Y-87503235D01*
X140454767Y-87387787D01*
X140454768Y-87387787D01*
X140454766Y-87387786D01*
X140454764Y-87387785D01*
X140395896Y-87365691D01*
X140340050Y-87323706D01*
X140315767Y-87258191D01*
X140330759Y-87189949D01*
X140380265Y-87140645D01*
X140385610Y-87137907D01*
X140553973Y-87056829D01*
X140736078Y-86924522D01*
X140865833Y-86788808D01*
X140926388Y-86753956D01*
X140955459Y-86750500D01*
X144293337Y-86750500D01*
X144360376Y-86770185D01*
X144394912Y-86803377D01*
X144419954Y-86839141D01*
X144580858Y-87000045D01*
X144608397Y-87019328D01*
X144767266Y-87130568D01*
X144973504Y-87226739D01*
X145193308Y-87285635D01*
X145355230Y-87299801D01*
X145419998Y-87305468D01*
X145420000Y-87305468D01*
X145420002Y-87305468D01*
X145476673Y-87300509D01*
X145646692Y-87285635D01*
X145866496Y-87226739D01*
X146072734Y-87130568D01*
X146259139Y-87000047D01*
X146420047Y-86839139D01*
X146550568Y-86652734D01*
X146646739Y-86446496D01*
X146705635Y-86226692D01*
X146725468Y-86000000D01*
X146705635Y-85773308D01*
X146646739Y-85553504D01*
X146550568Y-85347266D01*
X146420047Y-85160861D01*
X146420045Y-85160858D01*
X146259141Y-84999954D01*
X146072734Y-84869432D01*
X146072732Y-84869431D01*
X145866497Y-84773261D01*
X145866488Y-84773258D01*
X145646697Y-84714366D01*
X145646693Y-84714365D01*
X145646692Y-84714365D01*
X145646691Y-84714364D01*
X145646686Y-84714364D01*
X145420002Y-84694532D01*
X145419998Y-84694532D01*
X145193313Y-84714364D01*
X145193302Y-84714366D01*
X144973511Y-84773258D01*
X144973502Y-84773261D01*
X144767267Y-84869431D01*
X144767265Y-84869432D01*
X144580858Y-84999954D01*
X144419954Y-85160858D01*
X144394912Y-85196623D01*
X144340335Y-85240248D01*
X144293337Y-85249500D01*
X140987407Y-85249500D01*
X140920368Y-85229815D01*
X140890460Y-85202813D01*
X140885166Y-85196175D01*
X140828712Y-85125383D01*
X140817510Y-85111336D01*
X140809403Y-85104253D01*
X140647996Y-84963235D01*
X140454767Y-84847787D01*
X140454768Y-84847787D01*
X140454766Y-84847786D01*
X140454764Y-84847785D01*
X140395896Y-84825691D01*
X140340050Y-84783706D01*
X140315767Y-84718191D01*
X140330759Y-84649949D01*
X140380265Y-84600645D01*
X140385610Y-84597907D01*
X140553973Y-84516829D01*
X140736078Y-84384522D01*
X140885911Y-84227808D01*
X140946466Y-84192956D01*
X140975537Y-84189500D01*
X140997295Y-84189500D01*
X141015265Y-84190809D01*
X141039023Y-84194289D01*
X141088369Y-84189971D01*
X141099176Y-84189500D01*
X141104704Y-84189500D01*
X141104709Y-84189500D01*
X141135556Y-84185893D01*
X141139030Y-84185539D01*
X141213797Y-84178999D01*
X141213805Y-84178996D01*
X141220866Y-84177539D01*
X141220878Y-84177598D01*
X141228243Y-84175965D01*
X141228229Y-84175906D01*
X141235249Y-84174241D01*
X141235255Y-84174241D01*
X141305779Y-84148572D01*
X141309117Y-84147412D01*
X141380334Y-84123814D01*
X141380342Y-84123808D01*
X141386882Y-84120760D01*
X141386908Y-84120816D01*
X141393690Y-84117532D01*
X141393663Y-84117478D01*
X141400113Y-84114238D01*
X141400117Y-84114237D01*
X141462837Y-84072984D01*
X141465732Y-84071140D01*
X141529656Y-84031712D01*
X141529662Y-84031705D01*
X141535325Y-84027229D01*
X141535363Y-84027277D01*
X141541200Y-84022522D01*
X141541161Y-84022475D01*
X141546691Y-84017833D01*
X141546696Y-84017830D01*
X141598184Y-83963254D01*
X141600630Y-83960736D01*
X144149549Y-81411819D01*
X144210872Y-81378334D01*
X144237230Y-81375500D01*
X144293337Y-81375500D01*
X144360376Y-81395185D01*
X144394912Y-81428377D01*
X144419954Y-81464141D01*
X144580858Y-81625045D01*
X144580861Y-81625047D01*
X144767266Y-81755568D01*
X144973504Y-81851739D01*
X145193308Y-81910635D01*
X145350425Y-81924381D01*
X145419998Y-81930468D01*
X145420000Y-81930468D01*
X145420002Y-81930468D01*
X145476673Y-81925509D01*
X145646692Y-81910635D01*
X145866496Y-81851739D01*
X146072734Y-81755568D01*
X146259139Y-81625047D01*
X146420047Y-81464139D01*
X146550568Y-81277734D01*
X146646739Y-81071496D01*
X146705635Y-80851692D01*
X146725468Y-80625000D01*
X146705635Y-80398308D01*
X146646739Y-80178504D01*
X146550568Y-79972266D01*
X146420047Y-79785861D01*
X146420045Y-79785858D01*
X146259141Y-79624954D01*
X146072734Y-79494432D01*
X146072732Y-79494431D01*
X145866497Y-79398261D01*
X145866488Y-79398258D01*
X145646697Y-79339366D01*
X145646693Y-79339365D01*
X145646692Y-79339365D01*
X145646691Y-79339364D01*
X145646686Y-79339364D01*
X145420002Y-79319532D01*
X145419998Y-79319532D01*
X145193313Y-79339364D01*
X145193302Y-79339366D01*
X144973511Y-79398258D01*
X144973502Y-79398261D01*
X144767267Y-79494431D01*
X144767265Y-79494432D01*
X144580858Y-79624954D01*
X144419954Y-79785858D01*
X144394912Y-79821623D01*
X144340335Y-79865248D01*
X144293337Y-79874500D01*
X143938705Y-79874500D01*
X143920735Y-79873191D01*
X143896972Y-79869710D01*
X143851826Y-79873661D01*
X143847630Y-79874028D01*
X143836824Y-79874500D01*
X143831284Y-79874500D01*
X143800501Y-79878098D01*
X143796916Y-79878464D01*
X143722199Y-79885001D01*
X143715132Y-79886460D01*
X143715120Y-79886404D01*
X143707763Y-79888035D01*
X143707777Y-79888092D01*
X143700740Y-79889760D01*
X143630231Y-79915421D01*
X143626830Y-79916603D01*
X143555668Y-79940184D01*
X143549126Y-79943235D01*
X143549101Y-79943183D01*
X143542308Y-79946471D01*
X143542334Y-79946522D01*
X143535886Y-79949760D01*
X143473228Y-79990970D01*
X143470191Y-79992905D01*
X143406344Y-80032288D01*
X143400677Y-80036769D01*
X143400641Y-80036723D01*
X143394798Y-80041484D01*
X143394835Y-80041528D01*
X143389310Y-80046164D01*
X143389304Y-80046169D01*
X143389304Y-80046170D01*
X143366519Y-80070320D01*
X143337848Y-80100709D01*
X143335336Y-80103294D01*
X140926049Y-82512581D01*
X140864726Y-82546066D01*
X140795034Y-82541082D01*
X140756783Y-82518280D01*
X140752115Y-82514202D01*
X140728395Y-82493478D01*
X140648003Y-82423240D01*
X140647997Y-82423236D01*
X140647996Y-82423235D01*
X140454767Y-82307787D01*
X140454768Y-82307787D01*
X140454766Y-82307786D01*
X140454764Y-82307785D01*
X140395896Y-82285691D01*
X140340050Y-82243706D01*
X140315767Y-82178191D01*
X140330759Y-82109949D01*
X140380265Y-82060645D01*
X140385610Y-82057907D01*
X140553973Y-81976829D01*
X140736078Y-81844522D01*
X140891632Y-81681825D01*
X141015635Y-81493968D01*
X141104103Y-81286988D01*
X141154191Y-81067537D01*
X141164290Y-80842670D01*
X141139658Y-80660833D01*
X141150166Y-80591762D01*
X141174852Y-80556514D01*
X145154652Y-76576714D01*
X145215973Y-76543231D01*
X145253135Y-76540869D01*
X145396366Y-76553400D01*
X145419999Y-76555468D01*
X145420000Y-76555468D01*
X145420002Y-76555468D01*
X145476673Y-76550509D01*
X145646692Y-76535635D01*
X145866496Y-76476739D01*
X146072734Y-76380568D01*
X146259139Y-76250047D01*
X146420047Y-76089139D01*
X146550568Y-75902734D01*
X146646739Y-75696496D01*
X146705635Y-75476692D01*
X146725468Y-75250000D01*
X146705635Y-75023308D01*
X146646739Y-74803504D01*
X146550568Y-74597266D01*
X146452839Y-74457693D01*
X146420045Y-74410858D01*
X146259141Y-74249954D01*
X146072734Y-74119432D01*
X146072732Y-74119431D01*
X145866497Y-74023261D01*
X145866488Y-74023258D01*
X145646697Y-73964366D01*
X145646693Y-73964365D01*
X145646692Y-73964365D01*
X145646691Y-73964364D01*
X145646686Y-73964364D01*
X145420002Y-73944532D01*
X145419998Y-73944532D01*
X145193313Y-73964364D01*
X145193302Y-73964366D01*
X144973511Y-74023258D01*
X144973502Y-74023261D01*
X144767267Y-74119431D01*
X144767265Y-74119432D01*
X144580858Y-74249954D01*
X144419954Y-74410858D01*
X144289432Y-74597265D01*
X144289431Y-74597267D01*
X144193261Y-74803502D01*
X144193258Y-74803511D01*
X144134366Y-75023302D01*
X144134364Y-75023313D01*
X144114532Y-75249998D01*
X144114532Y-75250003D01*
X144129129Y-75416861D01*
X144115362Y-75485360D01*
X144093282Y-75515348D01*
X139996451Y-79612181D01*
X139935128Y-79645666D01*
X139908770Y-79648500D01*
X139644731Y-79648500D01*
X139577692Y-79628815D01*
X139531937Y-79576011D01*
X139521993Y-79506853D01*
X139551018Y-79443297D01*
X139585971Y-79415306D01*
X139588126Y-79414146D01*
X139601681Y-79406852D01*
X139777666Y-79266508D01*
X139925765Y-79096996D01*
X140041215Y-78903764D01*
X140120307Y-78693024D01*
X140145564Y-78553852D01*
X140160500Y-78471549D01*
X140160500Y-77302852D01*
X140160500Y-77302845D01*
X140145377Y-77134812D01*
X140145376Y-77134807D01*
X140085496Y-76917839D01*
X140085491Y-76917826D01*
X139987832Y-76715033D01*
X139987828Y-76715025D01*
X139855526Y-76532927D01*
X139855519Y-76532919D01*
X139708808Y-76392648D01*
X139673956Y-76332092D01*
X139670500Y-76303022D01*
X139670500Y-73192230D01*
X139690185Y-73125191D01*
X139706819Y-73104549D01*
X142149549Y-70661819D01*
X142210872Y-70628334D01*
X142237230Y-70625500D01*
X144293337Y-70625500D01*
X144360376Y-70645185D01*
X144394912Y-70678377D01*
X144419954Y-70714141D01*
X144580858Y-70875045D01*
X144580861Y-70875047D01*
X144767266Y-71005568D01*
X144973504Y-71101739D01*
X145193308Y-71160635D01*
X145355230Y-71174801D01*
X145419998Y-71180468D01*
X145420000Y-71180468D01*
X145420002Y-71180468D01*
X145476673Y-71175509D01*
X145646692Y-71160635D01*
X145866496Y-71101739D01*
X146072734Y-71005568D01*
X146259139Y-70875047D01*
X146420047Y-70714139D01*
X146550568Y-70527734D01*
X146646739Y-70321496D01*
X146705635Y-70101692D01*
X146725468Y-69875000D01*
X146705635Y-69648308D01*
X146646739Y-69428504D01*
X146550568Y-69222266D01*
X146420047Y-69035861D01*
X146420045Y-69035858D01*
X146259141Y-68874954D01*
X146072734Y-68744432D01*
X146072732Y-68744431D01*
X145866497Y-68648261D01*
X145866488Y-68648258D01*
X145646697Y-68589366D01*
X145646693Y-68589365D01*
X145646692Y-68589365D01*
X145646691Y-68589364D01*
X145646686Y-68589364D01*
X145420002Y-68569532D01*
X145419998Y-68569532D01*
X145193313Y-68589364D01*
X145193302Y-68589366D01*
X144973511Y-68648258D01*
X144973502Y-68648261D01*
X144767267Y-68744431D01*
X144767265Y-68744432D01*
X144580858Y-68874954D01*
X144419954Y-69035858D01*
X144394912Y-69071623D01*
X144340335Y-69115248D01*
X144293337Y-69124500D01*
X141938705Y-69124500D01*
X141920735Y-69123191D01*
X141896972Y-69119710D01*
X141849843Y-69123834D01*
X141847630Y-69124028D01*
X141836824Y-69124500D01*
X141831284Y-69124500D01*
X141800501Y-69128098D01*
X141796916Y-69128464D01*
X141722199Y-69135001D01*
X141715132Y-69136460D01*
X141715120Y-69136404D01*
X141707763Y-69138035D01*
X141707777Y-69138092D01*
X141700740Y-69139760D01*
X141630231Y-69165421D01*
X141626830Y-69166603D01*
X141555668Y-69190184D01*
X141549126Y-69193235D01*
X141549101Y-69193183D01*
X141542308Y-69196471D01*
X141542334Y-69196522D01*
X141535886Y-69199760D01*
X141473228Y-69240970D01*
X141470191Y-69242905D01*
X141406344Y-69282288D01*
X141400677Y-69286769D01*
X141400641Y-69286723D01*
X141394798Y-69291484D01*
X141394835Y-69291528D01*
X141389310Y-69296164D01*
X141337848Y-69350709D01*
X141335336Y-69353294D01*
X138434358Y-72254272D01*
X138420729Y-72266051D01*
X138401469Y-72280390D01*
X138369632Y-72318331D01*
X138362346Y-72326284D01*
X138358407Y-72330224D01*
X138339176Y-72354545D01*
X138336902Y-72357337D01*
X138288694Y-72414790D01*
X138284729Y-72420819D01*
X138284682Y-72420788D01*
X138280630Y-72427147D01*
X138280679Y-72427177D01*
X138276889Y-72433321D01*
X138245192Y-72501294D01*
X138243623Y-72504536D01*
X138209957Y-72571572D01*
X138207488Y-72578357D01*
X138207432Y-72578336D01*
X138204960Y-72585450D01*
X138205015Y-72585469D01*
X138202743Y-72592325D01*
X138187573Y-72665788D01*
X138186793Y-72669304D01*
X138169499Y-72742279D01*
X138168661Y-72749454D01*
X138168601Y-72749447D01*
X138167835Y-72756945D01*
X138167895Y-72756951D01*
X138167265Y-72764140D01*
X138169448Y-72839128D01*
X138169500Y-72842735D01*
X138169500Y-76290364D01*
X138149815Y-76357403D01*
X138122813Y-76387311D01*
X138042336Y-76451489D01*
X137961766Y-76543709D01*
X137894235Y-76621004D01*
X137875240Y-76652797D01*
X137778787Y-76814232D01*
X137778782Y-76814241D01*
X137756691Y-76873102D01*
X137714705Y-76928950D01*
X137649191Y-76953232D01*
X137580949Y-76938240D01*
X137531645Y-76888733D01*
X137528899Y-76883373D01*
X137447829Y-76715027D01*
X137368678Y-76606086D01*
X137315526Y-76532927D01*
X137315519Y-76532919D01*
X137168808Y-76392648D01*
X137133956Y-76332092D01*
X137130500Y-76303022D01*
X137130500Y-72008229D01*
X137150185Y-71941190D01*
X137166819Y-71920548D01*
X143800548Y-65286819D01*
X143861871Y-65253334D01*
X143888229Y-65250500D01*
X144293337Y-65250500D01*
X144360376Y-65270185D01*
X144394912Y-65303377D01*
X144419954Y-65339141D01*
X144580858Y-65500045D01*
X144580861Y-65500047D01*
X144767266Y-65630568D01*
X144973504Y-65726739D01*
X145193308Y-65785635D01*
X145355230Y-65799801D01*
X145419998Y-65805468D01*
X145420000Y-65805468D01*
X145420002Y-65805468D01*
X145476673Y-65800509D01*
X145646692Y-65785635D01*
X145866496Y-65726739D01*
X146072734Y-65630568D01*
X146259139Y-65500047D01*
X146420047Y-65339139D01*
X146550568Y-65152734D01*
X146646739Y-64946496D01*
X146705635Y-64726692D01*
X146725468Y-64500000D01*
X146705635Y-64273308D01*
X146646739Y-64053504D01*
X146550568Y-63847266D01*
X146420047Y-63660861D01*
X146420045Y-63660858D01*
X146259141Y-63499954D01*
X146072734Y-63369432D01*
X146072732Y-63369431D01*
X145866497Y-63273261D01*
X145866488Y-63273258D01*
X145646697Y-63214366D01*
X145646693Y-63214365D01*
X145646692Y-63214365D01*
X145646691Y-63214364D01*
X145646686Y-63214364D01*
X145420002Y-63194532D01*
X145419998Y-63194532D01*
X145193313Y-63214364D01*
X145193302Y-63214366D01*
X144973511Y-63273258D01*
X144973502Y-63273261D01*
X144767267Y-63369431D01*
X144767265Y-63369432D01*
X144580858Y-63499954D01*
X144419954Y-63660858D01*
X144394912Y-63696623D01*
X144340335Y-63740248D01*
X144293337Y-63749500D01*
X143589705Y-63749500D01*
X143571735Y-63748191D01*
X143547972Y-63744710D01*
X143501642Y-63748764D01*
X143498632Y-63749028D01*
X143487826Y-63749500D01*
X143482282Y-63749500D01*
X143451488Y-63753099D01*
X143447905Y-63753465D01*
X143373200Y-63760001D01*
X143366134Y-63761461D01*
X143366122Y-63761404D01*
X143358753Y-63763038D01*
X143358767Y-63763095D01*
X143351739Y-63764760D01*
X143281271Y-63790408D01*
X143277867Y-63791591D01*
X143206668Y-63815184D01*
X143200122Y-63818237D01*
X143200097Y-63818185D01*
X143193308Y-63821471D01*
X143193334Y-63821522D01*
X143186886Y-63824760D01*
X143124228Y-63865970D01*
X143121191Y-63867905D01*
X143057344Y-63907288D01*
X143051677Y-63911769D01*
X143051641Y-63911723D01*
X143045798Y-63916484D01*
X143045835Y-63916528D01*
X143040310Y-63921164D01*
X142988848Y-63975709D01*
X142986336Y-63978294D01*
X135894358Y-71070272D01*
X135880729Y-71082051D01*
X135861469Y-71096390D01*
X135829632Y-71134331D01*
X135822346Y-71142284D01*
X135818407Y-71146224D01*
X135799176Y-71170545D01*
X135796902Y-71173337D01*
X135748694Y-71230790D01*
X135744729Y-71236819D01*
X135744682Y-71236788D01*
X135740630Y-71243147D01*
X135740679Y-71243177D01*
X135736889Y-71249321D01*
X135705192Y-71317294D01*
X135703623Y-71320536D01*
X135669957Y-71387572D01*
X135667488Y-71394357D01*
X135667432Y-71394336D01*
X135664960Y-71401450D01*
X135665015Y-71401469D01*
X135662743Y-71408325D01*
X135647573Y-71481788D01*
X135646793Y-71485304D01*
X135629499Y-71558279D01*
X135628661Y-71565454D01*
X135628601Y-71565447D01*
X135627835Y-71572945D01*
X135627895Y-71572951D01*
X135627265Y-71580140D01*
X135629448Y-71655128D01*
X135629500Y-71658735D01*
X135629500Y-76290364D01*
X135609815Y-76357403D01*
X135582813Y-76387311D01*
X135502336Y-76451489D01*
X135421766Y-76543709D01*
X135354235Y-76621004D01*
X135335240Y-76652797D01*
X135238787Y-76814232D01*
X135238782Y-76814241D01*
X135216691Y-76873102D01*
X135174705Y-76928950D01*
X135109191Y-76953232D01*
X135040949Y-76938240D01*
X134991645Y-76888733D01*
X134988899Y-76883373D01*
X134907829Y-76715027D01*
X134828678Y-76606086D01*
X134775526Y-76532927D01*
X134775525Y-76532925D01*
X134612823Y-76377366D01*
X134424966Y-76253363D01*
X134217995Y-76164899D01*
X134217982Y-76164895D01*
X133998542Y-76114810D01*
X133998538Y-76114809D01*
X133998537Y-76114809D01*
X133998536Y-76114808D01*
X133998531Y-76114808D01*
X133773674Y-76104710D01*
X133773673Y-76104710D01*
X133773670Y-76104710D01*
X133550613Y-76134925D01*
X133550610Y-76134925D01*
X133550609Y-76134926D01*
X133336534Y-76204483D01*
X133138321Y-76311146D01*
X133138318Y-76311148D01*
X132962336Y-76451489D01*
X132881766Y-76543709D01*
X132814235Y-76621004D01*
X132795240Y-76652797D01*
X132698787Y-76814232D01*
X132698782Y-76814241D01*
X132676691Y-76873102D01*
X132634705Y-76928950D01*
X132569191Y-76953232D01*
X132500949Y-76938240D01*
X132451645Y-76888733D01*
X132448899Y-76883373D01*
X132367829Y-76715027D01*
X132288678Y-76606086D01*
X132235526Y-76532927D01*
X132235525Y-76532925D01*
X132072823Y-76377366D01*
X131884966Y-76253363D01*
X131677995Y-76164899D01*
X131677982Y-76164895D01*
X131458542Y-76114810D01*
X131458538Y-76114809D01*
X131458537Y-76114809D01*
X131458536Y-76114808D01*
X131458531Y-76114808D01*
X131233674Y-76104710D01*
X131233673Y-76104710D01*
X131233670Y-76104710D01*
X131010613Y-76134925D01*
X131010610Y-76134925D01*
X131010609Y-76134926D01*
X130796534Y-76204483D01*
X130598321Y-76311146D01*
X130598318Y-76311148D01*
X130422336Y-76451489D01*
X130341766Y-76543709D01*
X130274235Y-76621004D01*
X130255240Y-76652797D01*
X130158787Y-76814232D01*
X130158782Y-76814241D01*
X130136691Y-76873102D01*
X130094705Y-76928950D01*
X130029191Y-76953232D01*
X129960949Y-76938240D01*
X129911645Y-76888733D01*
X129908899Y-76883373D01*
X129827829Y-76715027D01*
X129748678Y-76606086D01*
X129695526Y-76532927D01*
X129695525Y-76532925D01*
X129532823Y-76377366D01*
X129344966Y-76253363D01*
X129137995Y-76164899D01*
X129137982Y-76164895D01*
X128918542Y-76114810D01*
X128918538Y-76114809D01*
X128918537Y-76114809D01*
X128918536Y-76114808D01*
X128918531Y-76114808D01*
X128693674Y-76104710D01*
X128693673Y-76104710D01*
X128693670Y-76104710D01*
X128470613Y-76134925D01*
X128470610Y-76134925D01*
X128470609Y-76134926D01*
X128256534Y-76204483D01*
X128058321Y-76311146D01*
X128058318Y-76311148D01*
X127882336Y-76451489D01*
X127801766Y-76543709D01*
X127734235Y-76621004D01*
X127715240Y-76652797D01*
X127618787Y-76814232D01*
X127618782Y-76814241D01*
X127596691Y-76873102D01*
X127554705Y-76928950D01*
X127489191Y-76953232D01*
X127420949Y-76938240D01*
X127371645Y-76888733D01*
X127368899Y-76883373D01*
X127287829Y-76715027D01*
X127208678Y-76606086D01*
X127155526Y-76532927D01*
X127155525Y-76532925D01*
X126992823Y-76377366D01*
X126804966Y-76253363D01*
X126597995Y-76164899D01*
X126597982Y-76164895D01*
X126378542Y-76114810D01*
X126378538Y-76114809D01*
X126378537Y-76114809D01*
X126378536Y-76114808D01*
X126378531Y-76114808D01*
X126153674Y-76104710D01*
X126153673Y-76104710D01*
X126153670Y-76104710D01*
X125930613Y-76134925D01*
X125930610Y-76134925D01*
X125930609Y-76134926D01*
X125716534Y-76204483D01*
X125518321Y-76311146D01*
X125518318Y-76311148D01*
X125342336Y-76451489D01*
X125261766Y-76543709D01*
X125194235Y-76621004D01*
X125175240Y-76652797D01*
X125078787Y-76814232D01*
X125078782Y-76814241D01*
X125056691Y-76873102D01*
X125014705Y-76928950D01*
X124949191Y-76953232D01*
X124880949Y-76938240D01*
X124831645Y-76888733D01*
X124828899Y-76883373D01*
X124747829Y-76715027D01*
X124668678Y-76606086D01*
X124615526Y-76532927D01*
X124615525Y-76532925D01*
X124452823Y-76377366D01*
X124264966Y-76253363D01*
X124057995Y-76164899D01*
X124057982Y-76164895D01*
X123838542Y-76114810D01*
X123838538Y-76114809D01*
X123838537Y-76114809D01*
X123838536Y-76114808D01*
X123838531Y-76114808D01*
X123613674Y-76104710D01*
X123613673Y-76104710D01*
X123613670Y-76104710D01*
X123390613Y-76134925D01*
X123390610Y-76134925D01*
X123390609Y-76134926D01*
X123176534Y-76204483D01*
X122978321Y-76311146D01*
X122978318Y-76311148D01*
X122802336Y-76451489D01*
X122721766Y-76543709D01*
X122654235Y-76621004D01*
X122635243Y-76652791D01*
X122538787Y-76814231D01*
X122538787Y-76814232D01*
X122538785Y-76814236D01*
X122536875Y-76819326D01*
X122516449Y-76873750D01*
X122474463Y-76929597D01*
X122408948Y-76953880D01*
X122340706Y-76938888D01*
X122291402Y-76889381D01*
X122288636Y-76883979D01*
X122207401Y-76715290D01*
X122207397Y-76715283D01*
X122075148Y-76533258D01*
X122075142Y-76533250D01*
X121912513Y-76377762D01*
X121724733Y-76253808D01*
X121517830Y-76165375D01*
X121517823Y-76165373D01*
X121380000Y-76133915D01*
X121380000Y-79586549D01*
X121409267Y-79582586D01*
X121409273Y-79582585D01*
X121623268Y-79513054D01*
X121821401Y-79406434D01*
X121821404Y-79406432D01*
X121997320Y-79266145D01*
X122145352Y-79096707D01*
X122145359Y-79096699D01*
X122260759Y-78903553D01*
X122260765Y-78903542D01*
X122283007Y-78844277D01*
X122324991Y-78788428D01*
X122390505Y-78764144D01*
X122458748Y-78779135D01*
X122508053Y-78828640D01*
X122510820Y-78834045D01*
X122592167Y-79002966D01*
X122592171Y-79002974D01*
X122724473Y-79185072D01*
X122724474Y-79185074D01*
X122887176Y-79340633D01*
X123075033Y-79464636D01*
X123282004Y-79553100D01*
X123282007Y-79553101D01*
X123282012Y-79553103D01*
X123501463Y-79603191D01*
X123726330Y-79613290D01*
X123949387Y-79583075D01*
X124163464Y-79513517D01*
X124361681Y-79406852D01*
X124537666Y-79266508D01*
X124685765Y-79096996D01*
X124801215Y-78903764D01*
X124823307Y-78844897D01*
X124865292Y-78789051D01*
X124930806Y-78764767D01*
X124999048Y-78779758D01*
X125048353Y-78829264D01*
X125051120Y-78834668D01*
X125132167Y-79002966D01*
X125132171Y-79002974D01*
X125264473Y-79185072D01*
X125264474Y-79185074D01*
X125427176Y-79340633D01*
X125615033Y-79464636D01*
X125822004Y-79553100D01*
X125822007Y-79553101D01*
X125822012Y-79553103D01*
X126041463Y-79603191D01*
X126266330Y-79613290D01*
X126489387Y-79583075D01*
X126703464Y-79513517D01*
X126901681Y-79406852D01*
X127077666Y-79266508D01*
X127225765Y-79096996D01*
X127341215Y-78903764D01*
X127363307Y-78844897D01*
X127405292Y-78789051D01*
X127470806Y-78764767D01*
X127539048Y-78779758D01*
X127588353Y-78829264D01*
X127591120Y-78834668D01*
X127672167Y-79002966D01*
X127672171Y-79002974D01*
X127804473Y-79185072D01*
X127804474Y-79185074D01*
X127967176Y-79340633D01*
X128155033Y-79464636D01*
X128362004Y-79553100D01*
X128362007Y-79553101D01*
X128362012Y-79553103D01*
X128581463Y-79603191D01*
X128806330Y-79613290D01*
X129029387Y-79583075D01*
X129243464Y-79513517D01*
X129441681Y-79406852D01*
X129617666Y-79266508D01*
X129765765Y-79096996D01*
X129881215Y-78903764D01*
X129903307Y-78844897D01*
X129945292Y-78789051D01*
X130010806Y-78764767D01*
X130079048Y-78779758D01*
X130128353Y-78829264D01*
X130131120Y-78834668D01*
X130212167Y-79002966D01*
X130212171Y-79002974D01*
X130344473Y-79185072D01*
X130344474Y-79185074D01*
X130507176Y-79340633D01*
X130695033Y-79464636D01*
X130902004Y-79553100D01*
X130902007Y-79553101D01*
X130902012Y-79553103D01*
X131121463Y-79603191D01*
X131346330Y-79613290D01*
X131569387Y-79583075D01*
X131783464Y-79513517D01*
X131981681Y-79406852D01*
X132157666Y-79266508D01*
X132305765Y-79096996D01*
X132421215Y-78903764D01*
X132443307Y-78844897D01*
X132485292Y-78789051D01*
X132550806Y-78764767D01*
X132619048Y-78779758D01*
X132668353Y-78829264D01*
X132671120Y-78834668D01*
X132752167Y-79002966D01*
X132752171Y-79002974D01*
X132884473Y-79185072D01*
X132884474Y-79185074D01*
X133047176Y-79340633D01*
X133235033Y-79464636D01*
X133442004Y-79553100D01*
X133442007Y-79553101D01*
X133442012Y-79553103D01*
X133661463Y-79603191D01*
X133886330Y-79613290D01*
X134109387Y-79583075D01*
X134323464Y-79513517D01*
X134521681Y-79406852D01*
X134697666Y-79266508D01*
X134845765Y-79096996D01*
X134961215Y-78903764D01*
X134983307Y-78844897D01*
X135025292Y-78789051D01*
X135090806Y-78764767D01*
X135159048Y-78779758D01*
X135208353Y-78829264D01*
X135211120Y-78834668D01*
X135292167Y-79002966D01*
X135292171Y-79002974D01*
X135424473Y-79185072D01*
X135424474Y-79185074D01*
X135587176Y-79340633D01*
X135775033Y-79464636D01*
X135982004Y-79553100D01*
X135982007Y-79553101D01*
X135982012Y-79553103D01*
X136201463Y-79603191D01*
X136426330Y-79613290D01*
X136649387Y-79583075D01*
X136863464Y-79513517D01*
X137061681Y-79406852D01*
X137237666Y-79266508D01*
X137385765Y-79096996D01*
X137501215Y-78903764D01*
X137523307Y-78844897D01*
X137565292Y-78789051D01*
X137630806Y-78764767D01*
X137699048Y-78779758D01*
X137748353Y-78829264D01*
X137751120Y-78834668D01*
X137832167Y-79002966D01*
X137832171Y-79002974D01*
X137964473Y-79185072D01*
X137964474Y-79185074D01*
X138127176Y-79340633D01*
X138315033Y-79464636D01*
X138430275Y-79513893D01*
X138484183Y-79558341D01*
X138505503Y-79624879D01*
X138487465Y-79692380D01*
X138435797Y-79739414D01*
X138435341Y-79739634D01*
X138266033Y-79821167D01*
X138266025Y-79821171D01*
X138082133Y-79954777D01*
X138016327Y-79978257D01*
X138009248Y-79978459D01*
X137975446Y-79978459D01*
X137975240Y-79978500D01*
X117124500Y-79978500D01*
X117057461Y-79958815D01*
X117011706Y-79906011D01*
X117000500Y-79854500D01*
X117000500Y-78415151D01*
X117339500Y-78415151D01*
X117354622Y-78583186D01*
X117354623Y-78583192D01*
X117414503Y-78800160D01*
X117414508Y-78800173D01*
X117512167Y-79002966D01*
X117512171Y-79002974D01*
X117644473Y-79185072D01*
X117644474Y-79185074D01*
X117807176Y-79340633D01*
X117995033Y-79464636D01*
X118202004Y-79553100D01*
X118202007Y-79553101D01*
X118202012Y-79553103D01*
X118421463Y-79603191D01*
X118646330Y-79613290D01*
X118869387Y-79583075D01*
X119083464Y-79513517D01*
X119281681Y-79406852D01*
X119457666Y-79266508D01*
X119605765Y-79096996D01*
X119721215Y-78903764D01*
X119743551Y-78844249D01*
X119785535Y-78788403D01*
X119851049Y-78764119D01*
X119919291Y-78779110D01*
X119968596Y-78828616D01*
X119971363Y-78834020D01*
X120052598Y-79002708D01*
X120052602Y-79002716D01*
X120184851Y-79184741D01*
X120184857Y-79184749D01*
X120347486Y-79340237D01*
X120535266Y-79464191D01*
X120742169Y-79552624D01*
X120742178Y-79552627D01*
X120879999Y-79584084D01*
X120880000Y-79584084D01*
X120880000Y-76131449D01*
X120879999Y-76131449D01*
X120850721Y-76135415D01*
X120636731Y-76204945D01*
X120438598Y-76311565D01*
X120438595Y-76311567D01*
X120262679Y-76451854D01*
X120114647Y-76621292D01*
X120114640Y-76621300D01*
X119999240Y-76814446D01*
X119999239Y-76814448D01*
X119976992Y-76873725D01*
X119935006Y-76929572D01*
X119869491Y-76953855D01*
X119801249Y-76938863D01*
X119751945Y-76889357D01*
X119749191Y-76883979D01*
X119667829Y-76715027D01*
X119588678Y-76606086D01*
X119535526Y-76532927D01*
X119535525Y-76532925D01*
X119372823Y-76377366D01*
X119184966Y-76253363D01*
X118977995Y-76164899D01*
X118977982Y-76164895D01*
X118758542Y-76114810D01*
X118758538Y-76114809D01*
X118758537Y-76114809D01*
X118758536Y-76114808D01*
X118758531Y-76114808D01*
X118533674Y-76104710D01*
X118533673Y-76104710D01*
X118533670Y-76104710D01*
X118310613Y-76134925D01*
X118310610Y-76134925D01*
X118310609Y-76134926D01*
X118096534Y-76204483D01*
X117898321Y-76311146D01*
X117898318Y-76311148D01*
X117722336Y-76451489D01*
X117641766Y-76543709D01*
X117574235Y-76621004D01*
X117555240Y-76652797D01*
X117500328Y-76744705D01*
X117458785Y-76814236D01*
X117456875Y-76819326D01*
X117379692Y-77024976D01*
X117339500Y-77246450D01*
X117339500Y-78415151D01*
X117000500Y-78415151D01*
X117000500Y-65298945D01*
X117020185Y-65231906D01*
X117072989Y-65186151D01*
X117142147Y-65176207D01*
X117205703Y-65205232D01*
X117231886Y-65236943D01*
X117239713Y-65250500D01*
X117395404Y-65520165D01*
X117603730Y-65799996D01*
X117603735Y-65800002D01*
X117628939Y-65826716D01*
X117843142Y-66053758D01*
X117843148Y-66053763D01*
X117843150Y-66053765D01*
X118110383Y-66278001D01*
X118110386Y-66278003D01*
X118110391Y-66278007D01*
X118401867Y-66469713D01*
X118401873Y-66469716D01*
X118401875Y-66469717D01*
X118713620Y-66626281D01*
X118713621Y-66626282D01*
X118713624Y-66626283D01*
X118713628Y-66626285D01*
X119041457Y-66745606D01*
X119380922Y-66826060D01*
X119727433Y-66866561D01*
X119727440Y-66866561D01*
X120076294Y-66866561D01*
X120076301Y-66866561D01*
X120422812Y-66826060D01*
X120762277Y-66745606D01*
X121090106Y-66626285D01*
X121401867Y-66469713D01*
X121693343Y-66278007D01*
X121960592Y-66053758D01*
X122200000Y-65800000D01*
X122408330Y-65520164D01*
X122582765Y-65218035D01*
X122720945Y-64897697D01*
X122821002Y-64563485D01*
X122881582Y-64219916D01*
X122901867Y-63871637D01*
X122900447Y-63847265D01*
X122894214Y-63740248D01*
X122881582Y-63523358D01*
X122821002Y-63179789D01*
X122720945Y-62845577D01*
X122582765Y-62525239D01*
X122408330Y-62223110D01*
X122408329Y-62223108D01*
X122200003Y-61943277D01*
X122199998Y-61943271D01*
X122084237Y-61820572D01*
X121960592Y-61689516D01*
X121960585Y-61689510D01*
X121960583Y-61689508D01*
X121693350Y-61465272D01*
X121693345Y-61465268D01*
X121693343Y-61465267D01*
X121401867Y-61273561D01*
X121401863Y-61273559D01*
X121401860Y-61273557D01*
X121401858Y-61273556D01*
X121325704Y-61235310D01*
X121274629Y-61187632D01*
X121257440Y-61119910D01*
X121279593Y-61053645D01*
X121334054Y-61009876D01*
X121381355Y-61000500D01*
X164622379Y-61000500D01*
X164689418Y-61020185D01*
G37*
%TD.AperFunction*%
%TD*%
M02*
