%TF.GenerationSoftware,KiCad,Pcbnew,7.0.10*%
%TF.CreationDate,2024-01-29T00:07:58+11:00*%
%TF.ProjectId,RP2040-TestPatternGenerator,52503230-3430-42d5-9465-737450617474,rev?*%
%TF.SameCoordinates,Original*%
%TF.FileFunction,Copper,L1,Top*%
%TF.FilePolarity,Positive*%
%FSLAX46Y46*%
G04 Gerber Fmt 4.6, Leading zero omitted, Abs format (unit mm)*
G04 Created by KiCad (PCBNEW 7.0.10) date 2024-01-29 00:07:58*
%MOMM*%
%LPD*%
G01*
G04 APERTURE LIST*
%TA.AperFunction,ComponentPad*%
%ADD10C,2.100000*%
%TD*%
%TA.AperFunction,ComponentPad*%
%ADD11C,1.750000*%
%TD*%
%TA.AperFunction,ComponentPad*%
%ADD12C,1.600000*%
%TD*%
%TA.AperFunction,ComponentPad*%
%ADD13O,1.600000X1.600000*%
%TD*%
%TA.AperFunction,ComponentPad*%
%ADD14C,4.000000*%
%TD*%
%TA.AperFunction,ComponentPad*%
%ADD15O,4.000000X4.000000*%
%TD*%
%TA.AperFunction,ComponentPad*%
%ADD16R,1.600000X1.600000*%
%TD*%
G04 APERTURE END LIST*
D10*
%TO.P,SW1,*%
%TO.N,*%
X121265000Y-105400000D03*
X121265000Y-98390000D03*
D11*
%TO.P,SW1,1,1*%
%TO.N,Net-(U1-GND)*%
X118775000Y-104150000D03*
%TO.P,SW1,2,2*%
%TO.N,Net-(U1-2)*%
X118775000Y-99650000D03*
%TD*%
D12*
%TO.P,R8,1*%
%TO.N,Net-(U1-14)*%
X144526000Y-69119750D03*
D13*
%TO.P,R8,2*%
%TO.N,Net-(J1-Pad1)*%
X154686000Y-69119750D03*
%TD*%
D12*
%TO.P,R7,1*%
%TO.N,Net-(U1-13)*%
X144526000Y-74739500D03*
D13*
%TO.P,R7,2*%
%TO.N,Net-(J1-Pad1)*%
X154686000Y-74739500D03*
%TD*%
D12*
%TO.P,R3,1*%
%TO.N,Net-(U1-9)*%
X144526000Y-97218500D03*
D13*
%TO.P,R3,2*%
%TO.N,Net-(J1-Pad2)*%
X154686000Y-97218500D03*
%TD*%
D12*
%TO.P,R6,1*%
%TO.N,Net-(U1-12)*%
X144526000Y-80359250D03*
D13*
%TO.P,R6,2*%
%TO.N,Net-(J1-Pad1)*%
X154686000Y-80359250D03*
%TD*%
D12*
%TO.P,R9,1*%
%TO.N,Net-(U1-15)*%
X144526000Y-63500000D03*
D13*
%TO.P,R9,2*%
%TO.N,Net-(J1-Pad13)*%
X154686000Y-63500000D03*
%TD*%
D12*
%TO.P,R1,1*%
%TO.N,Net-(U1-7)*%
X144526000Y-108458000D03*
D13*
%TO.P,R1,2*%
%TO.N,Net-(J1-Pad3)*%
X154686000Y-108458000D03*
%TD*%
D12*
%TO.P,R5,1*%
%TO.N,Net-(U1-11)*%
X144526000Y-85979000D03*
D13*
%TO.P,R5,2*%
%TO.N,Net-(J1-Pad2)*%
X154686000Y-85979000D03*
%TD*%
D12*
%TO.P,R4,1*%
%TO.N,Net-(U1-10)*%
X144526000Y-91598750D03*
D13*
%TO.P,R4,2*%
%TO.N,Net-(J1-Pad2)*%
X154686000Y-91598750D03*
%TD*%
D14*
%TO.P,RGBS OUT,0*%
%TO.N,Net-(U1-GND)*%
X164968000Y-98515000D03*
D15*
X164968000Y-73515000D03*
D16*
%TO.P,RGBS OUT,1*%
%TO.N,Net-(J1-Pad1)*%
X162918000Y-81700000D03*
D12*
%TO.P,RGBS OUT,2*%
%TO.N,Net-(J1-Pad2)*%
X162918000Y-83990000D03*
%TO.P,RGBS OUT,3*%
%TO.N,Net-(J1-Pad3)*%
X162918000Y-86280000D03*
%TO.P,RGBS OUT,4*%
%TO.N,unconnected-(J1-Pad4)*%
X162918000Y-88570000D03*
%TO.P,RGBS OUT,5*%
%TO.N,Net-(U1-GND)*%
X162918000Y-90860000D03*
%TO.P,RGBS OUT,6*%
X164898000Y-80555000D03*
%TO.P,RGBS OUT,7*%
X164898000Y-82845000D03*
%TO.P,RGBS OUT,8*%
X164898000Y-85135000D03*
%TO.P,RGBS OUT,9*%
%TO.N,unconnected-(J1-Pad9)*%
X164898000Y-87425000D03*
%TO.P,RGBS OUT,10*%
%TO.N,unconnected-(J1-Pad10)*%
X164898000Y-89715000D03*
%TO.P,RGBS OUT,11*%
%TO.N,unconnected-(J1-Pad11)*%
X166878000Y-81700000D03*
%TO.P,RGBS OUT,12*%
%TO.N,unconnected-(J1-Pad12)*%
X166878000Y-83990000D03*
%TO.P,RGBS OUT,13*%
%TO.N,Net-(J1-Pad13)*%
X166878000Y-86280000D03*
%TO.P,RGBS OUT,14*%
%TO.N,unconnected-(J1-Pad14)*%
X166878000Y-88570000D03*
%TO.P,RGBS OUT,15*%
%TO.N,unconnected-(J1-Pad15)*%
X166878000Y-90860000D03*
%TD*%
%TO.P,R2,1*%
%TO.N,Net-(U1-8)*%
X144526000Y-102838250D03*
D13*
%TO.P,R2,2*%
%TO.N,Net-(J1-Pad3)*%
X154686000Y-102838250D03*
%TD*%
%TA.AperFunction,Conductor*%
%TO.N,Net-(U1-GND)*%
G36*
X165941278Y-60020185D02*
G01*
X165987033Y-60072989D01*
X165996977Y-60142147D01*
X165967952Y-60205703D01*
X165950712Y-60222111D01*
X165723844Y-60399850D01*
X165488064Y-60635630D01*
X165282422Y-60898112D01*
X165109909Y-61183484D01*
X165109908Y-61183486D01*
X164973056Y-61487559D01*
X164973050Y-61487574D01*
X164873857Y-61805900D01*
X164813747Y-62133903D01*
X164793615Y-62466741D01*
X164813747Y-62799578D01*
X164813747Y-62799583D01*
X164813748Y-62799584D01*
X164873855Y-63127573D01*
X164873856Y-63127577D01*
X164873857Y-63127581D01*
X164973050Y-63445907D01*
X164973054Y-63445919D01*
X164973057Y-63445926D01*
X165109910Y-63750000D01*
X165228697Y-63946497D01*
X165282422Y-64035369D01*
X165488064Y-64297851D01*
X165723844Y-64533631D01*
X165986326Y-64739273D01*
X165986331Y-64739276D01*
X165986335Y-64739279D01*
X166271696Y-64911786D01*
X166575770Y-65048639D01*
X166575783Y-65048643D01*
X166575788Y-65048645D01*
X166788005Y-65114773D01*
X166894123Y-65147841D01*
X167222112Y-65207948D01*
X167554955Y-65228081D01*
X167887798Y-65207948D01*
X168215787Y-65147841D01*
X168534140Y-65048639D01*
X168838214Y-64911786D01*
X169123575Y-64739279D01*
X169139583Y-64726738D01*
X169200156Y-64679281D01*
X169386062Y-64533634D01*
X169621848Y-64297848D01*
X169777889Y-64098676D01*
X169834729Y-64058043D01*
X169904513Y-64054591D01*
X169965086Y-64089415D01*
X169997216Y-64151459D01*
X169999500Y-64175149D01*
X169999500Y-107758332D01*
X169979815Y-107825371D01*
X169927011Y-107871126D01*
X169857853Y-107881070D01*
X169794297Y-107852045D01*
X169777889Y-107834805D01*
X169621845Y-107635630D01*
X169386065Y-107399850D01*
X169123583Y-107194208D01*
X169087452Y-107172366D01*
X168838214Y-107021696D01*
X168534140Y-106884843D01*
X168534133Y-106884840D01*
X168534121Y-106884836D01*
X168215795Y-106785643D01*
X168215791Y-106785642D01*
X168215787Y-106785641D01*
X167887798Y-106725534D01*
X167887797Y-106725533D01*
X167887792Y-106725533D01*
X167554955Y-106705401D01*
X167222117Y-106725533D01*
X167222112Y-106725534D01*
X166894123Y-106785641D01*
X166894120Y-106785641D01*
X166894114Y-106785643D01*
X166575788Y-106884836D01*
X166575772Y-106884842D01*
X166575770Y-106884843D01*
X166501874Y-106918101D01*
X166271700Y-107021694D01*
X166271698Y-107021695D01*
X165986326Y-107194208D01*
X165723844Y-107399850D01*
X165488064Y-107635630D01*
X165282422Y-107898112D01*
X165109909Y-108183484D01*
X165109908Y-108183486D01*
X164973056Y-108487559D01*
X164973050Y-108487574D01*
X164873857Y-108805900D01*
X164873855Y-108805906D01*
X164873855Y-108805909D01*
X164855788Y-108904496D01*
X164813747Y-109133903D01*
X164793615Y-109466741D01*
X164813747Y-109799578D01*
X164813747Y-109799583D01*
X164813748Y-109799584D01*
X164873855Y-110127573D01*
X164873856Y-110127577D01*
X164873857Y-110127581D01*
X164973050Y-110445907D01*
X164973054Y-110445919D01*
X164973057Y-110445926D01*
X165109910Y-110750000D01*
X165282417Y-111035361D01*
X165282422Y-111035369D01*
X165488064Y-111297851D01*
X165723844Y-111533631D01*
X165986326Y-111739273D01*
X165986331Y-111739276D01*
X165986335Y-111739279D01*
X166036135Y-111769384D01*
X166083322Y-111820911D01*
X166095160Y-111889771D01*
X166067891Y-111954099D01*
X166010172Y-111993473D01*
X165971984Y-111999500D01*
X120137738Y-111999500D01*
X120070699Y-111979815D01*
X120024944Y-111927011D01*
X120015000Y-111857853D01*
X120044025Y-111794297D01*
X120065699Y-111774885D01*
X120065671Y-111774849D01*
X120066225Y-111774414D01*
X120067317Y-111773437D01*
X120068610Y-111772544D01*
X120068620Y-111772538D01*
X120331107Y-111566893D01*
X120566893Y-111331107D01*
X120772538Y-111068620D01*
X120945045Y-110783259D01*
X121081898Y-110479185D01*
X121181100Y-110160832D01*
X121241207Y-109832843D01*
X121261340Y-109500000D01*
X121241207Y-109167157D01*
X121181100Y-108839168D01*
X121081898Y-108520815D01*
X121053628Y-108458001D01*
X143220532Y-108458001D01*
X143240364Y-108684686D01*
X143240366Y-108684697D01*
X143299258Y-108904488D01*
X143299261Y-108904497D01*
X143395431Y-109110732D01*
X143395432Y-109110734D01*
X143525954Y-109297141D01*
X143686858Y-109458045D01*
X143686861Y-109458047D01*
X143873266Y-109588568D01*
X144079504Y-109684739D01*
X144299308Y-109743635D01*
X144461230Y-109757801D01*
X144525998Y-109763468D01*
X144526000Y-109763468D01*
X144526002Y-109763468D01*
X144582673Y-109758509D01*
X144752692Y-109743635D01*
X144972496Y-109684739D01*
X145178734Y-109588568D01*
X145365139Y-109458047D01*
X145526047Y-109297139D01*
X145656568Y-109110734D01*
X145752739Y-108904496D01*
X145811635Y-108684692D01*
X145831468Y-108458001D01*
X153380532Y-108458001D01*
X153400364Y-108684686D01*
X153400366Y-108684697D01*
X153459258Y-108904488D01*
X153459261Y-108904497D01*
X153555431Y-109110732D01*
X153555432Y-109110734D01*
X153685954Y-109297141D01*
X153846858Y-109458045D01*
X153846861Y-109458047D01*
X154033266Y-109588568D01*
X154239504Y-109684739D01*
X154459308Y-109743635D01*
X154621230Y-109757801D01*
X154685998Y-109763468D01*
X154686000Y-109763468D01*
X154686002Y-109763468D01*
X154742673Y-109758509D01*
X154912692Y-109743635D01*
X155132496Y-109684739D01*
X155338734Y-109588568D01*
X155525139Y-109458047D01*
X155686047Y-109297139D01*
X155816568Y-109110734D01*
X155912739Y-108904496D01*
X155971635Y-108684692D01*
X155991468Y-108458000D01*
X155971635Y-108231308D01*
X155912739Y-108011504D01*
X155816568Y-107805266D01*
X155718839Y-107665693D01*
X155686045Y-107618858D01*
X155525141Y-107457954D01*
X155338734Y-107327432D01*
X155338732Y-107327431D01*
X155132497Y-107231261D01*
X155132488Y-107231258D01*
X154912697Y-107172366D01*
X154912693Y-107172365D01*
X154912692Y-107172365D01*
X154912691Y-107172364D01*
X154912686Y-107172364D01*
X154686002Y-107152532D01*
X154685998Y-107152532D01*
X154459313Y-107172364D01*
X154459302Y-107172366D01*
X154239511Y-107231258D01*
X154239502Y-107231261D01*
X154033267Y-107327431D01*
X154033265Y-107327432D01*
X153846858Y-107457954D01*
X153685954Y-107618858D01*
X153555432Y-107805265D01*
X153555431Y-107805267D01*
X153459261Y-108011502D01*
X153459258Y-108011511D01*
X153400366Y-108231302D01*
X153400364Y-108231313D01*
X153380532Y-108457998D01*
X153380532Y-108458001D01*
X145831468Y-108458001D01*
X145831468Y-108458000D01*
X145811635Y-108231308D01*
X145752739Y-108011504D01*
X145656568Y-107805266D01*
X145558839Y-107665693D01*
X145526045Y-107618858D01*
X145365141Y-107457954D01*
X145178734Y-107327432D01*
X145178732Y-107327431D01*
X144972497Y-107231261D01*
X144972488Y-107231258D01*
X144752697Y-107172366D01*
X144752693Y-107172365D01*
X144752692Y-107172365D01*
X144752691Y-107172364D01*
X144752686Y-107172364D01*
X144526002Y-107152532D01*
X144525998Y-107152532D01*
X144299313Y-107172364D01*
X144299302Y-107172366D01*
X144079511Y-107231258D01*
X144079502Y-107231261D01*
X143873267Y-107327431D01*
X143873265Y-107327432D01*
X143686858Y-107457954D01*
X143525954Y-107618858D01*
X143395432Y-107805265D01*
X143395431Y-107805267D01*
X143299261Y-108011502D01*
X143299258Y-108011511D01*
X143240366Y-108231302D01*
X143240364Y-108231313D01*
X143220532Y-108457998D01*
X143220532Y-108458001D01*
X121053628Y-108458001D01*
X120945045Y-108216741D01*
X120772538Y-107931380D01*
X120772535Y-107931376D01*
X120772532Y-107931371D01*
X120566890Y-107668889D01*
X120331110Y-107433109D01*
X120068628Y-107227467D01*
X120013611Y-107194208D01*
X119783259Y-107054955D01*
X119479185Y-106918102D01*
X119479178Y-106918099D01*
X119479166Y-106918095D01*
X119160840Y-106818902D01*
X119160836Y-106818901D01*
X119160832Y-106818900D01*
X118832843Y-106758793D01*
X118832842Y-106758792D01*
X118832837Y-106758792D01*
X118500000Y-106738660D01*
X118167162Y-106758792D01*
X118167157Y-106758793D01*
X117839168Y-106818900D01*
X117839165Y-106818900D01*
X117839159Y-106818902D01*
X117520833Y-106918095D01*
X117520817Y-106918101D01*
X117520815Y-106918102D01*
X117438178Y-106955294D01*
X117216745Y-107054953D01*
X117216743Y-107054954D01*
X116931371Y-107227467D01*
X116668889Y-107433109D01*
X116433109Y-107668889D01*
X116227461Y-107931379D01*
X116226556Y-107932692D01*
X116226220Y-107932964D01*
X116225151Y-107934329D01*
X116224838Y-107934084D01*
X116172277Y-107976687D01*
X116102829Y-107984353D01*
X116040261Y-107953255D01*
X116004439Y-107893267D01*
X116000500Y-107862261D01*
X116000500Y-104150006D01*
X117395288Y-104150006D01*
X117414103Y-104377085D01*
X117414105Y-104377093D01*
X117470045Y-104597993D01*
X117561579Y-104806669D01*
X117641874Y-104929570D01*
X118295951Y-104275495D01*
X118320102Y-104357745D01*
X118397057Y-104477489D01*
X118504631Y-104570702D01*
X118634108Y-104629833D01*
X118646882Y-104631669D01*
X117994015Y-105284536D01*
X117994015Y-105284538D01*
X118020360Y-105305043D01*
X118020371Y-105305050D01*
X118220769Y-105413499D01*
X118220780Y-105413504D01*
X118436298Y-105487492D01*
X118661065Y-105525000D01*
X118888935Y-105525000D01*
X119113701Y-105487492D01*
X119329219Y-105413504D01*
X119329230Y-105413499D01*
X119527506Y-105306199D01*
X119595834Y-105291604D01*
X119661206Y-105316267D01*
X119702867Y-105372358D01*
X119710140Y-105405523D01*
X119710769Y-105413504D01*
X119728853Y-105643297D01*
X119785830Y-105880619D01*
X119879222Y-106106089D01*
X120006737Y-106314173D01*
X120006738Y-106314176D01*
X120006741Y-106314179D01*
X120165241Y-106499759D01*
X120308897Y-106622453D01*
X120350823Y-106658261D01*
X120350826Y-106658262D01*
X120558910Y-106785777D01*
X120784381Y-106879169D01*
X120784378Y-106879169D01*
X120784384Y-106879170D01*
X120784388Y-106879172D01*
X121021698Y-106936146D01*
X121265000Y-106955294D01*
X121508302Y-106936146D01*
X121745612Y-106879172D01*
X121971089Y-106785777D01*
X122179179Y-106658259D01*
X122364759Y-106499759D01*
X122523259Y-106314179D01*
X122650777Y-106106089D01*
X122744172Y-105880612D01*
X122801146Y-105643302D01*
X122820294Y-105400000D01*
X122801146Y-105156698D01*
X122744172Y-104919388D01*
X122650777Y-104693911D01*
X122650777Y-104693910D01*
X122523262Y-104485826D01*
X122523261Y-104485823D01*
X122487453Y-104443897D01*
X122364759Y-104300241D01*
X122200072Y-104159585D01*
X122179176Y-104141738D01*
X122179173Y-104141737D01*
X121971089Y-104014222D01*
X121745618Y-103920830D01*
X121745621Y-103920830D01*
X121639992Y-103895470D01*
X121508302Y-103863854D01*
X121508300Y-103863853D01*
X121508297Y-103863853D01*
X121265000Y-103844706D01*
X121021702Y-103863853D01*
X120784380Y-103920830D01*
X120558910Y-104014222D01*
X120350826Y-104141737D01*
X120346885Y-104144601D01*
X120346214Y-104143677D01*
X120287363Y-104170035D01*
X120218280Y-104159585D01*
X120165812Y-104113444D01*
X120147039Y-104057410D01*
X120135894Y-103922905D01*
X120079954Y-103702006D01*
X119988421Y-103493333D01*
X119908123Y-103370427D01*
X119254048Y-104024503D01*
X119229898Y-103942255D01*
X119152943Y-103822511D01*
X119045369Y-103729298D01*
X118915892Y-103670167D01*
X118903117Y-103668330D01*
X119555983Y-103015462D01*
X119529626Y-102994948D01*
X119329230Y-102886500D01*
X119329219Y-102886495D01*
X119188690Y-102838251D01*
X143220532Y-102838251D01*
X143240364Y-103064936D01*
X143240366Y-103064947D01*
X143299258Y-103284738D01*
X143299261Y-103284747D01*
X143395431Y-103490982D01*
X143395432Y-103490984D01*
X143525954Y-103677391D01*
X143686858Y-103838295D01*
X143733693Y-103871089D01*
X143873266Y-103968818D01*
X144079504Y-104064989D01*
X144299308Y-104123885D01*
X144461230Y-104138051D01*
X144525998Y-104143718D01*
X144526000Y-104143718D01*
X144526002Y-104143718D01*
X144582673Y-104138759D01*
X144752692Y-104123885D01*
X144972496Y-104064989D01*
X145178734Y-103968818D01*
X145365139Y-103838297D01*
X145526047Y-103677389D01*
X145656568Y-103490984D01*
X145752739Y-103284746D01*
X145811635Y-103064942D01*
X145831468Y-102838251D01*
X153380532Y-102838251D01*
X153400364Y-103064936D01*
X153400366Y-103064947D01*
X153459258Y-103284738D01*
X153459261Y-103284747D01*
X153555431Y-103490982D01*
X153555432Y-103490984D01*
X153685954Y-103677391D01*
X153846858Y-103838295D01*
X153893693Y-103871089D01*
X154033266Y-103968818D01*
X154239504Y-104064989D01*
X154459308Y-104123885D01*
X154621230Y-104138051D01*
X154685998Y-104143718D01*
X154686000Y-104143718D01*
X154686002Y-104143718D01*
X154742673Y-104138759D01*
X154912692Y-104123885D01*
X155132496Y-104064989D01*
X155338734Y-103968818D01*
X155525139Y-103838297D01*
X155686047Y-103677389D01*
X155816568Y-103490984D01*
X155912739Y-103284746D01*
X155971635Y-103064942D01*
X155991468Y-102838250D01*
X155971635Y-102611558D01*
X155912739Y-102391754D01*
X155816568Y-102185516D01*
X155686047Y-101999111D01*
X155686045Y-101999108D01*
X155525141Y-101838204D01*
X155338734Y-101707682D01*
X155338732Y-101707681D01*
X155132497Y-101611511D01*
X155132488Y-101611508D01*
X154912697Y-101552616D01*
X154912693Y-101552615D01*
X154912692Y-101552615D01*
X154912691Y-101552614D01*
X154912686Y-101552614D01*
X154686002Y-101532782D01*
X154685998Y-101532782D01*
X154459313Y-101552614D01*
X154459302Y-101552616D01*
X154239511Y-101611508D01*
X154239502Y-101611511D01*
X154033267Y-101707681D01*
X154033265Y-101707682D01*
X153846858Y-101838204D01*
X153685954Y-101999108D01*
X153555432Y-102185515D01*
X153555431Y-102185517D01*
X153459261Y-102391752D01*
X153459258Y-102391761D01*
X153400366Y-102611552D01*
X153400364Y-102611563D01*
X153380532Y-102838248D01*
X153380532Y-102838251D01*
X145831468Y-102838251D01*
X145831468Y-102838250D01*
X145811635Y-102611558D01*
X145752739Y-102391754D01*
X145656568Y-102185516D01*
X145526047Y-101999111D01*
X145526045Y-101999108D01*
X145365141Y-101838204D01*
X145178734Y-101707682D01*
X145178732Y-101707681D01*
X144972497Y-101611511D01*
X144972488Y-101611508D01*
X144752697Y-101552616D01*
X144752693Y-101552615D01*
X144752692Y-101552615D01*
X144752691Y-101552614D01*
X144752686Y-101552614D01*
X144526002Y-101532782D01*
X144525998Y-101532782D01*
X144299313Y-101552614D01*
X144299302Y-101552616D01*
X144079511Y-101611508D01*
X144079502Y-101611511D01*
X143873267Y-101707681D01*
X143873265Y-101707682D01*
X143686858Y-101838204D01*
X143525954Y-101999108D01*
X143395432Y-102185515D01*
X143395431Y-102185517D01*
X143299261Y-102391752D01*
X143299258Y-102391761D01*
X143240366Y-102611552D01*
X143240364Y-102611563D01*
X143220532Y-102838248D01*
X143220532Y-102838251D01*
X119188690Y-102838251D01*
X119113701Y-102812507D01*
X118888935Y-102775000D01*
X118661065Y-102775000D01*
X118436298Y-102812507D01*
X118220780Y-102886495D01*
X118220769Y-102886500D01*
X118020366Y-102994952D01*
X117994015Y-103015461D01*
X117994015Y-103015463D01*
X118646883Y-103668330D01*
X118634108Y-103670167D01*
X118504631Y-103729298D01*
X118397057Y-103822511D01*
X118320102Y-103942255D01*
X118295951Y-104024504D01*
X117641874Y-103370427D01*
X117561579Y-103493330D01*
X117470045Y-103702006D01*
X117414105Y-103922906D01*
X117414103Y-103922914D01*
X117395288Y-104149993D01*
X117395288Y-104150006D01*
X116000500Y-104150006D01*
X116000500Y-99650006D01*
X117394786Y-99650006D01*
X117413608Y-99877168D01*
X117413610Y-99877179D01*
X117469569Y-100098155D01*
X117561137Y-100306908D01*
X117685814Y-100497742D01*
X117840208Y-100665458D01*
X117840212Y-100665461D01*
X118020094Y-100805469D01*
X118020096Y-100805470D01*
X118020099Y-100805472D01*
X118136646Y-100868543D01*
X118220574Y-100913963D01*
X118332529Y-100952397D01*
X118436173Y-100987979D01*
X118436175Y-100987979D01*
X118436177Y-100987980D01*
X118661023Y-101025500D01*
X118661024Y-101025500D01*
X118888976Y-101025500D01*
X118888977Y-101025500D01*
X119113823Y-100987980D01*
X119329426Y-100913963D01*
X119529906Y-100805469D01*
X119709794Y-100665456D01*
X119864183Y-100497745D01*
X119988862Y-100306909D01*
X120080430Y-100098155D01*
X120136390Y-99877176D01*
X120148282Y-99733647D01*
X120173436Y-99668465D01*
X120229838Y-99627226D01*
X120299581Y-99623028D01*
X120346122Y-99646448D01*
X120346885Y-99645399D01*
X120350816Y-99648254D01*
X120350821Y-99648259D01*
X120350826Y-99648262D01*
X120558910Y-99775777D01*
X120784381Y-99869169D01*
X120784378Y-99869169D01*
X120784384Y-99869170D01*
X120784388Y-99869172D01*
X121021698Y-99926146D01*
X121265000Y-99945294D01*
X121508302Y-99926146D01*
X121745612Y-99869172D01*
X121971089Y-99775777D01*
X122179179Y-99648259D01*
X122364759Y-99489759D01*
X122523259Y-99304179D01*
X122650777Y-99096089D01*
X122744172Y-98870612D01*
X122801146Y-98633302D01*
X122820294Y-98390000D01*
X122801146Y-98146698D01*
X122744172Y-97909388D01*
X122736987Y-97892041D01*
X122650777Y-97683910D01*
X122523262Y-97475826D01*
X122523261Y-97475823D01*
X122487453Y-97433897D01*
X122364759Y-97290241D01*
X122280762Y-97218501D01*
X143220532Y-97218501D01*
X143240364Y-97445186D01*
X143240366Y-97445197D01*
X143299258Y-97664988D01*
X143299261Y-97664997D01*
X143395431Y-97871232D01*
X143395432Y-97871234D01*
X143525954Y-98057641D01*
X143686858Y-98218545D01*
X143686861Y-98218547D01*
X143873266Y-98349068D01*
X144079504Y-98445239D01*
X144299308Y-98504135D01*
X144461230Y-98518301D01*
X144525998Y-98523968D01*
X144526000Y-98523968D01*
X144526002Y-98523968D01*
X144582673Y-98519009D01*
X144752692Y-98504135D01*
X144972496Y-98445239D01*
X145178734Y-98349068D01*
X145365139Y-98218547D01*
X145526047Y-98057639D01*
X145656568Y-97871234D01*
X145752739Y-97664996D01*
X145811635Y-97445192D01*
X145831468Y-97218501D01*
X153380532Y-97218501D01*
X153400364Y-97445186D01*
X153400366Y-97445197D01*
X153459258Y-97664988D01*
X153459261Y-97664997D01*
X153555431Y-97871232D01*
X153555432Y-97871234D01*
X153685954Y-98057641D01*
X153846858Y-98218545D01*
X153846861Y-98218547D01*
X154033266Y-98349068D01*
X154239504Y-98445239D01*
X154459308Y-98504135D01*
X154621230Y-98518301D01*
X154685998Y-98523968D01*
X154686000Y-98523968D01*
X154686002Y-98523968D01*
X154742673Y-98519009D01*
X154788441Y-98515005D01*
X162463057Y-98515005D01*
X162482807Y-98828942D01*
X162482808Y-98828949D01*
X162541755Y-99137958D01*
X162638963Y-99437132D01*
X162638965Y-99437137D01*
X162772900Y-99721761D01*
X162772903Y-99721767D01*
X162941457Y-99987367D01*
X162941460Y-99987371D01*
X163032286Y-100097160D01*
X164368000Y-98761446D01*
X164368000Y-99468551D01*
X163382971Y-100453579D01*
X163382972Y-100453581D01*
X163625772Y-100629985D01*
X163625790Y-100629996D01*
X163901447Y-100781540D01*
X163901455Y-100781544D01*
X164193926Y-100897340D01*
X164498620Y-100975573D01*
X164498629Y-100975575D01*
X164810701Y-101014999D01*
X164810715Y-101015000D01*
X165125285Y-101015000D01*
X165125298Y-101014999D01*
X165437370Y-100975575D01*
X165437379Y-100975573D01*
X165742073Y-100897340D01*
X166034544Y-100781544D01*
X166034552Y-100781540D01*
X166310209Y-100629996D01*
X166310219Y-100629990D01*
X166553026Y-100453579D01*
X166553027Y-100453579D01*
X165568000Y-99468552D01*
X165568000Y-98761447D01*
X166903712Y-100097160D01*
X166994544Y-99987364D01*
X167163096Y-99721767D01*
X167163099Y-99721761D01*
X167297034Y-99437137D01*
X167297036Y-99437132D01*
X167394244Y-99137958D01*
X167453191Y-98828949D01*
X167453192Y-98828942D01*
X167472943Y-98515005D01*
X167472943Y-98514994D01*
X167453192Y-98201057D01*
X167453191Y-98201050D01*
X167394244Y-97892041D01*
X167297036Y-97592867D01*
X167297034Y-97592862D01*
X167163099Y-97308238D01*
X167163096Y-97308232D01*
X166994542Y-97042632D01*
X166994539Y-97042628D01*
X166903712Y-96932838D01*
X165568000Y-98268551D01*
X165568000Y-97561447D01*
X166553027Y-96576419D01*
X166553026Y-96576417D01*
X166310227Y-96400014D01*
X166310209Y-96400003D01*
X166034552Y-96248459D01*
X166034544Y-96248455D01*
X165742073Y-96132659D01*
X165437379Y-96054426D01*
X165437370Y-96054424D01*
X165125298Y-96015000D01*
X164810701Y-96015000D01*
X164498629Y-96054424D01*
X164498620Y-96054426D01*
X164193926Y-96132659D01*
X163901455Y-96248455D01*
X163901447Y-96248459D01*
X163625787Y-96400004D01*
X163625782Y-96400007D01*
X163382972Y-96576418D01*
X163382971Y-96576419D01*
X164368000Y-97561447D01*
X164368000Y-98268552D01*
X163032286Y-96932838D01*
X163032285Y-96932838D01*
X162941459Y-97042629D01*
X162941457Y-97042632D01*
X162772903Y-97308232D01*
X162772900Y-97308238D01*
X162638965Y-97592862D01*
X162638963Y-97592867D01*
X162541755Y-97892041D01*
X162482808Y-98201050D01*
X162482807Y-98201057D01*
X162463057Y-98514994D01*
X162463057Y-98515005D01*
X154788441Y-98515005D01*
X154912692Y-98504135D01*
X155132496Y-98445239D01*
X155338734Y-98349068D01*
X155525139Y-98218547D01*
X155686047Y-98057639D01*
X155816568Y-97871234D01*
X155912739Y-97664996D01*
X155971635Y-97445192D01*
X155991468Y-97218500D01*
X155990935Y-97212412D01*
X155979970Y-97087075D01*
X155971635Y-96991808D01*
X155912739Y-96772004D01*
X155816568Y-96565766D01*
X155686047Y-96379361D01*
X155686045Y-96379358D01*
X155525141Y-96218454D01*
X155338734Y-96087932D01*
X155338732Y-96087931D01*
X155132497Y-95991761D01*
X155132488Y-95991758D01*
X154912697Y-95932866D01*
X154912693Y-95932865D01*
X154912692Y-95932865D01*
X154912691Y-95932864D01*
X154912686Y-95932864D01*
X154686002Y-95913032D01*
X154685998Y-95913032D01*
X154459313Y-95932864D01*
X154459302Y-95932866D01*
X154239511Y-95991758D01*
X154239502Y-95991761D01*
X154033267Y-96087931D01*
X154033265Y-96087932D01*
X153846858Y-96218454D01*
X153685954Y-96379358D01*
X153555432Y-96565765D01*
X153555431Y-96565767D01*
X153459261Y-96772002D01*
X153459258Y-96772011D01*
X153400366Y-96991802D01*
X153400364Y-96991813D01*
X153380532Y-97218498D01*
X153380532Y-97218501D01*
X145831468Y-97218501D01*
X145831468Y-97218500D01*
X145830935Y-97212412D01*
X145819970Y-97087075D01*
X145811635Y-96991808D01*
X145752739Y-96772004D01*
X145656568Y-96565766D01*
X145526047Y-96379361D01*
X145526045Y-96379358D01*
X145365141Y-96218454D01*
X145178734Y-96087932D01*
X145178732Y-96087931D01*
X144972497Y-95991761D01*
X144972488Y-95991758D01*
X144752697Y-95932866D01*
X144752693Y-95932865D01*
X144752692Y-95932865D01*
X144752691Y-95932864D01*
X144752686Y-95932864D01*
X144526002Y-95913032D01*
X144525998Y-95913032D01*
X144299313Y-95932864D01*
X144299302Y-95932866D01*
X144079511Y-95991758D01*
X144079502Y-95991761D01*
X143873267Y-96087931D01*
X143873265Y-96087932D01*
X143686858Y-96218454D01*
X143525954Y-96379358D01*
X143395432Y-96565765D01*
X143395431Y-96565767D01*
X143299261Y-96772002D01*
X143299258Y-96772011D01*
X143240366Y-96991802D01*
X143240364Y-96991813D01*
X143220532Y-97218498D01*
X143220532Y-97218501D01*
X122280762Y-97218501D01*
X122242063Y-97185449D01*
X122179176Y-97131738D01*
X122179173Y-97131737D01*
X121971089Y-97004222D01*
X121745618Y-96910830D01*
X121745621Y-96910830D01*
X121639992Y-96885470D01*
X121508302Y-96853854D01*
X121508300Y-96853853D01*
X121508297Y-96853853D01*
X121265000Y-96834706D01*
X121021702Y-96853853D01*
X120784380Y-96910830D01*
X120558910Y-97004222D01*
X120350826Y-97131737D01*
X120350823Y-97131738D01*
X120165241Y-97290241D01*
X120006738Y-97475823D01*
X120006737Y-97475826D01*
X119879222Y-97683910D01*
X119785830Y-97909380D01*
X119728853Y-98146702D01*
X119709429Y-98393520D01*
X119684545Y-98458808D01*
X119628314Y-98500279D01*
X119558589Y-98504766D01*
X119526794Y-98492846D01*
X119329432Y-98386040D01*
X119329429Y-98386039D01*
X119329426Y-98386037D01*
X119329420Y-98386035D01*
X119329418Y-98386034D01*
X119113826Y-98312020D01*
X118945188Y-98283880D01*
X118888977Y-98274500D01*
X118661023Y-98274500D01*
X118616053Y-98282004D01*
X118436173Y-98312020D01*
X118220581Y-98386034D01*
X118220567Y-98386040D01*
X118020099Y-98494527D01*
X118020090Y-98494533D01*
X117840212Y-98634538D01*
X117840208Y-98634541D01*
X117685814Y-98802257D01*
X117561137Y-98993091D01*
X117469569Y-99201844D01*
X117413610Y-99422820D01*
X117413608Y-99422831D01*
X117394786Y-99649993D01*
X117394786Y-99650006D01*
X116000500Y-99650006D01*
X116000500Y-92103500D01*
X116020185Y-92036461D01*
X116072989Y-91990706D01*
X116124500Y-91979500D01*
X136987240Y-91979500D01*
X136987383Y-91979528D01*
X136987384Y-91979524D01*
X137011997Y-91979539D01*
X137012000Y-91979541D01*
X137012383Y-91979383D01*
X137012500Y-91979099D01*
X137012541Y-91979000D01*
X137012540Y-91978997D01*
X137012583Y-91954889D01*
X137012500Y-91954467D01*
X137012500Y-91598751D01*
X143220532Y-91598751D01*
X143240364Y-91825436D01*
X143240366Y-91825447D01*
X143299258Y-92045238D01*
X143299261Y-92045247D01*
X143395431Y-92251482D01*
X143395432Y-92251484D01*
X143525954Y-92437891D01*
X143686858Y-92598795D01*
X143686861Y-92598797D01*
X143873266Y-92729318D01*
X144079504Y-92825489D01*
X144299308Y-92884385D01*
X144461230Y-92898551D01*
X144525998Y-92904218D01*
X144526000Y-92904218D01*
X144526002Y-92904218D01*
X144582673Y-92899259D01*
X144752692Y-92884385D01*
X144972496Y-92825489D01*
X145178734Y-92729318D01*
X145365139Y-92598797D01*
X145526047Y-92437889D01*
X145656568Y-92251484D01*
X145752739Y-92045246D01*
X145811635Y-91825442D01*
X145831468Y-91598751D01*
X153380532Y-91598751D01*
X153400364Y-91825436D01*
X153400366Y-91825447D01*
X153459258Y-92045238D01*
X153459261Y-92045247D01*
X153555431Y-92251482D01*
X153555432Y-92251484D01*
X153685954Y-92437891D01*
X153846858Y-92598795D01*
X153846861Y-92598797D01*
X154033266Y-92729318D01*
X154239504Y-92825489D01*
X154459308Y-92884385D01*
X154621230Y-92898551D01*
X154685998Y-92904218D01*
X154686000Y-92904218D01*
X154686002Y-92904218D01*
X154742673Y-92899259D01*
X154912692Y-92884385D01*
X155132496Y-92825489D01*
X155338734Y-92729318D01*
X155525139Y-92598797D01*
X155686047Y-92437889D01*
X155816568Y-92251484D01*
X155912739Y-92045246D01*
X155971635Y-91825442D01*
X155991468Y-91598750D01*
X155971635Y-91372058D01*
X155912739Y-91152254D01*
X155816568Y-90946016D01*
X155686047Y-90759611D01*
X155686045Y-90759608D01*
X155525141Y-90598704D01*
X155338734Y-90468182D01*
X155338732Y-90468181D01*
X155132497Y-90372011D01*
X155132488Y-90372008D01*
X154912697Y-90313116D01*
X154912693Y-90313115D01*
X154912692Y-90313115D01*
X154912691Y-90313114D01*
X154912686Y-90313114D01*
X154686002Y-90293282D01*
X154685998Y-90293282D01*
X154459313Y-90313114D01*
X154459302Y-90313116D01*
X154239511Y-90372008D01*
X154239502Y-90372011D01*
X154033267Y-90468181D01*
X154033265Y-90468182D01*
X153846858Y-90598704D01*
X153685954Y-90759608D01*
X153555432Y-90946015D01*
X153555431Y-90946017D01*
X153459261Y-91152252D01*
X153459258Y-91152261D01*
X153400366Y-91372052D01*
X153400364Y-91372063D01*
X153380532Y-91598748D01*
X153380532Y-91598751D01*
X145831468Y-91598751D01*
X145831468Y-91598750D01*
X145811635Y-91372058D01*
X145752739Y-91152254D01*
X145656568Y-90946016D01*
X145526047Y-90759611D01*
X145526045Y-90759608D01*
X145365141Y-90598704D01*
X145178734Y-90468182D01*
X145178732Y-90468181D01*
X144972497Y-90372011D01*
X144972488Y-90372008D01*
X144752697Y-90313116D01*
X144752693Y-90313115D01*
X144752692Y-90313115D01*
X144752691Y-90313114D01*
X144752686Y-90313114D01*
X144526002Y-90293282D01*
X144525998Y-90293282D01*
X144299313Y-90313114D01*
X144299302Y-90313116D01*
X144079511Y-90372008D01*
X144079502Y-90372011D01*
X143873267Y-90468181D01*
X143873265Y-90468182D01*
X143686858Y-90598704D01*
X143525954Y-90759608D01*
X143395432Y-90946015D01*
X143395431Y-90946017D01*
X143299261Y-91152252D01*
X143299258Y-91152261D01*
X143240366Y-91372052D01*
X143240364Y-91372063D01*
X143220532Y-91598748D01*
X143220532Y-91598751D01*
X137012500Y-91598751D01*
X137012500Y-88570001D01*
X161612532Y-88570001D01*
X161632364Y-88796686D01*
X161632366Y-88796697D01*
X161691258Y-89016488D01*
X161691261Y-89016497D01*
X161787431Y-89222732D01*
X161787432Y-89222734D01*
X161917954Y-89409141D01*
X162078858Y-89570045D01*
X162144709Y-89616154D01*
X162188334Y-89670730D01*
X162197114Y-89728536D01*
X162192526Y-89780974D01*
X162785466Y-90373913D01*
X162775685Y-90375320D01*
X162644900Y-90435048D01*
X162536239Y-90529202D01*
X162458507Y-90650156D01*
X162434923Y-90730475D01*
X161838974Y-90134526D01*
X161838973Y-90134526D01*
X161787868Y-90207512D01*
X161787866Y-90207516D01*
X161691734Y-90413673D01*
X161691730Y-90413682D01*
X161632860Y-90633389D01*
X161632858Y-90633400D01*
X161613034Y-90859997D01*
X161613034Y-90860002D01*
X161632858Y-91086599D01*
X161632860Y-91086610D01*
X161691730Y-91306317D01*
X161691735Y-91306331D01*
X161787863Y-91512478D01*
X161838974Y-91585472D01*
X162434923Y-90989523D01*
X162458507Y-91069844D01*
X162536239Y-91190798D01*
X162644900Y-91284952D01*
X162775685Y-91344680D01*
X162785466Y-91346086D01*
X162192526Y-91939025D01*
X162265513Y-91990132D01*
X162265521Y-91990136D01*
X162471668Y-92086264D01*
X162471682Y-92086269D01*
X162691389Y-92145139D01*
X162691400Y-92145141D01*
X162917998Y-92164966D01*
X162918002Y-92164966D01*
X163144599Y-92145141D01*
X163144610Y-92145139D01*
X163364317Y-92086269D01*
X163364331Y-92086264D01*
X163570478Y-91990136D01*
X163643471Y-91939024D01*
X163050533Y-91346086D01*
X163060315Y-91344680D01*
X163191100Y-91284952D01*
X163299761Y-91190798D01*
X163377493Y-91069844D01*
X163401076Y-90989523D01*
X163997024Y-91585471D01*
X164048136Y-91512478D01*
X164144264Y-91306331D01*
X164144269Y-91306317D01*
X164203139Y-91086610D01*
X164203141Y-91086599D01*
X164209618Y-91012560D01*
X164235069Y-90947491D01*
X164291660Y-90906512D01*
X164361422Y-90902633D01*
X164385547Y-90910982D01*
X164451504Y-90941739D01*
X164451509Y-90941740D01*
X164451511Y-90941741D01*
X164472971Y-90947491D01*
X164671308Y-91000635D01*
X164810149Y-91012782D01*
X164897998Y-91020468D01*
X164898000Y-91020468D01*
X164898002Y-91020468D01*
X164954673Y-91015509D01*
X165124692Y-91000635D01*
X165344496Y-90941739D01*
X165409965Y-90911209D01*
X165479041Y-90900717D01*
X165542825Y-90929236D01*
X165581066Y-90987712D01*
X165585898Y-91012782D01*
X165592364Y-91086687D01*
X165592366Y-91086697D01*
X165651258Y-91306488D01*
X165651261Y-91306497D01*
X165747431Y-91512732D01*
X165747432Y-91512734D01*
X165877954Y-91699141D01*
X166038858Y-91860045D01*
X166038861Y-91860047D01*
X166225266Y-91990568D01*
X166431504Y-92086739D01*
X166651308Y-92145635D01*
X166813230Y-92159801D01*
X166877998Y-92165468D01*
X166878000Y-92165468D01*
X166878002Y-92165468D01*
X166934673Y-92160509D01*
X167104692Y-92145635D01*
X167324496Y-92086739D01*
X167530734Y-91990568D01*
X167717139Y-91860047D01*
X167878047Y-91699139D01*
X168008568Y-91512734D01*
X168104739Y-91306496D01*
X168163635Y-91086692D01*
X168183468Y-90860000D01*
X168180700Y-90828367D01*
X168163635Y-90633313D01*
X168163635Y-90633308D01*
X168104739Y-90413504D01*
X168008568Y-90207266D01*
X167878047Y-90020861D01*
X167878045Y-90020858D01*
X167717142Y-89859955D01*
X167706079Y-89852208D01*
X167655188Y-89816574D01*
X167611563Y-89761999D01*
X167604369Y-89692501D01*
X167635891Y-89630146D01*
X167655186Y-89613426D01*
X167717139Y-89570047D01*
X167878047Y-89409139D01*
X168008568Y-89222734D01*
X168104739Y-89016496D01*
X168163635Y-88796692D01*
X168183468Y-88570000D01*
X168180700Y-88538367D01*
X168163635Y-88343313D01*
X168163635Y-88343308D01*
X168104739Y-88123504D01*
X168008568Y-87917266D01*
X167878047Y-87730861D01*
X167878045Y-87730858D01*
X167717142Y-87569955D01*
X167706079Y-87562208D01*
X167655188Y-87526574D01*
X167611563Y-87471999D01*
X167604369Y-87402501D01*
X167635891Y-87340146D01*
X167655188Y-87323425D01*
X167717139Y-87280047D01*
X167878047Y-87119139D01*
X168008568Y-86932734D01*
X168104739Y-86726496D01*
X168163635Y-86506692D01*
X168183468Y-86280000D01*
X168163635Y-86053308D01*
X168104739Y-85833504D01*
X168008568Y-85627266D01*
X167878047Y-85440861D01*
X167878045Y-85440858D01*
X167717142Y-85279955D01*
X167706079Y-85272208D01*
X167655188Y-85236574D01*
X167611563Y-85181999D01*
X167604369Y-85112501D01*
X167635891Y-85050146D01*
X167655188Y-85033425D01*
X167717139Y-84990047D01*
X167878047Y-84829139D01*
X168008568Y-84642734D01*
X168104739Y-84436496D01*
X168163635Y-84216692D01*
X168183468Y-83990000D01*
X168163635Y-83763308D01*
X168104739Y-83543504D01*
X168008568Y-83337266D01*
X167878047Y-83150861D01*
X167878046Y-83150860D01*
X167878045Y-83150858D01*
X167717142Y-82989955D01*
X167657290Y-82948047D01*
X167655188Y-82946574D01*
X167611563Y-82891999D01*
X167604369Y-82822501D01*
X167635891Y-82760146D01*
X167655186Y-82743426D01*
X167717139Y-82700047D01*
X167878047Y-82539139D01*
X168008568Y-82352734D01*
X168104739Y-82146496D01*
X168163635Y-81926692D01*
X168183468Y-81700000D01*
X168163635Y-81473308D01*
X168104739Y-81253504D01*
X168008568Y-81047266D01*
X167878047Y-80860861D01*
X167878045Y-80860858D01*
X167717141Y-80699954D01*
X167530734Y-80569432D01*
X167530732Y-80569431D01*
X167324497Y-80473261D01*
X167324488Y-80473258D01*
X167104697Y-80414366D01*
X167104693Y-80414365D01*
X167104692Y-80414365D01*
X167104691Y-80414364D01*
X167104686Y-80414364D01*
X166878002Y-80394532D01*
X166877998Y-80394532D01*
X166651313Y-80414364D01*
X166651302Y-80414366D01*
X166431511Y-80473258D01*
X166431506Y-80473260D01*
X166365550Y-80504016D01*
X166296472Y-80514507D01*
X166232689Y-80485987D01*
X166194450Y-80427510D01*
X166189618Y-80402439D01*
X166183141Y-80328400D01*
X166183139Y-80328389D01*
X166124269Y-80108682D01*
X166124264Y-80108668D01*
X166028136Y-79902521D01*
X166028132Y-79902513D01*
X165977025Y-79829526D01*
X165381076Y-80425474D01*
X165357493Y-80345156D01*
X165279761Y-80224202D01*
X165171100Y-80130048D01*
X165040315Y-80070320D01*
X165030533Y-80068913D01*
X165623472Y-79475974D01*
X165550478Y-79424863D01*
X165344331Y-79328735D01*
X165344317Y-79328730D01*
X165124610Y-79269860D01*
X165124599Y-79269858D01*
X164898002Y-79250034D01*
X164897998Y-79250034D01*
X164671400Y-79269858D01*
X164671389Y-79269860D01*
X164451682Y-79328730D01*
X164451673Y-79328734D01*
X164245516Y-79424866D01*
X164245512Y-79424868D01*
X164172526Y-79475973D01*
X164172526Y-79475974D01*
X164765466Y-80068913D01*
X164755685Y-80070320D01*
X164624900Y-80130048D01*
X164516239Y-80224202D01*
X164438507Y-80345156D01*
X164414923Y-80425475D01*
X163818974Y-79829526D01*
X163818973Y-79829526D01*
X163767868Y-79902512D01*
X163767866Y-79902516D01*
X163671734Y-80108673D01*
X163671731Y-80108680D01*
X163618432Y-80307594D01*
X163582067Y-80367254D01*
X163519220Y-80397783D01*
X163498657Y-80399500D01*
X162070129Y-80399500D01*
X162070123Y-80399501D01*
X162010516Y-80405908D01*
X161875671Y-80456202D01*
X161875664Y-80456206D01*
X161760455Y-80542452D01*
X161760452Y-80542455D01*
X161674206Y-80657664D01*
X161674202Y-80657671D01*
X161623908Y-80792517D01*
X161617501Y-80852116D01*
X161617500Y-80852135D01*
X161617500Y-82547870D01*
X161617501Y-82547876D01*
X161623908Y-82607483D01*
X161674202Y-82742328D01*
X161674206Y-82742335D01*
X161760452Y-82857544D01*
X161760455Y-82857547D01*
X161875664Y-82943793D01*
X161875675Y-82943799D01*
X161876497Y-82944106D01*
X161877198Y-82944631D01*
X161883454Y-82948047D01*
X161882962Y-82948946D01*
X161932431Y-82985977D01*
X161956847Y-83051442D01*
X161941995Y-83119715D01*
X161920851Y-83147962D01*
X161917953Y-83150860D01*
X161787432Y-83337265D01*
X161787431Y-83337267D01*
X161691261Y-83543502D01*
X161691258Y-83543511D01*
X161632366Y-83763302D01*
X161632364Y-83763313D01*
X161612532Y-83989998D01*
X161612532Y-83990001D01*
X161632364Y-84216686D01*
X161632366Y-84216697D01*
X161691258Y-84436488D01*
X161691261Y-84436497D01*
X161787431Y-84642732D01*
X161787432Y-84642734D01*
X161917954Y-84829141D01*
X162078859Y-84990046D01*
X162140811Y-85033425D01*
X162184436Y-85088002D01*
X162191630Y-85157500D01*
X162160107Y-85219855D01*
X162140811Y-85236575D01*
X162078859Y-85279953D01*
X161917954Y-85440858D01*
X161787432Y-85627265D01*
X161787431Y-85627267D01*
X161691261Y-85833502D01*
X161691258Y-85833511D01*
X161632366Y-86053302D01*
X161632364Y-86053313D01*
X161612532Y-86279998D01*
X161612532Y-86280001D01*
X161632364Y-86506686D01*
X161632366Y-86506697D01*
X161691258Y-86726488D01*
X161691261Y-86726497D01*
X161787431Y-86932732D01*
X161787432Y-86932734D01*
X161917954Y-87119141D01*
X162078859Y-87280046D01*
X162140811Y-87323425D01*
X162184436Y-87378002D01*
X162191630Y-87447500D01*
X162160107Y-87509855D01*
X162140811Y-87526575D01*
X162078859Y-87569953D01*
X161917954Y-87730858D01*
X161787432Y-87917265D01*
X161787431Y-87917267D01*
X161691261Y-88123502D01*
X161691258Y-88123511D01*
X161632366Y-88343302D01*
X161632364Y-88343313D01*
X161612532Y-88569998D01*
X161612532Y-88570001D01*
X137012500Y-88570001D01*
X137012500Y-85979001D01*
X143220532Y-85979001D01*
X143240364Y-86205686D01*
X143240366Y-86205697D01*
X143299258Y-86425488D01*
X143299261Y-86425497D01*
X143395431Y-86631732D01*
X143395432Y-86631734D01*
X143525954Y-86818141D01*
X143686858Y-86979045D01*
X143686861Y-86979047D01*
X143873266Y-87109568D01*
X144079504Y-87205739D01*
X144299308Y-87264635D01*
X144461230Y-87278801D01*
X144525998Y-87284468D01*
X144526000Y-87284468D01*
X144526002Y-87284468D01*
X144582673Y-87279509D01*
X144752692Y-87264635D01*
X144972496Y-87205739D01*
X145178734Y-87109568D01*
X145365139Y-86979047D01*
X145526047Y-86818139D01*
X145656568Y-86631734D01*
X145752739Y-86425496D01*
X145811635Y-86205692D01*
X145831468Y-85979001D01*
X153380532Y-85979001D01*
X153400364Y-86205686D01*
X153400366Y-86205697D01*
X153459258Y-86425488D01*
X153459261Y-86425497D01*
X153555431Y-86631732D01*
X153555432Y-86631734D01*
X153685954Y-86818141D01*
X153846858Y-86979045D01*
X153846861Y-86979047D01*
X154033266Y-87109568D01*
X154239504Y-87205739D01*
X154459308Y-87264635D01*
X154621230Y-87278801D01*
X154685998Y-87284468D01*
X154686000Y-87284468D01*
X154686002Y-87284468D01*
X154742673Y-87279509D01*
X154912692Y-87264635D01*
X155132496Y-87205739D01*
X155338734Y-87109568D01*
X155525139Y-86979047D01*
X155686047Y-86818139D01*
X155816568Y-86631734D01*
X155912739Y-86425496D01*
X155971635Y-86205692D01*
X155991468Y-85979000D01*
X155971635Y-85752308D01*
X155912739Y-85532504D01*
X155816568Y-85326266D01*
X155686047Y-85139861D01*
X155686045Y-85139858D01*
X155525141Y-84978954D01*
X155338734Y-84848432D01*
X155338732Y-84848431D01*
X155132497Y-84752261D01*
X155132488Y-84752258D01*
X154912697Y-84693366D01*
X154912693Y-84693365D01*
X154912692Y-84693365D01*
X154912691Y-84693364D01*
X154912686Y-84693364D01*
X154686002Y-84673532D01*
X154685998Y-84673532D01*
X154459313Y-84693364D01*
X154459302Y-84693366D01*
X154239511Y-84752258D01*
X154239502Y-84752261D01*
X154033267Y-84848431D01*
X154033265Y-84848432D01*
X153846858Y-84978954D01*
X153685954Y-85139858D01*
X153555432Y-85326265D01*
X153555431Y-85326267D01*
X153459261Y-85532502D01*
X153459258Y-85532511D01*
X153400366Y-85752302D01*
X153400364Y-85752313D01*
X153380532Y-85978998D01*
X153380532Y-85979001D01*
X145831468Y-85979001D01*
X145831468Y-85979000D01*
X145811635Y-85752308D01*
X145752739Y-85532504D01*
X145656568Y-85326266D01*
X145526047Y-85139861D01*
X145526045Y-85139858D01*
X145365141Y-84978954D01*
X145178734Y-84848432D01*
X145178732Y-84848431D01*
X144972497Y-84752261D01*
X144972488Y-84752258D01*
X144752697Y-84693366D01*
X144752693Y-84693365D01*
X144752692Y-84693365D01*
X144752691Y-84693364D01*
X144752686Y-84693364D01*
X144526002Y-84673532D01*
X144525998Y-84673532D01*
X144299313Y-84693364D01*
X144299302Y-84693366D01*
X144079511Y-84752258D01*
X144079502Y-84752261D01*
X143873267Y-84848431D01*
X143873265Y-84848432D01*
X143686858Y-84978954D01*
X143525954Y-85139858D01*
X143395432Y-85326265D01*
X143395431Y-85326267D01*
X143299261Y-85532502D01*
X143299258Y-85532511D01*
X143240366Y-85752302D01*
X143240364Y-85752313D01*
X143220532Y-85978998D01*
X143220532Y-85979001D01*
X137012500Y-85979001D01*
X137012500Y-80359251D01*
X143220532Y-80359251D01*
X143240364Y-80585936D01*
X143240366Y-80585947D01*
X143299258Y-80805738D01*
X143299261Y-80805747D01*
X143395431Y-81011982D01*
X143395432Y-81011984D01*
X143525954Y-81198391D01*
X143686858Y-81359295D01*
X143686861Y-81359297D01*
X143873266Y-81489818D01*
X144079504Y-81585989D01*
X144299308Y-81644885D01*
X144461230Y-81659051D01*
X144525998Y-81664718D01*
X144526000Y-81664718D01*
X144526002Y-81664718D01*
X144582673Y-81659759D01*
X144752692Y-81644885D01*
X144972496Y-81585989D01*
X145178734Y-81489818D01*
X145365139Y-81359297D01*
X145526047Y-81198389D01*
X145656568Y-81011984D01*
X145752739Y-80805746D01*
X145811635Y-80585942D01*
X145831468Y-80359251D01*
X153380532Y-80359251D01*
X153400364Y-80585936D01*
X153400366Y-80585947D01*
X153459258Y-80805738D01*
X153459261Y-80805747D01*
X153555431Y-81011982D01*
X153555432Y-81011984D01*
X153685954Y-81198391D01*
X153846858Y-81359295D01*
X153846861Y-81359297D01*
X154033266Y-81489818D01*
X154239504Y-81585989D01*
X154459308Y-81644885D01*
X154621230Y-81659051D01*
X154685998Y-81664718D01*
X154686000Y-81664718D01*
X154686002Y-81664718D01*
X154742673Y-81659759D01*
X154912692Y-81644885D01*
X155132496Y-81585989D01*
X155338734Y-81489818D01*
X155525139Y-81359297D01*
X155686047Y-81198389D01*
X155816568Y-81011984D01*
X155912739Y-80805746D01*
X155971635Y-80585942D01*
X155991468Y-80359250D01*
X155971635Y-80132558D01*
X155912739Y-79912754D01*
X155816568Y-79706516D01*
X155686047Y-79520111D01*
X155686045Y-79520108D01*
X155525141Y-79359204D01*
X155338734Y-79228682D01*
X155338732Y-79228681D01*
X155132497Y-79132511D01*
X155132488Y-79132508D01*
X154912697Y-79073616D01*
X154912693Y-79073615D01*
X154912692Y-79073615D01*
X154912691Y-79073614D01*
X154912686Y-79073614D01*
X154686002Y-79053782D01*
X154685998Y-79053782D01*
X154459313Y-79073614D01*
X154459302Y-79073616D01*
X154239511Y-79132508D01*
X154239502Y-79132511D01*
X154033267Y-79228681D01*
X154033265Y-79228682D01*
X153846858Y-79359204D01*
X153685954Y-79520108D01*
X153555432Y-79706515D01*
X153555431Y-79706517D01*
X153459261Y-79912752D01*
X153459258Y-79912761D01*
X153400366Y-80132552D01*
X153400364Y-80132563D01*
X153380532Y-80359248D01*
X153380532Y-80359251D01*
X145831468Y-80359251D01*
X145831468Y-80359250D01*
X145811635Y-80132558D01*
X145752739Y-79912754D01*
X145656568Y-79706516D01*
X145526047Y-79520111D01*
X145526045Y-79520108D01*
X145365141Y-79359204D01*
X145178734Y-79228682D01*
X145178732Y-79228681D01*
X144972497Y-79132511D01*
X144972488Y-79132508D01*
X144752697Y-79073616D01*
X144752693Y-79073615D01*
X144752692Y-79073615D01*
X144752691Y-79073614D01*
X144752686Y-79073614D01*
X144526002Y-79053782D01*
X144525998Y-79053782D01*
X144299313Y-79073614D01*
X144299302Y-79073616D01*
X144079511Y-79132508D01*
X144079502Y-79132511D01*
X143873267Y-79228681D01*
X143873265Y-79228682D01*
X143686858Y-79359204D01*
X143525954Y-79520108D01*
X143395432Y-79706515D01*
X143395431Y-79706517D01*
X143299261Y-79912752D01*
X143299258Y-79912761D01*
X143240366Y-80132552D01*
X143240364Y-80132563D01*
X143220532Y-80359248D01*
X143220532Y-80359251D01*
X137012500Y-80359251D01*
X137012500Y-80003759D01*
X137012528Y-80003616D01*
X137012524Y-80003616D01*
X137012539Y-79979002D01*
X137012541Y-79979000D01*
X137012450Y-79978780D01*
X137012384Y-79978618D01*
X137012380Y-79978614D01*
X137012194Y-79978538D01*
X137012002Y-79978459D01*
X136987446Y-79978459D01*
X136987240Y-79978500D01*
X116124500Y-79978500D01*
X116057461Y-79958815D01*
X116011706Y-79906011D01*
X116000500Y-79854500D01*
X116000500Y-74739501D01*
X143220532Y-74739501D01*
X143240364Y-74966186D01*
X143240366Y-74966197D01*
X143299258Y-75185988D01*
X143299261Y-75185997D01*
X143395431Y-75392232D01*
X143395432Y-75392234D01*
X143525954Y-75578641D01*
X143686858Y-75739545D01*
X143686861Y-75739547D01*
X143873266Y-75870068D01*
X144079504Y-75966239D01*
X144079509Y-75966240D01*
X144079511Y-75966241D01*
X144132415Y-75980416D01*
X144299308Y-76025135D01*
X144461230Y-76039301D01*
X144525998Y-76044968D01*
X144526000Y-76044968D01*
X144526002Y-76044968D01*
X144582673Y-76040009D01*
X144752692Y-76025135D01*
X144972496Y-75966239D01*
X145178734Y-75870068D01*
X145365139Y-75739547D01*
X145526047Y-75578639D01*
X145656568Y-75392234D01*
X145752739Y-75185996D01*
X145811635Y-74966192D01*
X145831468Y-74739501D01*
X153380532Y-74739501D01*
X153400364Y-74966186D01*
X153400366Y-74966197D01*
X153459258Y-75185988D01*
X153459261Y-75185997D01*
X153555431Y-75392232D01*
X153555432Y-75392234D01*
X153685954Y-75578641D01*
X153846858Y-75739545D01*
X153846861Y-75739547D01*
X154033266Y-75870068D01*
X154239504Y-75966239D01*
X154239509Y-75966240D01*
X154239511Y-75966241D01*
X154292415Y-75980416D01*
X154459308Y-76025135D01*
X154621230Y-76039301D01*
X154685998Y-76044968D01*
X154686000Y-76044968D01*
X154686002Y-76044968D01*
X154742673Y-76040009D01*
X154912692Y-76025135D01*
X155132496Y-75966239D01*
X155338734Y-75870068D01*
X155525139Y-75739547D01*
X155686047Y-75578639D01*
X155816568Y-75392234D01*
X155912739Y-75185996D01*
X155971635Y-74966192D01*
X155991468Y-74739500D01*
X155971635Y-74512808D01*
X155912739Y-74293004D01*
X155816568Y-74086766D01*
X155686047Y-73900361D01*
X155686045Y-73900358D01*
X155550687Y-73765000D01*
X162478784Y-73765000D01*
X162482807Y-73828943D01*
X162482808Y-73828947D01*
X162541756Y-74137959D01*
X162638963Y-74437132D01*
X162638965Y-74437137D01*
X162772900Y-74721761D01*
X162772903Y-74721767D01*
X162941455Y-74987364D01*
X163141976Y-75229752D01*
X163371287Y-75445090D01*
X163371297Y-75445098D01*
X163625772Y-75629985D01*
X163625790Y-75629996D01*
X163901447Y-75781540D01*
X163901455Y-75781544D01*
X164193926Y-75897340D01*
X164498620Y-75975573D01*
X164498629Y-75975575D01*
X164717999Y-76003287D01*
X164718000Y-76003286D01*
X164718000Y-75060881D01*
X164811369Y-75099556D01*
X164968000Y-75120177D01*
X165124631Y-75099556D01*
X165218000Y-75060881D01*
X165218000Y-76003287D01*
X165437370Y-75975575D01*
X165437379Y-75975573D01*
X165742073Y-75897340D01*
X166034544Y-75781544D01*
X166034552Y-75781540D01*
X166310209Y-75629996D01*
X166310227Y-75629985D01*
X166564702Y-75445098D01*
X166564712Y-75445090D01*
X166794023Y-75229752D01*
X166994544Y-74987364D01*
X167163096Y-74721767D01*
X167163099Y-74721761D01*
X167297034Y-74437137D01*
X167297036Y-74437132D01*
X167394243Y-74137959D01*
X167453191Y-73828947D01*
X167453192Y-73828943D01*
X167457215Y-73765000D01*
X165568000Y-73765000D01*
X165568000Y-73265000D01*
X167457215Y-73265000D01*
X167457215Y-73264999D01*
X167453192Y-73201056D01*
X167453191Y-73201052D01*
X167394243Y-72892040D01*
X167297036Y-72592867D01*
X167297034Y-72592862D01*
X167163099Y-72308238D01*
X167163096Y-72308232D01*
X166994544Y-72042635D01*
X166794023Y-71800247D01*
X166564712Y-71584909D01*
X166564702Y-71584901D01*
X166310227Y-71400014D01*
X166310209Y-71400003D01*
X166034552Y-71248459D01*
X166034544Y-71248455D01*
X165742073Y-71132659D01*
X165437379Y-71054426D01*
X165437370Y-71054424D01*
X165218000Y-71026711D01*
X165218000Y-71969118D01*
X165124631Y-71930444D01*
X164968000Y-71909823D01*
X164811369Y-71930444D01*
X164718000Y-71969118D01*
X164718000Y-71026712D01*
X164717999Y-71026711D01*
X164498629Y-71054424D01*
X164498620Y-71054426D01*
X164193926Y-71132659D01*
X163901455Y-71248455D01*
X163901447Y-71248459D01*
X163625790Y-71400003D01*
X163625772Y-71400014D01*
X163371297Y-71584901D01*
X163371287Y-71584909D01*
X163141976Y-71800247D01*
X162941455Y-72042635D01*
X162772903Y-72308232D01*
X162772900Y-72308238D01*
X162638965Y-72592862D01*
X162638963Y-72592867D01*
X162541756Y-72892040D01*
X162482808Y-73201052D01*
X162482807Y-73201056D01*
X162478784Y-73264999D01*
X162478785Y-73265000D01*
X164368000Y-73265000D01*
X164368000Y-73765000D01*
X162478784Y-73765000D01*
X155550687Y-73765000D01*
X155525141Y-73739454D01*
X155338734Y-73608932D01*
X155338732Y-73608931D01*
X155132497Y-73512761D01*
X155132488Y-73512758D01*
X154912697Y-73453866D01*
X154912693Y-73453865D01*
X154912692Y-73453865D01*
X154912691Y-73453864D01*
X154912686Y-73453864D01*
X154686002Y-73434032D01*
X154685998Y-73434032D01*
X154459313Y-73453864D01*
X154459302Y-73453866D01*
X154239511Y-73512758D01*
X154239502Y-73512761D01*
X154033267Y-73608931D01*
X154033265Y-73608932D01*
X153846858Y-73739454D01*
X153685954Y-73900358D01*
X153555432Y-74086765D01*
X153555431Y-74086767D01*
X153459261Y-74293002D01*
X153459258Y-74293011D01*
X153400366Y-74512802D01*
X153400364Y-74512813D01*
X153380532Y-74739498D01*
X153380532Y-74739501D01*
X145831468Y-74739501D01*
X145831468Y-74739500D01*
X145811635Y-74512808D01*
X145752739Y-74293004D01*
X145656568Y-74086766D01*
X145526047Y-73900361D01*
X145526045Y-73900358D01*
X145365141Y-73739454D01*
X145178734Y-73608932D01*
X145178732Y-73608931D01*
X144972497Y-73512761D01*
X144972488Y-73512758D01*
X144752697Y-73453866D01*
X144752693Y-73453865D01*
X144752692Y-73453865D01*
X144752691Y-73453864D01*
X144752686Y-73453864D01*
X144526002Y-73434032D01*
X144525998Y-73434032D01*
X144299313Y-73453864D01*
X144299302Y-73453866D01*
X144079511Y-73512758D01*
X144079502Y-73512761D01*
X143873267Y-73608931D01*
X143873265Y-73608932D01*
X143686858Y-73739454D01*
X143525954Y-73900358D01*
X143395432Y-74086765D01*
X143395431Y-74086767D01*
X143299261Y-74293002D01*
X143299258Y-74293011D01*
X143240366Y-74512802D01*
X143240364Y-74512813D01*
X143220532Y-74739498D01*
X143220532Y-74739501D01*
X116000500Y-74739501D01*
X116000500Y-69119751D01*
X143220532Y-69119751D01*
X143240364Y-69346436D01*
X143240366Y-69346447D01*
X143299258Y-69566238D01*
X143299261Y-69566247D01*
X143395431Y-69772482D01*
X143395432Y-69772484D01*
X143525954Y-69958891D01*
X143686858Y-70119795D01*
X143686861Y-70119797D01*
X143873266Y-70250318D01*
X144079504Y-70346489D01*
X144299308Y-70405385D01*
X144461230Y-70419551D01*
X144525998Y-70425218D01*
X144526000Y-70425218D01*
X144526002Y-70425218D01*
X144582673Y-70420259D01*
X144752692Y-70405385D01*
X144972496Y-70346489D01*
X145178734Y-70250318D01*
X145365139Y-70119797D01*
X145526047Y-69958889D01*
X145656568Y-69772484D01*
X145752739Y-69566246D01*
X145811635Y-69346442D01*
X145831468Y-69119751D01*
X153380532Y-69119751D01*
X153400364Y-69346436D01*
X153400366Y-69346447D01*
X153459258Y-69566238D01*
X153459261Y-69566247D01*
X153555431Y-69772482D01*
X153555432Y-69772484D01*
X153685954Y-69958891D01*
X153846858Y-70119795D01*
X153846861Y-70119797D01*
X154033266Y-70250318D01*
X154239504Y-70346489D01*
X154459308Y-70405385D01*
X154621230Y-70419551D01*
X154685998Y-70425218D01*
X154686000Y-70425218D01*
X154686002Y-70425218D01*
X154742673Y-70420259D01*
X154912692Y-70405385D01*
X155132496Y-70346489D01*
X155338734Y-70250318D01*
X155525139Y-70119797D01*
X155686047Y-69958889D01*
X155816568Y-69772484D01*
X155912739Y-69566246D01*
X155971635Y-69346442D01*
X155991468Y-69119750D01*
X155971635Y-68893058D01*
X155912739Y-68673254D01*
X155816568Y-68467016D01*
X155686047Y-68280611D01*
X155686045Y-68280608D01*
X155525141Y-68119704D01*
X155338734Y-67989182D01*
X155338732Y-67989181D01*
X155132497Y-67893011D01*
X155132488Y-67893008D01*
X154912697Y-67834116D01*
X154912693Y-67834115D01*
X154912692Y-67834115D01*
X154912691Y-67834114D01*
X154912686Y-67834114D01*
X154686002Y-67814282D01*
X154685998Y-67814282D01*
X154459313Y-67834114D01*
X154459302Y-67834116D01*
X154239511Y-67893008D01*
X154239502Y-67893011D01*
X154033267Y-67989181D01*
X154033265Y-67989182D01*
X153846858Y-68119704D01*
X153685954Y-68280608D01*
X153555432Y-68467015D01*
X153555431Y-68467017D01*
X153459261Y-68673252D01*
X153459258Y-68673261D01*
X153400366Y-68893052D01*
X153400364Y-68893063D01*
X153380532Y-69119748D01*
X153380532Y-69119751D01*
X145831468Y-69119751D01*
X145831468Y-69119750D01*
X145811635Y-68893058D01*
X145752739Y-68673254D01*
X145656568Y-68467016D01*
X145526047Y-68280611D01*
X145526045Y-68280608D01*
X145365141Y-68119704D01*
X145178734Y-67989182D01*
X145178732Y-67989181D01*
X144972497Y-67893011D01*
X144972488Y-67893008D01*
X144752697Y-67834116D01*
X144752693Y-67834115D01*
X144752692Y-67834115D01*
X144752691Y-67834114D01*
X144752686Y-67834114D01*
X144526002Y-67814282D01*
X144525998Y-67814282D01*
X144299313Y-67834114D01*
X144299302Y-67834116D01*
X144079511Y-67893008D01*
X144079502Y-67893011D01*
X143873267Y-67989181D01*
X143873265Y-67989182D01*
X143686858Y-68119704D01*
X143525954Y-68280608D01*
X143395432Y-68467015D01*
X143395431Y-68467017D01*
X143299261Y-68673252D01*
X143299258Y-68673261D01*
X143240366Y-68893052D01*
X143240364Y-68893063D01*
X143220532Y-69119748D01*
X143220532Y-69119751D01*
X116000500Y-69119751D01*
X116000500Y-64013822D01*
X116020185Y-63946783D01*
X116072989Y-63901028D01*
X116142147Y-63891084D01*
X116205703Y-63920109D01*
X116230613Y-63949668D01*
X116282417Y-64035361D01*
X116282422Y-64035369D01*
X116488064Y-64297851D01*
X116723844Y-64533631D01*
X116986326Y-64739273D01*
X116986331Y-64739276D01*
X116986335Y-64739279D01*
X117271696Y-64911786D01*
X117575770Y-65048639D01*
X117575783Y-65048643D01*
X117575788Y-65048645D01*
X117788005Y-65114773D01*
X117894123Y-65147841D01*
X118222112Y-65207948D01*
X118554955Y-65228081D01*
X118887798Y-65207948D01*
X119215787Y-65147841D01*
X119534140Y-65048639D01*
X119838214Y-64911786D01*
X120123575Y-64739279D01*
X120139583Y-64726738D01*
X120200156Y-64679281D01*
X120386062Y-64533634D01*
X120621848Y-64297848D01*
X120777889Y-64098676D01*
X120827487Y-64035369D01*
X120827487Y-64035367D01*
X120827493Y-64035361D01*
X121000000Y-63750000D01*
X121112516Y-63500001D01*
X143220532Y-63500001D01*
X143240364Y-63726686D01*
X143240366Y-63726697D01*
X143299258Y-63946488D01*
X143299261Y-63946497D01*
X143395431Y-64152732D01*
X143395432Y-64152734D01*
X143525954Y-64339141D01*
X143686858Y-64500045D01*
X143686861Y-64500047D01*
X143873266Y-64630568D01*
X144079504Y-64726739D01*
X144299308Y-64785635D01*
X144461230Y-64799801D01*
X144525998Y-64805468D01*
X144526000Y-64805468D01*
X144526002Y-64805468D01*
X144582673Y-64800509D01*
X144752692Y-64785635D01*
X144972496Y-64726739D01*
X145178734Y-64630568D01*
X145365139Y-64500047D01*
X145526047Y-64339139D01*
X145656568Y-64152734D01*
X145752739Y-63946496D01*
X145811635Y-63726692D01*
X145831468Y-63500001D01*
X153380532Y-63500001D01*
X153400364Y-63726686D01*
X153400366Y-63726697D01*
X153459258Y-63946488D01*
X153459261Y-63946497D01*
X153555431Y-64152732D01*
X153555432Y-64152734D01*
X153685954Y-64339141D01*
X153846858Y-64500045D01*
X153846861Y-64500047D01*
X154033266Y-64630568D01*
X154239504Y-64726739D01*
X154459308Y-64785635D01*
X154621230Y-64799801D01*
X154685998Y-64805468D01*
X154686000Y-64805468D01*
X154686002Y-64805468D01*
X154742673Y-64800509D01*
X154912692Y-64785635D01*
X155132496Y-64726739D01*
X155338734Y-64630568D01*
X155525139Y-64500047D01*
X155686047Y-64339139D01*
X155816568Y-64152734D01*
X155912739Y-63946496D01*
X155971635Y-63726692D01*
X155991468Y-63500000D01*
X155971635Y-63273308D01*
X155912739Y-63053504D01*
X155816568Y-62847266D01*
X155686047Y-62660861D01*
X155686045Y-62660858D01*
X155525141Y-62499954D01*
X155338734Y-62369432D01*
X155338732Y-62369431D01*
X155132497Y-62273261D01*
X155132488Y-62273258D01*
X154912697Y-62214366D01*
X154912693Y-62214365D01*
X154912692Y-62214365D01*
X154912691Y-62214364D01*
X154912686Y-62214364D01*
X154686002Y-62194532D01*
X154685998Y-62194532D01*
X154459313Y-62214364D01*
X154459302Y-62214366D01*
X154239511Y-62273258D01*
X154239502Y-62273261D01*
X154033267Y-62369431D01*
X154033265Y-62369432D01*
X153846858Y-62499954D01*
X153685954Y-62660858D01*
X153555432Y-62847265D01*
X153555431Y-62847267D01*
X153459261Y-63053502D01*
X153459258Y-63053511D01*
X153400366Y-63273302D01*
X153400364Y-63273313D01*
X153380532Y-63499998D01*
X153380532Y-63500001D01*
X145831468Y-63500001D01*
X145831468Y-63500000D01*
X145811635Y-63273308D01*
X145752739Y-63053504D01*
X145656568Y-62847266D01*
X145526047Y-62660861D01*
X145526045Y-62660858D01*
X145365141Y-62499954D01*
X145178734Y-62369432D01*
X145178732Y-62369431D01*
X144972497Y-62273261D01*
X144972488Y-62273258D01*
X144752697Y-62214366D01*
X144752693Y-62214365D01*
X144752692Y-62214365D01*
X144752691Y-62214364D01*
X144752686Y-62214364D01*
X144526002Y-62194532D01*
X144525998Y-62194532D01*
X144299313Y-62214364D01*
X144299302Y-62214366D01*
X144079511Y-62273258D01*
X144079502Y-62273261D01*
X143873267Y-62369431D01*
X143873265Y-62369432D01*
X143686858Y-62499954D01*
X143525954Y-62660858D01*
X143395432Y-62847265D01*
X143395431Y-62847267D01*
X143299261Y-63053502D01*
X143299258Y-63053511D01*
X143240366Y-63273302D01*
X143240364Y-63273313D01*
X143220532Y-63499998D01*
X143220532Y-63500001D01*
X121112516Y-63500001D01*
X121136853Y-63445926D01*
X121236055Y-63127573D01*
X121296162Y-62799584D01*
X121316295Y-62466741D01*
X121296162Y-62133898D01*
X121236055Y-61805909D01*
X121136853Y-61487556D01*
X121000000Y-61183482D01*
X120827493Y-60898121D01*
X120827490Y-60898117D01*
X120827487Y-60898112D01*
X120621845Y-60635630D01*
X120386065Y-60399850D01*
X120159198Y-60222111D01*
X120118565Y-60165271D01*
X120115113Y-60095486D01*
X120149937Y-60034914D01*
X120211981Y-60002784D01*
X120235671Y-60000500D01*
X165874239Y-60000500D01*
X165941278Y-60020185D01*
G37*
%TD.AperFunction*%
%TD*%
M02*
