%TF.GenerationSoftware,KiCad,Pcbnew,7.0.10*%
%TF.CreationDate,2024-01-30T15:37:57+11:00*%
%TF.ProjectId,RP2040-TestPatternGenerator,52503230-3430-42d5-9465-737450617474,rev?*%
%TF.SameCoordinates,Original*%
%TF.FileFunction,Legend,Top*%
%TF.FilePolarity,Positive*%
%FSLAX46Y46*%
G04 Gerber Fmt 4.6, Leading zero omitted, Abs format (unit mm)*
G04 Created by KiCad (PCBNEW 7.0.10) date 2024-01-30 15:37:57*
%MOMM*%
%LPD*%
G01*
G04 APERTURE LIST*
%ADD10C,0.150000*%
%ADD11C,0.120000*%
%ADD12O,1.600000X1.600000*%
%ADD13C,1.600000*%
%ADD14C,4.000000*%
%ADD15O,4.000000X4.000000*%
%ADD16R,1.600000X1.600000*%
%ADD17C,2.100000*%
%ADD18C,1.750000*%
G04 APERTURE END LIST*
D10*
X149703523Y-75715319D02*
X149132095Y-75715319D01*
X149417809Y-75715319D02*
X149417809Y-74715319D01*
X149417809Y-74715319D02*
X149322571Y-74858176D01*
X149322571Y-74858176D02*
X149227333Y-74953414D01*
X149227333Y-74953414D02*
X149132095Y-75001033D01*
X150132095Y-75715319D02*
X150132095Y-74715319D01*
X150703523Y-75715319D02*
X150274952Y-75143890D01*
X150703523Y-74715319D02*
X150132095Y-75286747D01*
X151322571Y-74715319D02*
X151417809Y-74715319D01*
X151417809Y-74715319D02*
X151513047Y-74762938D01*
X151513047Y-74762938D02*
X151560666Y-74810557D01*
X151560666Y-74810557D02*
X151608285Y-74905795D01*
X151608285Y-74905795D02*
X151655904Y-75096271D01*
X151655904Y-75096271D02*
X151655904Y-75334366D01*
X151655904Y-75334366D02*
X151608285Y-75524842D01*
X151608285Y-75524842D02*
X151560666Y-75620080D01*
X151560666Y-75620080D02*
X151513047Y-75667700D01*
X151513047Y-75667700D02*
X151417809Y-75715319D01*
X151417809Y-75715319D02*
X151322571Y-75715319D01*
X151322571Y-75715319D02*
X151227333Y-75667700D01*
X151227333Y-75667700D02*
X151179714Y-75620080D01*
X151179714Y-75620080D02*
X151132095Y-75524842D01*
X151132095Y-75524842D02*
X151084476Y-75334366D01*
X151084476Y-75334366D02*
X151084476Y-75096271D01*
X151084476Y-75096271D02*
X151132095Y-74905795D01*
X151132095Y-74905795D02*
X151179714Y-74810557D01*
X151179714Y-74810557D02*
X151227333Y-74762938D01*
X151227333Y-74762938D02*
X151322571Y-74715319D01*
X149227333Y-64954819D02*
X148655905Y-64954819D01*
X148941619Y-64954819D02*
X148941619Y-63954819D01*
X148941619Y-63954819D02*
X148846381Y-64097676D01*
X148846381Y-64097676D02*
X148751143Y-64192914D01*
X148751143Y-64192914D02*
X148655905Y-64240533D01*
X149846381Y-63954819D02*
X149941619Y-63954819D01*
X149941619Y-63954819D02*
X150036857Y-64002438D01*
X150036857Y-64002438D02*
X150084476Y-64050057D01*
X150084476Y-64050057D02*
X150132095Y-64145295D01*
X150132095Y-64145295D02*
X150179714Y-64335771D01*
X150179714Y-64335771D02*
X150179714Y-64573866D01*
X150179714Y-64573866D02*
X150132095Y-64764342D01*
X150132095Y-64764342D02*
X150084476Y-64859580D01*
X150084476Y-64859580D02*
X150036857Y-64907200D01*
X150036857Y-64907200D02*
X149941619Y-64954819D01*
X149941619Y-64954819D02*
X149846381Y-64954819D01*
X149846381Y-64954819D02*
X149751143Y-64907200D01*
X149751143Y-64907200D02*
X149703524Y-64859580D01*
X149703524Y-64859580D02*
X149655905Y-64764342D01*
X149655905Y-64764342D02*
X149608286Y-64573866D01*
X149608286Y-64573866D02*
X149608286Y-64335771D01*
X149608286Y-64335771D02*
X149655905Y-64145295D01*
X149655905Y-64145295D02*
X149703524Y-64050057D01*
X149703524Y-64050057D02*
X149751143Y-64002438D01*
X149751143Y-64002438D02*
X149846381Y-63954819D01*
X150798762Y-63954819D02*
X150894000Y-63954819D01*
X150894000Y-63954819D02*
X150989238Y-64002438D01*
X150989238Y-64002438D02*
X151036857Y-64050057D01*
X151036857Y-64050057D02*
X151084476Y-64145295D01*
X151084476Y-64145295D02*
X151132095Y-64335771D01*
X151132095Y-64335771D02*
X151132095Y-64573866D01*
X151132095Y-64573866D02*
X151084476Y-64764342D01*
X151084476Y-64764342D02*
X151036857Y-64859580D01*
X151036857Y-64859580D02*
X150989238Y-64907200D01*
X150989238Y-64907200D02*
X150894000Y-64954819D01*
X150894000Y-64954819D02*
X150798762Y-64954819D01*
X150798762Y-64954819D02*
X150703524Y-64907200D01*
X150703524Y-64907200D02*
X150655905Y-64859580D01*
X150655905Y-64859580D02*
X150608286Y-64764342D01*
X150608286Y-64764342D02*
X150560667Y-64573866D01*
X150560667Y-64573866D02*
X150560667Y-64335771D01*
X150560667Y-64335771D02*
X150608286Y-64145295D01*
X150608286Y-64145295D02*
X150655905Y-64050057D01*
X150655905Y-64050057D02*
X150703524Y-64002438D01*
X150703524Y-64002438D02*
X150798762Y-63954819D01*
X152132095Y-64954819D02*
X151798762Y-64478628D01*
X151560667Y-64954819D02*
X151560667Y-63954819D01*
X151560667Y-63954819D02*
X151941619Y-63954819D01*
X151941619Y-63954819D02*
X152036857Y-64002438D01*
X152036857Y-64002438D02*
X152084476Y-64050057D01*
X152084476Y-64050057D02*
X152132095Y-64145295D01*
X152132095Y-64145295D02*
X152132095Y-64288152D01*
X152132095Y-64288152D02*
X152084476Y-64383390D01*
X152084476Y-64383390D02*
X152036857Y-64431009D01*
X152036857Y-64431009D02*
X151941619Y-64478628D01*
X151941619Y-64478628D02*
X151560667Y-64478628D01*
X149132095Y-69668402D02*
X149132095Y-70335069D01*
X148894000Y-69287450D02*
X148655905Y-70001735D01*
X148655905Y-70001735D02*
X149274952Y-70001735D01*
X149560667Y-69335069D02*
X150227333Y-69335069D01*
X150227333Y-69335069D02*
X149798762Y-70335069D01*
X150798762Y-69335069D02*
X150894000Y-69335069D01*
X150894000Y-69335069D02*
X150989238Y-69382688D01*
X150989238Y-69382688D02*
X151036857Y-69430307D01*
X151036857Y-69430307D02*
X151084476Y-69525545D01*
X151084476Y-69525545D02*
X151132095Y-69716021D01*
X151132095Y-69716021D02*
X151132095Y-69954116D01*
X151132095Y-69954116D02*
X151084476Y-70144592D01*
X151084476Y-70144592D02*
X151036857Y-70239830D01*
X151036857Y-70239830D02*
X150989238Y-70287450D01*
X150989238Y-70287450D02*
X150894000Y-70335069D01*
X150894000Y-70335069D02*
X150798762Y-70335069D01*
X150798762Y-70335069D02*
X150703524Y-70287450D01*
X150703524Y-70287450D02*
X150655905Y-70239830D01*
X150655905Y-70239830D02*
X150608286Y-70144592D01*
X150608286Y-70144592D02*
X150560667Y-69954116D01*
X150560667Y-69954116D02*
X150560667Y-69716021D01*
X150560667Y-69716021D02*
X150608286Y-69525545D01*
X150608286Y-69525545D02*
X150655905Y-69430307D01*
X150655905Y-69430307D02*
X150703524Y-69382688D01*
X150703524Y-69382688D02*
X150798762Y-69335069D01*
X152132095Y-70335069D02*
X151798762Y-69858878D01*
X151560667Y-70335069D02*
X151560667Y-69335069D01*
X151560667Y-69335069D02*
X151941619Y-69335069D01*
X151941619Y-69335069D02*
X152036857Y-69382688D01*
X152036857Y-69382688D02*
X152084476Y-69430307D01*
X152084476Y-69430307D02*
X152132095Y-69525545D01*
X152132095Y-69525545D02*
X152132095Y-69668402D01*
X152132095Y-69668402D02*
X152084476Y-69763640D01*
X152084476Y-69763640D02*
X152036857Y-69811259D01*
X152036857Y-69811259D02*
X151941619Y-69858878D01*
X151941619Y-69858878D02*
X151560667Y-69858878D01*
X148608286Y-101616569D02*
X149227333Y-101616569D01*
X149227333Y-101616569D02*
X148894000Y-101997521D01*
X148894000Y-101997521D02*
X149036857Y-101997521D01*
X149036857Y-101997521D02*
X149132095Y-102045140D01*
X149132095Y-102045140D02*
X149179714Y-102092759D01*
X149179714Y-102092759D02*
X149227333Y-102187997D01*
X149227333Y-102187997D02*
X149227333Y-102426092D01*
X149227333Y-102426092D02*
X149179714Y-102521330D01*
X149179714Y-102521330D02*
X149132095Y-102568950D01*
X149132095Y-102568950D02*
X149036857Y-102616569D01*
X149036857Y-102616569D02*
X148751143Y-102616569D01*
X148751143Y-102616569D02*
X148655905Y-102568950D01*
X148655905Y-102568950D02*
X148608286Y-102521330D01*
X149703524Y-102616569D02*
X149894000Y-102616569D01*
X149894000Y-102616569D02*
X149989238Y-102568950D01*
X149989238Y-102568950D02*
X150036857Y-102521330D01*
X150036857Y-102521330D02*
X150132095Y-102378473D01*
X150132095Y-102378473D02*
X150179714Y-102187997D01*
X150179714Y-102187997D02*
X150179714Y-101807045D01*
X150179714Y-101807045D02*
X150132095Y-101711807D01*
X150132095Y-101711807D02*
X150084476Y-101664188D01*
X150084476Y-101664188D02*
X149989238Y-101616569D01*
X149989238Y-101616569D02*
X149798762Y-101616569D01*
X149798762Y-101616569D02*
X149703524Y-101664188D01*
X149703524Y-101664188D02*
X149655905Y-101711807D01*
X149655905Y-101711807D02*
X149608286Y-101807045D01*
X149608286Y-101807045D02*
X149608286Y-102045140D01*
X149608286Y-102045140D02*
X149655905Y-102140378D01*
X149655905Y-102140378D02*
X149703524Y-102187997D01*
X149703524Y-102187997D02*
X149798762Y-102235616D01*
X149798762Y-102235616D02*
X149989238Y-102235616D01*
X149989238Y-102235616D02*
X150084476Y-102187997D01*
X150084476Y-102187997D02*
X150132095Y-102140378D01*
X150132095Y-102140378D02*
X150179714Y-102045140D01*
X150798762Y-101616569D02*
X150894000Y-101616569D01*
X150894000Y-101616569D02*
X150989238Y-101664188D01*
X150989238Y-101664188D02*
X151036857Y-101711807D01*
X151036857Y-101711807D02*
X151084476Y-101807045D01*
X151084476Y-101807045D02*
X151132095Y-101997521D01*
X151132095Y-101997521D02*
X151132095Y-102235616D01*
X151132095Y-102235616D02*
X151084476Y-102426092D01*
X151084476Y-102426092D02*
X151036857Y-102521330D01*
X151036857Y-102521330D02*
X150989238Y-102568950D01*
X150989238Y-102568950D02*
X150894000Y-102616569D01*
X150894000Y-102616569D02*
X150798762Y-102616569D01*
X150798762Y-102616569D02*
X150703524Y-102568950D01*
X150703524Y-102568950D02*
X150655905Y-102521330D01*
X150655905Y-102521330D02*
X150608286Y-102426092D01*
X150608286Y-102426092D02*
X150560667Y-102235616D01*
X150560667Y-102235616D02*
X150560667Y-101997521D01*
X150560667Y-101997521D02*
X150608286Y-101807045D01*
X150608286Y-101807045D02*
X150655905Y-101711807D01*
X150655905Y-101711807D02*
X150703524Y-101664188D01*
X150703524Y-101664188D02*
X150798762Y-101616569D01*
X152132095Y-102616569D02*
X151798762Y-102140378D01*
X151560667Y-102616569D02*
X151560667Y-101616569D01*
X151560667Y-101616569D02*
X151941619Y-101616569D01*
X151941619Y-101616569D02*
X152036857Y-101664188D01*
X152036857Y-101664188D02*
X152084476Y-101711807D01*
X152084476Y-101711807D02*
X152132095Y-101807045D01*
X152132095Y-101807045D02*
X152132095Y-101949902D01*
X152132095Y-101949902D02*
X152084476Y-102045140D01*
X152084476Y-102045140D02*
X152036857Y-102092759D01*
X152036857Y-102092759D02*
X151941619Y-102140378D01*
X151941619Y-102140378D02*
X151560667Y-102140378D01*
X120852378Y-70844819D02*
X120519045Y-70368628D01*
X120280950Y-70844819D02*
X120280950Y-69844819D01*
X120280950Y-69844819D02*
X120661902Y-69844819D01*
X120661902Y-69844819D02*
X120757140Y-69892438D01*
X120757140Y-69892438D02*
X120804759Y-69940057D01*
X120804759Y-69940057D02*
X120852378Y-70035295D01*
X120852378Y-70035295D02*
X120852378Y-70178152D01*
X120852378Y-70178152D02*
X120804759Y-70273390D01*
X120804759Y-70273390D02*
X120757140Y-70321009D01*
X120757140Y-70321009D02*
X120661902Y-70368628D01*
X120661902Y-70368628D02*
X120280950Y-70368628D01*
X121280950Y-70844819D02*
X121280950Y-69844819D01*
X121280950Y-69844819D02*
X121661902Y-69844819D01*
X121661902Y-69844819D02*
X121757140Y-69892438D01*
X121757140Y-69892438D02*
X121804759Y-69940057D01*
X121804759Y-69940057D02*
X121852378Y-70035295D01*
X121852378Y-70035295D02*
X121852378Y-70178152D01*
X121852378Y-70178152D02*
X121804759Y-70273390D01*
X121804759Y-70273390D02*
X121757140Y-70321009D01*
X121757140Y-70321009D02*
X121661902Y-70368628D01*
X121661902Y-70368628D02*
X121280950Y-70368628D01*
X122233331Y-69940057D02*
X122280950Y-69892438D01*
X122280950Y-69892438D02*
X122376188Y-69844819D01*
X122376188Y-69844819D02*
X122614283Y-69844819D01*
X122614283Y-69844819D02*
X122709521Y-69892438D01*
X122709521Y-69892438D02*
X122757140Y-69940057D01*
X122757140Y-69940057D02*
X122804759Y-70035295D01*
X122804759Y-70035295D02*
X122804759Y-70130533D01*
X122804759Y-70130533D02*
X122757140Y-70273390D01*
X122757140Y-70273390D02*
X122185712Y-70844819D01*
X122185712Y-70844819D02*
X122804759Y-70844819D01*
X123423807Y-69844819D02*
X123519045Y-69844819D01*
X123519045Y-69844819D02*
X123614283Y-69892438D01*
X123614283Y-69892438D02*
X123661902Y-69940057D01*
X123661902Y-69940057D02*
X123709521Y-70035295D01*
X123709521Y-70035295D02*
X123757140Y-70225771D01*
X123757140Y-70225771D02*
X123757140Y-70463866D01*
X123757140Y-70463866D02*
X123709521Y-70654342D01*
X123709521Y-70654342D02*
X123661902Y-70749580D01*
X123661902Y-70749580D02*
X123614283Y-70797200D01*
X123614283Y-70797200D02*
X123519045Y-70844819D01*
X123519045Y-70844819D02*
X123423807Y-70844819D01*
X123423807Y-70844819D02*
X123328569Y-70797200D01*
X123328569Y-70797200D02*
X123280950Y-70749580D01*
X123280950Y-70749580D02*
X123233331Y-70654342D01*
X123233331Y-70654342D02*
X123185712Y-70463866D01*
X123185712Y-70463866D02*
X123185712Y-70225771D01*
X123185712Y-70225771D02*
X123233331Y-70035295D01*
X123233331Y-70035295D02*
X123280950Y-69940057D01*
X123280950Y-69940057D02*
X123328569Y-69892438D01*
X123328569Y-69892438D02*
X123423807Y-69844819D01*
X124614283Y-70178152D02*
X124614283Y-70844819D01*
X124376188Y-69797200D02*
X124138093Y-70511485D01*
X124138093Y-70511485D02*
X124757140Y-70511485D01*
X125328569Y-69844819D02*
X125423807Y-69844819D01*
X125423807Y-69844819D02*
X125519045Y-69892438D01*
X125519045Y-69892438D02*
X125566664Y-69940057D01*
X125566664Y-69940057D02*
X125614283Y-70035295D01*
X125614283Y-70035295D02*
X125661902Y-70225771D01*
X125661902Y-70225771D02*
X125661902Y-70463866D01*
X125661902Y-70463866D02*
X125614283Y-70654342D01*
X125614283Y-70654342D02*
X125566664Y-70749580D01*
X125566664Y-70749580D02*
X125519045Y-70797200D01*
X125519045Y-70797200D02*
X125423807Y-70844819D01*
X125423807Y-70844819D02*
X125328569Y-70844819D01*
X125328569Y-70844819D02*
X125233331Y-70797200D01*
X125233331Y-70797200D02*
X125185712Y-70749580D01*
X125185712Y-70749580D02*
X125138093Y-70654342D01*
X125138093Y-70654342D02*
X125090474Y-70463866D01*
X125090474Y-70463866D02*
X125090474Y-70225771D01*
X125090474Y-70225771D02*
X125138093Y-70035295D01*
X125138093Y-70035295D02*
X125185712Y-69940057D01*
X125185712Y-69940057D02*
X125233331Y-69892438D01*
X125233331Y-69892438D02*
X125328569Y-69844819D01*
X126090474Y-70463866D02*
X126852379Y-70463866D01*
X127185712Y-69844819D02*
X127757140Y-69844819D01*
X127471426Y-70844819D02*
X127471426Y-69844819D01*
X128471426Y-70797200D02*
X128376188Y-70844819D01*
X128376188Y-70844819D02*
X128185712Y-70844819D01*
X128185712Y-70844819D02*
X128090474Y-70797200D01*
X128090474Y-70797200D02*
X128042855Y-70701961D01*
X128042855Y-70701961D02*
X128042855Y-70321009D01*
X128042855Y-70321009D02*
X128090474Y-70225771D01*
X128090474Y-70225771D02*
X128185712Y-70178152D01*
X128185712Y-70178152D02*
X128376188Y-70178152D01*
X128376188Y-70178152D02*
X128471426Y-70225771D01*
X128471426Y-70225771D02*
X128519045Y-70321009D01*
X128519045Y-70321009D02*
X128519045Y-70416247D01*
X128519045Y-70416247D02*
X128042855Y-70511485D01*
X128899998Y-70797200D02*
X128995236Y-70844819D01*
X128995236Y-70844819D02*
X129185712Y-70844819D01*
X129185712Y-70844819D02*
X129280950Y-70797200D01*
X129280950Y-70797200D02*
X129328569Y-70701961D01*
X129328569Y-70701961D02*
X129328569Y-70654342D01*
X129328569Y-70654342D02*
X129280950Y-70559104D01*
X129280950Y-70559104D02*
X129185712Y-70511485D01*
X129185712Y-70511485D02*
X129042855Y-70511485D01*
X129042855Y-70511485D02*
X128947617Y-70463866D01*
X128947617Y-70463866D02*
X128899998Y-70368628D01*
X128899998Y-70368628D02*
X128899998Y-70321009D01*
X128899998Y-70321009D02*
X128947617Y-70225771D01*
X128947617Y-70225771D02*
X129042855Y-70178152D01*
X129042855Y-70178152D02*
X129185712Y-70178152D01*
X129185712Y-70178152D02*
X129280950Y-70225771D01*
X129614284Y-70178152D02*
X129995236Y-70178152D01*
X129757141Y-69844819D02*
X129757141Y-70701961D01*
X129757141Y-70701961D02*
X129804760Y-70797200D01*
X129804760Y-70797200D02*
X129899998Y-70844819D01*
X129899998Y-70844819D02*
X129995236Y-70844819D01*
X130328570Y-70844819D02*
X130328570Y-69844819D01*
X130328570Y-69844819D02*
X130709522Y-69844819D01*
X130709522Y-69844819D02*
X130804760Y-69892438D01*
X130804760Y-69892438D02*
X130852379Y-69940057D01*
X130852379Y-69940057D02*
X130899998Y-70035295D01*
X130899998Y-70035295D02*
X130899998Y-70178152D01*
X130899998Y-70178152D02*
X130852379Y-70273390D01*
X130852379Y-70273390D02*
X130804760Y-70321009D01*
X130804760Y-70321009D02*
X130709522Y-70368628D01*
X130709522Y-70368628D02*
X130328570Y-70368628D01*
X131757141Y-70844819D02*
X131757141Y-70321009D01*
X131757141Y-70321009D02*
X131709522Y-70225771D01*
X131709522Y-70225771D02*
X131614284Y-70178152D01*
X131614284Y-70178152D02*
X131423808Y-70178152D01*
X131423808Y-70178152D02*
X131328570Y-70225771D01*
X131757141Y-70797200D02*
X131661903Y-70844819D01*
X131661903Y-70844819D02*
X131423808Y-70844819D01*
X131423808Y-70844819D02*
X131328570Y-70797200D01*
X131328570Y-70797200D02*
X131280951Y-70701961D01*
X131280951Y-70701961D02*
X131280951Y-70606723D01*
X131280951Y-70606723D02*
X131328570Y-70511485D01*
X131328570Y-70511485D02*
X131423808Y-70463866D01*
X131423808Y-70463866D02*
X131661903Y-70463866D01*
X131661903Y-70463866D02*
X131757141Y-70416247D01*
X132090475Y-70178152D02*
X132471427Y-70178152D01*
X132233332Y-69844819D02*
X132233332Y-70701961D01*
X132233332Y-70701961D02*
X132280951Y-70797200D01*
X132280951Y-70797200D02*
X132376189Y-70844819D01*
X132376189Y-70844819D02*
X132471427Y-70844819D01*
X132661904Y-70178152D02*
X133042856Y-70178152D01*
X132804761Y-69844819D02*
X132804761Y-70701961D01*
X132804761Y-70701961D02*
X132852380Y-70797200D01*
X132852380Y-70797200D02*
X132947618Y-70844819D01*
X132947618Y-70844819D02*
X133042856Y-70844819D01*
X133757142Y-70797200D02*
X133661904Y-70844819D01*
X133661904Y-70844819D02*
X133471428Y-70844819D01*
X133471428Y-70844819D02*
X133376190Y-70797200D01*
X133376190Y-70797200D02*
X133328571Y-70701961D01*
X133328571Y-70701961D02*
X133328571Y-70321009D01*
X133328571Y-70321009D02*
X133376190Y-70225771D01*
X133376190Y-70225771D02*
X133471428Y-70178152D01*
X133471428Y-70178152D02*
X133661904Y-70178152D01*
X133661904Y-70178152D02*
X133757142Y-70225771D01*
X133757142Y-70225771D02*
X133804761Y-70321009D01*
X133804761Y-70321009D02*
X133804761Y-70416247D01*
X133804761Y-70416247D02*
X133328571Y-70511485D01*
X134233333Y-70844819D02*
X134233333Y-70178152D01*
X134233333Y-70368628D02*
X134280952Y-70273390D01*
X134280952Y-70273390D02*
X134328571Y-70225771D01*
X134328571Y-70225771D02*
X134423809Y-70178152D01*
X134423809Y-70178152D02*
X134519047Y-70178152D01*
X134852381Y-70178152D02*
X134852381Y-70844819D01*
X134852381Y-70273390D02*
X134900000Y-70225771D01*
X134900000Y-70225771D02*
X134995238Y-70178152D01*
X134995238Y-70178152D02*
X135138095Y-70178152D01*
X135138095Y-70178152D02*
X135233333Y-70225771D01*
X135233333Y-70225771D02*
X135280952Y-70321009D01*
X135280952Y-70321009D02*
X135280952Y-70844819D01*
X136280952Y-69892438D02*
X136185714Y-69844819D01*
X136185714Y-69844819D02*
X136042857Y-69844819D01*
X136042857Y-69844819D02*
X135900000Y-69892438D01*
X135900000Y-69892438D02*
X135804762Y-69987676D01*
X135804762Y-69987676D02*
X135757143Y-70082914D01*
X135757143Y-70082914D02*
X135709524Y-70273390D01*
X135709524Y-70273390D02*
X135709524Y-70416247D01*
X135709524Y-70416247D02*
X135757143Y-70606723D01*
X135757143Y-70606723D02*
X135804762Y-70701961D01*
X135804762Y-70701961D02*
X135900000Y-70797200D01*
X135900000Y-70797200D02*
X136042857Y-70844819D01*
X136042857Y-70844819D02*
X136138095Y-70844819D01*
X136138095Y-70844819D02*
X136280952Y-70797200D01*
X136280952Y-70797200D02*
X136328571Y-70749580D01*
X136328571Y-70749580D02*
X136328571Y-70416247D01*
X136328571Y-70416247D02*
X136138095Y-70416247D01*
X137138095Y-70797200D02*
X137042857Y-70844819D01*
X137042857Y-70844819D02*
X136852381Y-70844819D01*
X136852381Y-70844819D02*
X136757143Y-70797200D01*
X136757143Y-70797200D02*
X136709524Y-70701961D01*
X136709524Y-70701961D02*
X136709524Y-70321009D01*
X136709524Y-70321009D02*
X136757143Y-70225771D01*
X136757143Y-70225771D02*
X136852381Y-70178152D01*
X136852381Y-70178152D02*
X137042857Y-70178152D01*
X137042857Y-70178152D02*
X137138095Y-70225771D01*
X137138095Y-70225771D02*
X137185714Y-70321009D01*
X137185714Y-70321009D02*
X137185714Y-70416247D01*
X137185714Y-70416247D02*
X136709524Y-70511485D01*
X137614286Y-70178152D02*
X137614286Y-70844819D01*
X137614286Y-70273390D02*
X137661905Y-70225771D01*
X137661905Y-70225771D02*
X137757143Y-70178152D01*
X137757143Y-70178152D02*
X137900000Y-70178152D01*
X137900000Y-70178152D02*
X137995238Y-70225771D01*
X137995238Y-70225771D02*
X138042857Y-70321009D01*
X138042857Y-70321009D02*
X138042857Y-70844819D01*
X138900000Y-70797200D02*
X138804762Y-70844819D01*
X138804762Y-70844819D02*
X138614286Y-70844819D01*
X138614286Y-70844819D02*
X138519048Y-70797200D01*
X138519048Y-70797200D02*
X138471429Y-70701961D01*
X138471429Y-70701961D02*
X138471429Y-70321009D01*
X138471429Y-70321009D02*
X138519048Y-70225771D01*
X138519048Y-70225771D02*
X138614286Y-70178152D01*
X138614286Y-70178152D02*
X138804762Y-70178152D01*
X138804762Y-70178152D02*
X138900000Y-70225771D01*
X138900000Y-70225771D02*
X138947619Y-70321009D01*
X138947619Y-70321009D02*
X138947619Y-70416247D01*
X138947619Y-70416247D02*
X138471429Y-70511485D01*
X139376191Y-70844819D02*
X139376191Y-70178152D01*
X139376191Y-70368628D02*
X139423810Y-70273390D01*
X139423810Y-70273390D02*
X139471429Y-70225771D01*
X139471429Y-70225771D02*
X139566667Y-70178152D01*
X139566667Y-70178152D02*
X139661905Y-70178152D01*
X140423810Y-70844819D02*
X140423810Y-70321009D01*
X140423810Y-70321009D02*
X140376191Y-70225771D01*
X140376191Y-70225771D02*
X140280953Y-70178152D01*
X140280953Y-70178152D02*
X140090477Y-70178152D01*
X140090477Y-70178152D02*
X139995239Y-70225771D01*
X140423810Y-70797200D02*
X140328572Y-70844819D01*
X140328572Y-70844819D02*
X140090477Y-70844819D01*
X140090477Y-70844819D02*
X139995239Y-70797200D01*
X139995239Y-70797200D02*
X139947620Y-70701961D01*
X139947620Y-70701961D02*
X139947620Y-70606723D01*
X139947620Y-70606723D02*
X139995239Y-70511485D01*
X139995239Y-70511485D02*
X140090477Y-70463866D01*
X140090477Y-70463866D02*
X140328572Y-70463866D01*
X140328572Y-70463866D02*
X140423810Y-70416247D01*
X140757144Y-70178152D02*
X141138096Y-70178152D01*
X140900001Y-69844819D02*
X140900001Y-70701961D01*
X140900001Y-70701961D02*
X140947620Y-70797200D01*
X140947620Y-70797200D02*
X141042858Y-70844819D01*
X141042858Y-70844819D02*
X141138096Y-70844819D01*
X141614287Y-70844819D02*
X141519049Y-70797200D01*
X141519049Y-70797200D02*
X141471430Y-70749580D01*
X141471430Y-70749580D02*
X141423811Y-70654342D01*
X141423811Y-70654342D02*
X141423811Y-70368628D01*
X141423811Y-70368628D02*
X141471430Y-70273390D01*
X141471430Y-70273390D02*
X141519049Y-70225771D01*
X141519049Y-70225771D02*
X141614287Y-70178152D01*
X141614287Y-70178152D02*
X141757144Y-70178152D01*
X141757144Y-70178152D02*
X141852382Y-70225771D01*
X141852382Y-70225771D02*
X141900001Y-70273390D01*
X141900001Y-70273390D02*
X141947620Y-70368628D01*
X141947620Y-70368628D02*
X141947620Y-70654342D01*
X141947620Y-70654342D02*
X141900001Y-70749580D01*
X141900001Y-70749580D02*
X141852382Y-70797200D01*
X141852382Y-70797200D02*
X141757144Y-70844819D01*
X141757144Y-70844819D02*
X141614287Y-70844819D01*
X142376192Y-70844819D02*
X142376192Y-70178152D01*
X142376192Y-70368628D02*
X142423811Y-70273390D01*
X142423811Y-70273390D02*
X142471430Y-70225771D01*
X142471430Y-70225771D02*
X142566668Y-70178152D01*
X142566668Y-70178152D02*
X142661906Y-70178152D01*
X129590476Y-71788152D02*
X129828571Y-72454819D01*
X129828571Y-72454819D02*
X130066666Y-71788152D01*
X130638095Y-71454819D02*
X130733333Y-71454819D01*
X130733333Y-71454819D02*
X130828571Y-71502438D01*
X130828571Y-71502438D02*
X130876190Y-71550057D01*
X130876190Y-71550057D02*
X130923809Y-71645295D01*
X130923809Y-71645295D02*
X130971428Y-71835771D01*
X130971428Y-71835771D02*
X130971428Y-72073866D01*
X130971428Y-72073866D02*
X130923809Y-72264342D01*
X130923809Y-72264342D02*
X130876190Y-72359580D01*
X130876190Y-72359580D02*
X130828571Y-72407200D01*
X130828571Y-72407200D02*
X130733333Y-72454819D01*
X130733333Y-72454819D02*
X130638095Y-72454819D01*
X130638095Y-72454819D02*
X130542857Y-72407200D01*
X130542857Y-72407200D02*
X130495238Y-72359580D01*
X130495238Y-72359580D02*
X130447619Y-72264342D01*
X130447619Y-72264342D02*
X130400000Y-72073866D01*
X130400000Y-72073866D02*
X130400000Y-71835771D01*
X130400000Y-71835771D02*
X130447619Y-71645295D01*
X130447619Y-71645295D02*
X130495238Y-71550057D01*
X130495238Y-71550057D02*
X130542857Y-71502438D01*
X130542857Y-71502438D02*
X130638095Y-71454819D01*
X131400000Y-72359580D02*
X131447619Y-72407200D01*
X131447619Y-72407200D02*
X131400000Y-72454819D01*
X131400000Y-72454819D02*
X131352381Y-72407200D01*
X131352381Y-72407200D02*
X131400000Y-72359580D01*
X131400000Y-72359580D02*
X131400000Y-72454819D01*
X131828571Y-71550057D02*
X131876190Y-71502438D01*
X131876190Y-71502438D02*
X131971428Y-71454819D01*
X131971428Y-71454819D02*
X132209523Y-71454819D01*
X132209523Y-71454819D02*
X132304761Y-71502438D01*
X132304761Y-71502438D02*
X132352380Y-71550057D01*
X132352380Y-71550057D02*
X132399999Y-71645295D01*
X132399999Y-71645295D02*
X132399999Y-71740533D01*
X132399999Y-71740533D02*
X132352380Y-71883390D01*
X132352380Y-71883390D02*
X131780952Y-72454819D01*
X131780952Y-72454819D02*
X132399999Y-72454819D01*
X126090475Y-73064819D02*
X126090475Y-73779104D01*
X126090475Y-73779104D02*
X126042856Y-73921961D01*
X126042856Y-73921961D02*
X125947618Y-74017200D01*
X125947618Y-74017200D02*
X125804761Y-74064819D01*
X125804761Y-74064819D02*
X125709523Y-74064819D01*
X126995237Y-74064819D02*
X126995237Y-73541009D01*
X126995237Y-73541009D02*
X126947618Y-73445771D01*
X126947618Y-73445771D02*
X126852380Y-73398152D01*
X126852380Y-73398152D02*
X126661904Y-73398152D01*
X126661904Y-73398152D02*
X126566666Y-73445771D01*
X126995237Y-74017200D02*
X126899999Y-74064819D01*
X126899999Y-74064819D02*
X126661904Y-74064819D01*
X126661904Y-74064819D02*
X126566666Y-74017200D01*
X126566666Y-74017200D02*
X126519047Y-73921961D01*
X126519047Y-73921961D02*
X126519047Y-73826723D01*
X126519047Y-73826723D02*
X126566666Y-73731485D01*
X126566666Y-73731485D02*
X126661904Y-73683866D01*
X126661904Y-73683866D02*
X126899999Y-73683866D01*
X126899999Y-73683866D02*
X126995237Y-73636247D01*
X127471428Y-73398152D02*
X127471428Y-74064819D01*
X127471428Y-73493390D02*
X127519047Y-73445771D01*
X127519047Y-73445771D02*
X127614285Y-73398152D01*
X127614285Y-73398152D02*
X127757142Y-73398152D01*
X127757142Y-73398152D02*
X127852380Y-73445771D01*
X127852380Y-73445771D02*
X127899999Y-73541009D01*
X127899999Y-73541009D02*
X127899999Y-74064819D01*
X129090476Y-73160057D02*
X129138095Y-73112438D01*
X129138095Y-73112438D02*
X129233333Y-73064819D01*
X129233333Y-73064819D02*
X129471428Y-73064819D01*
X129471428Y-73064819D02*
X129566666Y-73112438D01*
X129566666Y-73112438D02*
X129614285Y-73160057D01*
X129614285Y-73160057D02*
X129661904Y-73255295D01*
X129661904Y-73255295D02*
X129661904Y-73350533D01*
X129661904Y-73350533D02*
X129614285Y-73493390D01*
X129614285Y-73493390D02*
X129042857Y-74064819D01*
X129042857Y-74064819D02*
X129661904Y-74064819D01*
X130280952Y-73064819D02*
X130376190Y-73064819D01*
X130376190Y-73064819D02*
X130471428Y-73112438D01*
X130471428Y-73112438D02*
X130519047Y-73160057D01*
X130519047Y-73160057D02*
X130566666Y-73255295D01*
X130566666Y-73255295D02*
X130614285Y-73445771D01*
X130614285Y-73445771D02*
X130614285Y-73683866D01*
X130614285Y-73683866D02*
X130566666Y-73874342D01*
X130566666Y-73874342D02*
X130519047Y-73969580D01*
X130519047Y-73969580D02*
X130471428Y-74017200D01*
X130471428Y-74017200D02*
X130376190Y-74064819D01*
X130376190Y-74064819D02*
X130280952Y-74064819D01*
X130280952Y-74064819D02*
X130185714Y-74017200D01*
X130185714Y-74017200D02*
X130138095Y-73969580D01*
X130138095Y-73969580D02*
X130090476Y-73874342D01*
X130090476Y-73874342D02*
X130042857Y-73683866D01*
X130042857Y-73683866D02*
X130042857Y-73445771D01*
X130042857Y-73445771D02*
X130090476Y-73255295D01*
X130090476Y-73255295D02*
X130138095Y-73160057D01*
X130138095Y-73160057D02*
X130185714Y-73112438D01*
X130185714Y-73112438D02*
X130280952Y-73064819D01*
X130995238Y-73160057D02*
X131042857Y-73112438D01*
X131042857Y-73112438D02*
X131138095Y-73064819D01*
X131138095Y-73064819D02*
X131376190Y-73064819D01*
X131376190Y-73064819D02*
X131471428Y-73112438D01*
X131471428Y-73112438D02*
X131519047Y-73160057D01*
X131519047Y-73160057D02*
X131566666Y-73255295D01*
X131566666Y-73255295D02*
X131566666Y-73350533D01*
X131566666Y-73350533D02*
X131519047Y-73493390D01*
X131519047Y-73493390D02*
X130947619Y-74064819D01*
X130947619Y-74064819D02*
X131566666Y-74064819D01*
X131900000Y-73064819D02*
X132519047Y-73064819D01*
X132519047Y-73064819D02*
X132185714Y-73445771D01*
X132185714Y-73445771D02*
X132328571Y-73445771D01*
X132328571Y-73445771D02*
X132423809Y-73493390D01*
X132423809Y-73493390D02*
X132471428Y-73541009D01*
X132471428Y-73541009D02*
X132519047Y-73636247D01*
X132519047Y-73636247D02*
X132519047Y-73874342D01*
X132519047Y-73874342D02*
X132471428Y-73969580D01*
X132471428Y-73969580D02*
X132423809Y-74017200D01*
X132423809Y-74017200D02*
X132328571Y-74064819D01*
X132328571Y-74064819D02*
X132042857Y-74064819D01*
X132042857Y-74064819D02*
X131947619Y-74017200D01*
X131947619Y-74017200D02*
X131900000Y-73969580D01*
X133709524Y-73398152D02*
X133709524Y-74064819D01*
X133709524Y-73493390D02*
X133757143Y-73445771D01*
X133757143Y-73445771D02*
X133852381Y-73398152D01*
X133852381Y-73398152D02*
X133995238Y-73398152D01*
X133995238Y-73398152D02*
X134090476Y-73445771D01*
X134090476Y-73445771D02*
X134138095Y-73541009D01*
X134138095Y-73541009D02*
X134138095Y-74064819D01*
X134614286Y-74064819D02*
X134614286Y-73398152D01*
X134614286Y-73493390D02*
X134661905Y-73445771D01*
X134661905Y-73445771D02*
X134757143Y-73398152D01*
X134757143Y-73398152D02*
X134900000Y-73398152D01*
X134900000Y-73398152D02*
X134995238Y-73445771D01*
X134995238Y-73445771D02*
X135042857Y-73541009D01*
X135042857Y-73541009D02*
X135042857Y-74064819D01*
X135042857Y-73541009D02*
X135090476Y-73445771D01*
X135090476Y-73445771D02*
X135185714Y-73398152D01*
X135185714Y-73398152D02*
X135328571Y-73398152D01*
X135328571Y-73398152D02*
X135423810Y-73445771D01*
X135423810Y-73445771D02*
X135471429Y-73541009D01*
X135471429Y-73541009D02*
X135471429Y-74064819D01*
X136376190Y-73398152D02*
X136376190Y-74064819D01*
X135947619Y-73398152D02*
X135947619Y-73921961D01*
X135947619Y-73921961D02*
X135995238Y-74017200D01*
X135995238Y-74017200D02*
X136090476Y-74064819D01*
X136090476Y-74064819D02*
X136233333Y-74064819D01*
X136233333Y-74064819D02*
X136328571Y-74017200D01*
X136328571Y-74017200D02*
X136376190Y-73969580D01*
X136852381Y-74064819D02*
X136852381Y-73398152D01*
X136852381Y-73588628D02*
X136900000Y-73493390D01*
X136900000Y-73493390D02*
X136947619Y-73445771D01*
X136947619Y-73445771D02*
X137042857Y-73398152D01*
X137042857Y-73398152D02*
X137138095Y-73398152D01*
X149132095Y-80190807D02*
X149179714Y-80143188D01*
X149179714Y-80143188D02*
X149274952Y-80095569D01*
X149274952Y-80095569D02*
X149513047Y-80095569D01*
X149513047Y-80095569D02*
X149608285Y-80143188D01*
X149608285Y-80143188D02*
X149655904Y-80190807D01*
X149655904Y-80190807D02*
X149703523Y-80286045D01*
X149703523Y-80286045D02*
X149703523Y-80381283D01*
X149703523Y-80381283D02*
X149655904Y-80524140D01*
X149655904Y-80524140D02*
X149084476Y-81095569D01*
X149084476Y-81095569D02*
X149703523Y-81095569D01*
X150132095Y-81095569D02*
X150132095Y-80095569D01*
X150703523Y-81095569D02*
X150274952Y-80524140D01*
X150703523Y-80095569D02*
X150132095Y-80666997D01*
X151084476Y-80190807D02*
X151132095Y-80143188D01*
X151132095Y-80143188D02*
X151227333Y-80095569D01*
X151227333Y-80095569D02*
X151465428Y-80095569D01*
X151465428Y-80095569D02*
X151560666Y-80143188D01*
X151560666Y-80143188D02*
X151608285Y-80190807D01*
X151608285Y-80190807D02*
X151655904Y-80286045D01*
X151655904Y-80286045D02*
X151655904Y-80381283D01*
X151655904Y-80381283D02*
X151608285Y-80524140D01*
X151608285Y-80524140D02*
X151036857Y-81095569D01*
X151036857Y-81095569D02*
X151655904Y-81095569D01*
X149703523Y-91856069D02*
X149132095Y-91856069D01*
X149417809Y-91856069D02*
X149417809Y-90856069D01*
X149417809Y-90856069D02*
X149322571Y-90998926D01*
X149322571Y-90998926D02*
X149227333Y-91094164D01*
X149227333Y-91094164D02*
X149132095Y-91141783D01*
X150132095Y-91856069D02*
X150132095Y-90856069D01*
X150703523Y-91856069D02*
X150274952Y-91284640D01*
X150703523Y-90856069D02*
X150132095Y-91427497D01*
X151322571Y-90856069D02*
X151417809Y-90856069D01*
X151417809Y-90856069D02*
X151513047Y-90903688D01*
X151513047Y-90903688D02*
X151560666Y-90951307D01*
X151560666Y-90951307D02*
X151608285Y-91046545D01*
X151608285Y-91046545D02*
X151655904Y-91237021D01*
X151655904Y-91237021D02*
X151655904Y-91475116D01*
X151655904Y-91475116D02*
X151608285Y-91665592D01*
X151608285Y-91665592D02*
X151560666Y-91760830D01*
X151560666Y-91760830D02*
X151513047Y-91808450D01*
X151513047Y-91808450D02*
X151417809Y-91856069D01*
X151417809Y-91856069D02*
X151322571Y-91856069D01*
X151322571Y-91856069D02*
X151227333Y-91808450D01*
X151227333Y-91808450D02*
X151179714Y-91760830D01*
X151179714Y-91760830D02*
X151132095Y-91665592D01*
X151132095Y-91665592D02*
X151084476Y-91475116D01*
X151084476Y-91475116D02*
X151084476Y-91237021D01*
X151084476Y-91237021D02*
X151132095Y-91046545D01*
X151132095Y-91046545D02*
X151179714Y-90951307D01*
X151179714Y-90951307D02*
X151227333Y-90903688D01*
X151227333Y-90903688D02*
X151322571Y-90856069D01*
X149132095Y-85809152D02*
X149132095Y-86475819D01*
X148894000Y-85428200D02*
X148655905Y-86142485D01*
X148655905Y-86142485D02*
X149274952Y-86142485D01*
X149560667Y-85475819D02*
X150227333Y-85475819D01*
X150227333Y-85475819D02*
X149798762Y-86475819D01*
X150798762Y-85475819D02*
X150894000Y-85475819D01*
X150894000Y-85475819D02*
X150989238Y-85523438D01*
X150989238Y-85523438D02*
X151036857Y-85571057D01*
X151036857Y-85571057D02*
X151084476Y-85666295D01*
X151084476Y-85666295D02*
X151132095Y-85856771D01*
X151132095Y-85856771D02*
X151132095Y-86094866D01*
X151132095Y-86094866D02*
X151084476Y-86285342D01*
X151084476Y-86285342D02*
X151036857Y-86380580D01*
X151036857Y-86380580D02*
X150989238Y-86428200D01*
X150989238Y-86428200D02*
X150894000Y-86475819D01*
X150894000Y-86475819D02*
X150798762Y-86475819D01*
X150798762Y-86475819D02*
X150703524Y-86428200D01*
X150703524Y-86428200D02*
X150655905Y-86380580D01*
X150655905Y-86380580D02*
X150608286Y-86285342D01*
X150608286Y-86285342D02*
X150560667Y-86094866D01*
X150560667Y-86094866D02*
X150560667Y-85856771D01*
X150560667Y-85856771D02*
X150608286Y-85666295D01*
X150608286Y-85666295D02*
X150655905Y-85571057D01*
X150655905Y-85571057D02*
X150703524Y-85523438D01*
X150703524Y-85523438D02*
X150798762Y-85475819D01*
X152132095Y-86475819D02*
X151798762Y-85999628D01*
X151560667Y-86475819D02*
X151560667Y-85475819D01*
X151560667Y-85475819D02*
X151941619Y-85475819D01*
X151941619Y-85475819D02*
X152036857Y-85523438D01*
X152036857Y-85523438D02*
X152084476Y-85571057D01*
X152084476Y-85571057D02*
X152132095Y-85666295D01*
X152132095Y-85666295D02*
X152132095Y-85809152D01*
X152132095Y-85809152D02*
X152084476Y-85904390D01*
X152084476Y-85904390D02*
X152036857Y-85952009D01*
X152036857Y-85952009D02*
X151941619Y-85999628D01*
X151941619Y-85999628D02*
X151560667Y-85999628D01*
X149132095Y-96331557D02*
X149179714Y-96283938D01*
X149179714Y-96283938D02*
X149274952Y-96236319D01*
X149274952Y-96236319D02*
X149513047Y-96236319D01*
X149513047Y-96236319D02*
X149608285Y-96283938D01*
X149608285Y-96283938D02*
X149655904Y-96331557D01*
X149655904Y-96331557D02*
X149703523Y-96426795D01*
X149703523Y-96426795D02*
X149703523Y-96522033D01*
X149703523Y-96522033D02*
X149655904Y-96664890D01*
X149655904Y-96664890D02*
X149084476Y-97236319D01*
X149084476Y-97236319D02*
X149703523Y-97236319D01*
X150132095Y-97236319D02*
X150132095Y-96236319D01*
X150703523Y-97236319D02*
X150274952Y-96664890D01*
X150703523Y-96236319D02*
X150132095Y-96807747D01*
X151084476Y-96331557D02*
X151132095Y-96283938D01*
X151132095Y-96283938D02*
X151227333Y-96236319D01*
X151227333Y-96236319D02*
X151465428Y-96236319D01*
X151465428Y-96236319D02*
X151560666Y-96283938D01*
X151560666Y-96283938D02*
X151608285Y-96331557D01*
X151608285Y-96331557D02*
X151655904Y-96426795D01*
X151655904Y-96426795D02*
X151655904Y-96522033D01*
X151655904Y-96522033D02*
X151608285Y-96664890D01*
X151608285Y-96664890D02*
X151036857Y-97236319D01*
X151036857Y-97236319D02*
X151655904Y-97236319D01*
X149703523Y-107996819D02*
X149132095Y-107996819D01*
X149417809Y-107996819D02*
X149417809Y-106996819D01*
X149417809Y-106996819D02*
X149322571Y-107139676D01*
X149322571Y-107139676D02*
X149227333Y-107234914D01*
X149227333Y-107234914D02*
X149132095Y-107282533D01*
X150132095Y-107996819D02*
X150132095Y-106996819D01*
X150703523Y-107996819D02*
X150274952Y-107425390D01*
X150703523Y-106996819D02*
X150132095Y-107568247D01*
X151322571Y-106996819D02*
X151417809Y-106996819D01*
X151417809Y-106996819D02*
X151513047Y-107044438D01*
X151513047Y-107044438D02*
X151560666Y-107092057D01*
X151560666Y-107092057D02*
X151608285Y-107187295D01*
X151608285Y-107187295D02*
X151655904Y-107377771D01*
X151655904Y-107377771D02*
X151655904Y-107615866D01*
X151655904Y-107615866D02*
X151608285Y-107806342D01*
X151608285Y-107806342D02*
X151560666Y-107901580D01*
X151560666Y-107901580D02*
X151513047Y-107949200D01*
X151513047Y-107949200D02*
X151417809Y-107996819D01*
X151417809Y-107996819D02*
X151322571Y-107996819D01*
X151322571Y-107996819D02*
X151227333Y-107949200D01*
X151227333Y-107949200D02*
X151179714Y-107901580D01*
X151179714Y-107901580D02*
X151132095Y-107806342D01*
X151132095Y-107806342D02*
X151084476Y-107615866D01*
X151084476Y-107615866D02*
X151084476Y-107377771D01*
X151084476Y-107377771D02*
X151132095Y-107187295D01*
X151132095Y-107187295D02*
X151179714Y-107092057D01*
X151179714Y-107092057D02*
X151227333Y-107044438D01*
X151227333Y-107044438D02*
X151322571Y-106996819D01*
X150333333Y-67959819D02*
X150000000Y-67483628D01*
X149761905Y-67959819D02*
X149761905Y-66959819D01*
X149761905Y-66959819D02*
X150142857Y-66959819D01*
X150142857Y-66959819D02*
X150238095Y-67007438D01*
X150238095Y-67007438D02*
X150285714Y-67055057D01*
X150285714Y-67055057D02*
X150333333Y-67150295D01*
X150333333Y-67150295D02*
X150333333Y-67293152D01*
X150333333Y-67293152D02*
X150285714Y-67388390D01*
X150285714Y-67388390D02*
X150238095Y-67436009D01*
X150238095Y-67436009D02*
X150142857Y-67483628D01*
X150142857Y-67483628D02*
X149761905Y-67483628D01*
X150904762Y-67388390D02*
X150809524Y-67340771D01*
X150809524Y-67340771D02*
X150761905Y-67293152D01*
X150761905Y-67293152D02*
X150714286Y-67197914D01*
X150714286Y-67197914D02*
X150714286Y-67150295D01*
X150714286Y-67150295D02*
X150761905Y-67055057D01*
X150761905Y-67055057D02*
X150809524Y-67007438D01*
X150809524Y-67007438D02*
X150904762Y-66959819D01*
X150904762Y-66959819D02*
X151095238Y-66959819D01*
X151095238Y-66959819D02*
X151190476Y-67007438D01*
X151190476Y-67007438D02*
X151238095Y-67055057D01*
X151238095Y-67055057D02*
X151285714Y-67150295D01*
X151285714Y-67150295D02*
X151285714Y-67197914D01*
X151285714Y-67197914D02*
X151238095Y-67293152D01*
X151238095Y-67293152D02*
X151190476Y-67340771D01*
X151190476Y-67340771D02*
X151095238Y-67388390D01*
X151095238Y-67388390D02*
X150904762Y-67388390D01*
X150904762Y-67388390D02*
X150809524Y-67436009D01*
X150809524Y-67436009D02*
X150761905Y-67483628D01*
X150761905Y-67483628D02*
X150714286Y-67578866D01*
X150714286Y-67578866D02*
X150714286Y-67769342D01*
X150714286Y-67769342D02*
X150761905Y-67864580D01*
X150761905Y-67864580D02*
X150809524Y-67912200D01*
X150809524Y-67912200D02*
X150904762Y-67959819D01*
X150904762Y-67959819D02*
X151095238Y-67959819D01*
X151095238Y-67959819D02*
X151190476Y-67912200D01*
X151190476Y-67912200D02*
X151238095Y-67864580D01*
X151238095Y-67864580D02*
X151285714Y-67769342D01*
X151285714Y-67769342D02*
X151285714Y-67578866D01*
X151285714Y-67578866D02*
X151238095Y-67483628D01*
X151238095Y-67483628D02*
X151190476Y-67436009D01*
X151190476Y-67436009D02*
X151095238Y-67388390D01*
X150333333Y-73334819D02*
X150000000Y-72858628D01*
X149761905Y-73334819D02*
X149761905Y-72334819D01*
X149761905Y-72334819D02*
X150142857Y-72334819D01*
X150142857Y-72334819D02*
X150238095Y-72382438D01*
X150238095Y-72382438D02*
X150285714Y-72430057D01*
X150285714Y-72430057D02*
X150333333Y-72525295D01*
X150333333Y-72525295D02*
X150333333Y-72668152D01*
X150333333Y-72668152D02*
X150285714Y-72763390D01*
X150285714Y-72763390D02*
X150238095Y-72811009D01*
X150238095Y-72811009D02*
X150142857Y-72858628D01*
X150142857Y-72858628D02*
X149761905Y-72858628D01*
X150666667Y-72334819D02*
X151333333Y-72334819D01*
X151333333Y-72334819D02*
X150904762Y-73334819D01*
X150333333Y-94834819D02*
X150000000Y-94358628D01*
X149761905Y-94834819D02*
X149761905Y-93834819D01*
X149761905Y-93834819D02*
X150142857Y-93834819D01*
X150142857Y-93834819D02*
X150238095Y-93882438D01*
X150238095Y-93882438D02*
X150285714Y-93930057D01*
X150285714Y-93930057D02*
X150333333Y-94025295D01*
X150333333Y-94025295D02*
X150333333Y-94168152D01*
X150333333Y-94168152D02*
X150285714Y-94263390D01*
X150285714Y-94263390D02*
X150238095Y-94311009D01*
X150238095Y-94311009D02*
X150142857Y-94358628D01*
X150142857Y-94358628D02*
X149761905Y-94358628D01*
X150666667Y-93834819D02*
X151285714Y-93834819D01*
X151285714Y-93834819D02*
X150952381Y-94215771D01*
X150952381Y-94215771D02*
X151095238Y-94215771D01*
X151095238Y-94215771D02*
X151190476Y-94263390D01*
X151190476Y-94263390D02*
X151238095Y-94311009D01*
X151238095Y-94311009D02*
X151285714Y-94406247D01*
X151285714Y-94406247D02*
X151285714Y-94644342D01*
X151285714Y-94644342D02*
X151238095Y-94739580D01*
X151238095Y-94739580D02*
X151190476Y-94787200D01*
X151190476Y-94787200D02*
X151095238Y-94834819D01*
X151095238Y-94834819D02*
X150809524Y-94834819D01*
X150809524Y-94834819D02*
X150714286Y-94787200D01*
X150714286Y-94787200D02*
X150666667Y-94739580D01*
X150333333Y-78709819D02*
X150000000Y-78233628D01*
X149761905Y-78709819D02*
X149761905Y-77709819D01*
X149761905Y-77709819D02*
X150142857Y-77709819D01*
X150142857Y-77709819D02*
X150238095Y-77757438D01*
X150238095Y-77757438D02*
X150285714Y-77805057D01*
X150285714Y-77805057D02*
X150333333Y-77900295D01*
X150333333Y-77900295D02*
X150333333Y-78043152D01*
X150333333Y-78043152D02*
X150285714Y-78138390D01*
X150285714Y-78138390D02*
X150238095Y-78186009D01*
X150238095Y-78186009D02*
X150142857Y-78233628D01*
X150142857Y-78233628D02*
X149761905Y-78233628D01*
X151190476Y-77709819D02*
X151000000Y-77709819D01*
X151000000Y-77709819D02*
X150904762Y-77757438D01*
X150904762Y-77757438D02*
X150857143Y-77805057D01*
X150857143Y-77805057D02*
X150761905Y-77947914D01*
X150761905Y-77947914D02*
X150714286Y-78138390D01*
X150714286Y-78138390D02*
X150714286Y-78519342D01*
X150714286Y-78519342D02*
X150761905Y-78614580D01*
X150761905Y-78614580D02*
X150809524Y-78662200D01*
X150809524Y-78662200D02*
X150904762Y-78709819D01*
X150904762Y-78709819D02*
X151095238Y-78709819D01*
X151095238Y-78709819D02*
X151190476Y-78662200D01*
X151190476Y-78662200D02*
X151238095Y-78614580D01*
X151238095Y-78614580D02*
X151285714Y-78519342D01*
X151285714Y-78519342D02*
X151285714Y-78281247D01*
X151285714Y-78281247D02*
X151238095Y-78186009D01*
X151238095Y-78186009D02*
X151190476Y-78138390D01*
X151190476Y-78138390D02*
X151095238Y-78090771D01*
X151095238Y-78090771D02*
X150904762Y-78090771D01*
X150904762Y-78090771D02*
X150809524Y-78138390D01*
X150809524Y-78138390D02*
X150761905Y-78186009D01*
X150761905Y-78186009D02*
X150714286Y-78281247D01*
X150333333Y-62584819D02*
X150000000Y-62108628D01*
X149761905Y-62584819D02*
X149761905Y-61584819D01*
X149761905Y-61584819D02*
X150142857Y-61584819D01*
X150142857Y-61584819D02*
X150238095Y-61632438D01*
X150238095Y-61632438D02*
X150285714Y-61680057D01*
X150285714Y-61680057D02*
X150333333Y-61775295D01*
X150333333Y-61775295D02*
X150333333Y-61918152D01*
X150333333Y-61918152D02*
X150285714Y-62013390D01*
X150285714Y-62013390D02*
X150238095Y-62061009D01*
X150238095Y-62061009D02*
X150142857Y-62108628D01*
X150142857Y-62108628D02*
X149761905Y-62108628D01*
X150809524Y-62584819D02*
X151000000Y-62584819D01*
X151000000Y-62584819D02*
X151095238Y-62537200D01*
X151095238Y-62537200D02*
X151142857Y-62489580D01*
X151142857Y-62489580D02*
X151238095Y-62346723D01*
X151238095Y-62346723D02*
X151285714Y-62156247D01*
X151285714Y-62156247D02*
X151285714Y-61775295D01*
X151285714Y-61775295D02*
X151238095Y-61680057D01*
X151238095Y-61680057D02*
X151190476Y-61632438D01*
X151190476Y-61632438D02*
X151095238Y-61584819D01*
X151095238Y-61584819D02*
X150904762Y-61584819D01*
X150904762Y-61584819D02*
X150809524Y-61632438D01*
X150809524Y-61632438D02*
X150761905Y-61680057D01*
X150761905Y-61680057D02*
X150714286Y-61775295D01*
X150714286Y-61775295D02*
X150714286Y-62013390D01*
X150714286Y-62013390D02*
X150761905Y-62108628D01*
X150761905Y-62108628D02*
X150809524Y-62156247D01*
X150809524Y-62156247D02*
X150904762Y-62203866D01*
X150904762Y-62203866D02*
X151095238Y-62203866D01*
X151095238Y-62203866D02*
X151190476Y-62156247D01*
X151190476Y-62156247D02*
X151238095Y-62108628D01*
X151238095Y-62108628D02*
X151285714Y-62013390D01*
X150333333Y-105584819D02*
X150000000Y-105108628D01*
X149761905Y-105584819D02*
X149761905Y-104584819D01*
X149761905Y-104584819D02*
X150142857Y-104584819D01*
X150142857Y-104584819D02*
X150238095Y-104632438D01*
X150238095Y-104632438D02*
X150285714Y-104680057D01*
X150285714Y-104680057D02*
X150333333Y-104775295D01*
X150333333Y-104775295D02*
X150333333Y-104918152D01*
X150333333Y-104918152D02*
X150285714Y-105013390D01*
X150285714Y-105013390D02*
X150238095Y-105061009D01*
X150238095Y-105061009D02*
X150142857Y-105108628D01*
X150142857Y-105108628D02*
X149761905Y-105108628D01*
X151285714Y-105584819D02*
X150714286Y-105584819D01*
X151000000Y-105584819D02*
X151000000Y-104584819D01*
X151000000Y-104584819D02*
X150904762Y-104727676D01*
X150904762Y-104727676D02*
X150809524Y-104822914D01*
X150809524Y-104822914D02*
X150714286Y-104870533D01*
X150333333Y-84084819D02*
X150000000Y-83608628D01*
X149761905Y-84084819D02*
X149761905Y-83084819D01*
X149761905Y-83084819D02*
X150142857Y-83084819D01*
X150142857Y-83084819D02*
X150238095Y-83132438D01*
X150238095Y-83132438D02*
X150285714Y-83180057D01*
X150285714Y-83180057D02*
X150333333Y-83275295D01*
X150333333Y-83275295D02*
X150333333Y-83418152D01*
X150333333Y-83418152D02*
X150285714Y-83513390D01*
X150285714Y-83513390D02*
X150238095Y-83561009D01*
X150238095Y-83561009D02*
X150142857Y-83608628D01*
X150142857Y-83608628D02*
X149761905Y-83608628D01*
X151238095Y-83084819D02*
X150761905Y-83084819D01*
X150761905Y-83084819D02*
X150714286Y-83561009D01*
X150714286Y-83561009D02*
X150761905Y-83513390D01*
X150761905Y-83513390D02*
X150857143Y-83465771D01*
X150857143Y-83465771D02*
X151095238Y-83465771D01*
X151095238Y-83465771D02*
X151190476Y-83513390D01*
X151190476Y-83513390D02*
X151238095Y-83561009D01*
X151238095Y-83561009D02*
X151285714Y-83656247D01*
X151285714Y-83656247D02*
X151285714Y-83894342D01*
X151285714Y-83894342D02*
X151238095Y-83989580D01*
X151238095Y-83989580D02*
X151190476Y-84037200D01*
X151190476Y-84037200D02*
X151095238Y-84084819D01*
X151095238Y-84084819D02*
X150857143Y-84084819D01*
X150857143Y-84084819D02*
X150761905Y-84037200D01*
X150761905Y-84037200D02*
X150714286Y-83989580D01*
X150333333Y-89459819D02*
X150000000Y-88983628D01*
X149761905Y-89459819D02*
X149761905Y-88459819D01*
X149761905Y-88459819D02*
X150142857Y-88459819D01*
X150142857Y-88459819D02*
X150238095Y-88507438D01*
X150238095Y-88507438D02*
X150285714Y-88555057D01*
X150285714Y-88555057D02*
X150333333Y-88650295D01*
X150333333Y-88650295D02*
X150333333Y-88793152D01*
X150333333Y-88793152D02*
X150285714Y-88888390D01*
X150285714Y-88888390D02*
X150238095Y-88936009D01*
X150238095Y-88936009D02*
X150142857Y-88983628D01*
X150142857Y-88983628D02*
X149761905Y-88983628D01*
X151190476Y-88793152D02*
X151190476Y-89459819D01*
X150952381Y-88412200D02*
X150714286Y-89126485D01*
X150714286Y-89126485D02*
X151333333Y-89126485D01*
X159694488Y-88991190D02*
X159218297Y-89324523D01*
X159694488Y-89562618D02*
X158694488Y-89562618D01*
X158694488Y-89562618D02*
X158694488Y-89181666D01*
X158694488Y-89181666D02*
X158742107Y-89086428D01*
X158742107Y-89086428D02*
X158789726Y-89038809D01*
X158789726Y-89038809D02*
X158884964Y-88991190D01*
X158884964Y-88991190D02*
X159027821Y-88991190D01*
X159027821Y-88991190D02*
X159123059Y-89038809D01*
X159123059Y-89038809D02*
X159170678Y-89086428D01*
X159170678Y-89086428D02*
X159218297Y-89181666D01*
X159218297Y-89181666D02*
X159218297Y-89562618D01*
X158742107Y-88038809D02*
X158694488Y-88134047D01*
X158694488Y-88134047D02*
X158694488Y-88276904D01*
X158694488Y-88276904D02*
X158742107Y-88419761D01*
X158742107Y-88419761D02*
X158837345Y-88514999D01*
X158837345Y-88514999D02*
X158932583Y-88562618D01*
X158932583Y-88562618D02*
X159123059Y-88610237D01*
X159123059Y-88610237D02*
X159265916Y-88610237D01*
X159265916Y-88610237D02*
X159456392Y-88562618D01*
X159456392Y-88562618D02*
X159551630Y-88514999D01*
X159551630Y-88514999D02*
X159646869Y-88419761D01*
X159646869Y-88419761D02*
X159694488Y-88276904D01*
X159694488Y-88276904D02*
X159694488Y-88181666D01*
X159694488Y-88181666D02*
X159646869Y-88038809D01*
X159646869Y-88038809D02*
X159599249Y-87991190D01*
X159599249Y-87991190D02*
X159265916Y-87991190D01*
X159265916Y-87991190D02*
X159265916Y-88181666D01*
X159170678Y-87229285D02*
X159218297Y-87086428D01*
X159218297Y-87086428D02*
X159265916Y-87038809D01*
X159265916Y-87038809D02*
X159361154Y-86991190D01*
X159361154Y-86991190D02*
X159504011Y-86991190D01*
X159504011Y-86991190D02*
X159599249Y-87038809D01*
X159599249Y-87038809D02*
X159646869Y-87086428D01*
X159646869Y-87086428D02*
X159694488Y-87181666D01*
X159694488Y-87181666D02*
X159694488Y-87562618D01*
X159694488Y-87562618D02*
X158694488Y-87562618D01*
X158694488Y-87562618D02*
X158694488Y-87229285D01*
X158694488Y-87229285D02*
X158742107Y-87134047D01*
X158742107Y-87134047D02*
X158789726Y-87086428D01*
X158789726Y-87086428D02*
X158884964Y-87038809D01*
X158884964Y-87038809D02*
X158980202Y-87038809D01*
X158980202Y-87038809D02*
X159075440Y-87086428D01*
X159075440Y-87086428D02*
X159123059Y-87134047D01*
X159123059Y-87134047D02*
X159170678Y-87229285D01*
X159170678Y-87229285D02*
X159170678Y-87562618D01*
X159646869Y-86610237D02*
X159694488Y-86467380D01*
X159694488Y-86467380D02*
X159694488Y-86229285D01*
X159694488Y-86229285D02*
X159646869Y-86134047D01*
X159646869Y-86134047D02*
X159599249Y-86086428D01*
X159599249Y-86086428D02*
X159504011Y-86038809D01*
X159504011Y-86038809D02*
X159408773Y-86038809D01*
X159408773Y-86038809D02*
X159313535Y-86086428D01*
X159313535Y-86086428D02*
X159265916Y-86134047D01*
X159265916Y-86134047D02*
X159218297Y-86229285D01*
X159218297Y-86229285D02*
X159170678Y-86419761D01*
X159170678Y-86419761D02*
X159123059Y-86514999D01*
X159123059Y-86514999D02*
X159075440Y-86562618D01*
X159075440Y-86562618D02*
X158980202Y-86610237D01*
X158980202Y-86610237D02*
X158884964Y-86610237D01*
X158884964Y-86610237D02*
X158789726Y-86562618D01*
X158789726Y-86562618D02*
X158742107Y-86514999D01*
X158742107Y-86514999D02*
X158694488Y-86419761D01*
X158694488Y-86419761D02*
X158694488Y-86181666D01*
X158694488Y-86181666D02*
X158742107Y-86038809D01*
X158694488Y-84657856D02*
X158694488Y-84467380D01*
X158694488Y-84467380D02*
X158742107Y-84372142D01*
X158742107Y-84372142D02*
X158837345Y-84276904D01*
X158837345Y-84276904D02*
X159027821Y-84229285D01*
X159027821Y-84229285D02*
X159361154Y-84229285D01*
X159361154Y-84229285D02*
X159551630Y-84276904D01*
X159551630Y-84276904D02*
X159646869Y-84372142D01*
X159646869Y-84372142D02*
X159694488Y-84467380D01*
X159694488Y-84467380D02*
X159694488Y-84657856D01*
X159694488Y-84657856D02*
X159646869Y-84753094D01*
X159646869Y-84753094D02*
X159551630Y-84848332D01*
X159551630Y-84848332D02*
X159361154Y-84895951D01*
X159361154Y-84895951D02*
X159027821Y-84895951D01*
X159027821Y-84895951D02*
X158837345Y-84848332D01*
X158837345Y-84848332D02*
X158742107Y-84753094D01*
X158742107Y-84753094D02*
X158694488Y-84657856D01*
X158694488Y-83800713D02*
X159504011Y-83800713D01*
X159504011Y-83800713D02*
X159599249Y-83753094D01*
X159599249Y-83753094D02*
X159646869Y-83705475D01*
X159646869Y-83705475D02*
X159694488Y-83610237D01*
X159694488Y-83610237D02*
X159694488Y-83419761D01*
X159694488Y-83419761D02*
X159646869Y-83324523D01*
X159646869Y-83324523D02*
X159599249Y-83276904D01*
X159599249Y-83276904D02*
X159504011Y-83229285D01*
X159504011Y-83229285D02*
X158694488Y-83229285D01*
X158694488Y-82895951D02*
X158694488Y-82324523D01*
X159694488Y-82610237D02*
X158694488Y-82610237D01*
X121997200Y-101433332D02*
X122044819Y-101290475D01*
X122044819Y-101290475D02*
X122044819Y-101052380D01*
X122044819Y-101052380D02*
X121997200Y-100957142D01*
X121997200Y-100957142D02*
X121949580Y-100909523D01*
X121949580Y-100909523D02*
X121854342Y-100861904D01*
X121854342Y-100861904D02*
X121759104Y-100861904D01*
X121759104Y-100861904D02*
X121663866Y-100909523D01*
X121663866Y-100909523D02*
X121616247Y-100957142D01*
X121616247Y-100957142D02*
X121568628Y-101052380D01*
X121568628Y-101052380D02*
X121521009Y-101242856D01*
X121521009Y-101242856D02*
X121473390Y-101338094D01*
X121473390Y-101338094D02*
X121425771Y-101385713D01*
X121425771Y-101385713D02*
X121330533Y-101433332D01*
X121330533Y-101433332D02*
X121235295Y-101433332D01*
X121235295Y-101433332D02*
X121140057Y-101385713D01*
X121140057Y-101385713D02*
X121092438Y-101338094D01*
X121092438Y-101338094D02*
X121044819Y-101242856D01*
X121044819Y-101242856D02*
X121044819Y-101004761D01*
X121044819Y-101004761D02*
X121092438Y-100861904D01*
X121044819Y-100528570D02*
X122044819Y-100290475D01*
X122044819Y-100290475D02*
X121330533Y-100099999D01*
X121330533Y-100099999D02*
X122044819Y-99909523D01*
X122044819Y-99909523D02*
X121044819Y-99671428D01*
X122044819Y-98766666D02*
X122044819Y-99338094D01*
X122044819Y-99052380D02*
X121044819Y-99052380D01*
X121044819Y-99052380D02*
X121187676Y-99147618D01*
X121187676Y-99147618D02*
X121282914Y-99242856D01*
X121282914Y-99242856D02*
X121330533Y-99338094D01*
X150333333Y-100209819D02*
X150000000Y-99733628D01*
X149761905Y-100209819D02*
X149761905Y-99209819D01*
X149761905Y-99209819D02*
X150142857Y-99209819D01*
X150142857Y-99209819D02*
X150238095Y-99257438D01*
X150238095Y-99257438D02*
X150285714Y-99305057D01*
X150285714Y-99305057D02*
X150333333Y-99400295D01*
X150333333Y-99400295D02*
X150333333Y-99543152D01*
X150333333Y-99543152D02*
X150285714Y-99638390D01*
X150285714Y-99638390D02*
X150238095Y-99686009D01*
X150238095Y-99686009D02*
X150142857Y-99733628D01*
X150142857Y-99733628D02*
X149761905Y-99733628D01*
X150714286Y-99305057D02*
X150761905Y-99257438D01*
X150761905Y-99257438D02*
X150857143Y-99209819D01*
X150857143Y-99209819D02*
X151095238Y-99209819D01*
X151095238Y-99209819D02*
X151190476Y-99257438D01*
X151190476Y-99257438D02*
X151238095Y-99305057D01*
X151238095Y-99305057D02*
X151285714Y-99400295D01*
X151285714Y-99400295D02*
X151285714Y-99495533D01*
X151285714Y-99495533D02*
X151238095Y-99638390D01*
X151238095Y-99638390D02*
X150666667Y-100209819D01*
X150666667Y-100209819D02*
X151285714Y-100209819D01*
D11*
%TO.C,R8*%
X154540000Y-69875000D02*
X153770000Y-69875000D01*
X153770000Y-71245000D02*
X153770000Y-68505000D01*
X153770000Y-68505000D02*
X147230000Y-68505000D01*
X147230000Y-71245000D02*
X153770000Y-71245000D01*
X147230000Y-68505000D02*
X147230000Y-71245000D01*
X146460000Y-69875000D02*
X147230000Y-69875000D01*
%TO.C,R7*%
X154540000Y-75250000D02*
X153770000Y-75250000D01*
X153770000Y-76620000D02*
X153770000Y-73880000D01*
X153770000Y-73880000D02*
X147230000Y-73880000D01*
X147230000Y-76620000D02*
X153770000Y-76620000D01*
X147230000Y-73880000D02*
X147230000Y-76620000D01*
X146460000Y-75250000D02*
X147230000Y-75250000D01*
%TO.C,R3*%
X154540000Y-96750000D02*
X153770000Y-96750000D01*
X153770000Y-98120000D02*
X153770000Y-95380000D01*
X153770000Y-95380000D02*
X147230000Y-95380000D01*
X147230000Y-98120000D02*
X153770000Y-98120000D01*
X147230000Y-95380000D02*
X147230000Y-98120000D01*
X146460000Y-96750000D02*
X147230000Y-96750000D01*
%TO.C,R6*%
X154540000Y-80625000D02*
X153770000Y-80625000D01*
X153770000Y-81995000D02*
X153770000Y-79255000D01*
X153770000Y-79255000D02*
X147230000Y-79255000D01*
X147230000Y-81995000D02*
X153770000Y-81995000D01*
X147230000Y-79255000D02*
X147230000Y-81995000D01*
X146460000Y-80625000D02*
X147230000Y-80625000D01*
%TO.C,R9*%
X154540000Y-64500000D02*
X153770000Y-64500000D01*
X153770000Y-65870000D02*
X153770000Y-63130000D01*
X153770000Y-63130000D02*
X147230000Y-63130000D01*
X147230000Y-65870000D02*
X153770000Y-65870000D01*
X147230000Y-63130000D02*
X147230000Y-65870000D01*
X146460000Y-64500000D02*
X147230000Y-64500000D01*
%TO.C,R1*%
X154540000Y-107500000D02*
X153770000Y-107500000D01*
X153770000Y-108870000D02*
X153770000Y-106130000D01*
X153770000Y-106130000D02*
X147230000Y-106130000D01*
X147230000Y-108870000D02*
X153770000Y-108870000D01*
X147230000Y-106130000D02*
X147230000Y-108870000D01*
X146460000Y-107500000D02*
X147230000Y-107500000D01*
%TO.C,R5*%
X154540000Y-86000000D02*
X153770000Y-86000000D01*
X153770000Y-87370000D02*
X153770000Y-84630000D01*
X153770000Y-84630000D02*
X147230000Y-84630000D01*
X147230000Y-87370000D02*
X153770000Y-87370000D01*
X147230000Y-84630000D02*
X147230000Y-87370000D01*
X146460000Y-86000000D02*
X147230000Y-86000000D01*
%TO.C,R4*%
X154540000Y-91375000D02*
X153770000Y-91375000D01*
X153770000Y-92745000D02*
X153770000Y-90005000D01*
X153770000Y-90005000D02*
X147230000Y-90005000D01*
X147230000Y-92745000D02*
X153770000Y-92745000D01*
X147230000Y-90005000D02*
X147230000Y-92745000D01*
X146460000Y-91375000D02*
X147230000Y-91375000D01*
%TO.C,RGBS OUT*%
X160179669Y-101500000D02*
X160179669Y-70530000D01*
X168779669Y-101500000D02*
X160179669Y-101500000D01*
X159285331Y-81950000D02*
X159285331Y-81450000D01*
X159718344Y-81700000D02*
X159285331Y-81950000D01*
X159285331Y-81450000D02*
X159718344Y-81700000D01*
X160179669Y-70530000D02*
X168779669Y-70530000D01*
%TO.C,SW1*%
X117210000Y-103960000D02*
X121110000Y-103960000D01*
X117210000Y-103960000D02*
X117210000Y-96240000D01*
X123710000Y-103960000D02*
X124220000Y-103960000D01*
X124220000Y-103960000D02*
X124220000Y-103440000D01*
X120880000Y-103440000D02*
X121110000Y-103440000D01*
X120880000Y-103440000D02*
X120880000Y-102900000D01*
X123710000Y-103440000D02*
X124220000Y-103440000D01*
X120880000Y-101800000D02*
X120880000Y-98400000D01*
X120880000Y-97300000D02*
X120880000Y-96760000D01*
X120880000Y-96760000D02*
X121110000Y-96760000D01*
X123710000Y-96760000D02*
X124220000Y-96760000D01*
X124220000Y-96760000D02*
X124220000Y-96240000D01*
X117210000Y-96240000D02*
X121110000Y-96240000D01*
X123710000Y-96240000D02*
X124220000Y-96240000D01*
%TO.C,R2*%
X154540000Y-102125000D02*
X153770000Y-102125000D01*
X153770000Y-103495000D02*
X153770000Y-100755000D01*
X153770000Y-100755000D02*
X147230000Y-100755000D01*
X147230000Y-103495000D02*
X153770000Y-103495000D01*
X147230000Y-100755000D02*
X147230000Y-103495000D01*
X146460000Y-102125000D02*
X147230000Y-102125000D01*
%TD*%
%LPC*%
D12*
%TO.C,R8*%
X155580000Y-69875000D03*
D13*
X145420000Y-69875000D03*
%TD*%
D12*
%TO.C,R7*%
X155580000Y-75250000D03*
D13*
X145420000Y-75250000D03*
%TD*%
D12*
%TO.C,R3*%
X155580000Y-96750000D03*
D13*
X145420000Y-96750000D03*
%TD*%
D12*
%TO.C,R6*%
X155580000Y-80625000D03*
D13*
X145420000Y-80625000D03*
%TD*%
D12*
%TO.C,R9*%
X155580000Y-64500000D03*
D13*
X145420000Y-64500000D03*
%TD*%
D12*
%TO.C,R1*%
X155580000Y-107500000D03*
D13*
X145420000Y-107500000D03*
%TD*%
D12*
%TO.C,R5*%
X155580000Y-86000000D03*
D13*
X145420000Y-86000000D03*
%TD*%
D12*
%TO.C,R4*%
X155580000Y-91375000D03*
D13*
X145420000Y-91375000D03*
%TD*%
D14*
%TO.C,RGBS OUT*%
X163899669Y-98515000D03*
D15*
X163899669Y-73515000D03*
D16*
X161849669Y-81700000D03*
D13*
X161849669Y-83990000D03*
X161849669Y-86280000D03*
X161849669Y-88570000D03*
X161849669Y-90860000D03*
X163829669Y-80555000D03*
X163829669Y-82845000D03*
X163829669Y-85135000D03*
X163829669Y-87425000D03*
X163829669Y-89715000D03*
X165809669Y-81700000D03*
X165809669Y-83990000D03*
X165809669Y-86280000D03*
X165809669Y-88570000D03*
X165809669Y-90860000D03*
%TD*%
D17*
%TO.C,SW1*%
X122400000Y-103600000D03*
X122400000Y-96590000D03*
D18*
X119910000Y-102350000D03*
X119910000Y-97850000D03*
%TD*%
D12*
%TO.C,R2*%
X155580000Y-102125000D03*
D13*
X145420000Y-102125000D03*
%TD*%
%LPD*%
M02*
