M48
; DRILL file {KiCad 7.0.10} date Mon Jan 29 00:08:35 2024
; FORMAT={-:-/ absolute / metric / decimal}
; #@! TF.CreationDate,2024-01-29T00:08:35+11:00
; #@! TF.GenerationSoftware,Kicad,Pcbnew,7.0.10
; #@! TF.FileFunction,Plated,1,2,PTH
FMAT,2
METRIC
; #@! TA.AperFunction,Plated,PTH,ComponentDrill
T1C0.800
; #@! TA.AperFunction,Plated,PTH,ComponentDrill
T2C0.990
; #@! TA.AperFunction,Plated,PTH,ComponentDrill
T3C1.000
; #@! TA.AperFunction,Plated,PTH,ComponentDrill
T4C1.200
; #@! TA.AperFunction,Plated,PTH,ComponentDrill
T5C1.300
%
G90
G05
T1
X144.526Y-63.5
X144.526Y-69.12
X144.526Y-74.739
X144.526Y-80.359
X144.526Y-85.979
X144.526Y-91.599
X144.526Y-97.218
X144.526Y-102.838
X144.526Y-108.458
X154.686Y-63.5
X154.686Y-69.12
X154.686Y-74.739
X154.686Y-80.359
X154.686Y-85.979
X154.686Y-91.599
X154.686Y-97.218
X154.686Y-102.838
X154.686Y-108.458
T2
X118.775Y-99.65
X118.775Y-104.15
T3
X162.918Y-81.7
X162.918Y-83.99
X162.918Y-86.28
X162.918Y-88.57
X162.918Y-90.86
X164.898Y-80.555
X164.898Y-82.845
X164.898Y-85.135
X164.898Y-87.425
X164.898Y-89.715
X166.878Y-81.7
X166.878Y-83.99
X166.878Y-86.28
X166.878Y-88.57
X166.878Y-90.86
T5
X121.265Y-98.39
X121.265Y-105.4
T4
X164.968Y-74.515G85X164.968Y-72.515
G05
X164.968Y-99.515G85X164.968Y-97.515
G05
M30
