%TF.GenerationSoftware,KiCad,Pcbnew,7.0.10*%
%TF.CreationDate,2024-01-29T00:08:56+11:00*%
%TF.ProjectId,RP2040-TestPatternGenerator,52503230-3430-42d5-9465-737450617474,rev?*%
%TF.SameCoordinates,Original*%
%TF.FileFunction,Drillmap*%
%TF.FilePolarity,Positive*%
%FSLAX45Y45*%
G04 Gerber Fmt 4.5, Leading zero omitted, Abs format (unit mm)*
G04 Created by KiCad (PCBNEW 7.0.10) date 2024-01-29 00:08:56*
%MOMM*%
%LPD*%
G01*
G04 APERTURE LIST*
%ADD10C,0.100000*%
%ADD11C,0.120000*%
%ADD12C,0.200000*%
G04 APERTURE END LIST*
D10*
X11600000Y-11000000D02*
G75*
G03*
X11800000Y-11200000I200000J0D01*
G01*
X16910000Y-6250000D02*
G75*
G03*
X16590000Y-6250000I-160000J0D01*
G01*
X16590000Y-6250000D02*
G75*
G03*
X16910000Y-6250000I160000J0D01*
G01*
X11601200Y-7997900D02*
X11600000Y-8000000D01*
X16800000Y-11200000D02*
X11800000Y-11200000D01*
X17000000Y-6200000D02*
G75*
G03*
X16800000Y-6000000I-200000J0D01*
G01*
X16800000Y-11200000D02*
G75*
G03*
X17000000Y-11000000I0J200000D01*
G01*
X16910000Y-10950000D02*
G75*
G03*
X16590000Y-10950000I-160000J0D01*
G01*
X16590000Y-10950000D02*
G75*
G03*
X16910000Y-10950000I160000J0D01*
G01*
X11800000Y-6000000D02*
X16800000Y-6000000D01*
X11601200Y-9197900D02*
X11600000Y-9200000D01*
X11600000Y-9200000D02*
X11600000Y-11000000D01*
X12010000Y-6248400D02*
G75*
G03*
X11690000Y-6248400I-160000J0D01*
G01*
X11690000Y-6248400D02*
G75*
G03*
X12010000Y-6248400I160000J0D01*
G01*
X11800000Y-6000000D02*
G75*
G03*
X11600000Y-6200000I0J-200000D01*
G01*
X11600000Y-8000000D02*
X11600000Y-6200000D01*
X12010000Y-10950000D02*
G75*
G03*
X11690000Y-10950000I-160000J0D01*
G01*
X11690000Y-10950000D02*
G75*
G03*
X12010000Y-10950000I160000J0D01*
G01*
X17000000Y-6200000D02*
X17000000Y-11000000D01*
D11*
X13701200Y-7997900D02*
X13701200Y-9197900D01*
X11601200Y-7997900D02*
X13701200Y-7997900D01*
X13701200Y-9197900D02*
X11601200Y-9197900D01*
D12*
X11855777Y-11516484D02*
X11855777Y-11316484D01*
X11855777Y-11316484D02*
X11903396Y-11316484D01*
X11903396Y-11316484D02*
X11931967Y-11326008D01*
X11931967Y-11326008D02*
X11951015Y-11345055D01*
X11951015Y-11345055D02*
X11960539Y-11364103D01*
X11960539Y-11364103D02*
X11970062Y-11402198D01*
X11970062Y-11402198D02*
X11970062Y-11430769D01*
X11970062Y-11430769D02*
X11960539Y-11468865D01*
X11960539Y-11468865D02*
X11951015Y-11487912D01*
X11951015Y-11487912D02*
X11931967Y-11506960D01*
X11931967Y-11506960D02*
X11903396Y-11516484D01*
X11903396Y-11516484D02*
X11855777Y-11516484D01*
X12055777Y-11516484D02*
X12055777Y-11383150D01*
X12055777Y-11421246D02*
X12065301Y-11402198D01*
X12065301Y-11402198D02*
X12074824Y-11392674D01*
X12074824Y-11392674D02*
X12093872Y-11383150D01*
X12093872Y-11383150D02*
X12112920Y-11383150D01*
X12179586Y-11516484D02*
X12179586Y-11383150D01*
X12179586Y-11316484D02*
X12170062Y-11326008D01*
X12170062Y-11326008D02*
X12179586Y-11335531D01*
X12179586Y-11335531D02*
X12189110Y-11326008D01*
X12189110Y-11326008D02*
X12179586Y-11316484D01*
X12179586Y-11316484D02*
X12179586Y-11335531D01*
X12303396Y-11516484D02*
X12284348Y-11506960D01*
X12284348Y-11506960D02*
X12274824Y-11487912D01*
X12274824Y-11487912D02*
X12274824Y-11316484D01*
X12408158Y-11516484D02*
X12389110Y-11506960D01*
X12389110Y-11506960D02*
X12379586Y-11487912D01*
X12379586Y-11487912D02*
X12379586Y-11316484D01*
X12636729Y-11516484D02*
X12636729Y-11316484D01*
X12636729Y-11316484D02*
X12703396Y-11459341D01*
X12703396Y-11459341D02*
X12770062Y-11316484D01*
X12770062Y-11316484D02*
X12770062Y-11516484D01*
X12951015Y-11516484D02*
X12951015Y-11411722D01*
X12951015Y-11411722D02*
X12941491Y-11392674D01*
X12941491Y-11392674D02*
X12922443Y-11383150D01*
X12922443Y-11383150D02*
X12884348Y-11383150D01*
X12884348Y-11383150D02*
X12865301Y-11392674D01*
X12951015Y-11506960D02*
X12931967Y-11516484D01*
X12931967Y-11516484D02*
X12884348Y-11516484D01*
X12884348Y-11516484D02*
X12865301Y-11506960D01*
X12865301Y-11506960D02*
X12855777Y-11487912D01*
X12855777Y-11487912D02*
X12855777Y-11468865D01*
X12855777Y-11468865D02*
X12865301Y-11449817D01*
X12865301Y-11449817D02*
X12884348Y-11440293D01*
X12884348Y-11440293D02*
X12931967Y-11440293D01*
X12931967Y-11440293D02*
X12951015Y-11430769D01*
X13046253Y-11383150D02*
X13046253Y-11583150D01*
X13046253Y-11392674D02*
X13065301Y-11383150D01*
X13065301Y-11383150D02*
X13103396Y-11383150D01*
X13103396Y-11383150D02*
X13122443Y-11392674D01*
X13122443Y-11392674D02*
X13131967Y-11402198D01*
X13131967Y-11402198D02*
X13141491Y-11421246D01*
X13141491Y-11421246D02*
X13141491Y-11478388D01*
X13141491Y-11478388D02*
X13131967Y-11497436D01*
X13131967Y-11497436D02*
X13122443Y-11506960D01*
X13122443Y-11506960D02*
X13103396Y-11516484D01*
X13103396Y-11516484D02*
X13065301Y-11516484D01*
X13065301Y-11516484D02*
X13046253Y-11506960D01*
X13227205Y-11497436D02*
X13236729Y-11506960D01*
X13236729Y-11506960D02*
X13227205Y-11516484D01*
X13227205Y-11516484D02*
X13217682Y-11506960D01*
X13217682Y-11506960D02*
X13227205Y-11497436D01*
X13227205Y-11497436D02*
X13227205Y-11516484D01*
X13227205Y-11392674D02*
X13236729Y-11402198D01*
X13236729Y-11402198D02*
X13227205Y-11411722D01*
X13227205Y-11411722D02*
X13217682Y-11402198D01*
X13217682Y-11402198D02*
X13227205Y-11392674D01*
X13227205Y-11392674D02*
X13227205Y-11411722D01*
M02*
