M48
; DRILL file {KiCad 7.0.10} date Tue Jan 30 15:38:05 2024
; FORMAT={-:-/ absolute / metric / decimal}
; #@! TF.CreationDate,2024-01-30T15:38:05+11:00
; #@! TF.GenerationSoftware,Kicad,Pcbnew,7.0.10
; #@! TF.FileFunction,Plated,1,2,PTH
FMAT,2
METRIC
; #@! TA.AperFunction,Plated,PTH,ComponentDrill
T1C0.800
; #@! TA.AperFunction,Plated,PTH,ComponentDrill
T2C0.990
; #@! TA.AperFunction,Plated,PTH,ComponentDrill
T3C1.000
; #@! TA.AperFunction,Plated,PTH,ComponentDrill
T4C1.200
; #@! TA.AperFunction,Plated,PTH,ComponentDrill
T5C1.300
%
G90
G05
T1
X145.42Y-64.5
X145.42Y-69.875
X145.42Y-75.25
X145.42Y-80.625
X145.42Y-86.0
X145.42Y-91.375
X145.42Y-96.75
X145.42Y-102.125
X145.42Y-107.5
X155.58Y-64.5
X155.58Y-69.875
X155.58Y-75.25
X155.58Y-80.625
X155.58Y-86.0
X155.58Y-91.375
X155.58Y-96.75
X155.58Y-102.125
X155.58Y-107.5
T2
X119.91Y-97.85
X119.91Y-102.35
T3
X161.85Y-81.7
X161.85Y-83.99
X161.85Y-86.28
X161.85Y-88.57
X161.85Y-90.86
X163.83Y-80.555
X163.83Y-82.845
X163.83Y-85.135
X163.83Y-87.425
X163.83Y-89.715
X165.81Y-81.7
X165.81Y-83.99
X165.81Y-86.28
X165.81Y-88.57
X165.81Y-90.86
T5
X122.4Y-96.59
X122.4Y-103.6
T4
X163.9Y-74.515G85X163.9Y-72.515
G05
X163.9Y-99.515G85X163.9Y-97.515
G05
M30
