%TF.GenerationSoftware,KiCad,Pcbnew,7.0.10*%
%TF.CreationDate,2024-01-30T15:38:06+11:00*%
%TF.ProjectId,RP2040-TestPatternGenerator,52503230-3430-42d5-9465-737450617474,rev?*%
%TF.SameCoordinates,Original*%
%TF.FileFunction,Drillmap*%
%TF.FilePolarity,Positive*%
%FSLAX45Y45*%
G04 Gerber Fmt 4.5, Leading zero omitted, Abs format (unit mm)*
G04 Created by KiCad (PCBNEW 7.0.10) date 2024-01-30 15:38:06*
%MOMM*%
%LPD*%
G01*
G04 APERTURE LIST*
%ADD10C,0.100000*%
%ADD11C,0.120000*%
%ADD12C,0.200000*%
%ADD13C,0.130000*%
G04 APERTURE END LIST*
D10*
X11700000Y-7997900D02*
X11700000Y-7900000D01*
X11700000Y-9197900D02*
X11700000Y-9300000D01*
X11700000Y-10800000D02*
X11700000Y-9300000D01*
X11700000Y-10800000D02*
G75*
G03*
X12000000Y-11100000I300000J0D01*
G01*
X16600000Y-11100000D02*
G75*
G03*
X16900000Y-10800000I0J300000D01*
G01*
X16600000Y-11100000D02*
X12000000Y-11100000D01*
X12000000Y-6100000D02*
G75*
G03*
X11700000Y-6400000I0J-300000D01*
G01*
X11700000Y-7900000D02*
X11700000Y-6400000D01*
X16900000Y-6400000D02*
G75*
G03*
X16600000Y-6100000I-300000J0D01*
G01*
X16900000Y-6400000D02*
X16900000Y-10800000D01*
X12000000Y-6100000D02*
X16600000Y-6100000D01*
X16760000Y-6400000D02*
G75*
G03*
X16440000Y-6400000I-160000J0D01*
G01*
X16440000Y-6400000D02*
G75*
G03*
X16760000Y-6400000I160000J0D01*
G01*
X16760000Y-10800000D02*
G75*
G03*
X16440000Y-10800000I-160000J0D01*
G01*
X16440000Y-10800000D02*
G75*
G03*
X16760000Y-10800000I160000J0D01*
G01*
X12160000Y-6398400D02*
G75*
G03*
X11840000Y-6398400I-160000J0D01*
G01*
X11840000Y-6398400D02*
G75*
G03*
X12160000Y-6398400I160000J0D01*
G01*
X12160000Y-10800000D02*
G75*
G03*
X11840000Y-10800000I-160000J0D01*
G01*
X11840000Y-10800000D02*
G75*
G03*
X12160000Y-10800000I160000J0D01*
G01*
D11*
X13800000Y-9197900D02*
X11700000Y-9197900D01*
X11700000Y-7997900D02*
X13800000Y-7997900D01*
X13800000Y-7997900D02*
X13800000Y-9197900D01*
D12*
D10*
X14502000Y-6410000D02*
X14582000Y-6490000D01*
X14582000Y-6410000D02*
X14502000Y-6490000D01*
X14502000Y-6947500D02*
X14582000Y-7027500D01*
X14582000Y-6947500D02*
X14502000Y-7027500D01*
X14502000Y-7485000D02*
X14582000Y-7565000D01*
X14582000Y-7485000D02*
X14502000Y-7565000D01*
X14502000Y-8022500D02*
X14582000Y-8102500D01*
X14582000Y-8022500D02*
X14502000Y-8102500D01*
X14502000Y-8560000D02*
X14582000Y-8640000D01*
X14582000Y-8560000D02*
X14502000Y-8640000D01*
X14502000Y-9097500D02*
X14582000Y-9177500D01*
X14582000Y-9097500D02*
X14502000Y-9177500D01*
X14502000Y-9635000D02*
X14582000Y-9715000D01*
X14582000Y-9635000D02*
X14502000Y-9715000D01*
X14502000Y-10172500D02*
X14582000Y-10252500D01*
X14582000Y-10172500D02*
X14502000Y-10252500D01*
X14502000Y-10710000D02*
X14582000Y-10790000D01*
X14582000Y-10710000D02*
X14502000Y-10790000D01*
X15518000Y-6410000D02*
X15598000Y-6490000D01*
X15598000Y-6410000D02*
X15518000Y-6490000D01*
X15518000Y-6947500D02*
X15598000Y-7027500D01*
X15598000Y-6947500D02*
X15518000Y-7027500D01*
X15518000Y-7485000D02*
X15598000Y-7565000D01*
X15598000Y-7485000D02*
X15518000Y-7565000D01*
X15518000Y-8022500D02*
X15598000Y-8102500D01*
X15598000Y-8022500D02*
X15518000Y-8102500D01*
X15518000Y-8560000D02*
X15598000Y-8640000D01*
X15598000Y-8560000D02*
X15518000Y-8640000D01*
X15518000Y-9097500D02*
X15598000Y-9177500D01*
X15598000Y-9097500D02*
X15518000Y-9177500D01*
X15518000Y-9635000D02*
X15598000Y-9715000D01*
X15598000Y-9635000D02*
X15518000Y-9715000D01*
X15518000Y-10172500D02*
X15598000Y-10252500D01*
X15598000Y-10172500D02*
X15518000Y-10252500D01*
X15518000Y-10710000D02*
X15598000Y-10790000D01*
X15598000Y-10710000D02*
X15518000Y-10790000D01*
X12040500Y-9785000D02*
G75*
G03*
X11941500Y-9785000I-49500J0D01*
G01*
X11941500Y-9785000D02*
G75*
G03*
X12040500Y-9785000I49500J0D01*
G01*
X12040500Y-10235000D02*
G75*
G03*
X11941500Y-10235000I-49500J0D01*
G01*
X11941500Y-10235000D02*
G75*
G03*
X12040500Y-10235000I49500J0D01*
G01*
X16184967Y-8120000D02*
X16184967Y-8220000D01*
X16134967Y-8170000D02*
X16234967Y-8170000D01*
X16184967Y-8349000D02*
X16184967Y-8449000D01*
X16134967Y-8399000D02*
X16234967Y-8399000D01*
X16184967Y-8578000D02*
X16184967Y-8678000D01*
X16134967Y-8628000D02*
X16234967Y-8628000D01*
X16184967Y-8807000D02*
X16184967Y-8907000D01*
X16134967Y-8857000D02*
X16234967Y-8857000D01*
X16184967Y-9036000D02*
X16184967Y-9136000D01*
X16134967Y-9086000D02*
X16234967Y-9086000D01*
X16382967Y-8005500D02*
X16382967Y-8105500D01*
X16332967Y-8055500D02*
X16432967Y-8055500D01*
X16382967Y-8234500D02*
X16382967Y-8334500D01*
X16332967Y-8284500D02*
X16432967Y-8284500D01*
X16382967Y-8463500D02*
X16382967Y-8563500D01*
X16332967Y-8513500D02*
X16432967Y-8513500D01*
X16382967Y-8692500D02*
X16382967Y-8792500D01*
X16332967Y-8742500D02*
X16432967Y-8742500D01*
X16382967Y-8921500D02*
X16382967Y-9021500D01*
X16332967Y-8971500D02*
X16432967Y-8971500D01*
X16580967Y-8120000D02*
X16580967Y-8220000D01*
X16530967Y-8170000D02*
X16630967Y-8170000D01*
X16580967Y-8349000D02*
X16580967Y-8449000D01*
X16530967Y-8399000D02*
X16630967Y-8399000D01*
X16580967Y-8578000D02*
X16580967Y-8678000D01*
X16530967Y-8628000D02*
X16630967Y-8628000D01*
X16580967Y-8807000D02*
X16580967Y-8907000D01*
X16530967Y-8857000D02*
X16630967Y-8857000D01*
X16580967Y-9036000D02*
X16580967Y-9136000D01*
X16530967Y-9086000D02*
X16630967Y-9086000D01*
D11*
X16432394Y-7393927D02*
X16432394Y-7309073D01*
X16347540Y-7309073D01*
X16347540Y-7393927D01*
X16432394Y-7393927D01*
D10*
X16449967Y-7451500D02*
X16449967Y-7251500D01*
X16449967Y-7251500D02*
G75*
G03*
X16329967Y-7251500I-60000J0D01*
G01*
X16329967Y-7251500D02*
X16329967Y-7451500D01*
X16329967Y-7451500D02*
G75*
G03*
X16449967Y-7451500I60000J0D01*
G01*
D11*
X16432394Y-9893927D02*
X16432394Y-9809073D01*
X16347540Y-9809073D01*
X16347540Y-9893927D01*
X16432394Y-9893927D01*
D10*
X16449967Y-9951500D02*
X16449967Y-9751500D01*
X16449967Y-9751500D02*
G75*
G03*
X16329967Y-9751500I-60000J0D01*
G01*
X16329967Y-9751500D02*
X16329967Y-9951500D01*
X16329967Y-9951500D02*
G75*
G03*
X16449967Y-9951500I60000J0D01*
G01*
D13*
X12240000Y-9724000D02*
X12305000Y-9659000D01*
X12240000Y-9594000D01*
X12175000Y-9659000D01*
X12240000Y-9724000D01*
X12240000Y-10425000D02*
X12305000Y-10360000D01*
X12240000Y-10295000D01*
X12175000Y-10360000D01*
X12240000Y-10425000D01*
D12*
X11954777Y-11416484D02*
X11954777Y-11216484D01*
X11954777Y-11216484D02*
X12002396Y-11216484D01*
X12002396Y-11216484D02*
X12030967Y-11226008D01*
X12030967Y-11226008D02*
X12050015Y-11245055D01*
X12050015Y-11245055D02*
X12059539Y-11264103D01*
X12059539Y-11264103D02*
X12069062Y-11302198D01*
X12069062Y-11302198D02*
X12069062Y-11330769D01*
X12069062Y-11330769D02*
X12059539Y-11368865D01*
X12059539Y-11368865D02*
X12050015Y-11387912D01*
X12050015Y-11387912D02*
X12030967Y-11406960D01*
X12030967Y-11406960D02*
X12002396Y-11416484D01*
X12002396Y-11416484D02*
X11954777Y-11416484D01*
X12154777Y-11416484D02*
X12154777Y-11283150D01*
X12154777Y-11321246D02*
X12164301Y-11302198D01*
X12164301Y-11302198D02*
X12173824Y-11292674D01*
X12173824Y-11292674D02*
X12192872Y-11283150D01*
X12192872Y-11283150D02*
X12211920Y-11283150D01*
X12278586Y-11416484D02*
X12278586Y-11283150D01*
X12278586Y-11216484D02*
X12269062Y-11226008D01*
X12269062Y-11226008D02*
X12278586Y-11235531D01*
X12278586Y-11235531D02*
X12288110Y-11226008D01*
X12288110Y-11226008D02*
X12278586Y-11216484D01*
X12278586Y-11216484D02*
X12278586Y-11235531D01*
X12402396Y-11416484D02*
X12383348Y-11406960D01*
X12383348Y-11406960D02*
X12373824Y-11387912D01*
X12373824Y-11387912D02*
X12373824Y-11216484D01*
X12507158Y-11416484D02*
X12488110Y-11406960D01*
X12488110Y-11406960D02*
X12478586Y-11387912D01*
X12478586Y-11387912D02*
X12478586Y-11216484D01*
X12735729Y-11416484D02*
X12735729Y-11216484D01*
X12735729Y-11216484D02*
X12802396Y-11359341D01*
X12802396Y-11359341D02*
X12869062Y-11216484D01*
X12869062Y-11216484D02*
X12869062Y-11416484D01*
X13050015Y-11416484D02*
X13050015Y-11311722D01*
X13050015Y-11311722D02*
X13040491Y-11292674D01*
X13040491Y-11292674D02*
X13021443Y-11283150D01*
X13021443Y-11283150D02*
X12983348Y-11283150D01*
X12983348Y-11283150D02*
X12964301Y-11292674D01*
X13050015Y-11406960D02*
X13030967Y-11416484D01*
X13030967Y-11416484D02*
X12983348Y-11416484D01*
X12983348Y-11416484D02*
X12964301Y-11406960D01*
X12964301Y-11406960D02*
X12954777Y-11387912D01*
X12954777Y-11387912D02*
X12954777Y-11368865D01*
X12954777Y-11368865D02*
X12964301Y-11349817D01*
X12964301Y-11349817D02*
X12983348Y-11340293D01*
X12983348Y-11340293D02*
X13030967Y-11340293D01*
X13030967Y-11340293D02*
X13050015Y-11330769D01*
X13145253Y-11283150D02*
X13145253Y-11483150D01*
X13145253Y-11292674D02*
X13164301Y-11283150D01*
X13164301Y-11283150D02*
X13202396Y-11283150D01*
X13202396Y-11283150D02*
X13221443Y-11292674D01*
X13221443Y-11292674D02*
X13230967Y-11302198D01*
X13230967Y-11302198D02*
X13240491Y-11321246D01*
X13240491Y-11321246D02*
X13240491Y-11378388D01*
X13240491Y-11378388D02*
X13230967Y-11397436D01*
X13230967Y-11397436D02*
X13221443Y-11406960D01*
X13221443Y-11406960D02*
X13202396Y-11416484D01*
X13202396Y-11416484D02*
X13164301Y-11416484D01*
X13164301Y-11416484D02*
X13145253Y-11406960D01*
X13326205Y-11397436D02*
X13335729Y-11406960D01*
X13335729Y-11406960D02*
X13326205Y-11416484D01*
X13326205Y-11416484D02*
X13316682Y-11406960D01*
X13316682Y-11406960D02*
X13326205Y-11397436D01*
X13326205Y-11397436D02*
X13326205Y-11416484D01*
X13326205Y-11292674D02*
X13335729Y-11302198D01*
X13335729Y-11302198D02*
X13326205Y-11311722D01*
X13326205Y-11311722D02*
X13316682Y-11302198D01*
X13316682Y-11302198D02*
X13326205Y-11292674D01*
X13326205Y-11292674D02*
X13326205Y-11311722D01*
D10*
X11614000Y-11705000D02*
X11694000Y-11785000D01*
X11694000Y-11705000D02*
X11614000Y-11785000D01*
D12*
X11992872Y-11636484D02*
X12011920Y-11636484D01*
X12011920Y-11636484D02*
X12030967Y-11646008D01*
X12030967Y-11646008D02*
X12040491Y-11655531D01*
X12040491Y-11655531D02*
X12050015Y-11674579D01*
X12050015Y-11674579D02*
X12059539Y-11712674D01*
X12059539Y-11712674D02*
X12059539Y-11760293D01*
X12059539Y-11760293D02*
X12050015Y-11798388D01*
X12050015Y-11798388D02*
X12040491Y-11817436D01*
X12040491Y-11817436D02*
X12030967Y-11826960D01*
X12030967Y-11826960D02*
X12011920Y-11836484D01*
X12011920Y-11836484D02*
X11992872Y-11836484D01*
X11992872Y-11836484D02*
X11973824Y-11826960D01*
X11973824Y-11826960D02*
X11964301Y-11817436D01*
X11964301Y-11817436D02*
X11954777Y-11798388D01*
X11954777Y-11798388D02*
X11945253Y-11760293D01*
X11945253Y-11760293D02*
X11945253Y-11712674D01*
X11945253Y-11712674D02*
X11954777Y-11674579D01*
X11954777Y-11674579D02*
X11964301Y-11655531D01*
X11964301Y-11655531D02*
X11973824Y-11646008D01*
X11973824Y-11646008D02*
X11992872Y-11636484D01*
X12145253Y-11817436D02*
X12154777Y-11826960D01*
X12154777Y-11826960D02*
X12145253Y-11836484D01*
X12145253Y-11836484D02*
X12135729Y-11826960D01*
X12135729Y-11826960D02*
X12145253Y-11817436D01*
X12145253Y-11817436D02*
X12145253Y-11836484D01*
X12269062Y-11722198D02*
X12250015Y-11712674D01*
X12250015Y-11712674D02*
X12240491Y-11703150D01*
X12240491Y-11703150D02*
X12230967Y-11684103D01*
X12230967Y-11684103D02*
X12230967Y-11674579D01*
X12230967Y-11674579D02*
X12240491Y-11655531D01*
X12240491Y-11655531D02*
X12250015Y-11646008D01*
X12250015Y-11646008D02*
X12269062Y-11636484D01*
X12269062Y-11636484D02*
X12307158Y-11636484D01*
X12307158Y-11636484D02*
X12326205Y-11646008D01*
X12326205Y-11646008D02*
X12335729Y-11655531D01*
X12335729Y-11655531D02*
X12345253Y-11674579D01*
X12345253Y-11674579D02*
X12345253Y-11684103D01*
X12345253Y-11684103D02*
X12335729Y-11703150D01*
X12335729Y-11703150D02*
X12326205Y-11712674D01*
X12326205Y-11712674D02*
X12307158Y-11722198D01*
X12307158Y-11722198D02*
X12269062Y-11722198D01*
X12269062Y-11722198D02*
X12250015Y-11731722D01*
X12250015Y-11731722D02*
X12240491Y-11741246D01*
X12240491Y-11741246D02*
X12230967Y-11760293D01*
X12230967Y-11760293D02*
X12230967Y-11798388D01*
X12230967Y-11798388D02*
X12240491Y-11817436D01*
X12240491Y-11817436D02*
X12250015Y-11826960D01*
X12250015Y-11826960D02*
X12269062Y-11836484D01*
X12269062Y-11836484D02*
X12307158Y-11836484D01*
X12307158Y-11836484D02*
X12326205Y-11826960D01*
X12326205Y-11826960D02*
X12335729Y-11817436D01*
X12335729Y-11817436D02*
X12345253Y-11798388D01*
X12345253Y-11798388D02*
X12345253Y-11760293D01*
X12345253Y-11760293D02*
X12335729Y-11741246D01*
X12335729Y-11741246D02*
X12326205Y-11731722D01*
X12326205Y-11731722D02*
X12307158Y-11722198D01*
X12469062Y-11636484D02*
X12488110Y-11636484D01*
X12488110Y-11636484D02*
X12507158Y-11646008D01*
X12507158Y-11646008D02*
X12516682Y-11655531D01*
X12516682Y-11655531D02*
X12526205Y-11674579D01*
X12526205Y-11674579D02*
X12535729Y-11712674D01*
X12535729Y-11712674D02*
X12535729Y-11760293D01*
X12535729Y-11760293D02*
X12526205Y-11798388D01*
X12526205Y-11798388D02*
X12516682Y-11817436D01*
X12516682Y-11817436D02*
X12507158Y-11826960D01*
X12507158Y-11826960D02*
X12488110Y-11836484D01*
X12488110Y-11836484D02*
X12469062Y-11836484D01*
X12469062Y-11836484D02*
X12450015Y-11826960D01*
X12450015Y-11826960D02*
X12440491Y-11817436D01*
X12440491Y-11817436D02*
X12430967Y-11798388D01*
X12430967Y-11798388D02*
X12421443Y-11760293D01*
X12421443Y-11760293D02*
X12421443Y-11712674D01*
X12421443Y-11712674D02*
X12430967Y-11674579D01*
X12430967Y-11674579D02*
X12440491Y-11655531D01*
X12440491Y-11655531D02*
X12450015Y-11646008D01*
X12450015Y-11646008D02*
X12469062Y-11636484D01*
X12659539Y-11636484D02*
X12678586Y-11636484D01*
X12678586Y-11636484D02*
X12697634Y-11646008D01*
X12697634Y-11646008D02*
X12707158Y-11655531D01*
X12707158Y-11655531D02*
X12716682Y-11674579D01*
X12716682Y-11674579D02*
X12726205Y-11712674D01*
X12726205Y-11712674D02*
X12726205Y-11760293D01*
X12726205Y-11760293D02*
X12716682Y-11798388D01*
X12716682Y-11798388D02*
X12707158Y-11817436D01*
X12707158Y-11817436D02*
X12697634Y-11826960D01*
X12697634Y-11826960D02*
X12678586Y-11836484D01*
X12678586Y-11836484D02*
X12659539Y-11836484D01*
X12659539Y-11836484D02*
X12640491Y-11826960D01*
X12640491Y-11826960D02*
X12630967Y-11817436D01*
X12630967Y-11817436D02*
X12621443Y-11798388D01*
X12621443Y-11798388D02*
X12611920Y-11760293D01*
X12611920Y-11760293D02*
X12611920Y-11712674D01*
X12611920Y-11712674D02*
X12621443Y-11674579D01*
X12621443Y-11674579D02*
X12630967Y-11655531D01*
X12630967Y-11655531D02*
X12640491Y-11646008D01*
X12640491Y-11646008D02*
X12659539Y-11636484D01*
X12811920Y-11836484D02*
X12811920Y-11703150D01*
X12811920Y-11722198D02*
X12821443Y-11712674D01*
X12821443Y-11712674D02*
X12840491Y-11703150D01*
X12840491Y-11703150D02*
X12869063Y-11703150D01*
X12869063Y-11703150D02*
X12888110Y-11712674D01*
X12888110Y-11712674D02*
X12897634Y-11731722D01*
X12897634Y-11731722D02*
X12897634Y-11836484D01*
X12897634Y-11731722D02*
X12907158Y-11712674D01*
X12907158Y-11712674D02*
X12926205Y-11703150D01*
X12926205Y-11703150D02*
X12954777Y-11703150D01*
X12954777Y-11703150D02*
X12973824Y-11712674D01*
X12973824Y-11712674D02*
X12983348Y-11731722D01*
X12983348Y-11731722D02*
X12983348Y-11836484D01*
X13078586Y-11836484D02*
X13078586Y-11703150D01*
X13078586Y-11722198D02*
X13088110Y-11712674D01*
X13088110Y-11712674D02*
X13107158Y-11703150D01*
X13107158Y-11703150D02*
X13135729Y-11703150D01*
X13135729Y-11703150D02*
X13154777Y-11712674D01*
X13154777Y-11712674D02*
X13164301Y-11731722D01*
X13164301Y-11731722D02*
X13164301Y-11836484D01*
X13164301Y-11731722D02*
X13173824Y-11712674D01*
X13173824Y-11712674D02*
X13192872Y-11703150D01*
X13192872Y-11703150D02*
X13221443Y-11703150D01*
X13221443Y-11703150D02*
X13240491Y-11712674D01*
X13240491Y-11712674D02*
X13250015Y-11731722D01*
X13250015Y-11731722D02*
X13250015Y-11836484D01*
X13640491Y-11626960D02*
X13469063Y-11884103D01*
X13897634Y-11636484D02*
X13916682Y-11636484D01*
X13916682Y-11636484D02*
X13935729Y-11646008D01*
X13935729Y-11646008D02*
X13945253Y-11655531D01*
X13945253Y-11655531D02*
X13954777Y-11674579D01*
X13954777Y-11674579D02*
X13964301Y-11712674D01*
X13964301Y-11712674D02*
X13964301Y-11760293D01*
X13964301Y-11760293D02*
X13954777Y-11798388D01*
X13954777Y-11798388D02*
X13945253Y-11817436D01*
X13945253Y-11817436D02*
X13935729Y-11826960D01*
X13935729Y-11826960D02*
X13916682Y-11836484D01*
X13916682Y-11836484D02*
X13897634Y-11836484D01*
X13897634Y-11836484D02*
X13878586Y-11826960D01*
X13878586Y-11826960D02*
X13869063Y-11817436D01*
X13869063Y-11817436D02*
X13859539Y-11798388D01*
X13859539Y-11798388D02*
X13850015Y-11760293D01*
X13850015Y-11760293D02*
X13850015Y-11712674D01*
X13850015Y-11712674D02*
X13859539Y-11674579D01*
X13859539Y-11674579D02*
X13869063Y-11655531D01*
X13869063Y-11655531D02*
X13878586Y-11646008D01*
X13878586Y-11646008D02*
X13897634Y-11636484D01*
X14050015Y-11817436D02*
X14059539Y-11826960D01*
X14059539Y-11826960D02*
X14050015Y-11836484D01*
X14050015Y-11836484D02*
X14040491Y-11826960D01*
X14040491Y-11826960D02*
X14050015Y-11817436D01*
X14050015Y-11817436D02*
X14050015Y-11836484D01*
X14183348Y-11636484D02*
X14202396Y-11636484D01*
X14202396Y-11636484D02*
X14221444Y-11646008D01*
X14221444Y-11646008D02*
X14230967Y-11655531D01*
X14230967Y-11655531D02*
X14240491Y-11674579D01*
X14240491Y-11674579D02*
X14250015Y-11712674D01*
X14250015Y-11712674D02*
X14250015Y-11760293D01*
X14250015Y-11760293D02*
X14240491Y-11798388D01*
X14240491Y-11798388D02*
X14230967Y-11817436D01*
X14230967Y-11817436D02*
X14221444Y-11826960D01*
X14221444Y-11826960D02*
X14202396Y-11836484D01*
X14202396Y-11836484D02*
X14183348Y-11836484D01*
X14183348Y-11836484D02*
X14164301Y-11826960D01*
X14164301Y-11826960D02*
X14154777Y-11817436D01*
X14154777Y-11817436D02*
X14145253Y-11798388D01*
X14145253Y-11798388D02*
X14135729Y-11760293D01*
X14135729Y-11760293D02*
X14135729Y-11712674D01*
X14135729Y-11712674D02*
X14145253Y-11674579D01*
X14145253Y-11674579D02*
X14154777Y-11655531D01*
X14154777Y-11655531D02*
X14164301Y-11646008D01*
X14164301Y-11646008D02*
X14183348Y-11636484D01*
X14316682Y-11636484D02*
X14440491Y-11636484D01*
X14440491Y-11636484D02*
X14373825Y-11712674D01*
X14373825Y-11712674D02*
X14402396Y-11712674D01*
X14402396Y-11712674D02*
X14421444Y-11722198D01*
X14421444Y-11722198D02*
X14430967Y-11731722D01*
X14430967Y-11731722D02*
X14440491Y-11750769D01*
X14440491Y-11750769D02*
X14440491Y-11798388D01*
X14440491Y-11798388D02*
X14430967Y-11817436D01*
X14430967Y-11817436D02*
X14421444Y-11826960D01*
X14421444Y-11826960D02*
X14402396Y-11836484D01*
X14402396Y-11836484D02*
X14345253Y-11836484D01*
X14345253Y-11836484D02*
X14326206Y-11826960D01*
X14326206Y-11826960D02*
X14316682Y-11817436D01*
X14630967Y-11836484D02*
X14516682Y-11836484D01*
X14573825Y-11836484D02*
X14573825Y-11636484D01*
X14573825Y-11636484D02*
X14554777Y-11665055D01*
X14554777Y-11665055D02*
X14535729Y-11684103D01*
X14535729Y-11684103D02*
X14516682Y-11693627D01*
X14811920Y-11636484D02*
X14716682Y-11636484D01*
X14716682Y-11636484D02*
X14707158Y-11731722D01*
X14707158Y-11731722D02*
X14716682Y-11722198D01*
X14716682Y-11722198D02*
X14735729Y-11712674D01*
X14735729Y-11712674D02*
X14783348Y-11712674D01*
X14783348Y-11712674D02*
X14802396Y-11722198D01*
X14802396Y-11722198D02*
X14811920Y-11731722D01*
X14811920Y-11731722D02*
X14821444Y-11750769D01*
X14821444Y-11750769D02*
X14821444Y-11798388D01*
X14821444Y-11798388D02*
X14811920Y-11817436D01*
X14811920Y-11817436D02*
X14802396Y-11826960D01*
X14802396Y-11826960D02*
X14783348Y-11836484D01*
X14783348Y-11836484D02*
X14735729Y-11836484D01*
X14735729Y-11836484D02*
X14716682Y-11826960D01*
X14716682Y-11826960D02*
X14707158Y-11817436D01*
X14897634Y-11636484D02*
X14897634Y-11674579D01*
X14973825Y-11636484D02*
X14973825Y-11674579D01*
X15269063Y-11912674D02*
X15259539Y-11903150D01*
X15259539Y-11903150D02*
X15240491Y-11874579D01*
X15240491Y-11874579D02*
X15230968Y-11855531D01*
X15230968Y-11855531D02*
X15221444Y-11826960D01*
X15221444Y-11826960D02*
X15211920Y-11779341D01*
X15211920Y-11779341D02*
X15211920Y-11741246D01*
X15211920Y-11741246D02*
X15221444Y-11693627D01*
X15221444Y-11693627D02*
X15230968Y-11665055D01*
X15230968Y-11665055D02*
X15240491Y-11646008D01*
X15240491Y-11646008D02*
X15259539Y-11617436D01*
X15259539Y-11617436D02*
X15269063Y-11607912D01*
X15450015Y-11836484D02*
X15335729Y-11836484D01*
X15392872Y-11836484D02*
X15392872Y-11636484D01*
X15392872Y-11636484D02*
X15373825Y-11665055D01*
X15373825Y-11665055D02*
X15354777Y-11684103D01*
X15354777Y-11684103D02*
X15335729Y-11693627D01*
X15564301Y-11722198D02*
X15545253Y-11712674D01*
X15545253Y-11712674D02*
X15535729Y-11703150D01*
X15535729Y-11703150D02*
X15526206Y-11684103D01*
X15526206Y-11684103D02*
X15526206Y-11674579D01*
X15526206Y-11674579D02*
X15535729Y-11655531D01*
X15535729Y-11655531D02*
X15545253Y-11646008D01*
X15545253Y-11646008D02*
X15564301Y-11636484D01*
X15564301Y-11636484D02*
X15602396Y-11636484D01*
X15602396Y-11636484D02*
X15621444Y-11646008D01*
X15621444Y-11646008D02*
X15630968Y-11655531D01*
X15630968Y-11655531D02*
X15640491Y-11674579D01*
X15640491Y-11674579D02*
X15640491Y-11684103D01*
X15640491Y-11684103D02*
X15630968Y-11703150D01*
X15630968Y-11703150D02*
X15621444Y-11712674D01*
X15621444Y-11712674D02*
X15602396Y-11722198D01*
X15602396Y-11722198D02*
X15564301Y-11722198D01*
X15564301Y-11722198D02*
X15545253Y-11731722D01*
X15545253Y-11731722D02*
X15535729Y-11741246D01*
X15535729Y-11741246D02*
X15526206Y-11760293D01*
X15526206Y-11760293D02*
X15526206Y-11798388D01*
X15526206Y-11798388D02*
X15535729Y-11817436D01*
X15535729Y-11817436D02*
X15545253Y-11826960D01*
X15545253Y-11826960D02*
X15564301Y-11836484D01*
X15564301Y-11836484D02*
X15602396Y-11836484D01*
X15602396Y-11836484D02*
X15621444Y-11826960D01*
X15621444Y-11826960D02*
X15630968Y-11817436D01*
X15630968Y-11817436D02*
X15640491Y-11798388D01*
X15640491Y-11798388D02*
X15640491Y-11760293D01*
X15640491Y-11760293D02*
X15630968Y-11741246D01*
X15630968Y-11741246D02*
X15621444Y-11731722D01*
X15621444Y-11731722D02*
X15602396Y-11722198D01*
X15878587Y-11836484D02*
X15878587Y-11636484D01*
X15964301Y-11836484D02*
X15964301Y-11731722D01*
X15964301Y-11731722D02*
X15954777Y-11712674D01*
X15954777Y-11712674D02*
X15935730Y-11703150D01*
X15935730Y-11703150D02*
X15907158Y-11703150D01*
X15907158Y-11703150D02*
X15888110Y-11712674D01*
X15888110Y-11712674D02*
X15878587Y-11722198D01*
X16088110Y-11836484D02*
X16069063Y-11826960D01*
X16069063Y-11826960D02*
X16059539Y-11817436D01*
X16059539Y-11817436D02*
X16050015Y-11798388D01*
X16050015Y-11798388D02*
X16050015Y-11741246D01*
X16050015Y-11741246D02*
X16059539Y-11722198D01*
X16059539Y-11722198D02*
X16069063Y-11712674D01*
X16069063Y-11712674D02*
X16088110Y-11703150D01*
X16088110Y-11703150D02*
X16116682Y-11703150D01*
X16116682Y-11703150D02*
X16135730Y-11712674D01*
X16135730Y-11712674D02*
X16145253Y-11722198D01*
X16145253Y-11722198D02*
X16154777Y-11741246D01*
X16154777Y-11741246D02*
X16154777Y-11798388D01*
X16154777Y-11798388D02*
X16145253Y-11817436D01*
X16145253Y-11817436D02*
X16135730Y-11826960D01*
X16135730Y-11826960D02*
X16116682Y-11836484D01*
X16116682Y-11836484D02*
X16088110Y-11836484D01*
X16269063Y-11836484D02*
X16250015Y-11826960D01*
X16250015Y-11826960D02*
X16240491Y-11807912D01*
X16240491Y-11807912D02*
X16240491Y-11636484D01*
X16421444Y-11826960D02*
X16402396Y-11836484D01*
X16402396Y-11836484D02*
X16364301Y-11836484D01*
X16364301Y-11836484D02*
X16345253Y-11826960D01*
X16345253Y-11826960D02*
X16335730Y-11807912D01*
X16335730Y-11807912D02*
X16335730Y-11731722D01*
X16335730Y-11731722D02*
X16345253Y-11712674D01*
X16345253Y-11712674D02*
X16364301Y-11703150D01*
X16364301Y-11703150D02*
X16402396Y-11703150D01*
X16402396Y-11703150D02*
X16421444Y-11712674D01*
X16421444Y-11712674D02*
X16430968Y-11731722D01*
X16430968Y-11731722D02*
X16430968Y-11750769D01*
X16430968Y-11750769D02*
X16335730Y-11769817D01*
X16507158Y-11826960D02*
X16526206Y-11836484D01*
X16526206Y-11836484D02*
X16564301Y-11836484D01*
X16564301Y-11836484D02*
X16583349Y-11826960D01*
X16583349Y-11826960D02*
X16592872Y-11807912D01*
X16592872Y-11807912D02*
X16592872Y-11798388D01*
X16592872Y-11798388D02*
X16583349Y-11779341D01*
X16583349Y-11779341D02*
X16564301Y-11769817D01*
X16564301Y-11769817D02*
X16535730Y-11769817D01*
X16535730Y-11769817D02*
X16516682Y-11760293D01*
X16516682Y-11760293D02*
X16507158Y-11741246D01*
X16507158Y-11741246D02*
X16507158Y-11731722D01*
X16507158Y-11731722D02*
X16516682Y-11712674D01*
X16516682Y-11712674D02*
X16535730Y-11703150D01*
X16535730Y-11703150D02*
X16564301Y-11703150D01*
X16564301Y-11703150D02*
X16583349Y-11712674D01*
X16659539Y-11912674D02*
X16669063Y-11903150D01*
X16669063Y-11903150D02*
X16688111Y-11874579D01*
X16688111Y-11874579D02*
X16697634Y-11855531D01*
X16697634Y-11855531D02*
X16707158Y-11826960D01*
X16707158Y-11826960D02*
X16716682Y-11779341D01*
X16716682Y-11779341D02*
X16716682Y-11741246D01*
X16716682Y-11741246D02*
X16707158Y-11693627D01*
X16707158Y-11693627D02*
X16697634Y-11665055D01*
X16697634Y-11665055D02*
X16688111Y-11646008D01*
X16688111Y-11646008D02*
X16669063Y-11617436D01*
X16669063Y-11617436D02*
X16659539Y-11607912D01*
D10*
X11694000Y-12009000D02*
G75*
G03*
X11595000Y-12009000I-49500J0D01*
G01*
X11595000Y-12009000D02*
G75*
G03*
X11694000Y-12009000I49500J0D01*
G01*
D12*
X11992872Y-11900484D02*
X12011920Y-11900484D01*
X12011920Y-11900484D02*
X12030967Y-11910008D01*
X12030967Y-11910008D02*
X12040491Y-11919531D01*
X12040491Y-11919531D02*
X12050015Y-11938579D01*
X12050015Y-11938579D02*
X12059539Y-11976674D01*
X12059539Y-11976674D02*
X12059539Y-12024293D01*
X12059539Y-12024293D02*
X12050015Y-12062388D01*
X12050015Y-12062388D02*
X12040491Y-12081436D01*
X12040491Y-12081436D02*
X12030967Y-12090960D01*
X12030967Y-12090960D02*
X12011920Y-12100484D01*
X12011920Y-12100484D02*
X11992872Y-12100484D01*
X11992872Y-12100484D02*
X11973824Y-12090960D01*
X11973824Y-12090960D02*
X11964301Y-12081436D01*
X11964301Y-12081436D02*
X11954777Y-12062388D01*
X11954777Y-12062388D02*
X11945253Y-12024293D01*
X11945253Y-12024293D02*
X11945253Y-11976674D01*
X11945253Y-11976674D02*
X11954777Y-11938579D01*
X11954777Y-11938579D02*
X11964301Y-11919531D01*
X11964301Y-11919531D02*
X11973824Y-11910008D01*
X11973824Y-11910008D02*
X11992872Y-11900484D01*
X12145253Y-12081436D02*
X12154777Y-12090960D01*
X12154777Y-12090960D02*
X12145253Y-12100484D01*
X12145253Y-12100484D02*
X12135729Y-12090960D01*
X12135729Y-12090960D02*
X12145253Y-12081436D01*
X12145253Y-12081436D02*
X12145253Y-12100484D01*
X12250015Y-12100484D02*
X12288110Y-12100484D01*
X12288110Y-12100484D02*
X12307158Y-12090960D01*
X12307158Y-12090960D02*
X12316682Y-12081436D01*
X12316682Y-12081436D02*
X12335729Y-12052865D01*
X12335729Y-12052865D02*
X12345253Y-12014769D01*
X12345253Y-12014769D02*
X12345253Y-11938579D01*
X12345253Y-11938579D02*
X12335729Y-11919531D01*
X12335729Y-11919531D02*
X12326205Y-11910008D01*
X12326205Y-11910008D02*
X12307158Y-11900484D01*
X12307158Y-11900484D02*
X12269062Y-11900484D01*
X12269062Y-11900484D02*
X12250015Y-11910008D01*
X12250015Y-11910008D02*
X12240491Y-11919531D01*
X12240491Y-11919531D02*
X12230967Y-11938579D01*
X12230967Y-11938579D02*
X12230967Y-11986198D01*
X12230967Y-11986198D02*
X12240491Y-12005246D01*
X12240491Y-12005246D02*
X12250015Y-12014769D01*
X12250015Y-12014769D02*
X12269062Y-12024293D01*
X12269062Y-12024293D02*
X12307158Y-12024293D01*
X12307158Y-12024293D02*
X12326205Y-12014769D01*
X12326205Y-12014769D02*
X12335729Y-12005246D01*
X12335729Y-12005246D02*
X12345253Y-11986198D01*
X12440491Y-12100484D02*
X12478586Y-12100484D01*
X12478586Y-12100484D02*
X12497634Y-12090960D01*
X12497634Y-12090960D02*
X12507158Y-12081436D01*
X12507158Y-12081436D02*
X12526205Y-12052865D01*
X12526205Y-12052865D02*
X12535729Y-12014769D01*
X12535729Y-12014769D02*
X12535729Y-11938579D01*
X12535729Y-11938579D02*
X12526205Y-11919531D01*
X12526205Y-11919531D02*
X12516682Y-11910008D01*
X12516682Y-11910008D02*
X12497634Y-11900484D01*
X12497634Y-11900484D02*
X12459539Y-11900484D01*
X12459539Y-11900484D02*
X12440491Y-11910008D01*
X12440491Y-11910008D02*
X12430967Y-11919531D01*
X12430967Y-11919531D02*
X12421443Y-11938579D01*
X12421443Y-11938579D02*
X12421443Y-11986198D01*
X12421443Y-11986198D02*
X12430967Y-12005246D01*
X12430967Y-12005246D02*
X12440491Y-12014769D01*
X12440491Y-12014769D02*
X12459539Y-12024293D01*
X12459539Y-12024293D02*
X12497634Y-12024293D01*
X12497634Y-12024293D02*
X12516682Y-12014769D01*
X12516682Y-12014769D02*
X12526205Y-12005246D01*
X12526205Y-12005246D02*
X12535729Y-11986198D01*
X12659539Y-11900484D02*
X12678586Y-11900484D01*
X12678586Y-11900484D02*
X12697634Y-11910008D01*
X12697634Y-11910008D02*
X12707158Y-11919531D01*
X12707158Y-11919531D02*
X12716682Y-11938579D01*
X12716682Y-11938579D02*
X12726205Y-11976674D01*
X12726205Y-11976674D02*
X12726205Y-12024293D01*
X12726205Y-12024293D02*
X12716682Y-12062388D01*
X12716682Y-12062388D02*
X12707158Y-12081436D01*
X12707158Y-12081436D02*
X12697634Y-12090960D01*
X12697634Y-12090960D02*
X12678586Y-12100484D01*
X12678586Y-12100484D02*
X12659539Y-12100484D01*
X12659539Y-12100484D02*
X12640491Y-12090960D01*
X12640491Y-12090960D02*
X12630967Y-12081436D01*
X12630967Y-12081436D02*
X12621443Y-12062388D01*
X12621443Y-12062388D02*
X12611920Y-12024293D01*
X12611920Y-12024293D02*
X12611920Y-11976674D01*
X12611920Y-11976674D02*
X12621443Y-11938579D01*
X12621443Y-11938579D02*
X12630967Y-11919531D01*
X12630967Y-11919531D02*
X12640491Y-11910008D01*
X12640491Y-11910008D02*
X12659539Y-11900484D01*
X12811920Y-12100484D02*
X12811920Y-11967150D01*
X12811920Y-11986198D02*
X12821443Y-11976674D01*
X12821443Y-11976674D02*
X12840491Y-11967150D01*
X12840491Y-11967150D02*
X12869063Y-11967150D01*
X12869063Y-11967150D02*
X12888110Y-11976674D01*
X12888110Y-11976674D02*
X12897634Y-11995722D01*
X12897634Y-11995722D02*
X12897634Y-12100484D01*
X12897634Y-11995722D02*
X12907158Y-11976674D01*
X12907158Y-11976674D02*
X12926205Y-11967150D01*
X12926205Y-11967150D02*
X12954777Y-11967150D01*
X12954777Y-11967150D02*
X12973824Y-11976674D01*
X12973824Y-11976674D02*
X12983348Y-11995722D01*
X12983348Y-11995722D02*
X12983348Y-12100484D01*
X13078586Y-12100484D02*
X13078586Y-11967150D01*
X13078586Y-11986198D02*
X13088110Y-11976674D01*
X13088110Y-11976674D02*
X13107158Y-11967150D01*
X13107158Y-11967150D02*
X13135729Y-11967150D01*
X13135729Y-11967150D02*
X13154777Y-11976674D01*
X13154777Y-11976674D02*
X13164301Y-11995722D01*
X13164301Y-11995722D02*
X13164301Y-12100484D01*
X13164301Y-11995722D02*
X13173824Y-11976674D01*
X13173824Y-11976674D02*
X13192872Y-11967150D01*
X13192872Y-11967150D02*
X13221443Y-11967150D01*
X13221443Y-11967150D02*
X13240491Y-11976674D01*
X13240491Y-11976674D02*
X13250015Y-11995722D01*
X13250015Y-11995722D02*
X13250015Y-12100484D01*
X13640491Y-11890960D02*
X13469063Y-12148103D01*
X13897634Y-11900484D02*
X13916682Y-11900484D01*
X13916682Y-11900484D02*
X13935729Y-11910008D01*
X13935729Y-11910008D02*
X13945253Y-11919531D01*
X13945253Y-11919531D02*
X13954777Y-11938579D01*
X13954777Y-11938579D02*
X13964301Y-11976674D01*
X13964301Y-11976674D02*
X13964301Y-12024293D01*
X13964301Y-12024293D02*
X13954777Y-12062388D01*
X13954777Y-12062388D02*
X13945253Y-12081436D01*
X13945253Y-12081436D02*
X13935729Y-12090960D01*
X13935729Y-12090960D02*
X13916682Y-12100484D01*
X13916682Y-12100484D02*
X13897634Y-12100484D01*
X13897634Y-12100484D02*
X13878586Y-12090960D01*
X13878586Y-12090960D02*
X13869063Y-12081436D01*
X13869063Y-12081436D02*
X13859539Y-12062388D01*
X13859539Y-12062388D02*
X13850015Y-12024293D01*
X13850015Y-12024293D02*
X13850015Y-11976674D01*
X13850015Y-11976674D02*
X13859539Y-11938579D01*
X13859539Y-11938579D02*
X13869063Y-11919531D01*
X13869063Y-11919531D02*
X13878586Y-11910008D01*
X13878586Y-11910008D02*
X13897634Y-11900484D01*
X14050015Y-12081436D02*
X14059539Y-12090960D01*
X14059539Y-12090960D02*
X14050015Y-12100484D01*
X14050015Y-12100484D02*
X14040491Y-12090960D01*
X14040491Y-12090960D02*
X14050015Y-12081436D01*
X14050015Y-12081436D02*
X14050015Y-12100484D01*
X14183348Y-11900484D02*
X14202396Y-11900484D01*
X14202396Y-11900484D02*
X14221444Y-11910008D01*
X14221444Y-11910008D02*
X14230967Y-11919531D01*
X14230967Y-11919531D02*
X14240491Y-11938579D01*
X14240491Y-11938579D02*
X14250015Y-11976674D01*
X14250015Y-11976674D02*
X14250015Y-12024293D01*
X14250015Y-12024293D02*
X14240491Y-12062388D01*
X14240491Y-12062388D02*
X14230967Y-12081436D01*
X14230967Y-12081436D02*
X14221444Y-12090960D01*
X14221444Y-12090960D02*
X14202396Y-12100484D01*
X14202396Y-12100484D02*
X14183348Y-12100484D01*
X14183348Y-12100484D02*
X14164301Y-12090960D01*
X14164301Y-12090960D02*
X14154777Y-12081436D01*
X14154777Y-12081436D02*
X14145253Y-12062388D01*
X14145253Y-12062388D02*
X14135729Y-12024293D01*
X14135729Y-12024293D02*
X14135729Y-11976674D01*
X14135729Y-11976674D02*
X14145253Y-11938579D01*
X14145253Y-11938579D02*
X14154777Y-11919531D01*
X14154777Y-11919531D02*
X14164301Y-11910008D01*
X14164301Y-11910008D02*
X14183348Y-11900484D01*
X14316682Y-11900484D02*
X14440491Y-11900484D01*
X14440491Y-11900484D02*
X14373825Y-11976674D01*
X14373825Y-11976674D02*
X14402396Y-11976674D01*
X14402396Y-11976674D02*
X14421444Y-11986198D01*
X14421444Y-11986198D02*
X14430967Y-11995722D01*
X14430967Y-11995722D02*
X14440491Y-12014769D01*
X14440491Y-12014769D02*
X14440491Y-12062388D01*
X14440491Y-12062388D02*
X14430967Y-12081436D01*
X14430967Y-12081436D02*
X14421444Y-12090960D01*
X14421444Y-12090960D02*
X14402396Y-12100484D01*
X14402396Y-12100484D02*
X14345253Y-12100484D01*
X14345253Y-12100484D02*
X14326206Y-12090960D01*
X14326206Y-12090960D02*
X14316682Y-12081436D01*
X14535729Y-12100484D02*
X14573825Y-12100484D01*
X14573825Y-12100484D02*
X14592872Y-12090960D01*
X14592872Y-12090960D02*
X14602396Y-12081436D01*
X14602396Y-12081436D02*
X14621444Y-12052865D01*
X14621444Y-12052865D02*
X14630967Y-12014769D01*
X14630967Y-12014769D02*
X14630967Y-11938579D01*
X14630967Y-11938579D02*
X14621444Y-11919531D01*
X14621444Y-11919531D02*
X14611920Y-11910008D01*
X14611920Y-11910008D02*
X14592872Y-11900484D01*
X14592872Y-11900484D02*
X14554777Y-11900484D01*
X14554777Y-11900484D02*
X14535729Y-11910008D01*
X14535729Y-11910008D02*
X14526206Y-11919531D01*
X14526206Y-11919531D02*
X14516682Y-11938579D01*
X14516682Y-11938579D02*
X14516682Y-11986198D01*
X14516682Y-11986198D02*
X14526206Y-12005246D01*
X14526206Y-12005246D02*
X14535729Y-12014769D01*
X14535729Y-12014769D02*
X14554777Y-12024293D01*
X14554777Y-12024293D02*
X14592872Y-12024293D01*
X14592872Y-12024293D02*
X14611920Y-12014769D01*
X14611920Y-12014769D02*
X14621444Y-12005246D01*
X14621444Y-12005246D02*
X14630967Y-11986198D01*
X14754777Y-11900484D02*
X14773825Y-11900484D01*
X14773825Y-11900484D02*
X14792872Y-11910008D01*
X14792872Y-11910008D02*
X14802396Y-11919531D01*
X14802396Y-11919531D02*
X14811920Y-11938579D01*
X14811920Y-11938579D02*
X14821444Y-11976674D01*
X14821444Y-11976674D02*
X14821444Y-12024293D01*
X14821444Y-12024293D02*
X14811920Y-12062388D01*
X14811920Y-12062388D02*
X14802396Y-12081436D01*
X14802396Y-12081436D02*
X14792872Y-12090960D01*
X14792872Y-12090960D02*
X14773825Y-12100484D01*
X14773825Y-12100484D02*
X14754777Y-12100484D01*
X14754777Y-12100484D02*
X14735729Y-12090960D01*
X14735729Y-12090960D02*
X14726206Y-12081436D01*
X14726206Y-12081436D02*
X14716682Y-12062388D01*
X14716682Y-12062388D02*
X14707158Y-12024293D01*
X14707158Y-12024293D02*
X14707158Y-11976674D01*
X14707158Y-11976674D02*
X14716682Y-11938579D01*
X14716682Y-11938579D02*
X14726206Y-11919531D01*
X14726206Y-11919531D02*
X14735729Y-11910008D01*
X14735729Y-11910008D02*
X14754777Y-11900484D01*
X14897634Y-11900484D02*
X14897634Y-11938579D01*
X14973825Y-11900484D02*
X14973825Y-11938579D01*
X15269063Y-12176674D02*
X15259539Y-12167150D01*
X15259539Y-12167150D02*
X15240491Y-12138579D01*
X15240491Y-12138579D02*
X15230968Y-12119531D01*
X15230968Y-12119531D02*
X15221444Y-12090960D01*
X15221444Y-12090960D02*
X15211920Y-12043341D01*
X15211920Y-12043341D02*
X15211920Y-12005246D01*
X15211920Y-12005246D02*
X15221444Y-11957627D01*
X15221444Y-11957627D02*
X15230968Y-11929055D01*
X15230968Y-11929055D02*
X15240491Y-11910008D01*
X15240491Y-11910008D02*
X15259539Y-11881436D01*
X15259539Y-11881436D02*
X15269063Y-11871912D01*
X15335729Y-11919531D02*
X15345253Y-11910008D01*
X15345253Y-11910008D02*
X15364301Y-11900484D01*
X15364301Y-11900484D02*
X15411920Y-11900484D01*
X15411920Y-11900484D02*
X15430968Y-11910008D01*
X15430968Y-11910008D02*
X15440491Y-11919531D01*
X15440491Y-11919531D02*
X15450015Y-11938579D01*
X15450015Y-11938579D02*
X15450015Y-11957627D01*
X15450015Y-11957627D02*
X15440491Y-11986198D01*
X15440491Y-11986198D02*
X15326206Y-12100484D01*
X15326206Y-12100484D02*
X15450015Y-12100484D01*
X15688110Y-12100484D02*
X15688110Y-11900484D01*
X15773825Y-12100484D02*
X15773825Y-11995722D01*
X15773825Y-11995722D02*
X15764301Y-11976674D01*
X15764301Y-11976674D02*
X15745253Y-11967150D01*
X15745253Y-11967150D02*
X15716682Y-11967150D01*
X15716682Y-11967150D02*
X15697634Y-11976674D01*
X15697634Y-11976674D02*
X15688110Y-11986198D01*
X15897634Y-12100484D02*
X15878587Y-12090960D01*
X15878587Y-12090960D02*
X15869063Y-12081436D01*
X15869063Y-12081436D02*
X15859539Y-12062388D01*
X15859539Y-12062388D02*
X15859539Y-12005246D01*
X15859539Y-12005246D02*
X15869063Y-11986198D01*
X15869063Y-11986198D02*
X15878587Y-11976674D01*
X15878587Y-11976674D02*
X15897634Y-11967150D01*
X15897634Y-11967150D02*
X15926206Y-11967150D01*
X15926206Y-11967150D02*
X15945253Y-11976674D01*
X15945253Y-11976674D02*
X15954777Y-11986198D01*
X15954777Y-11986198D02*
X15964301Y-12005246D01*
X15964301Y-12005246D02*
X15964301Y-12062388D01*
X15964301Y-12062388D02*
X15954777Y-12081436D01*
X15954777Y-12081436D02*
X15945253Y-12090960D01*
X15945253Y-12090960D02*
X15926206Y-12100484D01*
X15926206Y-12100484D02*
X15897634Y-12100484D01*
X16078587Y-12100484D02*
X16059539Y-12090960D01*
X16059539Y-12090960D02*
X16050015Y-12071912D01*
X16050015Y-12071912D02*
X16050015Y-11900484D01*
X16230968Y-12090960D02*
X16211920Y-12100484D01*
X16211920Y-12100484D02*
X16173825Y-12100484D01*
X16173825Y-12100484D02*
X16154777Y-12090960D01*
X16154777Y-12090960D02*
X16145253Y-12071912D01*
X16145253Y-12071912D02*
X16145253Y-11995722D01*
X16145253Y-11995722D02*
X16154777Y-11976674D01*
X16154777Y-11976674D02*
X16173825Y-11967150D01*
X16173825Y-11967150D02*
X16211920Y-11967150D01*
X16211920Y-11967150D02*
X16230968Y-11976674D01*
X16230968Y-11976674D02*
X16240491Y-11995722D01*
X16240491Y-11995722D02*
X16240491Y-12014769D01*
X16240491Y-12014769D02*
X16145253Y-12033817D01*
X16316682Y-12090960D02*
X16335730Y-12100484D01*
X16335730Y-12100484D02*
X16373825Y-12100484D01*
X16373825Y-12100484D02*
X16392872Y-12090960D01*
X16392872Y-12090960D02*
X16402396Y-12071912D01*
X16402396Y-12071912D02*
X16402396Y-12062388D01*
X16402396Y-12062388D02*
X16392872Y-12043341D01*
X16392872Y-12043341D02*
X16373825Y-12033817D01*
X16373825Y-12033817D02*
X16345253Y-12033817D01*
X16345253Y-12033817D02*
X16326206Y-12024293D01*
X16326206Y-12024293D02*
X16316682Y-12005246D01*
X16316682Y-12005246D02*
X16316682Y-11995722D01*
X16316682Y-11995722D02*
X16326206Y-11976674D01*
X16326206Y-11976674D02*
X16345253Y-11967150D01*
X16345253Y-11967150D02*
X16373825Y-11967150D01*
X16373825Y-11967150D02*
X16392872Y-11976674D01*
X16469063Y-12176674D02*
X16478587Y-12167150D01*
X16478587Y-12167150D02*
X16497634Y-12138579D01*
X16497634Y-12138579D02*
X16507158Y-12119531D01*
X16507158Y-12119531D02*
X16516682Y-12090960D01*
X16516682Y-12090960D02*
X16526206Y-12043341D01*
X16526206Y-12043341D02*
X16526206Y-12005246D01*
X16526206Y-12005246D02*
X16516682Y-11957627D01*
X16516682Y-11957627D02*
X16507158Y-11929055D01*
X16507158Y-11929055D02*
X16497634Y-11910008D01*
X16497634Y-11910008D02*
X16478587Y-11881436D01*
X16478587Y-11881436D02*
X16469063Y-11871912D01*
D10*
X11644000Y-12223000D02*
X11644000Y-12323000D01*
X11594000Y-12273000D02*
X11694000Y-12273000D01*
D12*
X12059539Y-12364484D02*
X11945253Y-12364484D01*
X12002396Y-12364484D02*
X12002396Y-12164484D01*
X12002396Y-12164484D02*
X11983348Y-12193055D01*
X11983348Y-12193055D02*
X11964301Y-12212103D01*
X11964301Y-12212103D02*
X11945253Y-12221627D01*
X12145253Y-12345436D02*
X12154777Y-12354960D01*
X12154777Y-12354960D02*
X12145253Y-12364484D01*
X12145253Y-12364484D02*
X12135729Y-12354960D01*
X12135729Y-12354960D02*
X12145253Y-12345436D01*
X12145253Y-12345436D02*
X12145253Y-12364484D01*
X12278586Y-12164484D02*
X12297634Y-12164484D01*
X12297634Y-12164484D02*
X12316682Y-12174008D01*
X12316682Y-12174008D02*
X12326205Y-12183531D01*
X12326205Y-12183531D02*
X12335729Y-12202579D01*
X12335729Y-12202579D02*
X12345253Y-12240674D01*
X12345253Y-12240674D02*
X12345253Y-12288293D01*
X12345253Y-12288293D02*
X12335729Y-12326388D01*
X12335729Y-12326388D02*
X12326205Y-12345436D01*
X12326205Y-12345436D02*
X12316682Y-12354960D01*
X12316682Y-12354960D02*
X12297634Y-12364484D01*
X12297634Y-12364484D02*
X12278586Y-12364484D01*
X12278586Y-12364484D02*
X12259539Y-12354960D01*
X12259539Y-12354960D02*
X12250015Y-12345436D01*
X12250015Y-12345436D02*
X12240491Y-12326388D01*
X12240491Y-12326388D02*
X12230967Y-12288293D01*
X12230967Y-12288293D02*
X12230967Y-12240674D01*
X12230967Y-12240674D02*
X12240491Y-12202579D01*
X12240491Y-12202579D02*
X12250015Y-12183531D01*
X12250015Y-12183531D02*
X12259539Y-12174008D01*
X12259539Y-12174008D02*
X12278586Y-12164484D01*
X12469062Y-12164484D02*
X12488110Y-12164484D01*
X12488110Y-12164484D02*
X12507158Y-12174008D01*
X12507158Y-12174008D02*
X12516682Y-12183531D01*
X12516682Y-12183531D02*
X12526205Y-12202579D01*
X12526205Y-12202579D02*
X12535729Y-12240674D01*
X12535729Y-12240674D02*
X12535729Y-12288293D01*
X12535729Y-12288293D02*
X12526205Y-12326388D01*
X12526205Y-12326388D02*
X12516682Y-12345436D01*
X12516682Y-12345436D02*
X12507158Y-12354960D01*
X12507158Y-12354960D02*
X12488110Y-12364484D01*
X12488110Y-12364484D02*
X12469062Y-12364484D01*
X12469062Y-12364484D02*
X12450015Y-12354960D01*
X12450015Y-12354960D02*
X12440491Y-12345436D01*
X12440491Y-12345436D02*
X12430967Y-12326388D01*
X12430967Y-12326388D02*
X12421443Y-12288293D01*
X12421443Y-12288293D02*
X12421443Y-12240674D01*
X12421443Y-12240674D02*
X12430967Y-12202579D01*
X12430967Y-12202579D02*
X12440491Y-12183531D01*
X12440491Y-12183531D02*
X12450015Y-12174008D01*
X12450015Y-12174008D02*
X12469062Y-12164484D01*
X12659539Y-12164484D02*
X12678586Y-12164484D01*
X12678586Y-12164484D02*
X12697634Y-12174008D01*
X12697634Y-12174008D02*
X12707158Y-12183531D01*
X12707158Y-12183531D02*
X12716682Y-12202579D01*
X12716682Y-12202579D02*
X12726205Y-12240674D01*
X12726205Y-12240674D02*
X12726205Y-12288293D01*
X12726205Y-12288293D02*
X12716682Y-12326388D01*
X12716682Y-12326388D02*
X12707158Y-12345436D01*
X12707158Y-12345436D02*
X12697634Y-12354960D01*
X12697634Y-12354960D02*
X12678586Y-12364484D01*
X12678586Y-12364484D02*
X12659539Y-12364484D01*
X12659539Y-12364484D02*
X12640491Y-12354960D01*
X12640491Y-12354960D02*
X12630967Y-12345436D01*
X12630967Y-12345436D02*
X12621443Y-12326388D01*
X12621443Y-12326388D02*
X12611920Y-12288293D01*
X12611920Y-12288293D02*
X12611920Y-12240674D01*
X12611920Y-12240674D02*
X12621443Y-12202579D01*
X12621443Y-12202579D02*
X12630967Y-12183531D01*
X12630967Y-12183531D02*
X12640491Y-12174008D01*
X12640491Y-12174008D02*
X12659539Y-12164484D01*
X12811920Y-12364484D02*
X12811920Y-12231150D01*
X12811920Y-12250198D02*
X12821443Y-12240674D01*
X12821443Y-12240674D02*
X12840491Y-12231150D01*
X12840491Y-12231150D02*
X12869063Y-12231150D01*
X12869063Y-12231150D02*
X12888110Y-12240674D01*
X12888110Y-12240674D02*
X12897634Y-12259722D01*
X12897634Y-12259722D02*
X12897634Y-12364484D01*
X12897634Y-12259722D02*
X12907158Y-12240674D01*
X12907158Y-12240674D02*
X12926205Y-12231150D01*
X12926205Y-12231150D02*
X12954777Y-12231150D01*
X12954777Y-12231150D02*
X12973824Y-12240674D01*
X12973824Y-12240674D02*
X12983348Y-12259722D01*
X12983348Y-12259722D02*
X12983348Y-12364484D01*
X13078586Y-12364484D02*
X13078586Y-12231150D01*
X13078586Y-12250198D02*
X13088110Y-12240674D01*
X13088110Y-12240674D02*
X13107158Y-12231150D01*
X13107158Y-12231150D02*
X13135729Y-12231150D01*
X13135729Y-12231150D02*
X13154777Y-12240674D01*
X13154777Y-12240674D02*
X13164301Y-12259722D01*
X13164301Y-12259722D02*
X13164301Y-12364484D01*
X13164301Y-12259722D02*
X13173824Y-12240674D01*
X13173824Y-12240674D02*
X13192872Y-12231150D01*
X13192872Y-12231150D02*
X13221443Y-12231150D01*
X13221443Y-12231150D02*
X13240491Y-12240674D01*
X13240491Y-12240674D02*
X13250015Y-12259722D01*
X13250015Y-12259722D02*
X13250015Y-12364484D01*
X13640491Y-12154960D02*
X13469063Y-12412103D01*
X13897634Y-12164484D02*
X13916682Y-12164484D01*
X13916682Y-12164484D02*
X13935729Y-12174008D01*
X13935729Y-12174008D02*
X13945253Y-12183531D01*
X13945253Y-12183531D02*
X13954777Y-12202579D01*
X13954777Y-12202579D02*
X13964301Y-12240674D01*
X13964301Y-12240674D02*
X13964301Y-12288293D01*
X13964301Y-12288293D02*
X13954777Y-12326388D01*
X13954777Y-12326388D02*
X13945253Y-12345436D01*
X13945253Y-12345436D02*
X13935729Y-12354960D01*
X13935729Y-12354960D02*
X13916682Y-12364484D01*
X13916682Y-12364484D02*
X13897634Y-12364484D01*
X13897634Y-12364484D02*
X13878586Y-12354960D01*
X13878586Y-12354960D02*
X13869063Y-12345436D01*
X13869063Y-12345436D02*
X13859539Y-12326388D01*
X13859539Y-12326388D02*
X13850015Y-12288293D01*
X13850015Y-12288293D02*
X13850015Y-12240674D01*
X13850015Y-12240674D02*
X13859539Y-12202579D01*
X13859539Y-12202579D02*
X13869063Y-12183531D01*
X13869063Y-12183531D02*
X13878586Y-12174008D01*
X13878586Y-12174008D02*
X13897634Y-12164484D01*
X14050015Y-12345436D02*
X14059539Y-12354960D01*
X14059539Y-12354960D02*
X14050015Y-12364484D01*
X14050015Y-12364484D02*
X14040491Y-12354960D01*
X14040491Y-12354960D02*
X14050015Y-12345436D01*
X14050015Y-12345436D02*
X14050015Y-12364484D01*
X14183348Y-12164484D02*
X14202396Y-12164484D01*
X14202396Y-12164484D02*
X14221444Y-12174008D01*
X14221444Y-12174008D02*
X14230967Y-12183531D01*
X14230967Y-12183531D02*
X14240491Y-12202579D01*
X14240491Y-12202579D02*
X14250015Y-12240674D01*
X14250015Y-12240674D02*
X14250015Y-12288293D01*
X14250015Y-12288293D02*
X14240491Y-12326388D01*
X14240491Y-12326388D02*
X14230967Y-12345436D01*
X14230967Y-12345436D02*
X14221444Y-12354960D01*
X14221444Y-12354960D02*
X14202396Y-12364484D01*
X14202396Y-12364484D02*
X14183348Y-12364484D01*
X14183348Y-12364484D02*
X14164301Y-12354960D01*
X14164301Y-12354960D02*
X14154777Y-12345436D01*
X14154777Y-12345436D02*
X14145253Y-12326388D01*
X14145253Y-12326388D02*
X14135729Y-12288293D01*
X14135729Y-12288293D02*
X14135729Y-12240674D01*
X14135729Y-12240674D02*
X14145253Y-12202579D01*
X14145253Y-12202579D02*
X14154777Y-12183531D01*
X14154777Y-12183531D02*
X14164301Y-12174008D01*
X14164301Y-12174008D02*
X14183348Y-12164484D01*
X14316682Y-12164484D02*
X14440491Y-12164484D01*
X14440491Y-12164484D02*
X14373825Y-12240674D01*
X14373825Y-12240674D02*
X14402396Y-12240674D01*
X14402396Y-12240674D02*
X14421444Y-12250198D01*
X14421444Y-12250198D02*
X14430967Y-12259722D01*
X14430967Y-12259722D02*
X14440491Y-12278769D01*
X14440491Y-12278769D02*
X14440491Y-12326388D01*
X14440491Y-12326388D02*
X14430967Y-12345436D01*
X14430967Y-12345436D02*
X14421444Y-12354960D01*
X14421444Y-12354960D02*
X14402396Y-12364484D01*
X14402396Y-12364484D02*
X14345253Y-12364484D01*
X14345253Y-12364484D02*
X14326206Y-12354960D01*
X14326206Y-12354960D02*
X14316682Y-12345436D01*
X14535729Y-12364484D02*
X14573825Y-12364484D01*
X14573825Y-12364484D02*
X14592872Y-12354960D01*
X14592872Y-12354960D02*
X14602396Y-12345436D01*
X14602396Y-12345436D02*
X14621444Y-12316865D01*
X14621444Y-12316865D02*
X14630967Y-12278769D01*
X14630967Y-12278769D02*
X14630967Y-12202579D01*
X14630967Y-12202579D02*
X14621444Y-12183531D01*
X14621444Y-12183531D02*
X14611920Y-12174008D01*
X14611920Y-12174008D02*
X14592872Y-12164484D01*
X14592872Y-12164484D02*
X14554777Y-12164484D01*
X14554777Y-12164484D02*
X14535729Y-12174008D01*
X14535729Y-12174008D02*
X14526206Y-12183531D01*
X14526206Y-12183531D02*
X14516682Y-12202579D01*
X14516682Y-12202579D02*
X14516682Y-12250198D01*
X14516682Y-12250198D02*
X14526206Y-12269246D01*
X14526206Y-12269246D02*
X14535729Y-12278769D01*
X14535729Y-12278769D02*
X14554777Y-12288293D01*
X14554777Y-12288293D02*
X14592872Y-12288293D01*
X14592872Y-12288293D02*
X14611920Y-12278769D01*
X14611920Y-12278769D02*
X14621444Y-12269246D01*
X14621444Y-12269246D02*
X14630967Y-12250198D01*
X14802396Y-12231150D02*
X14802396Y-12364484D01*
X14754777Y-12154960D02*
X14707158Y-12297817D01*
X14707158Y-12297817D02*
X14830967Y-12297817D01*
X14897634Y-12164484D02*
X14897634Y-12202579D01*
X14973825Y-12164484D02*
X14973825Y-12202579D01*
X15269063Y-12440674D02*
X15259539Y-12431150D01*
X15259539Y-12431150D02*
X15240491Y-12402579D01*
X15240491Y-12402579D02*
X15230968Y-12383531D01*
X15230968Y-12383531D02*
X15221444Y-12354960D01*
X15221444Y-12354960D02*
X15211920Y-12307341D01*
X15211920Y-12307341D02*
X15211920Y-12269246D01*
X15211920Y-12269246D02*
X15221444Y-12221627D01*
X15221444Y-12221627D02*
X15230968Y-12193055D01*
X15230968Y-12193055D02*
X15240491Y-12174008D01*
X15240491Y-12174008D02*
X15259539Y-12145436D01*
X15259539Y-12145436D02*
X15269063Y-12135912D01*
X15450015Y-12364484D02*
X15335729Y-12364484D01*
X15392872Y-12364484D02*
X15392872Y-12164484D01*
X15392872Y-12164484D02*
X15373825Y-12193055D01*
X15373825Y-12193055D02*
X15354777Y-12212103D01*
X15354777Y-12212103D02*
X15335729Y-12221627D01*
X15630968Y-12164484D02*
X15535729Y-12164484D01*
X15535729Y-12164484D02*
X15526206Y-12259722D01*
X15526206Y-12259722D02*
X15535729Y-12250198D01*
X15535729Y-12250198D02*
X15554777Y-12240674D01*
X15554777Y-12240674D02*
X15602396Y-12240674D01*
X15602396Y-12240674D02*
X15621444Y-12250198D01*
X15621444Y-12250198D02*
X15630968Y-12259722D01*
X15630968Y-12259722D02*
X15640491Y-12278769D01*
X15640491Y-12278769D02*
X15640491Y-12326388D01*
X15640491Y-12326388D02*
X15630968Y-12345436D01*
X15630968Y-12345436D02*
X15621444Y-12354960D01*
X15621444Y-12354960D02*
X15602396Y-12364484D01*
X15602396Y-12364484D02*
X15554777Y-12364484D01*
X15554777Y-12364484D02*
X15535729Y-12354960D01*
X15535729Y-12354960D02*
X15526206Y-12345436D01*
X15878587Y-12364484D02*
X15878587Y-12164484D01*
X15964301Y-12364484D02*
X15964301Y-12259722D01*
X15964301Y-12259722D02*
X15954777Y-12240674D01*
X15954777Y-12240674D02*
X15935730Y-12231150D01*
X15935730Y-12231150D02*
X15907158Y-12231150D01*
X15907158Y-12231150D02*
X15888110Y-12240674D01*
X15888110Y-12240674D02*
X15878587Y-12250198D01*
X16088110Y-12364484D02*
X16069063Y-12354960D01*
X16069063Y-12354960D02*
X16059539Y-12345436D01*
X16059539Y-12345436D02*
X16050015Y-12326388D01*
X16050015Y-12326388D02*
X16050015Y-12269246D01*
X16050015Y-12269246D02*
X16059539Y-12250198D01*
X16059539Y-12250198D02*
X16069063Y-12240674D01*
X16069063Y-12240674D02*
X16088110Y-12231150D01*
X16088110Y-12231150D02*
X16116682Y-12231150D01*
X16116682Y-12231150D02*
X16135730Y-12240674D01*
X16135730Y-12240674D02*
X16145253Y-12250198D01*
X16145253Y-12250198D02*
X16154777Y-12269246D01*
X16154777Y-12269246D02*
X16154777Y-12326388D01*
X16154777Y-12326388D02*
X16145253Y-12345436D01*
X16145253Y-12345436D02*
X16135730Y-12354960D01*
X16135730Y-12354960D02*
X16116682Y-12364484D01*
X16116682Y-12364484D02*
X16088110Y-12364484D01*
X16269063Y-12364484D02*
X16250015Y-12354960D01*
X16250015Y-12354960D02*
X16240491Y-12335912D01*
X16240491Y-12335912D02*
X16240491Y-12164484D01*
X16421444Y-12354960D02*
X16402396Y-12364484D01*
X16402396Y-12364484D02*
X16364301Y-12364484D01*
X16364301Y-12364484D02*
X16345253Y-12354960D01*
X16345253Y-12354960D02*
X16335730Y-12335912D01*
X16335730Y-12335912D02*
X16335730Y-12259722D01*
X16335730Y-12259722D02*
X16345253Y-12240674D01*
X16345253Y-12240674D02*
X16364301Y-12231150D01*
X16364301Y-12231150D02*
X16402396Y-12231150D01*
X16402396Y-12231150D02*
X16421444Y-12240674D01*
X16421444Y-12240674D02*
X16430968Y-12259722D01*
X16430968Y-12259722D02*
X16430968Y-12278769D01*
X16430968Y-12278769D02*
X16335730Y-12297817D01*
X16507158Y-12354960D02*
X16526206Y-12364484D01*
X16526206Y-12364484D02*
X16564301Y-12364484D01*
X16564301Y-12364484D02*
X16583349Y-12354960D01*
X16583349Y-12354960D02*
X16592872Y-12335912D01*
X16592872Y-12335912D02*
X16592872Y-12326388D01*
X16592872Y-12326388D02*
X16583349Y-12307341D01*
X16583349Y-12307341D02*
X16564301Y-12297817D01*
X16564301Y-12297817D02*
X16535730Y-12297817D01*
X16535730Y-12297817D02*
X16516682Y-12288293D01*
X16516682Y-12288293D02*
X16507158Y-12269246D01*
X16507158Y-12269246D02*
X16507158Y-12259722D01*
X16507158Y-12259722D02*
X16516682Y-12240674D01*
X16516682Y-12240674D02*
X16535730Y-12231150D01*
X16535730Y-12231150D02*
X16564301Y-12231150D01*
X16564301Y-12231150D02*
X16583349Y-12240674D01*
X16659539Y-12440674D02*
X16669063Y-12431150D01*
X16669063Y-12431150D02*
X16688111Y-12402579D01*
X16688111Y-12402579D02*
X16697634Y-12383531D01*
X16697634Y-12383531D02*
X16707158Y-12354960D01*
X16707158Y-12354960D02*
X16716682Y-12307341D01*
X16716682Y-12307341D02*
X16716682Y-12269246D01*
X16716682Y-12269246D02*
X16707158Y-12221627D01*
X16707158Y-12221627D02*
X16697634Y-12193055D01*
X16697634Y-12193055D02*
X16688111Y-12174008D01*
X16688111Y-12174008D02*
X16669063Y-12145436D01*
X16669063Y-12145436D02*
X16659539Y-12135912D01*
D11*
X11676427Y-12579427D02*
X11676427Y-12494573D01*
X11591573Y-12494573D01*
X11591573Y-12579427D01*
X11676427Y-12579427D01*
D12*
X12059539Y-12628484D02*
X11945253Y-12628484D01*
X12002396Y-12628484D02*
X12002396Y-12428484D01*
X12002396Y-12428484D02*
X11983348Y-12457055D01*
X11983348Y-12457055D02*
X11964301Y-12476103D01*
X11964301Y-12476103D02*
X11945253Y-12485627D01*
X12145253Y-12609436D02*
X12154777Y-12618960D01*
X12154777Y-12618960D02*
X12145253Y-12628484D01*
X12145253Y-12628484D02*
X12135729Y-12618960D01*
X12135729Y-12618960D02*
X12145253Y-12609436D01*
X12145253Y-12609436D02*
X12145253Y-12628484D01*
X12230967Y-12447531D02*
X12240491Y-12438008D01*
X12240491Y-12438008D02*
X12259539Y-12428484D01*
X12259539Y-12428484D02*
X12307158Y-12428484D01*
X12307158Y-12428484D02*
X12326205Y-12438008D01*
X12326205Y-12438008D02*
X12335729Y-12447531D01*
X12335729Y-12447531D02*
X12345253Y-12466579D01*
X12345253Y-12466579D02*
X12345253Y-12485627D01*
X12345253Y-12485627D02*
X12335729Y-12514198D01*
X12335729Y-12514198D02*
X12221443Y-12628484D01*
X12221443Y-12628484D02*
X12345253Y-12628484D01*
X12469062Y-12428484D02*
X12488110Y-12428484D01*
X12488110Y-12428484D02*
X12507158Y-12438008D01*
X12507158Y-12438008D02*
X12516682Y-12447531D01*
X12516682Y-12447531D02*
X12526205Y-12466579D01*
X12526205Y-12466579D02*
X12535729Y-12504674D01*
X12535729Y-12504674D02*
X12535729Y-12552293D01*
X12535729Y-12552293D02*
X12526205Y-12590388D01*
X12526205Y-12590388D02*
X12516682Y-12609436D01*
X12516682Y-12609436D02*
X12507158Y-12618960D01*
X12507158Y-12618960D02*
X12488110Y-12628484D01*
X12488110Y-12628484D02*
X12469062Y-12628484D01*
X12469062Y-12628484D02*
X12450015Y-12618960D01*
X12450015Y-12618960D02*
X12440491Y-12609436D01*
X12440491Y-12609436D02*
X12430967Y-12590388D01*
X12430967Y-12590388D02*
X12421443Y-12552293D01*
X12421443Y-12552293D02*
X12421443Y-12504674D01*
X12421443Y-12504674D02*
X12430967Y-12466579D01*
X12430967Y-12466579D02*
X12440491Y-12447531D01*
X12440491Y-12447531D02*
X12450015Y-12438008D01*
X12450015Y-12438008D02*
X12469062Y-12428484D01*
X12659539Y-12428484D02*
X12678586Y-12428484D01*
X12678586Y-12428484D02*
X12697634Y-12438008D01*
X12697634Y-12438008D02*
X12707158Y-12447531D01*
X12707158Y-12447531D02*
X12716682Y-12466579D01*
X12716682Y-12466579D02*
X12726205Y-12504674D01*
X12726205Y-12504674D02*
X12726205Y-12552293D01*
X12726205Y-12552293D02*
X12716682Y-12590388D01*
X12716682Y-12590388D02*
X12707158Y-12609436D01*
X12707158Y-12609436D02*
X12697634Y-12618960D01*
X12697634Y-12618960D02*
X12678586Y-12628484D01*
X12678586Y-12628484D02*
X12659539Y-12628484D01*
X12659539Y-12628484D02*
X12640491Y-12618960D01*
X12640491Y-12618960D02*
X12630967Y-12609436D01*
X12630967Y-12609436D02*
X12621443Y-12590388D01*
X12621443Y-12590388D02*
X12611920Y-12552293D01*
X12611920Y-12552293D02*
X12611920Y-12504674D01*
X12611920Y-12504674D02*
X12621443Y-12466579D01*
X12621443Y-12466579D02*
X12630967Y-12447531D01*
X12630967Y-12447531D02*
X12640491Y-12438008D01*
X12640491Y-12438008D02*
X12659539Y-12428484D01*
X12811920Y-12628484D02*
X12811920Y-12495150D01*
X12811920Y-12514198D02*
X12821443Y-12504674D01*
X12821443Y-12504674D02*
X12840491Y-12495150D01*
X12840491Y-12495150D02*
X12869063Y-12495150D01*
X12869063Y-12495150D02*
X12888110Y-12504674D01*
X12888110Y-12504674D02*
X12897634Y-12523722D01*
X12897634Y-12523722D02*
X12897634Y-12628484D01*
X12897634Y-12523722D02*
X12907158Y-12504674D01*
X12907158Y-12504674D02*
X12926205Y-12495150D01*
X12926205Y-12495150D02*
X12954777Y-12495150D01*
X12954777Y-12495150D02*
X12973824Y-12504674D01*
X12973824Y-12504674D02*
X12983348Y-12523722D01*
X12983348Y-12523722D02*
X12983348Y-12628484D01*
X13078586Y-12628484D02*
X13078586Y-12495150D01*
X13078586Y-12514198D02*
X13088110Y-12504674D01*
X13088110Y-12504674D02*
X13107158Y-12495150D01*
X13107158Y-12495150D02*
X13135729Y-12495150D01*
X13135729Y-12495150D02*
X13154777Y-12504674D01*
X13154777Y-12504674D02*
X13164301Y-12523722D01*
X13164301Y-12523722D02*
X13164301Y-12628484D01*
X13164301Y-12523722D02*
X13173824Y-12504674D01*
X13173824Y-12504674D02*
X13192872Y-12495150D01*
X13192872Y-12495150D02*
X13221443Y-12495150D01*
X13221443Y-12495150D02*
X13240491Y-12504674D01*
X13240491Y-12504674D02*
X13250015Y-12523722D01*
X13250015Y-12523722D02*
X13250015Y-12628484D01*
X13640491Y-12418960D02*
X13469063Y-12676103D01*
X13897634Y-12428484D02*
X13916682Y-12428484D01*
X13916682Y-12428484D02*
X13935729Y-12438008D01*
X13935729Y-12438008D02*
X13945253Y-12447531D01*
X13945253Y-12447531D02*
X13954777Y-12466579D01*
X13954777Y-12466579D02*
X13964301Y-12504674D01*
X13964301Y-12504674D02*
X13964301Y-12552293D01*
X13964301Y-12552293D02*
X13954777Y-12590388D01*
X13954777Y-12590388D02*
X13945253Y-12609436D01*
X13945253Y-12609436D02*
X13935729Y-12618960D01*
X13935729Y-12618960D02*
X13916682Y-12628484D01*
X13916682Y-12628484D02*
X13897634Y-12628484D01*
X13897634Y-12628484D02*
X13878586Y-12618960D01*
X13878586Y-12618960D02*
X13869063Y-12609436D01*
X13869063Y-12609436D02*
X13859539Y-12590388D01*
X13859539Y-12590388D02*
X13850015Y-12552293D01*
X13850015Y-12552293D02*
X13850015Y-12504674D01*
X13850015Y-12504674D02*
X13859539Y-12466579D01*
X13859539Y-12466579D02*
X13869063Y-12447531D01*
X13869063Y-12447531D02*
X13878586Y-12438008D01*
X13878586Y-12438008D02*
X13897634Y-12428484D01*
X14050015Y-12609436D02*
X14059539Y-12618960D01*
X14059539Y-12618960D02*
X14050015Y-12628484D01*
X14050015Y-12628484D02*
X14040491Y-12618960D01*
X14040491Y-12618960D02*
X14050015Y-12609436D01*
X14050015Y-12609436D02*
X14050015Y-12628484D01*
X14183348Y-12428484D02*
X14202396Y-12428484D01*
X14202396Y-12428484D02*
X14221444Y-12438008D01*
X14221444Y-12438008D02*
X14230967Y-12447531D01*
X14230967Y-12447531D02*
X14240491Y-12466579D01*
X14240491Y-12466579D02*
X14250015Y-12504674D01*
X14250015Y-12504674D02*
X14250015Y-12552293D01*
X14250015Y-12552293D02*
X14240491Y-12590388D01*
X14240491Y-12590388D02*
X14230967Y-12609436D01*
X14230967Y-12609436D02*
X14221444Y-12618960D01*
X14221444Y-12618960D02*
X14202396Y-12628484D01*
X14202396Y-12628484D02*
X14183348Y-12628484D01*
X14183348Y-12628484D02*
X14164301Y-12618960D01*
X14164301Y-12618960D02*
X14154777Y-12609436D01*
X14154777Y-12609436D02*
X14145253Y-12590388D01*
X14145253Y-12590388D02*
X14135729Y-12552293D01*
X14135729Y-12552293D02*
X14135729Y-12504674D01*
X14135729Y-12504674D02*
X14145253Y-12466579D01*
X14145253Y-12466579D02*
X14154777Y-12447531D01*
X14154777Y-12447531D02*
X14164301Y-12438008D01*
X14164301Y-12438008D02*
X14183348Y-12428484D01*
X14421444Y-12495150D02*
X14421444Y-12628484D01*
X14373825Y-12418960D02*
X14326206Y-12561817D01*
X14326206Y-12561817D02*
X14450015Y-12561817D01*
X14507158Y-12428484D02*
X14640491Y-12428484D01*
X14640491Y-12428484D02*
X14554777Y-12628484D01*
X14707158Y-12447531D02*
X14716682Y-12438008D01*
X14716682Y-12438008D02*
X14735729Y-12428484D01*
X14735729Y-12428484D02*
X14783348Y-12428484D01*
X14783348Y-12428484D02*
X14802396Y-12438008D01*
X14802396Y-12438008D02*
X14811920Y-12447531D01*
X14811920Y-12447531D02*
X14821444Y-12466579D01*
X14821444Y-12466579D02*
X14821444Y-12485627D01*
X14821444Y-12485627D02*
X14811920Y-12514198D01*
X14811920Y-12514198D02*
X14697634Y-12628484D01*
X14697634Y-12628484D02*
X14821444Y-12628484D01*
X14897634Y-12428484D02*
X14897634Y-12466579D01*
X14973825Y-12428484D02*
X14973825Y-12466579D01*
X15269063Y-12704674D02*
X15259539Y-12695150D01*
X15259539Y-12695150D02*
X15240491Y-12666579D01*
X15240491Y-12666579D02*
X15230968Y-12647531D01*
X15230968Y-12647531D02*
X15221444Y-12618960D01*
X15221444Y-12618960D02*
X15211920Y-12571341D01*
X15211920Y-12571341D02*
X15211920Y-12533246D01*
X15211920Y-12533246D02*
X15221444Y-12485627D01*
X15221444Y-12485627D02*
X15230968Y-12457055D01*
X15230968Y-12457055D02*
X15240491Y-12438008D01*
X15240491Y-12438008D02*
X15259539Y-12409436D01*
X15259539Y-12409436D02*
X15269063Y-12399912D01*
X15383348Y-12428484D02*
X15402396Y-12428484D01*
X15402396Y-12428484D02*
X15421444Y-12438008D01*
X15421444Y-12438008D02*
X15430968Y-12447531D01*
X15430968Y-12447531D02*
X15440491Y-12466579D01*
X15440491Y-12466579D02*
X15450015Y-12504674D01*
X15450015Y-12504674D02*
X15450015Y-12552293D01*
X15450015Y-12552293D02*
X15440491Y-12590388D01*
X15440491Y-12590388D02*
X15430968Y-12609436D01*
X15430968Y-12609436D02*
X15421444Y-12618960D01*
X15421444Y-12618960D02*
X15402396Y-12628484D01*
X15402396Y-12628484D02*
X15383348Y-12628484D01*
X15383348Y-12628484D02*
X15364301Y-12618960D01*
X15364301Y-12618960D02*
X15354777Y-12609436D01*
X15354777Y-12609436D02*
X15345253Y-12590388D01*
X15345253Y-12590388D02*
X15335729Y-12552293D01*
X15335729Y-12552293D02*
X15335729Y-12504674D01*
X15335729Y-12504674D02*
X15345253Y-12466579D01*
X15345253Y-12466579D02*
X15354777Y-12447531D01*
X15354777Y-12447531D02*
X15364301Y-12438008D01*
X15364301Y-12438008D02*
X15383348Y-12428484D01*
X15688110Y-12628484D02*
X15688110Y-12428484D01*
X15773825Y-12628484D02*
X15773825Y-12523722D01*
X15773825Y-12523722D02*
X15764301Y-12504674D01*
X15764301Y-12504674D02*
X15745253Y-12495150D01*
X15745253Y-12495150D02*
X15716682Y-12495150D01*
X15716682Y-12495150D02*
X15697634Y-12504674D01*
X15697634Y-12504674D02*
X15688110Y-12514198D01*
X15897634Y-12628484D02*
X15878587Y-12618960D01*
X15878587Y-12618960D02*
X15869063Y-12609436D01*
X15869063Y-12609436D02*
X15859539Y-12590388D01*
X15859539Y-12590388D02*
X15859539Y-12533246D01*
X15859539Y-12533246D02*
X15869063Y-12514198D01*
X15869063Y-12514198D02*
X15878587Y-12504674D01*
X15878587Y-12504674D02*
X15897634Y-12495150D01*
X15897634Y-12495150D02*
X15926206Y-12495150D01*
X15926206Y-12495150D02*
X15945253Y-12504674D01*
X15945253Y-12504674D02*
X15954777Y-12514198D01*
X15954777Y-12514198D02*
X15964301Y-12533246D01*
X15964301Y-12533246D02*
X15964301Y-12590388D01*
X15964301Y-12590388D02*
X15954777Y-12609436D01*
X15954777Y-12609436D02*
X15945253Y-12618960D01*
X15945253Y-12618960D02*
X15926206Y-12628484D01*
X15926206Y-12628484D02*
X15897634Y-12628484D01*
X16078587Y-12628484D02*
X16059539Y-12618960D01*
X16059539Y-12618960D02*
X16050015Y-12599912D01*
X16050015Y-12599912D02*
X16050015Y-12428484D01*
X16230968Y-12618960D02*
X16211920Y-12628484D01*
X16211920Y-12628484D02*
X16173825Y-12628484D01*
X16173825Y-12628484D02*
X16154777Y-12618960D01*
X16154777Y-12618960D02*
X16145253Y-12599912D01*
X16145253Y-12599912D02*
X16145253Y-12523722D01*
X16145253Y-12523722D02*
X16154777Y-12504674D01*
X16154777Y-12504674D02*
X16173825Y-12495150D01*
X16173825Y-12495150D02*
X16211920Y-12495150D01*
X16211920Y-12495150D02*
X16230968Y-12504674D01*
X16230968Y-12504674D02*
X16240491Y-12523722D01*
X16240491Y-12523722D02*
X16240491Y-12542769D01*
X16240491Y-12542769D02*
X16145253Y-12561817D01*
X16316682Y-12618960D02*
X16335730Y-12628484D01*
X16335730Y-12628484D02*
X16373825Y-12628484D01*
X16373825Y-12628484D02*
X16392872Y-12618960D01*
X16392872Y-12618960D02*
X16402396Y-12599912D01*
X16402396Y-12599912D02*
X16402396Y-12590388D01*
X16402396Y-12590388D02*
X16392872Y-12571341D01*
X16392872Y-12571341D02*
X16373825Y-12561817D01*
X16373825Y-12561817D02*
X16345253Y-12561817D01*
X16345253Y-12561817D02*
X16326206Y-12552293D01*
X16326206Y-12552293D02*
X16316682Y-12533246D01*
X16316682Y-12533246D02*
X16316682Y-12523722D01*
X16316682Y-12523722D02*
X16326206Y-12504674D01*
X16326206Y-12504674D02*
X16345253Y-12495150D01*
X16345253Y-12495150D02*
X16373825Y-12495150D01*
X16373825Y-12495150D02*
X16392872Y-12504674D01*
X16640492Y-12552293D02*
X16792873Y-12552293D01*
X16716682Y-12628484D02*
X16716682Y-12476103D01*
X17030968Y-12447531D02*
X17040492Y-12438008D01*
X17040492Y-12438008D02*
X17059539Y-12428484D01*
X17059539Y-12428484D02*
X17107158Y-12428484D01*
X17107158Y-12428484D02*
X17126206Y-12438008D01*
X17126206Y-12438008D02*
X17135730Y-12447531D01*
X17135730Y-12447531D02*
X17145254Y-12466579D01*
X17145254Y-12466579D02*
X17145254Y-12485627D01*
X17145254Y-12485627D02*
X17135730Y-12514198D01*
X17135730Y-12514198D02*
X17021444Y-12628484D01*
X17021444Y-12628484D02*
X17145254Y-12628484D01*
X17373825Y-12618960D02*
X17392873Y-12628484D01*
X17392873Y-12628484D02*
X17430968Y-12628484D01*
X17430968Y-12628484D02*
X17450016Y-12618960D01*
X17450016Y-12618960D02*
X17459539Y-12599912D01*
X17459539Y-12599912D02*
X17459539Y-12590388D01*
X17459539Y-12590388D02*
X17450016Y-12571341D01*
X17450016Y-12571341D02*
X17430968Y-12561817D01*
X17430968Y-12561817D02*
X17402396Y-12561817D01*
X17402396Y-12561817D02*
X17383349Y-12552293D01*
X17383349Y-12552293D02*
X17373825Y-12533246D01*
X17373825Y-12533246D02*
X17373825Y-12523722D01*
X17373825Y-12523722D02*
X17383349Y-12504674D01*
X17383349Y-12504674D02*
X17402396Y-12495150D01*
X17402396Y-12495150D02*
X17430968Y-12495150D01*
X17430968Y-12495150D02*
X17450016Y-12504674D01*
X17573825Y-12628484D02*
X17554777Y-12618960D01*
X17554777Y-12618960D02*
X17545254Y-12599912D01*
X17545254Y-12599912D02*
X17545254Y-12428484D01*
X17678587Y-12628484D02*
X17659539Y-12618960D01*
X17659539Y-12618960D02*
X17650016Y-12609436D01*
X17650016Y-12609436D02*
X17640492Y-12590388D01*
X17640492Y-12590388D02*
X17640492Y-12533246D01*
X17640492Y-12533246D02*
X17650016Y-12514198D01*
X17650016Y-12514198D02*
X17659539Y-12504674D01*
X17659539Y-12504674D02*
X17678587Y-12495150D01*
X17678587Y-12495150D02*
X17707158Y-12495150D01*
X17707158Y-12495150D02*
X17726206Y-12504674D01*
X17726206Y-12504674D02*
X17735730Y-12514198D01*
X17735730Y-12514198D02*
X17745254Y-12533246D01*
X17745254Y-12533246D02*
X17745254Y-12590388D01*
X17745254Y-12590388D02*
X17735730Y-12609436D01*
X17735730Y-12609436D02*
X17726206Y-12618960D01*
X17726206Y-12618960D02*
X17707158Y-12628484D01*
X17707158Y-12628484D02*
X17678587Y-12628484D01*
X17802397Y-12495150D02*
X17878587Y-12495150D01*
X17830968Y-12428484D02*
X17830968Y-12599912D01*
X17830968Y-12599912D02*
X17840492Y-12618960D01*
X17840492Y-12618960D02*
X17859539Y-12628484D01*
X17859539Y-12628484D02*
X17878587Y-12628484D01*
X17935730Y-12618960D02*
X17954777Y-12628484D01*
X17954777Y-12628484D02*
X17992873Y-12628484D01*
X17992873Y-12628484D02*
X18011920Y-12618960D01*
X18011920Y-12618960D02*
X18021444Y-12599912D01*
X18021444Y-12599912D02*
X18021444Y-12590388D01*
X18021444Y-12590388D02*
X18011920Y-12571341D01*
X18011920Y-12571341D02*
X17992873Y-12561817D01*
X17992873Y-12561817D02*
X17964301Y-12561817D01*
X17964301Y-12561817D02*
X17945254Y-12552293D01*
X17945254Y-12552293D02*
X17935730Y-12533246D01*
X17935730Y-12533246D02*
X17935730Y-12523722D01*
X17935730Y-12523722D02*
X17945254Y-12504674D01*
X17945254Y-12504674D02*
X17964301Y-12495150D01*
X17964301Y-12495150D02*
X17992873Y-12495150D01*
X17992873Y-12495150D02*
X18011920Y-12504674D01*
X18088111Y-12704674D02*
X18097635Y-12695150D01*
X18097635Y-12695150D02*
X18116682Y-12666579D01*
X18116682Y-12666579D02*
X18126206Y-12647531D01*
X18126206Y-12647531D02*
X18135730Y-12618960D01*
X18135730Y-12618960D02*
X18145254Y-12571341D01*
X18145254Y-12571341D02*
X18145254Y-12533246D01*
X18145254Y-12533246D02*
X18135730Y-12485627D01*
X18135730Y-12485627D02*
X18126206Y-12457055D01*
X18126206Y-12457055D02*
X18116682Y-12438008D01*
X18116682Y-12438008D02*
X18097635Y-12409436D01*
X18097635Y-12409436D02*
X18088111Y-12399912D01*
D13*
X11629000Y-12866000D02*
X11694000Y-12801000D01*
X11629000Y-12736000D01*
X11564000Y-12801000D01*
X11629000Y-12866000D01*
D12*
X12059539Y-12892484D02*
X11945253Y-12892484D01*
X12002396Y-12892484D02*
X12002396Y-12692484D01*
X12002396Y-12692484D02*
X11983348Y-12721055D01*
X11983348Y-12721055D02*
X11964301Y-12740103D01*
X11964301Y-12740103D02*
X11945253Y-12749627D01*
X12145253Y-12873436D02*
X12154777Y-12882960D01*
X12154777Y-12882960D02*
X12145253Y-12892484D01*
X12145253Y-12892484D02*
X12135729Y-12882960D01*
X12135729Y-12882960D02*
X12145253Y-12873436D01*
X12145253Y-12873436D02*
X12145253Y-12892484D01*
X12221443Y-12692484D02*
X12345253Y-12692484D01*
X12345253Y-12692484D02*
X12278586Y-12768674D01*
X12278586Y-12768674D02*
X12307158Y-12768674D01*
X12307158Y-12768674D02*
X12326205Y-12778198D01*
X12326205Y-12778198D02*
X12335729Y-12787722D01*
X12335729Y-12787722D02*
X12345253Y-12806769D01*
X12345253Y-12806769D02*
X12345253Y-12854388D01*
X12345253Y-12854388D02*
X12335729Y-12873436D01*
X12335729Y-12873436D02*
X12326205Y-12882960D01*
X12326205Y-12882960D02*
X12307158Y-12892484D01*
X12307158Y-12892484D02*
X12250015Y-12892484D01*
X12250015Y-12892484D02*
X12230967Y-12882960D01*
X12230967Y-12882960D02*
X12221443Y-12873436D01*
X12469062Y-12692484D02*
X12488110Y-12692484D01*
X12488110Y-12692484D02*
X12507158Y-12702008D01*
X12507158Y-12702008D02*
X12516682Y-12711531D01*
X12516682Y-12711531D02*
X12526205Y-12730579D01*
X12526205Y-12730579D02*
X12535729Y-12768674D01*
X12535729Y-12768674D02*
X12535729Y-12816293D01*
X12535729Y-12816293D02*
X12526205Y-12854388D01*
X12526205Y-12854388D02*
X12516682Y-12873436D01*
X12516682Y-12873436D02*
X12507158Y-12882960D01*
X12507158Y-12882960D02*
X12488110Y-12892484D01*
X12488110Y-12892484D02*
X12469062Y-12892484D01*
X12469062Y-12892484D02*
X12450015Y-12882960D01*
X12450015Y-12882960D02*
X12440491Y-12873436D01*
X12440491Y-12873436D02*
X12430967Y-12854388D01*
X12430967Y-12854388D02*
X12421443Y-12816293D01*
X12421443Y-12816293D02*
X12421443Y-12768674D01*
X12421443Y-12768674D02*
X12430967Y-12730579D01*
X12430967Y-12730579D02*
X12440491Y-12711531D01*
X12440491Y-12711531D02*
X12450015Y-12702008D01*
X12450015Y-12702008D02*
X12469062Y-12692484D01*
X12659539Y-12692484D02*
X12678586Y-12692484D01*
X12678586Y-12692484D02*
X12697634Y-12702008D01*
X12697634Y-12702008D02*
X12707158Y-12711531D01*
X12707158Y-12711531D02*
X12716682Y-12730579D01*
X12716682Y-12730579D02*
X12726205Y-12768674D01*
X12726205Y-12768674D02*
X12726205Y-12816293D01*
X12726205Y-12816293D02*
X12716682Y-12854388D01*
X12716682Y-12854388D02*
X12707158Y-12873436D01*
X12707158Y-12873436D02*
X12697634Y-12882960D01*
X12697634Y-12882960D02*
X12678586Y-12892484D01*
X12678586Y-12892484D02*
X12659539Y-12892484D01*
X12659539Y-12892484D02*
X12640491Y-12882960D01*
X12640491Y-12882960D02*
X12630967Y-12873436D01*
X12630967Y-12873436D02*
X12621443Y-12854388D01*
X12621443Y-12854388D02*
X12611920Y-12816293D01*
X12611920Y-12816293D02*
X12611920Y-12768674D01*
X12611920Y-12768674D02*
X12621443Y-12730579D01*
X12621443Y-12730579D02*
X12630967Y-12711531D01*
X12630967Y-12711531D02*
X12640491Y-12702008D01*
X12640491Y-12702008D02*
X12659539Y-12692484D01*
X12811920Y-12892484D02*
X12811920Y-12759150D01*
X12811920Y-12778198D02*
X12821443Y-12768674D01*
X12821443Y-12768674D02*
X12840491Y-12759150D01*
X12840491Y-12759150D02*
X12869063Y-12759150D01*
X12869063Y-12759150D02*
X12888110Y-12768674D01*
X12888110Y-12768674D02*
X12897634Y-12787722D01*
X12897634Y-12787722D02*
X12897634Y-12892484D01*
X12897634Y-12787722D02*
X12907158Y-12768674D01*
X12907158Y-12768674D02*
X12926205Y-12759150D01*
X12926205Y-12759150D02*
X12954777Y-12759150D01*
X12954777Y-12759150D02*
X12973824Y-12768674D01*
X12973824Y-12768674D02*
X12983348Y-12787722D01*
X12983348Y-12787722D02*
X12983348Y-12892484D01*
X13078586Y-12892484D02*
X13078586Y-12759150D01*
X13078586Y-12778198D02*
X13088110Y-12768674D01*
X13088110Y-12768674D02*
X13107158Y-12759150D01*
X13107158Y-12759150D02*
X13135729Y-12759150D01*
X13135729Y-12759150D02*
X13154777Y-12768674D01*
X13154777Y-12768674D02*
X13164301Y-12787722D01*
X13164301Y-12787722D02*
X13164301Y-12892484D01*
X13164301Y-12787722D02*
X13173824Y-12768674D01*
X13173824Y-12768674D02*
X13192872Y-12759150D01*
X13192872Y-12759150D02*
X13221443Y-12759150D01*
X13221443Y-12759150D02*
X13240491Y-12768674D01*
X13240491Y-12768674D02*
X13250015Y-12787722D01*
X13250015Y-12787722D02*
X13250015Y-12892484D01*
X13640491Y-12682960D02*
X13469063Y-12940103D01*
X13897634Y-12692484D02*
X13916682Y-12692484D01*
X13916682Y-12692484D02*
X13935729Y-12702008D01*
X13935729Y-12702008D02*
X13945253Y-12711531D01*
X13945253Y-12711531D02*
X13954777Y-12730579D01*
X13954777Y-12730579D02*
X13964301Y-12768674D01*
X13964301Y-12768674D02*
X13964301Y-12816293D01*
X13964301Y-12816293D02*
X13954777Y-12854388D01*
X13954777Y-12854388D02*
X13945253Y-12873436D01*
X13945253Y-12873436D02*
X13935729Y-12882960D01*
X13935729Y-12882960D02*
X13916682Y-12892484D01*
X13916682Y-12892484D02*
X13897634Y-12892484D01*
X13897634Y-12892484D02*
X13878586Y-12882960D01*
X13878586Y-12882960D02*
X13869063Y-12873436D01*
X13869063Y-12873436D02*
X13859539Y-12854388D01*
X13859539Y-12854388D02*
X13850015Y-12816293D01*
X13850015Y-12816293D02*
X13850015Y-12768674D01*
X13850015Y-12768674D02*
X13859539Y-12730579D01*
X13859539Y-12730579D02*
X13869063Y-12711531D01*
X13869063Y-12711531D02*
X13878586Y-12702008D01*
X13878586Y-12702008D02*
X13897634Y-12692484D01*
X14050015Y-12873436D02*
X14059539Y-12882960D01*
X14059539Y-12882960D02*
X14050015Y-12892484D01*
X14050015Y-12892484D02*
X14040491Y-12882960D01*
X14040491Y-12882960D02*
X14050015Y-12873436D01*
X14050015Y-12873436D02*
X14050015Y-12892484D01*
X14183348Y-12692484D02*
X14202396Y-12692484D01*
X14202396Y-12692484D02*
X14221444Y-12702008D01*
X14221444Y-12702008D02*
X14230967Y-12711531D01*
X14230967Y-12711531D02*
X14240491Y-12730579D01*
X14240491Y-12730579D02*
X14250015Y-12768674D01*
X14250015Y-12768674D02*
X14250015Y-12816293D01*
X14250015Y-12816293D02*
X14240491Y-12854388D01*
X14240491Y-12854388D02*
X14230967Y-12873436D01*
X14230967Y-12873436D02*
X14221444Y-12882960D01*
X14221444Y-12882960D02*
X14202396Y-12892484D01*
X14202396Y-12892484D02*
X14183348Y-12892484D01*
X14183348Y-12892484D02*
X14164301Y-12882960D01*
X14164301Y-12882960D02*
X14154777Y-12873436D01*
X14154777Y-12873436D02*
X14145253Y-12854388D01*
X14145253Y-12854388D02*
X14135729Y-12816293D01*
X14135729Y-12816293D02*
X14135729Y-12768674D01*
X14135729Y-12768674D02*
X14145253Y-12730579D01*
X14145253Y-12730579D02*
X14154777Y-12711531D01*
X14154777Y-12711531D02*
X14164301Y-12702008D01*
X14164301Y-12702008D02*
X14183348Y-12692484D01*
X14430967Y-12692484D02*
X14335729Y-12692484D01*
X14335729Y-12692484D02*
X14326206Y-12787722D01*
X14326206Y-12787722D02*
X14335729Y-12778198D01*
X14335729Y-12778198D02*
X14354777Y-12768674D01*
X14354777Y-12768674D02*
X14402396Y-12768674D01*
X14402396Y-12768674D02*
X14421444Y-12778198D01*
X14421444Y-12778198D02*
X14430967Y-12787722D01*
X14430967Y-12787722D02*
X14440491Y-12806769D01*
X14440491Y-12806769D02*
X14440491Y-12854388D01*
X14440491Y-12854388D02*
X14430967Y-12873436D01*
X14430967Y-12873436D02*
X14421444Y-12882960D01*
X14421444Y-12882960D02*
X14402396Y-12892484D01*
X14402396Y-12892484D02*
X14354777Y-12892484D01*
X14354777Y-12892484D02*
X14335729Y-12882960D01*
X14335729Y-12882960D02*
X14326206Y-12873436D01*
X14630967Y-12892484D02*
X14516682Y-12892484D01*
X14573825Y-12892484D02*
X14573825Y-12692484D01*
X14573825Y-12692484D02*
X14554777Y-12721055D01*
X14554777Y-12721055D02*
X14535729Y-12740103D01*
X14535729Y-12740103D02*
X14516682Y-12749627D01*
X14707158Y-12711531D02*
X14716682Y-12702008D01*
X14716682Y-12702008D02*
X14735729Y-12692484D01*
X14735729Y-12692484D02*
X14783348Y-12692484D01*
X14783348Y-12692484D02*
X14802396Y-12702008D01*
X14802396Y-12702008D02*
X14811920Y-12711531D01*
X14811920Y-12711531D02*
X14821444Y-12730579D01*
X14821444Y-12730579D02*
X14821444Y-12749627D01*
X14821444Y-12749627D02*
X14811920Y-12778198D01*
X14811920Y-12778198D02*
X14697634Y-12892484D01*
X14697634Y-12892484D02*
X14821444Y-12892484D01*
X14897634Y-12692484D02*
X14897634Y-12730579D01*
X14973825Y-12692484D02*
X14973825Y-12730579D01*
X15269063Y-12968674D02*
X15259539Y-12959150D01*
X15259539Y-12959150D02*
X15240491Y-12930579D01*
X15240491Y-12930579D02*
X15230968Y-12911531D01*
X15230968Y-12911531D02*
X15221444Y-12882960D01*
X15221444Y-12882960D02*
X15211920Y-12835341D01*
X15211920Y-12835341D02*
X15211920Y-12797246D01*
X15211920Y-12797246D02*
X15221444Y-12749627D01*
X15221444Y-12749627D02*
X15230968Y-12721055D01*
X15230968Y-12721055D02*
X15240491Y-12702008D01*
X15240491Y-12702008D02*
X15259539Y-12673436D01*
X15259539Y-12673436D02*
X15269063Y-12663912D01*
X15335729Y-12711531D02*
X15345253Y-12702008D01*
X15345253Y-12702008D02*
X15364301Y-12692484D01*
X15364301Y-12692484D02*
X15411920Y-12692484D01*
X15411920Y-12692484D02*
X15430968Y-12702008D01*
X15430968Y-12702008D02*
X15440491Y-12711531D01*
X15440491Y-12711531D02*
X15450015Y-12730579D01*
X15450015Y-12730579D02*
X15450015Y-12749627D01*
X15450015Y-12749627D02*
X15440491Y-12778198D01*
X15440491Y-12778198D02*
X15326206Y-12892484D01*
X15326206Y-12892484D02*
X15450015Y-12892484D01*
X15688110Y-12892484D02*
X15688110Y-12692484D01*
X15773825Y-12892484D02*
X15773825Y-12787722D01*
X15773825Y-12787722D02*
X15764301Y-12768674D01*
X15764301Y-12768674D02*
X15745253Y-12759150D01*
X15745253Y-12759150D02*
X15716682Y-12759150D01*
X15716682Y-12759150D02*
X15697634Y-12768674D01*
X15697634Y-12768674D02*
X15688110Y-12778198D01*
X15897634Y-12892484D02*
X15878587Y-12882960D01*
X15878587Y-12882960D02*
X15869063Y-12873436D01*
X15869063Y-12873436D02*
X15859539Y-12854388D01*
X15859539Y-12854388D02*
X15859539Y-12797246D01*
X15859539Y-12797246D02*
X15869063Y-12778198D01*
X15869063Y-12778198D02*
X15878587Y-12768674D01*
X15878587Y-12768674D02*
X15897634Y-12759150D01*
X15897634Y-12759150D02*
X15926206Y-12759150D01*
X15926206Y-12759150D02*
X15945253Y-12768674D01*
X15945253Y-12768674D02*
X15954777Y-12778198D01*
X15954777Y-12778198D02*
X15964301Y-12797246D01*
X15964301Y-12797246D02*
X15964301Y-12854388D01*
X15964301Y-12854388D02*
X15954777Y-12873436D01*
X15954777Y-12873436D02*
X15945253Y-12882960D01*
X15945253Y-12882960D02*
X15926206Y-12892484D01*
X15926206Y-12892484D02*
X15897634Y-12892484D01*
X16078587Y-12892484D02*
X16059539Y-12882960D01*
X16059539Y-12882960D02*
X16050015Y-12863912D01*
X16050015Y-12863912D02*
X16050015Y-12692484D01*
X16230968Y-12882960D02*
X16211920Y-12892484D01*
X16211920Y-12892484D02*
X16173825Y-12892484D01*
X16173825Y-12892484D02*
X16154777Y-12882960D01*
X16154777Y-12882960D02*
X16145253Y-12863912D01*
X16145253Y-12863912D02*
X16145253Y-12787722D01*
X16145253Y-12787722D02*
X16154777Y-12768674D01*
X16154777Y-12768674D02*
X16173825Y-12759150D01*
X16173825Y-12759150D02*
X16211920Y-12759150D01*
X16211920Y-12759150D02*
X16230968Y-12768674D01*
X16230968Y-12768674D02*
X16240491Y-12787722D01*
X16240491Y-12787722D02*
X16240491Y-12806769D01*
X16240491Y-12806769D02*
X16145253Y-12825817D01*
X16316682Y-12882960D02*
X16335730Y-12892484D01*
X16335730Y-12892484D02*
X16373825Y-12892484D01*
X16373825Y-12892484D02*
X16392872Y-12882960D01*
X16392872Y-12882960D02*
X16402396Y-12863912D01*
X16402396Y-12863912D02*
X16402396Y-12854388D01*
X16402396Y-12854388D02*
X16392872Y-12835341D01*
X16392872Y-12835341D02*
X16373825Y-12825817D01*
X16373825Y-12825817D02*
X16345253Y-12825817D01*
X16345253Y-12825817D02*
X16326206Y-12816293D01*
X16326206Y-12816293D02*
X16316682Y-12797246D01*
X16316682Y-12797246D02*
X16316682Y-12787722D01*
X16316682Y-12787722D02*
X16326206Y-12768674D01*
X16326206Y-12768674D02*
X16345253Y-12759150D01*
X16345253Y-12759150D02*
X16373825Y-12759150D01*
X16373825Y-12759150D02*
X16392872Y-12768674D01*
X16469063Y-12968674D02*
X16478587Y-12959150D01*
X16478587Y-12959150D02*
X16497634Y-12930579D01*
X16497634Y-12930579D02*
X16507158Y-12911531D01*
X16507158Y-12911531D02*
X16516682Y-12882960D01*
X16516682Y-12882960D02*
X16526206Y-12835341D01*
X16526206Y-12835341D02*
X16526206Y-12797246D01*
X16526206Y-12797246D02*
X16516682Y-12749627D01*
X16516682Y-12749627D02*
X16507158Y-12721055D01*
X16507158Y-12721055D02*
X16497634Y-12702008D01*
X16497634Y-12702008D02*
X16478587Y-12673436D01*
X16478587Y-12673436D02*
X16469063Y-12663912D01*
M02*
