%TF.GenerationSoftware,KiCad,Pcbnew,7.0.10*%
%TF.CreationDate,2024-01-30T15:37:57+11:00*%
%TF.ProjectId,RP2040-TestPatternGenerator,52503230-3430-42d5-9465-737450617474,rev?*%
%TF.SameCoordinates,Original*%
%TF.FileFunction,Legend,Bot*%
%TF.FilePolarity,Positive*%
%FSLAX46Y46*%
G04 Gerber Fmt 4.6, Leading zero omitted, Abs format (unit mm)*
G04 Created by KiCad (PCBNEW 7.0.10) date 2024-01-30 15:37:57*
%MOMM*%
%LPD*%
G01*
G04 APERTURE LIST*
%ADD10C,0.100000*%
%ADD11O,1.600000X1.600000*%
%ADD12C,1.600000*%
%ADD13C,4.000000*%
%ADD14O,4.000000X4.000000*%
%ADD15R,1.600000X1.600000*%
%ADD16C,2.100000*%
%ADD17C,1.750000*%
%ADD18O,1.500000X2.500000*%
%ADD19O,2.500000X1.500000*%
G04 APERTURE END LIST*
D10*
X161933609Y-80202741D02*
X161933609Y-79917027D01*
X161933609Y-80059884D02*
X161433609Y-80059884D01*
X161433609Y-80059884D02*
X161505038Y-80012265D01*
X161505038Y-80012265D02*
X161552657Y-79964646D01*
X161552657Y-79964646D02*
X161576466Y-79917027D01*
X118933609Y-96446741D02*
X118933609Y-96161027D01*
X118933609Y-96303884D02*
X118433609Y-96303884D01*
X118433609Y-96303884D02*
X118505038Y-96256265D01*
X118505038Y-96256265D02*
X118552657Y-96208646D01*
X118552657Y-96208646D02*
X118576466Y-96161027D01*
X165933609Y-92864741D02*
X165933609Y-92579027D01*
X165933609Y-92721884D02*
X165433609Y-92721884D01*
X165433609Y-92721884D02*
X165505038Y-92674265D01*
X165505038Y-92674265D02*
X165552657Y-92626646D01*
X165552657Y-92626646D02*
X165576466Y-92579027D01*
X165433609Y-93317121D02*
X165433609Y-93079026D01*
X165433609Y-93079026D02*
X165671704Y-93055217D01*
X165671704Y-93055217D02*
X165647895Y-93079026D01*
X165647895Y-93079026D02*
X165624085Y-93126645D01*
X165624085Y-93126645D02*
X165624085Y-93245693D01*
X165624085Y-93245693D02*
X165647895Y-93293312D01*
X165647895Y-93293312D02*
X165671704Y-93317121D01*
X165671704Y-93317121D02*
X165719323Y-93340931D01*
X165719323Y-93340931D02*
X165838371Y-93340931D01*
X165838371Y-93340931D02*
X165885990Y-93317121D01*
X165885990Y-93317121D02*
X165909800Y-93293312D01*
X165909800Y-93293312D02*
X165933609Y-93245693D01*
X165933609Y-93245693D02*
X165933609Y-93126645D01*
X165933609Y-93126645D02*
X165909800Y-93079026D01*
X165909800Y-93079026D02*
X165885990Y-93055217D01*
%LPC*%
D11*
%TO.C,R8*%
X155580000Y-69875000D03*
D12*
X145420000Y-69875000D03*
%TD*%
D11*
%TO.C,R7*%
X155580000Y-75250000D03*
D12*
X145420000Y-75250000D03*
%TD*%
D11*
%TO.C,R3*%
X155580000Y-96750000D03*
D12*
X145420000Y-96750000D03*
%TD*%
D11*
%TO.C,R6*%
X155580000Y-80625000D03*
D12*
X145420000Y-80625000D03*
%TD*%
D11*
%TO.C,R9*%
X155580000Y-64500000D03*
D12*
X145420000Y-64500000D03*
%TD*%
D11*
%TO.C,R1*%
X155580000Y-107500000D03*
D12*
X145420000Y-107500000D03*
%TD*%
D11*
%TO.C,R5*%
X155580000Y-86000000D03*
D12*
X145420000Y-86000000D03*
%TD*%
D11*
%TO.C,R4*%
X155580000Y-91375000D03*
D12*
X145420000Y-91375000D03*
%TD*%
D13*
%TO.C,RGBS OUT*%
X163899669Y-98515000D03*
D14*
X163899669Y-73515000D03*
D15*
X161849669Y-81700000D03*
D12*
X161849669Y-83990000D03*
X161849669Y-86280000D03*
X161849669Y-88570000D03*
X161849669Y-90860000D03*
X163829669Y-80555000D03*
X163829669Y-82845000D03*
X163829669Y-85135000D03*
X163829669Y-87425000D03*
X163829669Y-89715000D03*
X165809669Y-81700000D03*
X165809669Y-83990000D03*
X165809669Y-86280000D03*
X165809669Y-88570000D03*
X165809669Y-90860000D03*
%TD*%
D16*
%TO.C,SW1*%
X122400000Y-103600000D03*
X122400000Y-96590000D03*
D17*
X119910000Y-102350000D03*
X119910000Y-97850000D03*
%TD*%
D11*
%TO.C,R2*%
X155580000Y-102125000D03*
D12*
X145420000Y-102125000D03*
%TD*%
D18*
%TO.C,U1*%
X118590000Y-77859000D03*
X121130000Y-77859000D03*
X123670000Y-77859000D03*
X126210000Y-77859000D03*
X128750000Y-77859000D03*
X131290000Y-77859000D03*
X133830000Y-77859000D03*
X136370000Y-77859000D03*
X138910000Y-77859000D03*
D19*
X139410000Y-80899000D03*
X139410000Y-83439000D03*
X139410000Y-85979000D03*
X139410000Y-88519000D03*
X139410000Y-91059000D03*
D18*
X138910000Y-94099000D03*
X136370000Y-94099000D03*
X133830000Y-94099000D03*
X131290000Y-94099000D03*
X128750000Y-94099000D03*
X126210000Y-94099000D03*
X123670000Y-94099000D03*
X121130000Y-94099000D03*
X118590000Y-94099000D03*
%TD*%
%LPD*%
M02*
