%TF.GenerationSoftware,KiCad,Pcbnew,7.0.10*%
%TF.CreationDate,2024-01-29T00:07:58+11:00*%
%TF.ProjectId,RP2040-TestPatternGenerator,52503230-3430-42d5-9465-737450617474,rev?*%
%TF.SameCoordinates,Original*%
%TF.FileFunction,Profile,NP*%
%FSLAX46Y46*%
G04 Gerber Fmt 4.6, Leading zero omitted, Abs format (unit mm)*
G04 Created by KiCad (PCBNEW 7.0.10) date 2024-01-29 00:07:58*
%MOMM*%
%LPD*%
G01*
G04 APERTURE LIST*
%TA.AperFunction,Profile*%
%ADD10C,0.100000*%
%TD*%
%TA.AperFunction,Profile*%
%ADD11C,0.120000*%
%TD*%
G04 APERTURE END LIST*
D10*
X116000000Y-110000000D02*
G75*
G03*
X118000000Y-112000000I2000000J0D01*
G01*
X169100000Y-62500000D02*
G75*
G03*
X165900000Y-62500000I-1600000J0D01*
G01*
X165900000Y-62500000D02*
G75*
G03*
X169100000Y-62500000I1600000J0D01*
G01*
X116012000Y-79979000D02*
X116000000Y-80000000D01*
X168000000Y-112000000D02*
X118000000Y-112000000D01*
X170000000Y-62000000D02*
G75*
G03*
X168000000Y-60000000I-2000000J0D01*
G01*
X168000000Y-112000000D02*
G75*
G03*
X170000000Y-110000000I0J2000000D01*
G01*
X169100000Y-109500000D02*
G75*
G03*
X165900000Y-109500000I-1600000J0D01*
G01*
X165900000Y-109500000D02*
G75*
G03*
X169100000Y-109500000I1600000J0D01*
G01*
X118000000Y-60000000D02*
X168000000Y-60000000D01*
X116012000Y-91979000D02*
X116000000Y-92000000D01*
X116000000Y-92000000D02*
X116000000Y-110000000D01*
X120100000Y-62484000D02*
G75*
G03*
X116900000Y-62484000I-1600000J0D01*
G01*
X116900000Y-62484000D02*
G75*
G03*
X120100000Y-62484000I1600000J0D01*
G01*
X118000000Y-60000000D02*
G75*
G03*
X116000000Y-62000000I0J-2000000D01*
G01*
X116000000Y-80000000D02*
X116000000Y-62000000D01*
X120100000Y-109500000D02*
G75*
G03*
X116900000Y-109500000I-1600000J0D01*
G01*
X116900000Y-109500000D02*
G75*
G03*
X120100000Y-109500000I1600000J0D01*
G01*
X170000000Y-62000000D02*
X170000000Y-110000000D01*
D11*
%TO.C,U1*%
X137012000Y-79979000D02*
X137012000Y-91979000D01*
X116012000Y-79979000D02*
X137012000Y-79979000D01*
X137012000Y-91979000D02*
X116012000Y-91979000D01*
%TD*%
M02*
