%TF.GenerationSoftware,KiCad,Pcbnew,7.0.10*%
%TF.CreationDate,2024-01-29T00:07:58+11:00*%
%TF.ProjectId,RP2040-TestPatternGenerator,52503230-3430-42d5-9465-737450617474,rev?*%
%TF.SameCoordinates,Original*%
%TF.FileFunction,Copper,L2,Bot*%
%TF.FilePolarity,Positive*%
%FSLAX46Y46*%
G04 Gerber Fmt 4.6, Leading zero omitted, Abs format (unit mm)*
G04 Created by KiCad (PCBNEW 7.0.10) date 2024-01-29 00:07:58*
%MOMM*%
%LPD*%
G01*
G04 APERTURE LIST*
%TA.AperFunction,ComponentPad*%
%ADD10C,2.100000*%
%TD*%
%TA.AperFunction,ComponentPad*%
%ADD11C,1.750000*%
%TD*%
%TA.AperFunction,ComponentPad*%
%ADD12C,1.600000*%
%TD*%
%TA.AperFunction,ComponentPad*%
%ADD13O,1.600000X1.600000*%
%TD*%
%TA.AperFunction,ComponentPad*%
%ADD14C,4.000000*%
%TD*%
%TA.AperFunction,ComponentPad*%
%ADD15O,4.000000X4.000000*%
%TD*%
%TA.AperFunction,ComponentPad*%
%ADD16R,1.600000X1.600000*%
%TD*%
%TA.AperFunction,SMDPad,CuDef*%
%ADD17O,1.500000X2.500000*%
%TD*%
%TA.AperFunction,SMDPad,CuDef*%
%ADD18O,2.500000X1.500000*%
%TD*%
%TA.AperFunction,Conductor*%
%ADD19C,0.500000*%
%TD*%
G04 APERTURE END LIST*
D10*
%TO.P,SW1,*%
%TO.N,*%
X121265000Y-105400000D03*
X121265000Y-98390000D03*
D11*
%TO.P,SW1,1,1*%
%TO.N,Net-(U1-GND)*%
X118775000Y-104150000D03*
%TO.P,SW1,2,2*%
%TO.N,Net-(U1-2)*%
X118775000Y-99650000D03*
%TD*%
D12*
%TO.P,R8,1*%
%TO.N,Net-(U1-14)*%
X144526000Y-69119750D03*
D13*
%TO.P,R8,2*%
%TO.N,Net-(J1-Pad1)*%
X154686000Y-69119750D03*
%TD*%
D12*
%TO.P,R7,1*%
%TO.N,Net-(U1-13)*%
X144526000Y-74739500D03*
D13*
%TO.P,R7,2*%
%TO.N,Net-(J1-Pad1)*%
X154686000Y-74739500D03*
%TD*%
D12*
%TO.P,R3,1*%
%TO.N,Net-(U1-9)*%
X144526000Y-97218500D03*
D13*
%TO.P,R3,2*%
%TO.N,Net-(J1-Pad2)*%
X154686000Y-97218500D03*
%TD*%
D12*
%TO.P,R6,1*%
%TO.N,Net-(U1-12)*%
X144526000Y-80359250D03*
D13*
%TO.P,R6,2*%
%TO.N,Net-(J1-Pad1)*%
X154686000Y-80359250D03*
%TD*%
D12*
%TO.P,R9,1*%
%TO.N,Net-(U1-15)*%
X144526000Y-63500000D03*
D13*
%TO.P,R9,2*%
%TO.N,Net-(J1-Pad13)*%
X154686000Y-63500000D03*
%TD*%
D12*
%TO.P,R1,1*%
%TO.N,Net-(U1-7)*%
X144526000Y-108458000D03*
D13*
%TO.P,R1,2*%
%TO.N,Net-(J1-Pad3)*%
X154686000Y-108458000D03*
%TD*%
D12*
%TO.P,R5,1*%
%TO.N,Net-(U1-11)*%
X144526000Y-85979000D03*
D13*
%TO.P,R5,2*%
%TO.N,Net-(J1-Pad2)*%
X154686000Y-85979000D03*
%TD*%
D12*
%TO.P,R4,1*%
%TO.N,Net-(U1-10)*%
X144526000Y-91598750D03*
D13*
%TO.P,R4,2*%
%TO.N,Net-(J1-Pad2)*%
X154686000Y-91598750D03*
%TD*%
D14*
%TO.P,RGBS OUT,0*%
%TO.N,Net-(U1-GND)*%
X164968000Y-98515000D03*
D15*
X164968000Y-73515000D03*
D16*
%TO.P,RGBS OUT,1*%
%TO.N,Net-(J1-Pad1)*%
X162918000Y-81700000D03*
D12*
%TO.P,RGBS OUT,2*%
%TO.N,Net-(J1-Pad2)*%
X162918000Y-83990000D03*
%TO.P,RGBS OUT,3*%
%TO.N,Net-(J1-Pad3)*%
X162918000Y-86280000D03*
%TO.P,RGBS OUT,4*%
%TO.N,unconnected-(J1-Pad4)*%
X162918000Y-88570000D03*
%TO.P,RGBS OUT,5*%
%TO.N,Net-(U1-GND)*%
X162918000Y-90860000D03*
%TO.P,RGBS OUT,6*%
X164898000Y-80555000D03*
%TO.P,RGBS OUT,7*%
X164898000Y-82845000D03*
%TO.P,RGBS OUT,8*%
X164898000Y-85135000D03*
%TO.P,RGBS OUT,9*%
%TO.N,unconnected-(J1-Pad9)*%
X164898000Y-87425000D03*
%TO.P,RGBS OUT,10*%
%TO.N,unconnected-(J1-Pad10)*%
X164898000Y-89715000D03*
%TO.P,RGBS OUT,11*%
%TO.N,unconnected-(J1-Pad11)*%
X166878000Y-81700000D03*
%TO.P,RGBS OUT,12*%
%TO.N,unconnected-(J1-Pad12)*%
X166878000Y-83990000D03*
%TO.P,RGBS OUT,13*%
%TO.N,Net-(J1-Pad13)*%
X166878000Y-86280000D03*
%TO.P,RGBS OUT,14*%
%TO.N,unconnected-(J1-Pad14)*%
X166878000Y-88570000D03*
%TO.P,RGBS OUT,15*%
%TO.N,unconnected-(J1-Pad15)*%
X166878000Y-90860000D03*
%TD*%
%TO.P,R2,1*%
%TO.N,Net-(U1-8)*%
X144526000Y-102838250D03*
D13*
%TO.P,R2,2*%
%TO.N,Net-(J1-Pad3)*%
X154686000Y-102838250D03*
%TD*%
D17*
%TO.P,U1,1,0*%
%TO.N,unconnected-(U1-0-Pad1)*%
X117602000Y-94099000D03*
%TO.P,U1,2,1*%
%TO.N,unconnected-(U1-1-Pad2)*%
X120142000Y-94099000D03*
%TO.P,U1,3,2*%
%TO.N,Net-(U1-2)*%
X122682000Y-94099000D03*
%TO.P,U1,4,3*%
%TO.N,unconnected-(U1-3-Pad4)*%
X125222000Y-94099000D03*
%TO.P,U1,5,4*%
%TO.N,unconnected-(U1-4-Pad5)*%
X127762000Y-94099000D03*
%TO.P,U1,6,5*%
%TO.N,unconnected-(U1-5-Pad6)*%
X130302000Y-94099000D03*
%TO.P,U1,7,6*%
%TO.N,unconnected-(U1-6-Pad7)*%
X132842000Y-94099000D03*
%TO.P,U1,8,7*%
%TO.N,Net-(U1-7)*%
X135382000Y-94099000D03*
%TO.P,U1,9,8*%
%TO.N,Net-(U1-8)*%
X137922000Y-94099000D03*
D18*
%TO.P,U1,10,9*%
%TO.N,Net-(U1-9)*%
X138422000Y-91059000D03*
%TO.P,U1,11,10*%
%TO.N,Net-(U1-10)*%
X138422000Y-88519000D03*
%TO.P,U1,12,11*%
%TO.N,Net-(U1-11)*%
X138422000Y-85979000D03*
%TO.P,U1,13,12*%
%TO.N,Net-(U1-12)*%
X138422000Y-83439000D03*
%TO.P,U1,14,13*%
%TO.N,Net-(U1-13)*%
X138422000Y-80899000D03*
D17*
%TO.P,U1,15,14*%
%TO.N,Net-(U1-14)*%
X137922000Y-77859000D03*
%TO.P,U1,16,15*%
%TO.N,Net-(U1-15)*%
X135382000Y-77859000D03*
%TO.P,U1,17,26*%
%TO.N,unconnected-(U1-26-Pad17)*%
X132842000Y-77859000D03*
%TO.P,U1,18,27*%
%TO.N,unconnected-(U1-27-Pad18)*%
X130302000Y-77859000D03*
%TO.P,U1,19,28*%
%TO.N,unconnected-(U1-28-Pad19)*%
X127762000Y-77859000D03*
%TO.P,U1,20,29*%
%TO.N,unconnected-(U1-29-Pad20)*%
X125222000Y-77859000D03*
%TO.P,U1,21,3V3*%
%TO.N,unconnected-(U1-3V3-Pad21)*%
X122682000Y-77859000D03*
%TO.P,U1,22,GND*%
%TO.N,Net-(U1-GND)*%
X120142000Y-77859000D03*
%TO.P,U1,23,5V*%
%TO.N,unconnected-(U1-5V-Pad23)*%
X117602000Y-77859000D03*
%TD*%
D19*
%TO.N,Net-(U1-2)*%
X118775000Y-97525000D02*
X118775000Y-99650000D01*
X118750000Y-97500000D02*
X118775000Y-97525000D01*
X120000000Y-96250000D02*
X118750000Y-97500000D01*
X121750000Y-96250000D02*
X120000000Y-96250000D01*
X122682000Y-95318000D02*
X121750000Y-96250000D01*
X122682000Y-93599000D02*
X122682000Y-95318000D01*
%TO.N,Net-(J1-Pad1)*%
X154686000Y-74739500D02*
X154686000Y-80359250D01*
X154686000Y-69119750D02*
X154686000Y-74739500D01*
X155609250Y-80359250D02*
X154686000Y-80359250D01*
X162918000Y-81700000D02*
X156950000Y-81700000D01*
X156950000Y-81700000D02*
X155609250Y-80359250D01*
%TO.N,Net-(J1-Pad2)*%
X154686000Y-85979000D02*
X155021000Y-85979000D01*
X154686000Y-91598750D02*
X154686000Y-85979000D01*
X155021000Y-85979000D02*
X157010000Y-83990000D01*
X157010000Y-83990000D02*
X162918000Y-83990000D01*
X154686000Y-97218500D02*
X154686000Y-91598750D01*
%TO.N,Net-(J1-Pad3)*%
X154686000Y-108458000D02*
X154686000Y-102838250D01*
X157000000Y-88500000D02*
X159220000Y-86280000D01*
X154686000Y-102838250D02*
X157000000Y-100524250D01*
X159220000Y-86280000D02*
X162918000Y-86280000D01*
X157000000Y-100524250D02*
X157000000Y-88500000D01*
%TO.N,Net-(J1-Pad13)*%
X167470000Y-86280000D02*
X166878000Y-86280000D01*
X154686000Y-63500000D02*
X157000000Y-65814000D01*
X168750000Y-85000000D02*
X167470000Y-86280000D01*
X159250000Y-77750000D02*
X166500000Y-77750000D01*
X157000000Y-65814000D02*
X157000000Y-75500000D01*
X168750000Y-80000000D02*
X168750000Y-85000000D01*
X157000000Y-75500000D02*
X159250000Y-77750000D01*
X166500000Y-77750000D02*
X168750000Y-80000000D01*
%TO.N,Net-(U1-GND)*%
X164898000Y-82845000D02*
X164898000Y-85135000D01*
X164898000Y-80555000D02*
X164898000Y-82845000D01*
%TO.N,Net-(U1-7)*%
X135382000Y-93599000D02*
X135382000Y-99382000D01*
X144458000Y-108458000D02*
X144526000Y-108458000D01*
X135382000Y-99382000D02*
X144458000Y-108458000D01*
%TO.N,Net-(U1-8)*%
X137922000Y-98172000D02*
X137922000Y-93599000D01*
X142588250Y-102838250D02*
X137922000Y-98172000D01*
X144526000Y-102838250D02*
X142588250Y-102838250D01*
%TO.N,Net-(U1-12)*%
X141311000Y-83439000D02*
X144390750Y-80359250D01*
X137922000Y-83439000D02*
X141311000Y-83439000D01*
X144390750Y-80359250D02*
X144526000Y-80359250D01*
%TO.N,Net-(U1-13)*%
X142250000Y-79750000D02*
X142250000Y-77015500D01*
X141101000Y-80899000D02*
X142250000Y-79750000D01*
X142250000Y-77015500D02*
X144526000Y-74739500D01*
X137922000Y-80899000D02*
X141101000Y-80899000D01*
%TO.N,Net-(U1-14)*%
X137922000Y-73828000D02*
X142630250Y-69119750D01*
X137922000Y-78359000D02*
X137922000Y-73828000D01*
X142630250Y-69119750D02*
X144526000Y-69119750D01*
%TO.N,Net-(U1-9)*%
X137922000Y-91059000D02*
X141059000Y-91059000D01*
X141059000Y-91059000D02*
X142250000Y-92250000D01*
X142250000Y-92250000D02*
X142250000Y-94942500D01*
X142250000Y-94942500D02*
X144526000Y-97218500D01*
%TO.N,Net-(U1-10)*%
X144348750Y-91598750D02*
X144526000Y-91598750D01*
X141269000Y-88519000D02*
X144348750Y-91598750D01*
X137922000Y-88519000D02*
X141269000Y-88519000D01*
%TO.N,Net-(U1-11)*%
X137922000Y-85979000D02*
X144526000Y-85979000D01*
%TO.N,Net-(U1-15)*%
X135382000Y-78359000D02*
X135382000Y-72644000D01*
X135382000Y-72644000D02*
X144526000Y-63500000D01*
%TD*%
%TA.AperFunction,Conductor*%
%TO.N,Net-(U1-GND)*%
G36*
X165941278Y-60020185D02*
G01*
X165987033Y-60072989D01*
X165996977Y-60142147D01*
X165967952Y-60205703D01*
X165950712Y-60222111D01*
X165723844Y-60399850D01*
X165488064Y-60635630D01*
X165282422Y-60898112D01*
X165109909Y-61183484D01*
X165109908Y-61183486D01*
X164973056Y-61487559D01*
X164973050Y-61487574D01*
X164873857Y-61805900D01*
X164813747Y-62133903D01*
X164793615Y-62466741D01*
X164813747Y-62799578D01*
X164813747Y-62799583D01*
X164813748Y-62799584D01*
X164873855Y-63127573D01*
X164873856Y-63127577D01*
X164873857Y-63127581D01*
X164973050Y-63445907D01*
X164973054Y-63445919D01*
X164973057Y-63445926D01*
X165109910Y-63750000D01*
X165228697Y-63946497D01*
X165282422Y-64035369D01*
X165488064Y-64297851D01*
X165723844Y-64533631D01*
X165986326Y-64739273D01*
X165986331Y-64739276D01*
X165986335Y-64739279D01*
X166271696Y-64911786D01*
X166575770Y-65048639D01*
X166575783Y-65048643D01*
X166575788Y-65048645D01*
X166788005Y-65114773D01*
X166894123Y-65147841D01*
X167222112Y-65207948D01*
X167554955Y-65228081D01*
X167887798Y-65207948D01*
X168215787Y-65147841D01*
X168534140Y-65048639D01*
X168838214Y-64911786D01*
X169123575Y-64739279D01*
X169139583Y-64726738D01*
X169200156Y-64679281D01*
X169386062Y-64533634D01*
X169621848Y-64297848D01*
X169777889Y-64098676D01*
X169834729Y-64058043D01*
X169904513Y-64054591D01*
X169965086Y-64089415D01*
X169997216Y-64151459D01*
X169999500Y-64175149D01*
X169999500Y-107758332D01*
X169979815Y-107825371D01*
X169927011Y-107871126D01*
X169857853Y-107881070D01*
X169794297Y-107852045D01*
X169777889Y-107834805D01*
X169621845Y-107635630D01*
X169386065Y-107399850D01*
X169123583Y-107194208D01*
X169087452Y-107172366D01*
X168838214Y-107021696D01*
X168534140Y-106884843D01*
X168534133Y-106884840D01*
X168534121Y-106884836D01*
X168215795Y-106785643D01*
X168215791Y-106785642D01*
X168215787Y-106785641D01*
X167887798Y-106725534D01*
X167887797Y-106725533D01*
X167887792Y-106725533D01*
X167554955Y-106705401D01*
X167222117Y-106725533D01*
X167222112Y-106725534D01*
X166894123Y-106785641D01*
X166894120Y-106785641D01*
X166894114Y-106785643D01*
X166575788Y-106884836D01*
X166575772Y-106884842D01*
X166575770Y-106884843D01*
X166501874Y-106918101D01*
X166271700Y-107021694D01*
X166271698Y-107021695D01*
X165986326Y-107194208D01*
X165723844Y-107399850D01*
X165488064Y-107635630D01*
X165282422Y-107898112D01*
X165109909Y-108183484D01*
X165109908Y-108183486D01*
X164973056Y-108487559D01*
X164973050Y-108487574D01*
X164873857Y-108805900D01*
X164873855Y-108805906D01*
X164873855Y-108805909D01*
X164855788Y-108904496D01*
X164813747Y-109133903D01*
X164793615Y-109466741D01*
X164813747Y-109799578D01*
X164813747Y-109799583D01*
X164813748Y-109799584D01*
X164873855Y-110127573D01*
X164873856Y-110127577D01*
X164873857Y-110127581D01*
X164973050Y-110445907D01*
X164973054Y-110445919D01*
X164973057Y-110445926D01*
X165109910Y-110750000D01*
X165282417Y-111035361D01*
X165282422Y-111035369D01*
X165488064Y-111297851D01*
X165723844Y-111533631D01*
X165986326Y-111739273D01*
X165986331Y-111739276D01*
X165986335Y-111739279D01*
X166036135Y-111769384D01*
X166083322Y-111820911D01*
X166095160Y-111889771D01*
X166067891Y-111954099D01*
X166010172Y-111993473D01*
X165971984Y-111999500D01*
X120137738Y-111999500D01*
X120070699Y-111979815D01*
X120024944Y-111927011D01*
X120015000Y-111857853D01*
X120044025Y-111794297D01*
X120065699Y-111774885D01*
X120065671Y-111774849D01*
X120066225Y-111774414D01*
X120067317Y-111773437D01*
X120068610Y-111772544D01*
X120068620Y-111772538D01*
X120331107Y-111566893D01*
X120566893Y-111331107D01*
X120772538Y-111068620D01*
X120945045Y-110783259D01*
X121081898Y-110479185D01*
X121181100Y-110160832D01*
X121241207Y-109832843D01*
X121261340Y-109500000D01*
X121241207Y-109167157D01*
X121181100Y-108839168D01*
X121081898Y-108520815D01*
X120945045Y-108216741D01*
X120772538Y-107931380D01*
X120772535Y-107931376D01*
X120772532Y-107931371D01*
X120566890Y-107668889D01*
X120331110Y-107433109D01*
X120068628Y-107227467D01*
X120013611Y-107194208D01*
X119783259Y-107054955D01*
X119479185Y-106918102D01*
X119479178Y-106918099D01*
X119479166Y-106918095D01*
X119160840Y-106818902D01*
X119160836Y-106818901D01*
X119160832Y-106818900D01*
X118832843Y-106758793D01*
X118832842Y-106758792D01*
X118832837Y-106758792D01*
X118500000Y-106738660D01*
X118167162Y-106758792D01*
X118167157Y-106758793D01*
X117839168Y-106818900D01*
X117839165Y-106818900D01*
X117839159Y-106818902D01*
X117520833Y-106918095D01*
X117520817Y-106918101D01*
X117520815Y-106918102D01*
X117438178Y-106955294D01*
X117216745Y-107054953D01*
X117216743Y-107054954D01*
X116931371Y-107227467D01*
X116668889Y-107433109D01*
X116433109Y-107668889D01*
X116227461Y-107931379D01*
X116226556Y-107932692D01*
X116226220Y-107932964D01*
X116225151Y-107934329D01*
X116224838Y-107934084D01*
X116172277Y-107976687D01*
X116102829Y-107984353D01*
X116040261Y-107953255D01*
X116004439Y-107893267D01*
X116000500Y-107862261D01*
X116000500Y-104150006D01*
X117395288Y-104150006D01*
X117414103Y-104377085D01*
X117414105Y-104377093D01*
X117470045Y-104597993D01*
X117561579Y-104806669D01*
X117641874Y-104929570D01*
X118295951Y-104275495D01*
X118320102Y-104357745D01*
X118397057Y-104477489D01*
X118504631Y-104570702D01*
X118634108Y-104629833D01*
X118646882Y-104631669D01*
X117994015Y-105284536D01*
X117994015Y-105284538D01*
X118020360Y-105305043D01*
X118020371Y-105305050D01*
X118220769Y-105413499D01*
X118220780Y-105413504D01*
X118436298Y-105487492D01*
X118661065Y-105525000D01*
X118888935Y-105525000D01*
X119113701Y-105487492D01*
X119329219Y-105413504D01*
X119329230Y-105413499D01*
X119527506Y-105306199D01*
X119595834Y-105291604D01*
X119661206Y-105316267D01*
X119702867Y-105372358D01*
X119710140Y-105405523D01*
X119710769Y-105413504D01*
X119728853Y-105643297D01*
X119785830Y-105880619D01*
X119879222Y-106106089D01*
X120006737Y-106314173D01*
X120006738Y-106314176D01*
X120006741Y-106314179D01*
X120165241Y-106499759D01*
X120308897Y-106622453D01*
X120350823Y-106658261D01*
X120350826Y-106658262D01*
X120558910Y-106785777D01*
X120784381Y-106879169D01*
X120784378Y-106879169D01*
X120784384Y-106879170D01*
X120784388Y-106879172D01*
X121021698Y-106936146D01*
X121265000Y-106955294D01*
X121508302Y-106936146D01*
X121745612Y-106879172D01*
X121971089Y-106785777D01*
X122179179Y-106658259D01*
X122364759Y-106499759D01*
X122523259Y-106314179D01*
X122650777Y-106106089D01*
X122744172Y-105880612D01*
X122801146Y-105643302D01*
X122820294Y-105400000D01*
X122801146Y-105156698D01*
X122744172Y-104919388D01*
X122650777Y-104693911D01*
X122650777Y-104693910D01*
X122523262Y-104485826D01*
X122523261Y-104485823D01*
X122487453Y-104443897D01*
X122364759Y-104300241D01*
X122200072Y-104159585D01*
X122179176Y-104141738D01*
X122179173Y-104141737D01*
X121971089Y-104014222D01*
X121745618Y-103920830D01*
X121745621Y-103920830D01*
X121639992Y-103895470D01*
X121508302Y-103863854D01*
X121508300Y-103863853D01*
X121508297Y-103863853D01*
X121265000Y-103844706D01*
X121021702Y-103863853D01*
X120784380Y-103920830D01*
X120558910Y-104014222D01*
X120350826Y-104141737D01*
X120346885Y-104144601D01*
X120346214Y-104143677D01*
X120287363Y-104170035D01*
X120218280Y-104159585D01*
X120165812Y-104113444D01*
X120147039Y-104057410D01*
X120135894Y-103922905D01*
X120079954Y-103702006D01*
X119988421Y-103493333D01*
X119908123Y-103370427D01*
X119254048Y-104024503D01*
X119229898Y-103942255D01*
X119152943Y-103822511D01*
X119045369Y-103729298D01*
X118915892Y-103670167D01*
X118903117Y-103668330D01*
X119555983Y-103015462D01*
X119529626Y-102994948D01*
X119329230Y-102886500D01*
X119329219Y-102886495D01*
X119113701Y-102812507D01*
X118888935Y-102775000D01*
X118661065Y-102775000D01*
X118436298Y-102812507D01*
X118220780Y-102886495D01*
X118220769Y-102886500D01*
X118020366Y-102994952D01*
X117994015Y-103015461D01*
X117994015Y-103015463D01*
X118646883Y-103668330D01*
X118634108Y-103670167D01*
X118504631Y-103729298D01*
X118397057Y-103822511D01*
X118320102Y-103942255D01*
X118295951Y-104024504D01*
X117641874Y-103370427D01*
X117561579Y-103493330D01*
X117470045Y-103702006D01*
X117414105Y-103922906D01*
X117414103Y-103922914D01*
X117395288Y-104149993D01*
X117395288Y-104150006D01*
X116000500Y-104150006D01*
X116000500Y-92103500D01*
X116020185Y-92036461D01*
X116072989Y-91990706D01*
X116124500Y-91979500D01*
X136987240Y-91979500D01*
X136987381Y-91979528D01*
X136987382Y-91979524D01*
X137011999Y-91979540D01*
X137012000Y-91979541D01*
X137012000Y-91979540D01*
X137028570Y-91979552D01*
X137095596Y-91999282D01*
X137110068Y-92010168D01*
X137184004Y-92074765D01*
X137377236Y-92190215D01*
X137432389Y-92210914D01*
X137488237Y-92252900D01*
X137512520Y-92318414D01*
X137497529Y-92386656D01*
X137448022Y-92435960D01*
X137433593Y-92442162D01*
X137433651Y-92442297D01*
X137428536Y-92444482D01*
X137230321Y-92551146D01*
X137230318Y-92551148D01*
X137054336Y-92691489D01*
X136906236Y-92861003D01*
X136790787Y-93054232D01*
X136790782Y-93054241D01*
X136768691Y-93113102D01*
X136726705Y-93168950D01*
X136661191Y-93193232D01*
X136592949Y-93178240D01*
X136543645Y-93128733D01*
X136540899Y-93123373D01*
X136459829Y-92955027D01*
X136365714Y-92825489D01*
X136327526Y-92772927D01*
X136327525Y-92772925D01*
X136164823Y-92617366D01*
X135976966Y-92493363D01*
X135769995Y-92404899D01*
X135769982Y-92404895D01*
X135550542Y-92354810D01*
X135550538Y-92354809D01*
X135550537Y-92354809D01*
X135550536Y-92354808D01*
X135550531Y-92354808D01*
X135325674Y-92344710D01*
X135325673Y-92344710D01*
X135325670Y-92344710D01*
X135102613Y-92374925D01*
X135102610Y-92374925D01*
X135102609Y-92374926D01*
X134888534Y-92444483D01*
X134690321Y-92551146D01*
X134690318Y-92551148D01*
X134514336Y-92691489D01*
X134366236Y-92861003D01*
X134250787Y-93054232D01*
X134250782Y-93054241D01*
X134228691Y-93113102D01*
X134186705Y-93168950D01*
X134121191Y-93193232D01*
X134052949Y-93178240D01*
X134003645Y-93128733D01*
X134000899Y-93123373D01*
X133919829Y-92955027D01*
X133825714Y-92825489D01*
X133787526Y-92772927D01*
X133787525Y-92772925D01*
X133624823Y-92617366D01*
X133436966Y-92493363D01*
X133229995Y-92404899D01*
X133229982Y-92404895D01*
X133010542Y-92354810D01*
X133010538Y-92354809D01*
X133010537Y-92354809D01*
X133010536Y-92354808D01*
X133010531Y-92354808D01*
X132785674Y-92344710D01*
X132785673Y-92344710D01*
X132785670Y-92344710D01*
X132562613Y-92374925D01*
X132562610Y-92374925D01*
X132562609Y-92374926D01*
X132348534Y-92444483D01*
X132150321Y-92551146D01*
X132150318Y-92551148D01*
X131974336Y-92691489D01*
X131826236Y-92861003D01*
X131710787Y-93054232D01*
X131710782Y-93054241D01*
X131688691Y-93113102D01*
X131646705Y-93168950D01*
X131581191Y-93193232D01*
X131512949Y-93178240D01*
X131463645Y-93128733D01*
X131460899Y-93123373D01*
X131379829Y-92955027D01*
X131285714Y-92825489D01*
X131247526Y-92772927D01*
X131247525Y-92772925D01*
X131084823Y-92617366D01*
X130896966Y-92493363D01*
X130689995Y-92404899D01*
X130689982Y-92404895D01*
X130470542Y-92354810D01*
X130470538Y-92354809D01*
X130470537Y-92354809D01*
X130470536Y-92354808D01*
X130470531Y-92354808D01*
X130245674Y-92344710D01*
X130245673Y-92344710D01*
X130245670Y-92344710D01*
X130022613Y-92374925D01*
X130022610Y-92374925D01*
X130022609Y-92374926D01*
X129808534Y-92444483D01*
X129610321Y-92551146D01*
X129610318Y-92551148D01*
X129434336Y-92691489D01*
X129286236Y-92861003D01*
X129170787Y-93054232D01*
X129170782Y-93054241D01*
X129148691Y-93113102D01*
X129106705Y-93168950D01*
X129041191Y-93193232D01*
X128972949Y-93178240D01*
X128923645Y-93128733D01*
X128920899Y-93123373D01*
X128839829Y-92955027D01*
X128745714Y-92825489D01*
X128707526Y-92772927D01*
X128707525Y-92772925D01*
X128544823Y-92617366D01*
X128356966Y-92493363D01*
X128149995Y-92404899D01*
X128149982Y-92404895D01*
X127930542Y-92354810D01*
X127930538Y-92354809D01*
X127930537Y-92354809D01*
X127930536Y-92354808D01*
X127930531Y-92354808D01*
X127705674Y-92344710D01*
X127705673Y-92344710D01*
X127705670Y-92344710D01*
X127482613Y-92374925D01*
X127482610Y-92374925D01*
X127482609Y-92374926D01*
X127268534Y-92444483D01*
X127070321Y-92551146D01*
X127070318Y-92551148D01*
X126894336Y-92691489D01*
X126746236Y-92861003D01*
X126630787Y-93054232D01*
X126630782Y-93054241D01*
X126608691Y-93113102D01*
X126566705Y-93168950D01*
X126501191Y-93193232D01*
X126432949Y-93178240D01*
X126383645Y-93128733D01*
X126380899Y-93123373D01*
X126299829Y-92955027D01*
X126205714Y-92825489D01*
X126167526Y-92772927D01*
X126167525Y-92772925D01*
X126004823Y-92617366D01*
X125816966Y-92493363D01*
X125609995Y-92404899D01*
X125609982Y-92404895D01*
X125390542Y-92354810D01*
X125390538Y-92354809D01*
X125390537Y-92354809D01*
X125390536Y-92354808D01*
X125390531Y-92354808D01*
X125165674Y-92344710D01*
X125165673Y-92344710D01*
X125165670Y-92344710D01*
X124942613Y-92374925D01*
X124942610Y-92374925D01*
X124942609Y-92374926D01*
X124728534Y-92444483D01*
X124530321Y-92551146D01*
X124530318Y-92551148D01*
X124354336Y-92691489D01*
X124206236Y-92861003D01*
X124090787Y-93054232D01*
X124090782Y-93054241D01*
X124068691Y-93113102D01*
X124026705Y-93168950D01*
X123961191Y-93193232D01*
X123892949Y-93178240D01*
X123843645Y-93128733D01*
X123840899Y-93123373D01*
X123759829Y-92955027D01*
X123665714Y-92825489D01*
X123627526Y-92772927D01*
X123627525Y-92772925D01*
X123464823Y-92617366D01*
X123276966Y-92493363D01*
X123069995Y-92404899D01*
X123069982Y-92404895D01*
X122850542Y-92354810D01*
X122850538Y-92354809D01*
X122850537Y-92354809D01*
X122850536Y-92354808D01*
X122850531Y-92354808D01*
X122625674Y-92344710D01*
X122625673Y-92344710D01*
X122625670Y-92344710D01*
X122402613Y-92374925D01*
X122402610Y-92374925D01*
X122402609Y-92374926D01*
X122188534Y-92444483D01*
X121990321Y-92551146D01*
X121990318Y-92551148D01*
X121814336Y-92691489D01*
X121666236Y-92861003D01*
X121550787Y-93054232D01*
X121550782Y-93054241D01*
X121528691Y-93113102D01*
X121486705Y-93168950D01*
X121421191Y-93193232D01*
X121352949Y-93178240D01*
X121303645Y-93128733D01*
X121300899Y-93123373D01*
X121219829Y-92955027D01*
X121125714Y-92825489D01*
X121087526Y-92772927D01*
X121087525Y-92772925D01*
X120924823Y-92617366D01*
X120736966Y-92493363D01*
X120529995Y-92404899D01*
X120529982Y-92404895D01*
X120310542Y-92354810D01*
X120310538Y-92354809D01*
X120310537Y-92354809D01*
X120310536Y-92354808D01*
X120310531Y-92354808D01*
X120085674Y-92344710D01*
X120085673Y-92344710D01*
X120085670Y-92344710D01*
X119862613Y-92374925D01*
X119862610Y-92374925D01*
X119862609Y-92374926D01*
X119648534Y-92444483D01*
X119450321Y-92551146D01*
X119450318Y-92551148D01*
X119274336Y-92691489D01*
X119126236Y-92861003D01*
X119010787Y-93054232D01*
X119010782Y-93054241D01*
X118988691Y-93113102D01*
X118946705Y-93168950D01*
X118881191Y-93193232D01*
X118812949Y-93178240D01*
X118763645Y-93128733D01*
X118760899Y-93123373D01*
X118679829Y-92955027D01*
X118585714Y-92825489D01*
X118547526Y-92772927D01*
X118547525Y-92772925D01*
X118384823Y-92617366D01*
X118196966Y-92493363D01*
X117989995Y-92404899D01*
X117989982Y-92404895D01*
X117770542Y-92354810D01*
X117770538Y-92354809D01*
X117770537Y-92354809D01*
X117770536Y-92354808D01*
X117770531Y-92354808D01*
X117545674Y-92344710D01*
X117545673Y-92344710D01*
X117545670Y-92344710D01*
X117322613Y-92374925D01*
X117322610Y-92374925D01*
X117322609Y-92374926D01*
X117108534Y-92444483D01*
X116910321Y-92551146D01*
X116910318Y-92551148D01*
X116734336Y-92691489D01*
X116586236Y-92861003D01*
X116470787Y-93054232D01*
X116470786Y-93054234D01*
X116391692Y-93264976D01*
X116351500Y-93486450D01*
X116351500Y-94655151D01*
X116366622Y-94823186D01*
X116366623Y-94823192D01*
X116426503Y-95040160D01*
X116426508Y-95040173D01*
X116524167Y-95242966D01*
X116524171Y-95242974D01*
X116656473Y-95425072D01*
X116656474Y-95425074D01*
X116656477Y-95425077D01*
X116656478Y-95425078D01*
X116741647Y-95506508D01*
X116819176Y-95580633D01*
X117007033Y-95704636D01*
X117214004Y-95793100D01*
X117214007Y-95793101D01*
X117214012Y-95793103D01*
X117433463Y-95843191D01*
X117658330Y-95853290D01*
X117881387Y-95823075D01*
X118095464Y-95753517D01*
X118293681Y-95646852D01*
X118469666Y-95506508D01*
X118617765Y-95336996D01*
X118733215Y-95143764D01*
X118755307Y-95084897D01*
X118797292Y-95029051D01*
X118862806Y-95004767D01*
X118931048Y-95019758D01*
X118980353Y-95069264D01*
X118983120Y-95074668D01*
X119064167Y-95242966D01*
X119064171Y-95242974D01*
X119196473Y-95425072D01*
X119196474Y-95425074D01*
X119196477Y-95425077D01*
X119196478Y-95425078D01*
X119359175Y-95580632D01*
X119382238Y-95595856D01*
X119427342Y-95649212D01*
X119436440Y-95718487D01*
X119406641Y-95781684D01*
X119401608Y-95787023D01*
X118237309Y-96951321D01*
X118232065Y-96956269D01*
X118185543Y-96997671D01*
X118185541Y-96997673D01*
X118149827Y-97048678D01*
X118145523Y-97054459D01*
X118106890Y-97103321D01*
X118106888Y-97103322D01*
X118102144Y-97113496D01*
X118091348Y-97132195D01*
X118084912Y-97141387D01*
X118061927Y-97199243D01*
X118059072Y-97205862D01*
X118032742Y-97262329D01*
X118032741Y-97262331D01*
X118030472Y-97273320D01*
X118024279Y-97294006D01*
X118020138Y-97304431D01*
X118020137Y-97304435D01*
X118011111Y-97366050D01*
X118009859Y-97373150D01*
X117997267Y-97434133D01*
X117997266Y-97434143D01*
X117997592Y-97445365D01*
X117996335Y-97466929D01*
X117994711Y-97478014D01*
X117994711Y-97478023D01*
X118000136Y-97540039D01*
X118000555Y-97547235D01*
X118002368Y-97609509D01*
X118002369Y-97609514D01*
X118005270Y-97620340D01*
X118009023Y-97641625D01*
X118010000Y-97652796D01*
X118010000Y-97652798D01*
X118018205Y-97677556D01*
X118024500Y-97716562D01*
X118024500Y-98430482D01*
X118004815Y-98497521D01*
X117976663Y-98528335D01*
X117840208Y-98634542D01*
X117685814Y-98802257D01*
X117561137Y-98993091D01*
X117469569Y-99201844D01*
X117413610Y-99422820D01*
X117413608Y-99422831D01*
X117394786Y-99649993D01*
X117394786Y-99650006D01*
X117413608Y-99877168D01*
X117413610Y-99877179D01*
X117469569Y-100098155D01*
X117561137Y-100306908D01*
X117685814Y-100497742D01*
X117840208Y-100665458D01*
X117840212Y-100665461D01*
X118020090Y-100805466D01*
X118020094Y-100805469D01*
X118020096Y-100805470D01*
X118020099Y-100805472D01*
X118101809Y-100849691D01*
X118220574Y-100913963D01*
X118332529Y-100952397D01*
X118436173Y-100987979D01*
X118436175Y-100987979D01*
X118436177Y-100987980D01*
X118661023Y-101025500D01*
X118661024Y-101025500D01*
X118888976Y-101025500D01*
X118888977Y-101025500D01*
X119113823Y-100987980D01*
X119329426Y-100913963D01*
X119529906Y-100805469D01*
X119709794Y-100665456D01*
X119864183Y-100497745D01*
X119988862Y-100306909D01*
X120080430Y-100098155D01*
X120136390Y-99877176D01*
X120148282Y-99733647D01*
X120173436Y-99668465D01*
X120229838Y-99627226D01*
X120299581Y-99623028D01*
X120346122Y-99646448D01*
X120346885Y-99645399D01*
X120350816Y-99648254D01*
X120350821Y-99648259D01*
X120350826Y-99648262D01*
X120558910Y-99775777D01*
X120585583Y-99786825D01*
X120758548Y-99858469D01*
X120784381Y-99869169D01*
X120784378Y-99869169D01*
X120784384Y-99869170D01*
X120784388Y-99869172D01*
X121021698Y-99926146D01*
X121265000Y-99945294D01*
X121508302Y-99926146D01*
X121745612Y-99869172D01*
X121971089Y-99775777D01*
X122179179Y-99648259D01*
X122364759Y-99489759D01*
X122523259Y-99304179D01*
X122650777Y-99096089D01*
X122744172Y-98870612D01*
X122801146Y-98633302D01*
X122820294Y-98390000D01*
X122801146Y-98146698D01*
X122744172Y-97909388D01*
X122736987Y-97892041D01*
X122650777Y-97683910D01*
X122523262Y-97475826D01*
X122523261Y-97475823D01*
X122487453Y-97433897D01*
X122364759Y-97290241D01*
X122242063Y-97185449D01*
X122179176Y-97131738D01*
X122179173Y-97131737D01*
X122136512Y-97105594D01*
X122089637Y-97053782D01*
X122078214Y-96984853D01*
X122105871Y-96920690D01*
X122133154Y-96896272D01*
X122151867Y-96883964D01*
X122154731Y-96882140D01*
X122218656Y-96842712D01*
X122218662Y-96842705D01*
X122224325Y-96838229D01*
X122224363Y-96838277D01*
X122230200Y-96833522D01*
X122230161Y-96833475D01*
X122235691Y-96828833D01*
X122235696Y-96828830D01*
X122287184Y-96774254D01*
X122289631Y-96771735D01*
X123167642Y-95893724D01*
X123181271Y-95881947D01*
X123200530Y-95867610D01*
X123212546Y-95853289D01*
X123232360Y-95829676D01*
X123239677Y-95821691D01*
X123243587Y-95817781D01*
X123243587Y-95817780D01*
X123243591Y-95817777D01*
X123262833Y-95793438D01*
X123265069Y-95790693D01*
X123313302Y-95733214D01*
X123313307Y-95733203D01*
X123317274Y-95727175D01*
X123317324Y-95727208D01*
X123321370Y-95720856D01*
X123321319Y-95720824D01*
X123325102Y-95714687D01*
X123325111Y-95714677D01*
X123334403Y-95694748D01*
X123369472Y-95650208D01*
X123373678Y-95646853D01*
X123373681Y-95646852D01*
X123549666Y-95506508D01*
X123697765Y-95336996D01*
X123813215Y-95143764D01*
X123835307Y-95084897D01*
X123877292Y-95029051D01*
X123942806Y-95004767D01*
X124011048Y-95019758D01*
X124060353Y-95069264D01*
X124063120Y-95074668D01*
X124144167Y-95242966D01*
X124144171Y-95242974D01*
X124276473Y-95425072D01*
X124276474Y-95425074D01*
X124276477Y-95425077D01*
X124276478Y-95425078D01*
X124361647Y-95506508D01*
X124439176Y-95580633D01*
X124627033Y-95704636D01*
X124834004Y-95793100D01*
X124834007Y-95793101D01*
X124834012Y-95793103D01*
X125053463Y-95843191D01*
X125278330Y-95853290D01*
X125501387Y-95823075D01*
X125715464Y-95753517D01*
X125913681Y-95646852D01*
X126089666Y-95506508D01*
X126237765Y-95336996D01*
X126353215Y-95143764D01*
X126375307Y-95084897D01*
X126417292Y-95029051D01*
X126482806Y-95004767D01*
X126551048Y-95019758D01*
X126600353Y-95069264D01*
X126603120Y-95074668D01*
X126684167Y-95242966D01*
X126684171Y-95242974D01*
X126816473Y-95425072D01*
X126816474Y-95425074D01*
X126816477Y-95425077D01*
X126816478Y-95425078D01*
X126901647Y-95506508D01*
X126979176Y-95580633D01*
X127167033Y-95704636D01*
X127374004Y-95793100D01*
X127374007Y-95793101D01*
X127374012Y-95793103D01*
X127593463Y-95843191D01*
X127818330Y-95853290D01*
X128041387Y-95823075D01*
X128255464Y-95753517D01*
X128453681Y-95646852D01*
X128629666Y-95506508D01*
X128777765Y-95336996D01*
X128893215Y-95143764D01*
X128915307Y-95084897D01*
X128957292Y-95029051D01*
X129022806Y-95004767D01*
X129091048Y-95019758D01*
X129140353Y-95069264D01*
X129143120Y-95074668D01*
X129224167Y-95242966D01*
X129224171Y-95242974D01*
X129356473Y-95425072D01*
X129356474Y-95425074D01*
X129356477Y-95425077D01*
X129356478Y-95425078D01*
X129441647Y-95506508D01*
X129519176Y-95580633D01*
X129707033Y-95704636D01*
X129914004Y-95793100D01*
X129914007Y-95793101D01*
X129914012Y-95793103D01*
X130133463Y-95843191D01*
X130358330Y-95853290D01*
X130581387Y-95823075D01*
X130795464Y-95753517D01*
X130993681Y-95646852D01*
X131169666Y-95506508D01*
X131317765Y-95336996D01*
X131433215Y-95143764D01*
X131455307Y-95084897D01*
X131497292Y-95029051D01*
X131562806Y-95004767D01*
X131631048Y-95019758D01*
X131680353Y-95069264D01*
X131683120Y-95074668D01*
X131764167Y-95242966D01*
X131764171Y-95242974D01*
X131896473Y-95425072D01*
X131896474Y-95425074D01*
X131896477Y-95425077D01*
X131896478Y-95425078D01*
X131981647Y-95506508D01*
X132059176Y-95580633D01*
X132247033Y-95704636D01*
X132454004Y-95793100D01*
X132454007Y-95793101D01*
X132454012Y-95793103D01*
X132673463Y-95843191D01*
X132898330Y-95853290D01*
X133121387Y-95823075D01*
X133335464Y-95753517D01*
X133533681Y-95646852D01*
X133709666Y-95506508D01*
X133857765Y-95336996D01*
X133973215Y-95143764D01*
X133995307Y-95084897D01*
X134037292Y-95029051D01*
X134102806Y-95004767D01*
X134171048Y-95019758D01*
X134220353Y-95069264D01*
X134223120Y-95074668D01*
X134304167Y-95242966D01*
X134304171Y-95242974D01*
X134436473Y-95425072D01*
X134436475Y-95425074D01*
X134436478Y-95425078D01*
X134593191Y-95574911D01*
X134628044Y-95635466D01*
X134631500Y-95664537D01*
X134631500Y-99318294D01*
X134630191Y-99336263D01*
X134626710Y-99360025D01*
X134631028Y-99409368D01*
X134631500Y-99420176D01*
X134631500Y-99425711D01*
X134635098Y-99456495D01*
X134635464Y-99460083D01*
X134642000Y-99534791D01*
X134643461Y-99541867D01*
X134643403Y-99541878D01*
X134645034Y-99549237D01*
X134645092Y-99549224D01*
X134646757Y-99556249D01*
X134646758Y-99556254D01*
X134646759Y-99556255D01*
X134671061Y-99623028D01*
X134672400Y-99626705D01*
X134673582Y-99630107D01*
X134697182Y-99701326D01*
X134700236Y-99707874D01*
X134700182Y-99707898D01*
X134703470Y-99714688D01*
X134703521Y-99714663D01*
X134706761Y-99721114D01*
X134747979Y-99783784D01*
X134749889Y-99786782D01*
X134780972Y-99837174D01*
X134789289Y-99850658D01*
X134793766Y-99856319D01*
X134793719Y-99856356D01*
X134798482Y-99862202D01*
X134798528Y-99862164D01*
X134803173Y-99867699D01*
X134857708Y-99919150D01*
X134860296Y-99921664D01*
X143193812Y-108255179D01*
X143227297Y-108316502D01*
X143229659Y-108353666D01*
X143220532Y-108457996D01*
X143220532Y-108458001D01*
X143240364Y-108684686D01*
X143240366Y-108684697D01*
X143299258Y-108904488D01*
X143299261Y-108904497D01*
X143395431Y-109110732D01*
X143395432Y-109110734D01*
X143525954Y-109297141D01*
X143686858Y-109458045D01*
X143686861Y-109458047D01*
X143873266Y-109588568D01*
X144079504Y-109684739D01*
X144299308Y-109743635D01*
X144461230Y-109757801D01*
X144525998Y-109763468D01*
X144526000Y-109763468D01*
X144526002Y-109763468D01*
X144582673Y-109758509D01*
X144752692Y-109743635D01*
X144972496Y-109684739D01*
X145178734Y-109588568D01*
X145365139Y-109458047D01*
X145526047Y-109297139D01*
X145656568Y-109110734D01*
X145752739Y-108904496D01*
X145811635Y-108684692D01*
X145831468Y-108458001D01*
X153380532Y-108458001D01*
X153400364Y-108684686D01*
X153400366Y-108684697D01*
X153459258Y-108904488D01*
X153459261Y-108904497D01*
X153555431Y-109110732D01*
X153555432Y-109110734D01*
X153685954Y-109297141D01*
X153846858Y-109458045D01*
X153846861Y-109458047D01*
X154033266Y-109588568D01*
X154239504Y-109684739D01*
X154459308Y-109743635D01*
X154621230Y-109757801D01*
X154685998Y-109763468D01*
X154686000Y-109763468D01*
X154686002Y-109763468D01*
X154742673Y-109758509D01*
X154912692Y-109743635D01*
X155132496Y-109684739D01*
X155338734Y-109588568D01*
X155525139Y-109458047D01*
X155686047Y-109297139D01*
X155816568Y-109110734D01*
X155912739Y-108904496D01*
X155971635Y-108684692D01*
X155991468Y-108458000D01*
X155971635Y-108231308D01*
X155912739Y-108011504D01*
X155816568Y-107805266D01*
X155751307Y-107712063D01*
X155686048Y-107618862D01*
X155686044Y-107618858D01*
X155525139Y-107457953D01*
X155520373Y-107454615D01*
X155489375Y-107432910D01*
X155445751Y-107378332D01*
X155436500Y-107331336D01*
X155436500Y-103964912D01*
X155456185Y-103897873D01*
X155489379Y-103863336D01*
X155525140Y-103838296D01*
X155686045Y-103677391D01*
X155686047Y-103677389D01*
X155816568Y-103490984D01*
X155912739Y-103284746D01*
X155971635Y-103064942D01*
X155991468Y-102838250D01*
X155976869Y-102671387D01*
X155990635Y-102602889D01*
X156012713Y-102572903D01*
X157485638Y-101099977D01*
X157499267Y-101088200D01*
X157518530Y-101073860D01*
X157550366Y-101035919D01*
X157557683Y-101027934D01*
X157558993Y-101026622D01*
X157561590Y-101024027D01*
X157580811Y-100999717D01*
X157583094Y-100996914D01*
X157631301Y-100939465D01*
X157635272Y-100933429D01*
X157635323Y-100933462D01*
X157639369Y-100927110D01*
X157639317Y-100927078D01*
X157643105Y-100920933D01*
X157643111Y-100920927D01*
X157674829Y-100852905D01*
X157676369Y-100849726D01*
X157710040Y-100782683D01*
X157710043Y-100782667D01*
X157712510Y-100775894D01*
X157712568Y-100775915D01*
X157715043Y-100768796D01*
X157714985Y-100768777D01*
X157717255Y-100761927D01*
X157717256Y-100761923D01*
X157732431Y-100688421D01*
X157733186Y-100685017D01*
X157750500Y-100611971D01*
X157750500Y-100611969D01*
X157750501Y-100611965D01*
X157751339Y-100604798D01*
X157751397Y-100604804D01*
X157752164Y-100597306D01*
X157752104Y-100597301D01*
X157752733Y-100590110D01*
X157750552Y-100515139D01*
X157750500Y-100511533D01*
X157750500Y-98515005D01*
X162463057Y-98515005D01*
X162482807Y-98828942D01*
X162482808Y-98828949D01*
X162541755Y-99137958D01*
X162638963Y-99437132D01*
X162638965Y-99437137D01*
X162772900Y-99721761D01*
X162772903Y-99721767D01*
X162941457Y-99987367D01*
X162941460Y-99987371D01*
X163032286Y-100097160D01*
X164368000Y-98761446D01*
X164368000Y-99468551D01*
X163382971Y-100453579D01*
X163382972Y-100453581D01*
X163625772Y-100629985D01*
X163625790Y-100629996D01*
X163901447Y-100781540D01*
X163901455Y-100781544D01*
X164193926Y-100897340D01*
X164498620Y-100975573D01*
X164498629Y-100975575D01*
X164810701Y-101014999D01*
X164810715Y-101015000D01*
X165125285Y-101015000D01*
X165125298Y-101014999D01*
X165437370Y-100975575D01*
X165437379Y-100975573D01*
X165742073Y-100897340D01*
X166034544Y-100781544D01*
X166034552Y-100781540D01*
X166310209Y-100629996D01*
X166310219Y-100629990D01*
X166553026Y-100453579D01*
X166553027Y-100453579D01*
X165568000Y-99468552D01*
X165568000Y-98761447D01*
X166903712Y-100097160D01*
X166994544Y-99987364D01*
X167163096Y-99721767D01*
X167163099Y-99721761D01*
X167297034Y-99437137D01*
X167297036Y-99437132D01*
X167394244Y-99137958D01*
X167453191Y-98828949D01*
X167453192Y-98828942D01*
X167472943Y-98515005D01*
X167472943Y-98514994D01*
X167453192Y-98201057D01*
X167453191Y-98201050D01*
X167394244Y-97892041D01*
X167297036Y-97592867D01*
X167297034Y-97592862D01*
X167163099Y-97308238D01*
X167163096Y-97308232D01*
X166994542Y-97042632D01*
X166994539Y-97042628D01*
X166903712Y-96932838D01*
X165568000Y-98268551D01*
X165568000Y-97561447D01*
X166553027Y-96576419D01*
X166553026Y-96576417D01*
X166310227Y-96400014D01*
X166310209Y-96400003D01*
X166034552Y-96248459D01*
X166034544Y-96248455D01*
X165742073Y-96132659D01*
X165437379Y-96054426D01*
X165437370Y-96054424D01*
X165125298Y-96015000D01*
X164810701Y-96015000D01*
X164498629Y-96054424D01*
X164498620Y-96054426D01*
X164193926Y-96132659D01*
X163901455Y-96248455D01*
X163901447Y-96248459D01*
X163625787Y-96400004D01*
X163625782Y-96400007D01*
X163382972Y-96576418D01*
X163382971Y-96576419D01*
X164368000Y-97561447D01*
X164368000Y-98268552D01*
X163032286Y-96932838D01*
X163032285Y-96932838D01*
X162941459Y-97042629D01*
X162941457Y-97042632D01*
X162772903Y-97308232D01*
X162772900Y-97308238D01*
X162638965Y-97592862D01*
X162638963Y-97592867D01*
X162541755Y-97892041D01*
X162482808Y-98201050D01*
X162482807Y-98201057D01*
X162463057Y-98514994D01*
X162463057Y-98515005D01*
X157750500Y-98515005D01*
X157750500Y-88862229D01*
X157770185Y-88795190D01*
X157786819Y-88774548D01*
X159494548Y-87066819D01*
X159555871Y-87033334D01*
X159582229Y-87030500D01*
X161791337Y-87030500D01*
X161858376Y-87050185D01*
X161892912Y-87083377D01*
X161917954Y-87119141D01*
X162078859Y-87280046D01*
X162140811Y-87323425D01*
X162184436Y-87378002D01*
X162191630Y-87447500D01*
X162160107Y-87509855D01*
X162140811Y-87526575D01*
X162078859Y-87569953D01*
X161917954Y-87730858D01*
X161787432Y-87917265D01*
X161787431Y-87917267D01*
X161691261Y-88123502D01*
X161691258Y-88123511D01*
X161632366Y-88343302D01*
X161632364Y-88343313D01*
X161612532Y-88569998D01*
X161612532Y-88570001D01*
X161632364Y-88796686D01*
X161632366Y-88796697D01*
X161691258Y-89016488D01*
X161691261Y-89016497D01*
X161787431Y-89222732D01*
X161787432Y-89222734D01*
X161917954Y-89409141D01*
X162078858Y-89570045D01*
X162144709Y-89616154D01*
X162188334Y-89670730D01*
X162197114Y-89728536D01*
X162192526Y-89780974D01*
X162785466Y-90373913D01*
X162775685Y-90375320D01*
X162644900Y-90435048D01*
X162536239Y-90529202D01*
X162458507Y-90650156D01*
X162434923Y-90730475D01*
X161838974Y-90134526D01*
X161838973Y-90134526D01*
X161787868Y-90207512D01*
X161787866Y-90207516D01*
X161691734Y-90413673D01*
X161691730Y-90413682D01*
X161632860Y-90633389D01*
X161632858Y-90633400D01*
X161613034Y-90859997D01*
X161613034Y-90860002D01*
X161632858Y-91086599D01*
X161632860Y-91086610D01*
X161691730Y-91306317D01*
X161691735Y-91306331D01*
X161787863Y-91512478D01*
X161838974Y-91585472D01*
X162434923Y-90989523D01*
X162458507Y-91069844D01*
X162536239Y-91190798D01*
X162644900Y-91284952D01*
X162775685Y-91344680D01*
X162785466Y-91346086D01*
X162192526Y-91939025D01*
X162265513Y-91990132D01*
X162265521Y-91990136D01*
X162471668Y-92086264D01*
X162471682Y-92086269D01*
X162691389Y-92145139D01*
X162691400Y-92145141D01*
X162917998Y-92164966D01*
X162918002Y-92164966D01*
X163144599Y-92145141D01*
X163144610Y-92145139D01*
X163364317Y-92086269D01*
X163364331Y-92086264D01*
X163570478Y-91990136D01*
X163643471Y-91939024D01*
X163050533Y-91346086D01*
X163060315Y-91344680D01*
X163191100Y-91284952D01*
X163299761Y-91190798D01*
X163377493Y-91069844D01*
X163401076Y-90989523D01*
X163997024Y-91585471D01*
X164048136Y-91512478D01*
X164144264Y-91306331D01*
X164144269Y-91306317D01*
X164203139Y-91086610D01*
X164203141Y-91086599D01*
X164209618Y-91012560D01*
X164235069Y-90947491D01*
X164291660Y-90906512D01*
X164361422Y-90902633D01*
X164385547Y-90910982D01*
X164451504Y-90941739D01*
X164451509Y-90941740D01*
X164451511Y-90941741D01*
X164472971Y-90947491D01*
X164671308Y-91000635D01*
X164810149Y-91012782D01*
X164897998Y-91020468D01*
X164898000Y-91020468D01*
X164898002Y-91020468D01*
X164954673Y-91015509D01*
X165124692Y-91000635D01*
X165344496Y-90941739D01*
X165409965Y-90911209D01*
X165479041Y-90900717D01*
X165542825Y-90929236D01*
X165581066Y-90987712D01*
X165585898Y-91012782D01*
X165592364Y-91086687D01*
X165592366Y-91086697D01*
X165651258Y-91306488D01*
X165651261Y-91306497D01*
X165747431Y-91512732D01*
X165747432Y-91512734D01*
X165877954Y-91699141D01*
X166038858Y-91860045D01*
X166038861Y-91860047D01*
X166225266Y-91990568D01*
X166431504Y-92086739D01*
X166431509Y-92086740D01*
X166431511Y-92086741D01*
X166484415Y-92100916D01*
X166651308Y-92145635D01*
X166813230Y-92159801D01*
X166877998Y-92165468D01*
X166878000Y-92165468D01*
X166878002Y-92165468D01*
X166934673Y-92160509D01*
X167104692Y-92145635D01*
X167324496Y-92086739D01*
X167530734Y-91990568D01*
X167717139Y-91860047D01*
X167878047Y-91699139D01*
X168008568Y-91512734D01*
X168104739Y-91306496D01*
X168163635Y-91086692D01*
X168183468Y-90860000D01*
X168180700Y-90828367D01*
X168170786Y-90715047D01*
X168163635Y-90633308D01*
X168107466Y-90423680D01*
X168104741Y-90413511D01*
X168104738Y-90413502D01*
X168083396Y-90367734D01*
X168008568Y-90207266D01*
X167910839Y-90067693D01*
X167878045Y-90020858D01*
X167717142Y-89859955D01*
X167700138Y-89848049D01*
X167655188Y-89816574D01*
X167611563Y-89761999D01*
X167604369Y-89692501D01*
X167635891Y-89630146D01*
X167655186Y-89613426D01*
X167717139Y-89570047D01*
X167878047Y-89409139D01*
X168008568Y-89222734D01*
X168104739Y-89016496D01*
X168163635Y-88796692D01*
X168183468Y-88570000D01*
X168180700Y-88538367D01*
X168163635Y-88343313D01*
X168163635Y-88343308D01*
X168104739Y-88123504D01*
X168008568Y-87917266D01*
X167878047Y-87730861D01*
X167878045Y-87730858D01*
X167717142Y-87569955D01*
X167706079Y-87562208D01*
X167655188Y-87526574D01*
X167611563Y-87471999D01*
X167604369Y-87402501D01*
X167635891Y-87340146D01*
X167655188Y-87323425D01*
X167717139Y-87280047D01*
X167878047Y-87119139D01*
X168008568Y-86932734D01*
X168104739Y-86726496D01*
X168104741Y-86726486D01*
X168106587Y-86721417D01*
X168108785Y-86722216D01*
X168135503Y-86675863D01*
X169235638Y-85575727D01*
X169249267Y-85563950D01*
X169268530Y-85549610D01*
X169282384Y-85533099D01*
X169300366Y-85511669D01*
X169307683Y-85503684D01*
X169308993Y-85502372D01*
X169311590Y-85499777D01*
X169330811Y-85475467D01*
X169333094Y-85472664D01*
X169338856Y-85465798D01*
X169381302Y-85415214D01*
X169381303Y-85415211D01*
X169385272Y-85409179D01*
X169385323Y-85409212D01*
X169389369Y-85402860D01*
X169389317Y-85402828D01*
X169393105Y-85396683D01*
X169393111Y-85396677D01*
X169424829Y-85328655D01*
X169426369Y-85325476D01*
X169460040Y-85258433D01*
X169460043Y-85258417D01*
X169462510Y-85251644D01*
X169462568Y-85251665D01*
X169465043Y-85244546D01*
X169464985Y-85244527D01*
X169467255Y-85237677D01*
X169475824Y-85196175D01*
X169482431Y-85164171D01*
X169483186Y-85160767D01*
X169500500Y-85087721D01*
X169500500Y-85087719D01*
X169500501Y-85087715D01*
X169501339Y-85080548D01*
X169501397Y-85080554D01*
X169502164Y-85073056D01*
X169502104Y-85073051D01*
X169502733Y-85065860D01*
X169500552Y-84990889D01*
X169500500Y-84987283D01*
X169500500Y-80063705D01*
X169501809Y-80045736D01*
X169503918Y-80031334D01*
X169505289Y-80021977D01*
X169504104Y-80008436D01*
X169500972Y-79972630D01*
X169500500Y-79961822D01*
X169500500Y-79956296D01*
X169500500Y-79956291D01*
X169496901Y-79925509D01*
X169496536Y-79921929D01*
X169489999Y-79847201D01*
X169488539Y-79840129D01*
X169488597Y-79840116D01*
X169486965Y-79832757D01*
X169486906Y-79832772D01*
X169485241Y-79825751D01*
X169485241Y-79825745D01*
X169459569Y-79755212D01*
X169458421Y-79751909D01*
X169434814Y-79680666D01*
X169434810Y-79680659D01*
X169431760Y-79674118D01*
X169431815Y-79674091D01*
X169428533Y-79667313D01*
X169428480Y-79667340D01*
X169425235Y-79660880D01*
X169384025Y-79598223D01*
X169382086Y-79595181D01*
X169374618Y-79583073D01*
X169342712Y-79531345D01*
X169342711Y-79531344D01*
X169342710Y-79531342D01*
X169338234Y-79525682D01*
X169338281Y-79525644D01*
X169333519Y-79519799D01*
X169333474Y-79519838D01*
X169328831Y-79514305D01*
X169274272Y-79462831D01*
X169271685Y-79460318D01*
X167075729Y-77264361D01*
X167063949Y-77250730D01*
X167049610Y-77231470D01*
X167011651Y-77199619D01*
X167003686Y-77192318D01*
X166999780Y-77188411D01*
X166975443Y-77169168D01*
X166972647Y-77166890D01*
X166915214Y-77118698D01*
X166909180Y-77114729D01*
X166909212Y-77114680D01*
X166902853Y-77110628D01*
X166902822Y-77110679D01*
X166896680Y-77106891D01*
X166896678Y-77106890D01*
X166896677Y-77106889D01*
X166828688Y-77075184D01*
X166825447Y-77073615D01*
X166794530Y-77058088D01*
X166758433Y-77039960D01*
X166758431Y-77039959D01*
X166758430Y-77039959D01*
X166751645Y-77037489D01*
X166751665Y-77037433D01*
X166744549Y-77034959D01*
X166744531Y-77035015D01*
X166737674Y-77032743D01*
X166664210Y-77017573D01*
X166660693Y-77016793D01*
X166587718Y-76999499D01*
X166580547Y-76998661D01*
X166580553Y-76998601D01*
X166573055Y-76997835D01*
X166573050Y-76997895D01*
X166565860Y-76997265D01*
X166490870Y-76999448D01*
X166487263Y-76999500D01*
X159612229Y-76999500D01*
X159545190Y-76979815D01*
X159524548Y-76963181D01*
X157786819Y-75225451D01*
X157753334Y-75164128D01*
X157750500Y-75137770D01*
X157750500Y-73765000D01*
X162478784Y-73765000D01*
X162482807Y-73828943D01*
X162482808Y-73828947D01*
X162541756Y-74137959D01*
X162638963Y-74437132D01*
X162638965Y-74437137D01*
X162772900Y-74721761D01*
X162772903Y-74721767D01*
X162941455Y-74987364D01*
X163141976Y-75229752D01*
X163371287Y-75445090D01*
X163371297Y-75445098D01*
X163625772Y-75629985D01*
X163625790Y-75629996D01*
X163901447Y-75781540D01*
X163901455Y-75781544D01*
X164193926Y-75897340D01*
X164498620Y-75975573D01*
X164498629Y-75975575D01*
X164717999Y-76003287D01*
X164718000Y-76003286D01*
X164718000Y-75060881D01*
X164811369Y-75099556D01*
X164968000Y-75120177D01*
X165124631Y-75099556D01*
X165218000Y-75060881D01*
X165218000Y-76003287D01*
X165437370Y-75975575D01*
X165437379Y-75975573D01*
X165742073Y-75897340D01*
X166034544Y-75781544D01*
X166034552Y-75781540D01*
X166310209Y-75629996D01*
X166310227Y-75629985D01*
X166564702Y-75445098D01*
X166564712Y-75445090D01*
X166794023Y-75229752D01*
X166994544Y-74987364D01*
X167163096Y-74721767D01*
X167163099Y-74721761D01*
X167297034Y-74437137D01*
X167297036Y-74437132D01*
X167394243Y-74137959D01*
X167453191Y-73828947D01*
X167453192Y-73828943D01*
X167457215Y-73765000D01*
X165568000Y-73765000D01*
X165568000Y-73265000D01*
X167457215Y-73265000D01*
X167457215Y-73264999D01*
X167453192Y-73201056D01*
X167453191Y-73201052D01*
X167394243Y-72892040D01*
X167297036Y-72592867D01*
X167297034Y-72592862D01*
X167163099Y-72308238D01*
X167163096Y-72308232D01*
X166994544Y-72042635D01*
X166794023Y-71800247D01*
X166564712Y-71584909D01*
X166564702Y-71584901D01*
X166310227Y-71400014D01*
X166310209Y-71400003D01*
X166034552Y-71248459D01*
X166034544Y-71248455D01*
X165742073Y-71132659D01*
X165437379Y-71054426D01*
X165437370Y-71054424D01*
X165218000Y-71026711D01*
X165218000Y-71969118D01*
X165124631Y-71930444D01*
X164968000Y-71909823D01*
X164811369Y-71930444D01*
X164718000Y-71969118D01*
X164718000Y-71026712D01*
X164717999Y-71026711D01*
X164498629Y-71054424D01*
X164498620Y-71054426D01*
X164193926Y-71132659D01*
X163901455Y-71248455D01*
X163901447Y-71248459D01*
X163625790Y-71400003D01*
X163625772Y-71400014D01*
X163371297Y-71584901D01*
X163371287Y-71584909D01*
X163141976Y-71800247D01*
X162941455Y-72042635D01*
X162772903Y-72308232D01*
X162772900Y-72308238D01*
X162638965Y-72592862D01*
X162638963Y-72592867D01*
X162541756Y-72892040D01*
X162482808Y-73201052D01*
X162482807Y-73201056D01*
X162478784Y-73264999D01*
X162478785Y-73265000D01*
X164368000Y-73265000D01*
X164368000Y-73765000D01*
X162478784Y-73765000D01*
X157750500Y-73765000D01*
X157750500Y-65877705D01*
X157751809Y-65859735D01*
X157755289Y-65835974D01*
X157750972Y-65786635D01*
X157750500Y-65775826D01*
X157750500Y-65770296D01*
X157750500Y-65770291D01*
X157746894Y-65739443D01*
X157746534Y-65735916D01*
X157739999Y-65661209D01*
X157738538Y-65654135D01*
X157738598Y-65654122D01*
X157736965Y-65646757D01*
X157736906Y-65646772D01*
X157735241Y-65639751D01*
X157735241Y-65639745D01*
X157709569Y-65569211D01*
X157708422Y-65565913D01*
X157684814Y-65494665D01*
X157684809Y-65494658D01*
X157681761Y-65488118D01*
X157681815Y-65488092D01*
X157678533Y-65481312D01*
X157678480Y-65481340D01*
X157675238Y-65474885D01*
X157675237Y-65474883D01*
X157634026Y-65412225D01*
X157632107Y-65409212D01*
X157592714Y-65345347D01*
X157588234Y-65339681D01*
X157588280Y-65339643D01*
X157583519Y-65333799D01*
X157583474Y-65333838D01*
X157578831Y-65328305D01*
X157524290Y-65276848D01*
X157521703Y-65274335D01*
X156012716Y-63765348D01*
X155979231Y-63704025D01*
X155976869Y-63666861D01*
X155991468Y-63500000D01*
X155971635Y-63273308D01*
X155912739Y-63053504D01*
X155816568Y-62847266D01*
X155686047Y-62660861D01*
X155686045Y-62660858D01*
X155525141Y-62499954D01*
X155338734Y-62369432D01*
X155338732Y-62369431D01*
X155132497Y-62273261D01*
X155132488Y-62273258D01*
X154912697Y-62214366D01*
X154912693Y-62214365D01*
X154912692Y-62214365D01*
X154912691Y-62214364D01*
X154912686Y-62214364D01*
X154686002Y-62194532D01*
X154685998Y-62194532D01*
X154459313Y-62214364D01*
X154459302Y-62214366D01*
X154239511Y-62273258D01*
X154239502Y-62273261D01*
X154033267Y-62369431D01*
X154033265Y-62369432D01*
X153846858Y-62499954D01*
X153685954Y-62660858D01*
X153555432Y-62847265D01*
X153555431Y-62847267D01*
X153459261Y-63053502D01*
X153459258Y-63053511D01*
X153400366Y-63273302D01*
X153400364Y-63273313D01*
X153380532Y-63499998D01*
X153380532Y-63500001D01*
X153400364Y-63726686D01*
X153400366Y-63726697D01*
X153459258Y-63946488D01*
X153459261Y-63946497D01*
X153555431Y-64152732D01*
X153555432Y-64152734D01*
X153685954Y-64339141D01*
X153846858Y-64500045D01*
X153846861Y-64500047D01*
X154033266Y-64630568D01*
X154239504Y-64726739D01*
X154459308Y-64785635D01*
X154621230Y-64799801D01*
X154685998Y-64805468D01*
X154686000Y-64805468D01*
X154686001Y-64805468D01*
X154706062Y-64803712D01*
X154852861Y-64790869D01*
X154921359Y-64804635D01*
X154951348Y-64826716D01*
X156213181Y-66088548D01*
X156246666Y-66149871D01*
X156249500Y-66176229D01*
X156249500Y-75436294D01*
X156248191Y-75454263D01*
X156244710Y-75478025D01*
X156249028Y-75527368D01*
X156249500Y-75538176D01*
X156249500Y-75543711D01*
X156253098Y-75574495D01*
X156253464Y-75578083D01*
X156260000Y-75652791D01*
X156261461Y-75659867D01*
X156261403Y-75659878D01*
X156263034Y-75667237D01*
X156263092Y-75667224D01*
X156264757Y-75674249D01*
X156264758Y-75674254D01*
X156264759Y-75674255D01*
X156288522Y-75739547D01*
X156290400Y-75744705D01*
X156291582Y-75748107D01*
X156315182Y-75819326D01*
X156318236Y-75825874D01*
X156318182Y-75825898D01*
X156321470Y-75832688D01*
X156321521Y-75832663D01*
X156324761Y-75839114D01*
X156365979Y-75901784D01*
X156367889Y-75904782D01*
X156398972Y-75955174D01*
X156407289Y-75968658D01*
X156411766Y-75974319D01*
X156411719Y-75974356D01*
X156416482Y-75980202D01*
X156416528Y-75980164D01*
X156421168Y-75985693D01*
X156421170Y-75985696D01*
X156468520Y-76030369D01*
X156475708Y-76037150D01*
X156478296Y-76039664D01*
X158674267Y-78235634D01*
X158686048Y-78249266D01*
X158700390Y-78268530D01*
X158738343Y-78300376D01*
X158746319Y-78307686D01*
X158750220Y-78311588D01*
X158774543Y-78330820D01*
X158777304Y-78333069D01*
X158814302Y-78364114D01*
X158834789Y-78381305D01*
X158840818Y-78385270D01*
X158840785Y-78385319D01*
X158847143Y-78389369D01*
X158847175Y-78389319D01*
X158853317Y-78393107D01*
X158853319Y-78393108D01*
X158853323Y-78393111D01*
X158921315Y-78424816D01*
X158924560Y-78426388D01*
X158991565Y-78460039D01*
X158991567Y-78460040D01*
X158991569Y-78460040D01*
X158998361Y-78462513D01*
X158998340Y-78462570D01*
X159005455Y-78465043D01*
X159005475Y-78464986D01*
X159012323Y-78467254D01*
X159012328Y-78467257D01*
X159085852Y-78482437D01*
X159089286Y-78483199D01*
X159134563Y-78493931D01*
X159162274Y-78500499D01*
X159162275Y-78500499D01*
X159162279Y-78500500D01*
X159162283Y-78500500D01*
X159169452Y-78501338D01*
X159169444Y-78501397D01*
X159176945Y-78502164D01*
X159176951Y-78502105D01*
X159184140Y-78502734D01*
X159184144Y-78502733D01*
X159184145Y-78502734D01*
X159259131Y-78500552D01*
X159262738Y-78500500D01*
X166137770Y-78500500D01*
X166204809Y-78520185D01*
X166225451Y-78536819D01*
X167963181Y-80274548D01*
X167996666Y-80335871D01*
X167999500Y-80362229D01*
X167999500Y-80682951D01*
X167979815Y-80749990D01*
X167927011Y-80795745D01*
X167857853Y-80805689D01*
X167794297Y-80776664D01*
X167787819Y-80770632D01*
X167717141Y-80699954D01*
X167530734Y-80569432D01*
X167530732Y-80569431D01*
X167324497Y-80473261D01*
X167324488Y-80473258D01*
X167104697Y-80414366D01*
X167104693Y-80414365D01*
X167104692Y-80414365D01*
X167104691Y-80414364D01*
X167104686Y-80414364D01*
X166878002Y-80394532D01*
X166877998Y-80394532D01*
X166651313Y-80414364D01*
X166651302Y-80414366D01*
X166431511Y-80473258D01*
X166431506Y-80473260D01*
X166365550Y-80504016D01*
X166296472Y-80514507D01*
X166232689Y-80485987D01*
X166194450Y-80427510D01*
X166189618Y-80402439D01*
X166183141Y-80328400D01*
X166183139Y-80328389D01*
X166124269Y-80108682D01*
X166124264Y-80108668D01*
X166028136Y-79902521D01*
X166028132Y-79902513D01*
X165977025Y-79829526D01*
X165381076Y-80425474D01*
X165357493Y-80345156D01*
X165279761Y-80224202D01*
X165171100Y-80130048D01*
X165040315Y-80070320D01*
X165030533Y-80068913D01*
X165623472Y-79475974D01*
X165550478Y-79424863D01*
X165344331Y-79328735D01*
X165344317Y-79328730D01*
X165124610Y-79269860D01*
X165124599Y-79269858D01*
X164898002Y-79250034D01*
X164897998Y-79250034D01*
X164671400Y-79269858D01*
X164671389Y-79269860D01*
X164451682Y-79328730D01*
X164451673Y-79328734D01*
X164245516Y-79424866D01*
X164245512Y-79424868D01*
X164172526Y-79475973D01*
X164172526Y-79475974D01*
X164765466Y-80068913D01*
X164755685Y-80070320D01*
X164624900Y-80130048D01*
X164516239Y-80224202D01*
X164438507Y-80345156D01*
X164414923Y-80425475D01*
X163818974Y-79829526D01*
X163818973Y-79829526D01*
X163767868Y-79902512D01*
X163767866Y-79902516D01*
X163671734Y-80108673D01*
X163671731Y-80108680D01*
X163618432Y-80307594D01*
X163582067Y-80367254D01*
X163519220Y-80397783D01*
X163498657Y-80399500D01*
X162070129Y-80399500D01*
X162070123Y-80399501D01*
X162010516Y-80405908D01*
X161875671Y-80456202D01*
X161875664Y-80456206D01*
X161760455Y-80542452D01*
X161760452Y-80542455D01*
X161674206Y-80657664D01*
X161674202Y-80657671D01*
X161623910Y-80792513D01*
X161623909Y-80792517D01*
X161618937Y-80838757D01*
X161592201Y-80903306D01*
X161534809Y-80943154D01*
X161495649Y-80949500D01*
X157312229Y-80949500D01*
X157245190Y-80929815D01*
X157224548Y-80913181D01*
X156717276Y-80405909D01*
X156184979Y-79873611D01*
X156173199Y-79859980D01*
X156158860Y-79840720D01*
X156120901Y-79808869D01*
X156112936Y-79801568D01*
X156109030Y-79797661D01*
X156084693Y-79778418D01*
X156081897Y-79776140D01*
X156024464Y-79727948D01*
X156018430Y-79723979D01*
X156018462Y-79723930D01*
X156012103Y-79719878D01*
X156012072Y-79719929D01*
X156005930Y-79716141D01*
X156005928Y-79716140D01*
X156005927Y-79716139D01*
X155937938Y-79684434D01*
X155934697Y-79682865D01*
X155890920Y-79660880D01*
X155867683Y-79649210D01*
X155867681Y-79649209D01*
X155867680Y-79649209D01*
X155860895Y-79646739D01*
X155860915Y-79646683D01*
X155853799Y-79644209D01*
X155853781Y-79644265D01*
X155846923Y-79641992D01*
X155806865Y-79633721D01*
X155745191Y-79600886D01*
X155730365Y-79583405D01*
X155712815Y-79558341D01*
X155686047Y-79520111D01*
X155525139Y-79359203D01*
X155520373Y-79355865D01*
X155489375Y-79334160D01*
X155445751Y-79279582D01*
X155436500Y-79232586D01*
X155436500Y-75866162D01*
X155456185Y-75799123D01*
X155489379Y-75764586D01*
X155515319Y-75746423D01*
X155525139Y-75739547D01*
X155686047Y-75578639D01*
X155816568Y-75392234D01*
X155912739Y-75185996D01*
X155971635Y-74966192D01*
X155991468Y-74739500D01*
X155971635Y-74512808D01*
X155912739Y-74293004D01*
X155816568Y-74086766D01*
X155686047Y-73900361D01*
X155525139Y-73739453D01*
X155520373Y-73736115D01*
X155489375Y-73714410D01*
X155445751Y-73659832D01*
X155436500Y-73612836D01*
X155436500Y-70246412D01*
X155456185Y-70179373D01*
X155489379Y-70144836D01*
X155525140Y-70119796D01*
X155686045Y-69958891D01*
X155686047Y-69958889D01*
X155816568Y-69772484D01*
X155912739Y-69566246D01*
X155971635Y-69346442D01*
X155991468Y-69119750D01*
X155971635Y-68893058D01*
X155912739Y-68673254D01*
X155816568Y-68467016D01*
X155686047Y-68280611D01*
X155686045Y-68280608D01*
X155525141Y-68119704D01*
X155338734Y-67989182D01*
X155338732Y-67989181D01*
X155132497Y-67893011D01*
X155132488Y-67893008D01*
X154912697Y-67834116D01*
X154912693Y-67834115D01*
X154912692Y-67834115D01*
X154912691Y-67834114D01*
X154912686Y-67834114D01*
X154686002Y-67814282D01*
X154685998Y-67814282D01*
X154459313Y-67834114D01*
X154459302Y-67834116D01*
X154239511Y-67893008D01*
X154239502Y-67893011D01*
X154033267Y-67989181D01*
X154033265Y-67989182D01*
X153846858Y-68119704D01*
X153685954Y-68280608D01*
X153555432Y-68467015D01*
X153555431Y-68467017D01*
X153459261Y-68673252D01*
X153459258Y-68673261D01*
X153400366Y-68893052D01*
X153400364Y-68893063D01*
X153380532Y-69119748D01*
X153380532Y-69119751D01*
X153400364Y-69346436D01*
X153400366Y-69346447D01*
X153459258Y-69566238D01*
X153459261Y-69566247D01*
X153555431Y-69772482D01*
X153555432Y-69772484D01*
X153685954Y-69958891D01*
X153846859Y-70119796D01*
X153882621Y-70144836D01*
X153926247Y-70199412D01*
X153935500Y-70246412D01*
X153935500Y-73612836D01*
X153915815Y-73679875D01*
X153882625Y-73714410D01*
X153846863Y-73739451D01*
X153685951Y-73900362D01*
X153555432Y-74086765D01*
X153555431Y-74086767D01*
X153459261Y-74293002D01*
X153459258Y-74293011D01*
X153400366Y-74512802D01*
X153400364Y-74512813D01*
X153380532Y-74739498D01*
X153380532Y-74739501D01*
X153400364Y-74966186D01*
X153400366Y-74966197D01*
X153459258Y-75185988D01*
X153459261Y-75185997D01*
X153555431Y-75392232D01*
X153555432Y-75392234D01*
X153685954Y-75578641D01*
X153846859Y-75739546D01*
X153882621Y-75764586D01*
X153926247Y-75819162D01*
X153935500Y-75866162D01*
X153935500Y-79232586D01*
X153915815Y-79299625D01*
X153882625Y-79334160D01*
X153846863Y-79359201D01*
X153685951Y-79520112D01*
X153555432Y-79706515D01*
X153555431Y-79706517D01*
X153459261Y-79912752D01*
X153459258Y-79912761D01*
X153400366Y-80132552D01*
X153400364Y-80132563D01*
X153380532Y-80359248D01*
X153380532Y-80359251D01*
X153400364Y-80585936D01*
X153400366Y-80585947D01*
X153459258Y-80805738D01*
X153459261Y-80805747D01*
X153555431Y-81011982D01*
X153555432Y-81011984D01*
X153685954Y-81198391D01*
X153846858Y-81359295D01*
X153846861Y-81359297D01*
X154033266Y-81489818D01*
X154239504Y-81585989D01*
X154459308Y-81644885D01*
X154621230Y-81659051D01*
X154685998Y-81664718D01*
X154686000Y-81664718D01*
X154686002Y-81664718D01*
X154742673Y-81659759D01*
X154912692Y-81644885D01*
X155132496Y-81585989D01*
X155338734Y-81489818D01*
X155453312Y-81409589D01*
X155519518Y-81387263D01*
X155587285Y-81404273D01*
X155612116Y-81423484D01*
X156374270Y-82185638D01*
X156386051Y-82199270D01*
X156400388Y-82218528D01*
X156438337Y-82250372D01*
X156446310Y-82257679D01*
X156450217Y-82261586D01*
X156450223Y-82261591D01*
X156474537Y-82280816D01*
X156477318Y-82283080D01*
X156504956Y-82306271D01*
X156534789Y-82331305D01*
X156540818Y-82335270D01*
X156540785Y-82335319D01*
X156547147Y-82339372D01*
X156547179Y-82339321D01*
X156553319Y-82343108D01*
X156553323Y-82343111D01*
X156573960Y-82352734D01*
X156621320Y-82374819D01*
X156624566Y-82376391D01*
X156691562Y-82410038D01*
X156698357Y-82412511D01*
X156698336Y-82412567D01*
X156705457Y-82415043D01*
X156705476Y-82414986D01*
X156712319Y-82417253D01*
X156712327Y-82417257D01*
X156785895Y-82432447D01*
X156789228Y-82433186D01*
X156862279Y-82450500D01*
X156862281Y-82450500D01*
X156862285Y-82450501D01*
X156869453Y-82451339D01*
X156869446Y-82451398D01*
X156876944Y-82452164D01*
X156876950Y-82452105D01*
X156884139Y-82452734D01*
X156884143Y-82452733D01*
X156884144Y-82452734D01*
X156959130Y-82450552D01*
X156962737Y-82450500D01*
X161495649Y-82450500D01*
X161562688Y-82470185D01*
X161608443Y-82522989D01*
X161618939Y-82561248D01*
X161623908Y-82607483D01*
X161674202Y-82742328D01*
X161674206Y-82742335D01*
X161760452Y-82857544D01*
X161760455Y-82857547D01*
X161875664Y-82943793D01*
X161875675Y-82943799D01*
X161876497Y-82944106D01*
X161877198Y-82944631D01*
X161883454Y-82948047D01*
X161882962Y-82948946D01*
X161932431Y-82985977D01*
X161956847Y-83051442D01*
X161941995Y-83119715D01*
X161920851Y-83147962D01*
X161917953Y-83150860D01*
X161892912Y-83186623D01*
X161838335Y-83230248D01*
X161791337Y-83239500D01*
X157073705Y-83239500D01*
X157055735Y-83238191D01*
X157031972Y-83234710D01*
X156984843Y-83238834D01*
X156982630Y-83239028D01*
X156971824Y-83239500D01*
X156966284Y-83239500D01*
X156935501Y-83243098D01*
X156931916Y-83243464D01*
X156857199Y-83250001D01*
X156850132Y-83251460D01*
X156850120Y-83251404D01*
X156842763Y-83253035D01*
X156842777Y-83253092D01*
X156835740Y-83254760D01*
X156765231Y-83280421D01*
X156761854Y-83281595D01*
X156722848Y-83294521D01*
X156690668Y-83305185D01*
X156684126Y-83308236D01*
X156684101Y-83308183D01*
X156677308Y-83311471D01*
X156677334Y-83311523D01*
X156670880Y-83314764D01*
X156608221Y-83355975D01*
X156605181Y-83357912D01*
X156541348Y-83397285D01*
X156535683Y-83401765D01*
X156535647Y-83401719D01*
X156529798Y-83406484D01*
X156529835Y-83406528D01*
X156524310Y-83411164D01*
X156472831Y-83465727D01*
X156470319Y-83468312D01*
X155225609Y-84713022D01*
X155164286Y-84746507D01*
X155105835Y-84745116D01*
X154912697Y-84693366D01*
X154912693Y-84693365D01*
X154912692Y-84693365D01*
X154912691Y-84693364D01*
X154912686Y-84693364D01*
X154686002Y-84673532D01*
X154685998Y-84673532D01*
X154459313Y-84693364D01*
X154459302Y-84693366D01*
X154239511Y-84752258D01*
X154239502Y-84752261D01*
X154033267Y-84848431D01*
X154033265Y-84848432D01*
X153846858Y-84978954D01*
X153685954Y-85139858D01*
X153555432Y-85326265D01*
X153555431Y-85326267D01*
X153459261Y-85532502D01*
X153459258Y-85532511D01*
X153400366Y-85752302D01*
X153400364Y-85752313D01*
X153380532Y-85978998D01*
X153380532Y-85979001D01*
X153400364Y-86205686D01*
X153400366Y-86205697D01*
X153459258Y-86425488D01*
X153459261Y-86425497D01*
X153555431Y-86631732D01*
X153555432Y-86631734D01*
X153685954Y-86818141D01*
X153846859Y-86979046D01*
X153882621Y-87004086D01*
X153926247Y-87058662D01*
X153935500Y-87105662D01*
X153935500Y-90472086D01*
X153915815Y-90539125D01*
X153882625Y-90573660D01*
X153846863Y-90598701D01*
X153685951Y-90759612D01*
X153555432Y-90946015D01*
X153555431Y-90946017D01*
X153459261Y-91152252D01*
X153459258Y-91152261D01*
X153400366Y-91372052D01*
X153400364Y-91372063D01*
X153380532Y-91598748D01*
X153380532Y-91598751D01*
X153400364Y-91825436D01*
X153400366Y-91825447D01*
X153459258Y-92045238D01*
X153459261Y-92045247D01*
X153555431Y-92251482D01*
X153555432Y-92251484D01*
X153685954Y-92437891D01*
X153846859Y-92598796D01*
X153882621Y-92623836D01*
X153926247Y-92678412D01*
X153935500Y-92725412D01*
X153935500Y-96091836D01*
X153915815Y-96158875D01*
X153882625Y-96193410D01*
X153846863Y-96218451D01*
X153685951Y-96379362D01*
X153555432Y-96565765D01*
X153555431Y-96565767D01*
X153459261Y-96772002D01*
X153459258Y-96772011D01*
X153400366Y-96991802D01*
X153400364Y-96991813D01*
X153380532Y-97218498D01*
X153380532Y-97218501D01*
X153400364Y-97445186D01*
X153400366Y-97445197D01*
X153459258Y-97664988D01*
X153459261Y-97664997D01*
X153555431Y-97871232D01*
X153555432Y-97871234D01*
X153685954Y-98057641D01*
X153846858Y-98218545D01*
X153846861Y-98218547D01*
X154033266Y-98349068D01*
X154239504Y-98445239D01*
X154459308Y-98504135D01*
X154621230Y-98518301D01*
X154685998Y-98523968D01*
X154686000Y-98523968D01*
X154686002Y-98523968D01*
X154742673Y-98519009D01*
X154912692Y-98504135D01*
X155132496Y-98445239D01*
X155338734Y-98349068D01*
X155525139Y-98218547D01*
X155686047Y-98057639D01*
X155816568Y-97871234D01*
X155912739Y-97664996D01*
X155971635Y-97445192D01*
X155991468Y-97218500D01*
X155990935Y-97212412D01*
X155976610Y-97048678D01*
X155971635Y-96991808D01*
X155912739Y-96772004D01*
X155816568Y-96565766D01*
X155700508Y-96400014D01*
X155686048Y-96379362D01*
X155686044Y-96379358D01*
X155525139Y-96218453D01*
X155520373Y-96215115D01*
X155489375Y-96193410D01*
X155445751Y-96138832D01*
X155436500Y-96091836D01*
X155436500Y-92725412D01*
X155456185Y-92658373D01*
X155489379Y-92623836D01*
X155525139Y-92598797D01*
X155686047Y-92437889D01*
X155816568Y-92251484D01*
X155912739Y-92045246D01*
X155971635Y-91825442D01*
X155991468Y-91598750D01*
X155987418Y-91552464D01*
X155971635Y-91372063D01*
X155971635Y-91372058D01*
X155912739Y-91152254D01*
X155816568Y-90946016D01*
X155686047Y-90759611D01*
X155525139Y-90598703D01*
X155520373Y-90595365D01*
X155489375Y-90573660D01*
X155445751Y-90519082D01*
X155436500Y-90472086D01*
X155436500Y-87105662D01*
X155456185Y-87038623D01*
X155489379Y-87004086D01*
X155525140Y-86979046D01*
X155686045Y-86818141D01*
X155686047Y-86818139D01*
X155816568Y-86631734D01*
X155912739Y-86425496D01*
X155971635Y-86205692D01*
X155978818Y-86123573D01*
X156004269Y-86058507D01*
X156014657Y-86046709D01*
X157284549Y-84776819D01*
X157345872Y-84743334D01*
X157372230Y-84740500D01*
X161791337Y-84740500D01*
X161858376Y-84760185D01*
X161892912Y-84793377D01*
X161917954Y-84829141D01*
X162078859Y-84990046D01*
X162140811Y-85033425D01*
X162184436Y-85088002D01*
X162191630Y-85157500D01*
X162160107Y-85219855D01*
X162140811Y-85236575D01*
X162078859Y-85279953D01*
X161917954Y-85440858D01*
X161892912Y-85476623D01*
X161838335Y-85520248D01*
X161791337Y-85529500D01*
X159283705Y-85529500D01*
X159265735Y-85528191D01*
X159241972Y-85524710D01*
X159195642Y-85528764D01*
X159192632Y-85529028D01*
X159181826Y-85529500D01*
X159176282Y-85529500D01*
X159145488Y-85533099D01*
X159141905Y-85533465D01*
X159067200Y-85540001D01*
X159060134Y-85541461D01*
X159060122Y-85541404D01*
X159052753Y-85543038D01*
X159052767Y-85543095D01*
X159045739Y-85544760D01*
X158975271Y-85570408D01*
X158971867Y-85571591D01*
X158900668Y-85595184D01*
X158894122Y-85598237D01*
X158894097Y-85598185D01*
X158887308Y-85601471D01*
X158887334Y-85601522D01*
X158880886Y-85604760D01*
X158818228Y-85645970D01*
X158815191Y-85647905D01*
X158751344Y-85687288D01*
X158745677Y-85691769D01*
X158745641Y-85691723D01*
X158739798Y-85696484D01*
X158739835Y-85696528D01*
X158734310Y-85701164D01*
X158682848Y-85755709D01*
X158680336Y-85758294D01*
X156514358Y-87924272D01*
X156500729Y-87936051D01*
X156481469Y-87950390D01*
X156449632Y-87988331D01*
X156442346Y-87996284D01*
X156438407Y-88000224D01*
X156419176Y-88024545D01*
X156416902Y-88027337D01*
X156368694Y-88084790D01*
X156364729Y-88090819D01*
X156364682Y-88090788D01*
X156360630Y-88097147D01*
X156360679Y-88097177D01*
X156356889Y-88103321D01*
X156325192Y-88171294D01*
X156323623Y-88174536D01*
X156289957Y-88241572D01*
X156287488Y-88248357D01*
X156287432Y-88248336D01*
X156284960Y-88255450D01*
X156285015Y-88255469D01*
X156282743Y-88262325D01*
X156267573Y-88335788D01*
X156266793Y-88339304D01*
X156249499Y-88412279D01*
X156248661Y-88419454D01*
X156248601Y-88419447D01*
X156247835Y-88426945D01*
X156247895Y-88426951D01*
X156247265Y-88434140D01*
X156249448Y-88509128D01*
X156249500Y-88512735D01*
X156249500Y-100162019D01*
X156229815Y-100229058D01*
X156213181Y-100249700D01*
X154951348Y-101511532D01*
X154890025Y-101545017D01*
X154852861Y-101547379D01*
X154686003Y-101532782D01*
X154685998Y-101532782D01*
X154459313Y-101552614D01*
X154459302Y-101552616D01*
X154239511Y-101611508D01*
X154239502Y-101611511D01*
X154033267Y-101707681D01*
X154033265Y-101707682D01*
X153846858Y-101838204D01*
X153685954Y-101999108D01*
X153555432Y-102185515D01*
X153555431Y-102185517D01*
X153459261Y-102391752D01*
X153459258Y-102391761D01*
X153400366Y-102611552D01*
X153400364Y-102611563D01*
X153380532Y-102838248D01*
X153380532Y-102838251D01*
X153400364Y-103064936D01*
X153400366Y-103064947D01*
X153459258Y-103284738D01*
X153459261Y-103284747D01*
X153555431Y-103490982D01*
X153555432Y-103490984D01*
X153685954Y-103677391D01*
X153846859Y-103838296D01*
X153882621Y-103863336D01*
X153926247Y-103917912D01*
X153935500Y-103964912D01*
X153935500Y-107331336D01*
X153915815Y-107398375D01*
X153882625Y-107432910D01*
X153846863Y-107457951D01*
X153685951Y-107618862D01*
X153555432Y-107805265D01*
X153555431Y-107805267D01*
X153459261Y-108011502D01*
X153459258Y-108011511D01*
X153400366Y-108231302D01*
X153400364Y-108231313D01*
X153380532Y-108457998D01*
X153380532Y-108458001D01*
X145831468Y-108458001D01*
X145831468Y-108458000D01*
X145811635Y-108231308D01*
X145752739Y-108011504D01*
X145656568Y-107805266D01*
X145558839Y-107665693D01*
X145526045Y-107618858D01*
X145365141Y-107457954D01*
X145178734Y-107327432D01*
X145178732Y-107327431D01*
X144972497Y-107231261D01*
X144972488Y-107231258D01*
X144752697Y-107172366D01*
X144752693Y-107172365D01*
X144752692Y-107172365D01*
X144752691Y-107172364D01*
X144752686Y-107172364D01*
X144526002Y-107152532D01*
X144525998Y-107152532D01*
X144296610Y-107172601D01*
X144228110Y-107158834D01*
X144198122Y-107136754D01*
X136168819Y-99107451D01*
X136135334Y-99046128D01*
X136132500Y-99019770D01*
X136132500Y-95659660D01*
X136152185Y-95592621D01*
X136179188Y-95562713D01*
X136249661Y-95506512D01*
X136249663Y-95506510D01*
X136249666Y-95506508D01*
X136397765Y-95336996D01*
X136513215Y-95143764D01*
X136535307Y-95084897D01*
X136577292Y-95029051D01*
X136642806Y-95004767D01*
X136711048Y-95019758D01*
X136760353Y-95069264D01*
X136763120Y-95074668D01*
X136844167Y-95242966D01*
X136844171Y-95242974D01*
X136976473Y-95425072D01*
X136976475Y-95425074D01*
X136976478Y-95425078D01*
X137133191Y-95574911D01*
X137168044Y-95635466D01*
X137171500Y-95664537D01*
X137171500Y-98108294D01*
X137170191Y-98126263D01*
X137166710Y-98150025D01*
X137171028Y-98199368D01*
X137171500Y-98210176D01*
X137171500Y-98215711D01*
X137175098Y-98246495D01*
X137175464Y-98250083D01*
X137182000Y-98324791D01*
X137183461Y-98331867D01*
X137183403Y-98331878D01*
X137185034Y-98339237D01*
X137185092Y-98339224D01*
X137186757Y-98346249D01*
X137186758Y-98346254D01*
X137186759Y-98346255D01*
X137202680Y-98390000D01*
X137212400Y-98416705D01*
X137213582Y-98420107D01*
X137237182Y-98491326D01*
X137240236Y-98497874D01*
X137240182Y-98497898D01*
X137243470Y-98504688D01*
X137243521Y-98504663D01*
X137246761Y-98511114D01*
X137287979Y-98573784D01*
X137289889Y-98576782D01*
X137320972Y-98627174D01*
X137329289Y-98640658D01*
X137333766Y-98646319D01*
X137333719Y-98646356D01*
X137338482Y-98652202D01*
X137338528Y-98652164D01*
X137343173Y-98657699D01*
X137397707Y-98709149D01*
X137400295Y-98711663D01*
X142012520Y-103323888D01*
X142024301Y-103337520D01*
X142038638Y-103356778D01*
X142076587Y-103388622D01*
X142084560Y-103395929D01*
X142088467Y-103399836D01*
X142088473Y-103399841D01*
X142112787Y-103419066D01*
X142115568Y-103421330D01*
X142143206Y-103444521D01*
X142173039Y-103469555D01*
X142179068Y-103473520D01*
X142179035Y-103473569D01*
X142185397Y-103477622D01*
X142185429Y-103477571D01*
X142191569Y-103481358D01*
X142191573Y-103481361D01*
X142212210Y-103490984D01*
X142259570Y-103513069D01*
X142262816Y-103514641D01*
X142329812Y-103548288D01*
X142336607Y-103550761D01*
X142336586Y-103550817D01*
X142343707Y-103553293D01*
X142343726Y-103553236D01*
X142350569Y-103555503D01*
X142350577Y-103555507D01*
X142424145Y-103570697D01*
X142427478Y-103571436D01*
X142500529Y-103588750D01*
X142500531Y-103588750D01*
X142500535Y-103588751D01*
X142507703Y-103589589D01*
X142507696Y-103589648D01*
X142515194Y-103590414D01*
X142515200Y-103590355D01*
X142522389Y-103590984D01*
X142522393Y-103590983D01*
X142522394Y-103590984D01*
X142597380Y-103588802D01*
X142600987Y-103588750D01*
X143399337Y-103588750D01*
X143466376Y-103608435D01*
X143500912Y-103641627D01*
X143525954Y-103677391D01*
X143686858Y-103838295D01*
X143733693Y-103871089D01*
X143873266Y-103968818D01*
X144079504Y-104064989D01*
X144299308Y-104123885D01*
X144461230Y-104138051D01*
X144525998Y-104143718D01*
X144526000Y-104143718D01*
X144526002Y-104143718D01*
X144582673Y-104138759D01*
X144752692Y-104123885D01*
X144972496Y-104064989D01*
X145178734Y-103968818D01*
X145365139Y-103838297D01*
X145526047Y-103677389D01*
X145656568Y-103490984D01*
X145752739Y-103284746D01*
X145811635Y-103064942D01*
X145831468Y-102838250D01*
X145811635Y-102611558D01*
X145752739Y-102391754D01*
X145656568Y-102185516D01*
X145526047Y-101999111D01*
X145526045Y-101999108D01*
X145365141Y-101838204D01*
X145178734Y-101707682D01*
X145178732Y-101707681D01*
X144972497Y-101611511D01*
X144972488Y-101611508D01*
X144752697Y-101552616D01*
X144752693Y-101552615D01*
X144752692Y-101552615D01*
X144752691Y-101552614D01*
X144752686Y-101552614D01*
X144526002Y-101532782D01*
X144525998Y-101532782D01*
X144299313Y-101552614D01*
X144299302Y-101552616D01*
X144079511Y-101611508D01*
X144079502Y-101611511D01*
X143873267Y-101707681D01*
X143873265Y-101707682D01*
X143686858Y-101838204D01*
X143525954Y-101999108D01*
X143500912Y-102034873D01*
X143446335Y-102078498D01*
X143399337Y-102087750D01*
X142950480Y-102087750D01*
X142883441Y-102068065D01*
X142862799Y-102051431D01*
X138708819Y-97897451D01*
X138675334Y-97836128D01*
X138672500Y-97809770D01*
X138672500Y-95659660D01*
X138692185Y-95592621D01*
X138719188Y-95562713D01*
X138789661Y-95506512D01*
X138789663Y-95506510D01*
X138789666Y-95506508D01*
X138937765Y-95336996D01*
X139053215Y-95143764D01*
X139132307Y-94933024D01*
X139172500Y-94711547D01*
X139172500Y-93542845D01*
X139157377Y-93374812D01*
X139127064Y-93264976D01*
X139097496Y-93157839D01*
X139097491Y-93157826D01*
X138999832Y-92955033D01*
X138999828Y-92955025D01*
X138867526Y-92772927D01*
X138867525Y-92772925D01*
X138704823Y-92617366D01*
X138583053Y-92536987D01*
X138537948Y-92483627D01*
X138528851Y-92414352D01*
X138558652Y-92351156D01*
X138617888Y-92314104D01*
X138651364Y-92309500D01*
X138978148Y-92309500D01*
X138978155Y-92309500D01*
X139146188Y-92294377D01*
X139227352Y-92271977D01*
X139363160Y-92234496D01*
X139363162Y-92234495D01*
X139363170Y-92234493D01*
X139565973Y-92136829D01*
X139748078Y-92004522D01*
X139897911Y-91847808D01*
X139958466Y-91812956D01*
X139987537Y-91809500D01*
X140696770Y-91809500D01*
X140763809Y-91829185D01*
X140784451Y-91845819D01*
X141463181Y-92524548D01*
X141496666Y-92585871D01*
X141499500Y-92612229D01*
X141499500Y-94878794D01*
X141498191Y-94896763D01*
X141494710Y-94920525D01*
X141499028Y-94969868D01*
X141499500Y-94980676D01*
X141499500Y-94986211D01*
X141503098Y-95016995D01*
X141503464Y-95020583D01*
X141510000Y-95095291D01*
X141511461Y-95102367D01*
X141511403Y-95102378D01*
X141513034Y-95109737D01*
X141513092Y-95109724D01*
X141514757Y-95116749D01*
X141514758Y-95116754D01*
X141514759Y-95116755D01*
X141524589Y-95143765D01*
X141540400Y-95187205D01*
X141541582Y-95190607D01*
X141565182Y-95261826D01*
X141568236Y-95268374D01*
X141568182Y-95268398D01*
X141571470Y-95275188D01*
X141571521Y-95275163D01*
X141574761Y-95281614D01*
X141615979Y-95344284D01*
X141617889Y-95347282D01*
X141648972Y-95397674D01*
X141657289Y-95411158D01*
X141661766Y-95416819D01*
X141661719Y-95416856D01*
X141666482Y-95422702D01*
X141666528Y-95422664D01*
X141671173Y-95428199D01*
X141725707Y-95479649D01*
X141728295Y-95482163D01*
X143199282Y-96953150D01*
X143232767Y-97014473D01*
X143235129Y-97051637D01*
X143220532Y-97218496D01*
X143220532Y-97218501D01*
X143240364Y-97445186D01*
X143240366Y-97445197D01*
X143299258Y-97664988D01*
X143299261Y-97664997D01*
X143395431Y-97871232D01*
X143395432Y-97871234D01*
X143525954Y-98057641D01*
X143686858Y-98218545D01*
X143686861Y-98218547D01*
X143873266Y-98349068D01*
X144079504Y-98445239D01*
X144299308Y-98504135D01*
X144461230Y-98518301D01*
X144525998Y-98523968D01*
X144526000Y-98523968D01*
X144526002Y-98523968D01*
X144582673Y-98519009D01*
X144752692Y-98504135D01*
X144972496Y-98445239D01*
X145178734Y-98349068D01*
X145365139Y-98218547D01*
X145526047Y-98057639D01*
X145656568Y-97871234D01*
X145752739Y-97664996D01*
X145811635Y-97445192D01*
X145831468Y-97218500D01*
X145830935Y-97212412D01*
X145816610Y-97048678D01*
X145811635Y-96991808D01*
X145752739Y-96772004D01*
X145656568Y-96565766D01*
X145526047Y-96379361D01*
X145526045Y-96379358D01*
X145365141Y-96218454D01*
X145178734Y-96087932D01*
X145178732Y-96087931D01*
X144972497Y-95991761D01*
X144972488Y-95991758D01*
X144752697Y-95932866D01*
X144752693Y-95932865D01*
X144752692Y-95932865D01*
X144752691Y-95932864D01*
X144752686Y-95932864D01*
X144526002Y-95913032D01*
X144525997Y-95913032D01*
X144359137Y-95927629D01*
X144290637Y-95913862D01*
X144260650Y-95891782D01*
X143036819Y-94667951D01*
X143003334Y-94606628D01*
X143000500Y-94580270D01*
X143000500Y-92313705D01*
X143001809Y-92295735D01*
X143005289Y-92271974D01*
X143000972Y-92222635D01*
X143000500Y-92211826D01*
X143000500Y-92206296D01*
X143000500Y-92206291D01*
X142996898Y-92175478D01*
X142996534Y-92171915D01*
X142994192Y-92145141D01*
X142989998Y-92097202D01*
X142989995Y-92097195D01*
X142988538Y-92090133D01*
X142988597Y-92090120D01*
X142986967Y-92082764D01*
X142986908Y-92082779D01*
X142985241Y-92075747D01*
X142985241Y-92075745D01*
X142959563Y-92005196D01*
X142958424Y-92001918D01*
X142934814Y-91930665D01*
X142934813Y-91930663D01*
X142931763Y-91924121D01*
X142931817Y-91924095D01*
X142928533Y-91917312D01*
X142928480Y-91917340D01*
X142925238Y-91910885D01*
X142891800Y-91860045D01*
X142884026Y-91848225D01*
X142882107Y-91845212D01*
X142842714Y-91781347D01*
X142838234Y-91775681D01*
X142838280Y-91775643D01*
X142833519Y-91769799D01*
X142833474Y-91769838D01*
X142828831Y-91764305D01*
X142774290Y-91712848D01*
X142771703Y-91710335D01*
X141634729Y-90573361D01*
X141622949Y-90559730D01*
X141608610Y-90540470D01*
X141570651Y-90508619D01*
X141562686Y-90501318D01*
X141558780Y-90497411D01*
X141534443Y-90478168D01*
X141531647Y-90475890D01*
X141474214Y-90427698D01*
X141468180Y-90423729D01*
X141468212Y-90423680D01*
X141461853Y-90419628D01*
X141461822Y-90419679D01*
X141455680Y-90415891D01*
X141455678Y-90415890D01*
X141455677Y-90415889D01*
X141387688Y-90384184D01*
X141384447Y-90382615D01*
X141353530Y-90367088D01*
X141317433Y-90348960D01*
X141317431Y-90348959D01*
X141317430Y-90348959D01*
X141310645Y-90346489D01*
X141310665Y-90346433D01*
X141303549Y-90343959D01*
X141303531Y-90344015D01*
X141296674Y-90341743D01*
X141223210Y-90326573D01*
X141219693Y-90325793D01*
X141146718Y-90308499D01*
X141139547Y-90307661D01*
X141139553Y-90307601D01*
X141132055Y-90306835D01*
X141132050Y-90306895D01*
X141124860Y-90306265D01*
X141049870Y-90308448D01*
X141046263Y-90308500D01*
X139982660Y-90308500D01*
X139915621Y-90288815D01*
X139885713Y-90261812D01*
X139829512Y-90191338D01*
X139829509Y-90191335D01*
X139829508Y-90191334D01*
X139659996Y-90043235D01*
X139466767Y-89927787D01*
X139466768Y-89927787D01*
X139466766Y-89927786D01*
X139466764Y-89927785D01*
X139407896Y-89905691D01*
X139352050Y-89863706D01*
X139327767Y-89798191D01*
X139342759Y-89729949D01*
X139392265Y-89680645D01*
X139397610Y-89677907D01*
X139565973Y-89596829D01*
X139748078Y-89464522D01*
X139897911Y-89307808D01*
X139958466Y-89272956D01*
X139987537Y-89269500D01*
X140906770Y-89269500D01*
X140973809Y-89289185D01*
X140994451Y-89305819D01*
X143185023Y-91496390D01*
X143218508Y-91557713D01*
X143220871Y-91594871D01*
X143220532Y-91598748D01*
X143220532Y-91598751D01*
X143240364Y-91825436D01*
X143240366Y-91825447D01*
X143299258Y-92045238D01*
X143299261Y-92045247D01*
X143395431Y-92251482D01*
X143395432Y-92251484D01*
X143525954Y-92437891D01*
X143686858Y-92598795D01*
X143713383Y-92617368D01*
X143873266Y-92729318D01*
X144079504Y-92825489D01*
X144299308Y-92884385D01*
X144461230Y-92898551D01*
X144525998Y-92904218D01*
X144526000Y-92904218D01*
X144526002Y-92904218D01*
X144582673Y-92899259D01*
X144752692Y-92884385D01*
X144972496Y-92825489D01*
X145178734Y-92729318D01*
X145365139Y-92598797D01*
X145526047Y-92437889D01*
X145656568Y-92251484D01*
X145752739Y-92045246D01*
X145811635Y-91825442D01*
X145831468Y-91598750D01*
X145827418Y-91552464D01*
X145811635Y-91372063D01*
X145811635Y-91372058D01*
X145752739Y-91152254D01*
X145656568Y-90946016D01*
X145526047Y-90759611D01*
X145526045Y-90759608D01*
X145365141Y-90598704D01*
X145178734Y-90468182D01*
X145178732Y-90468181D01*
X144972497Y-90372011D01*
X144972488Y-90372008D01*
X144752697Y-90313116D01*
X144752693Y-90313115D01*
X144752692Y-90313115D01*
X144752691Y-90313114D01*
X144752686Y-90313114D01*
X144526002Y-90293282D01*
X144525999Y-90293282D01*
X144299313Y-90313114D01*
X144299297Y-90313117D01*
X144230576Y-90331530D01*
X144160726Y-90329866D01*
X144110804Y-90299436D01*
X141844729Y-88033361D01*
X141832949Y-88019730D01*
X141818610Y-88000470D01*
X141780651Y-87968619D01*
X141772686Y-87961318D01*
X141768780Y-87957411D01*
X141744443Y-87938168D01*
X141741647Y-87935890D01*
X141684214Y-87887698D01*
X141678180Y-87883729D01*
X141678212Y-87883680D01*
X141671853Y-87879628D01*
X141671822Y-87879679D01*
X141665680Y-87875891D01*
X141665678Y-87875890D01*
X141665677Y-87875889D01*
X141597688Y-87844184D01*
X141594447Y-87842615D01*
X141563530Y-87827088D01*
X141527433Y-87808960D01*
X141527431Y-87808959D01*
X141527430Y-87808959D01*
X141520645Y-87806489D01*
X141520665Y-87806433D01*
X141513549Y-87803959D01*
X141513531Y-87804015D01*
X141506674Y-87801743D01*
X141433210Y-87786573D01*
X141429693Y-87785793D01*
X141356718Y-87768499D01*
X141349547Y-87767661D01*
X141349553Y-87767601D01*
X141342055Y-87766835D01*
X141342050Y-87766895D01*
X141334860Y-87766265D01*
X141259870Y-87768448D01*
X141256263Y-87768500D01*
X139982660Y-87768500D01*
X139915621Y-87748815D01*
X139885713Y-87721812D01*
X139829512Y-87651338D01*
X139829509Y-87651335D01*
X139829508Y-87651334D01*
X139659996Y-87503235D01*
X139466767Y-87387787D01*
X139466768Y-87387787D01*
X139466766Y-87387786D01*
X139466764Y-87387785D01*
X139407896Y-87365691D01*
X139352050Y-87323706D01*
X139327767Y-87258191D01*
X139342759Y-87189949D01*
X139392265Y-87140645D01*
X139397610Y-87137907D01*
X139565973Y-87056829D01*
X139748078Y-86924522D01*
X139897911Y-86767808D01*
X139958466Y-86732956D01*
X139987537Y-86729500D01*
X143399337Y-86729500D01*
X143466376Y-86749185D01*
X143500912Y-86782377D01*
X143525954Y-86818141D01*
X143686858Y-86979045D01*
X143686861Y-86979047D01*
X143873266Y-87109568D01*
X144079504Y-87205739D01*
X144079509Y-87205740D01*
X144079511Y-87205741D01*
X144132415Y-87219916D01*
X144299308Y-87264635D01*
X144461230Y-87278801D01*
X144525998Y-87284468D01*
X144526000Y-87284468D01*
X144526002Y-87284468D01*
X144582673Y-87279509D01*
X144752692Y-87264635D01*
X144972496Y-87205739D01*
X145178734Y-87109568D01*
X145365139Y-86979047D01*
X145526047Y-86818139D01*
X145656568Y-86631734D01*
X145752739Y-86425496D01*
X145811635Y-86205692D01*
X145831468Y-85979000D01*
X145811635Y-85752308D01*
X145754748Y-85540001D01*
X145752741Y-85532511D01*
X145752738Y-85532502D01*
X145749105Y-85524711D01*
X145656568Y-85326266D01*
X145526047Y-85139861D01*
X145526045Y-85139858D01*
X145365141Y-84978954D01*
X145178734Y-84848432D01*
X145178732Y-84848431D01*
X144972497Y-84752261D01*
X144972488Y-84752258D01*
X144752697Y-84693366D01*
X144752693Y-84693365D01*
X144752692Y-84693365D01*
X144752691Y-84693364D01*
X144752686Y-84693364D01*
X144526002Y-84673532D01*
X144525998Y-84673532D01*
X144299313Y-84693364D01*
X144299302Y-84693366D01*
X144079511Y-84752258D01*
X144079502Y-84752261D01*
X143873267Y-84848431D01*
X143873265Y-84848432D01*
X143686858Y-84978954D01*
X143525954Y-85139858D01*
X143500912Y-85175623D01*
X143446335Y-85219248D01*
X143399337Y-85228500D01*
X139982660Y-85228500D01*
X139915621Y-85208815D01*
X139885713Y-85181812D01*
X139829512Y-85111338D01*
X139829509Y-85111335D01*
X139829508Y-85111334D01*
X139659996Y-84963235D01*
X139466767Y-84847787D01*
X139466768Y-84847787D01*
X139466766Y-84847786D01*
X139466764Y-84847785D01*
X139407896Y-84825691D01*
X139352050Y-84783706D01*
X139327767Y-84718191D01*
X139342759Y-84649949D01*
X139392265Y-84600645D01*
X139397610Y-84597907D01*
X139565973Y-84516829D01*
X139748078Y-84384522D01*
X139897911Y-84227808D01*
X139958466Y-84192956D01*
X139987537Y-84189500D01*
X141247295Y-84189500D01*
X141265265Y-84190809D01*
X141289023Y-84194289D01*
X141338369Y-84189971D01*
X141349176Y-84189500D01*
X141354704Y-84189500D01*
X141354709Y-84189500D01*
X141385556Y-84185893D01*
X141389030Y-84185539D01*
X141463797Y-84178999D01*
X141463805Y-84178996D01*
X141470866Y-84177539D01*
X141470878Y-84177598D01*
X141478243Y-84175965D01*
X141478229Y-84175906D01*
X141485249Y-84174241D01*
X141485255Y-84174241D01*
X141555779Y-84148572D01*
X141559117Y-84147412D01*
X141630334Y-84123814D01*
X141630342Y-84123808D01*
X141636882Y-84120760D01*
X141636908Y-84120816D01*
X141643690Y-84117532D01*
X141643663Y-84117478D01*
X141650113Y-84114238D01*
X141650117Y-84114237D01*
X141712837Y-84072984D01*
X141715732Y-84071140D01*
X141779656Y-84031712D01*
X141779662Y-84031705D01*
X141785325Y-84027229D01*
X141785362Y-84027277D01*
X141791204Y-84022518D01*
X141791164Y-84022471D01*
X141796686Y-84017835D01*
X141796696Y-84017830D01*
X141848185Y-83963253D01*
X141850632Y-83960734D01*
X144143929Y-81667436D01*
X144205250Y-81633953D01*
X144263700Y-81635343D01*
X144299308Y-81644885D01*
X144461230Y-81659051D01*
X144525998Y-81664718D01*
X144526000Y-81664718D01*
X144526002Y-81664718D01*
X144582673Y-81659759D01*
X144752692Y-81644885D01*
X144972496Y-81585989D01*
X145178734Y-81489818D01*
X145365139Y-81359297D01*
X145526047Y-81198389D01*
X145656568Y-81011984D01*
X145752739Y-80805746D01*
X145811635Y-80585942D01*
X145831468Y-80359250D01*
X145811635Y-80132558D01*
X145755678Y-79923724D01*
X145752741Y-79912761D01*
X145752738Y-79912752D01*
X145747965Y-79902516D01*
X145656568Y-79706516D01*
X145526047Y-79520111D01*
X145526045Y-79520108D01*
X145365141Y-79359204D01*
X145178734Y-79228682D01*
X145178732Y-79228681D01*
X144972497Y-79132511D01*
X144972488Y-79132508D01*
X144752697Y-79073616D01*
X144752693Y-79073615D01*
X144752692Y-79073615D01*
X144752691Y-79073614D01*
X144752686Y-79073614D01*
X144526002Y-79053782D01*
X144525998Y-79053782D01*
X144299313Y-79073614D01*
X144299302Y-79073616D01*
X144079511Y-79132508D01*
X144079502Y-79132511D01*
X143873267Y-79228681D01*
X143873265Y-79228682D01*
X143686858Y-79359204D01*
X143525954Y-79520108D01*
X143395432Y-79706515D01*
X143395431Y-79706517D01*
X143299261Y-79912752D01*
X143299258Y-79912761D01*
X143240366Y-80132552D01*
X143240364Y-80132563D01*
X143220532Y-80359248D01*
X143220532Y-80359252D01*
X143224249Y-80401740D01*
X143210482Y-80470240D01*
X143188402Y-80500228D01*
X141036451Y-82652181D01*
X140975128Y-82685666D01*
X140948770Y-82688500D01*
X139982660Y-82688500D01*
X139915621Y-82668815D01*
X139885713Y-82641812D01*
X139829512Y-82571338D01*
X139829509Y-82571335D01*
X139829508Y-82571334D01*
X139659996Y-82423235D01*
X139466767Y-82307787D01*
X139466768Y-82307787D01*
X139466766Y-82307786D01*
X139466764Y-82307785D01*
X139407896Y-82285691D01*
X139352050Y-82243706D01*
X139327767Y-82178191D01*
X139342759Y-82109949D01*
X139392265Y-82060645D01*
X139397610Y-82057907D01*
X139565973Y-81976829D01*
X139748078Y-81844522D01*
X139897911Y-81687808D01*
X139958466Y-81652956D01*
X139987537Y-81649500D01*
X141037295Y-81649500D01*
X141055265Y-81650809D01*
X141079023Y-81654289D01*
X141128369Y-81649971D01*
X141139176Y-81649500D01*
X141144704Y-81649500D01*
X141144709Y-81649500D01*
X141175556Y-81645893D01*
X141179030Y-81645539D01*
X141253797Y-81638999D01*
X141253805Y-81638996D01*
X141260866Y-81637539D01*
X141260878Y-81637598D01*
X141268243Y-81635965D01*
X141268229Y-81635906D01*
X141275249Y-81634241D01*
X141275255Y-81634241D01*
X141345779Y-81608572D01*
X141349117Y-81607412D01*
X141420334Y-81583814D01*
X141420342Y-81583808D01*
X141426882Y-81580760D01*
X141426908Y-81580816D01*
X141433690Y-81577532D01*
X141433663Y-81577478D01*
X141440113Y-81574238D01*
X141440117Y-81574237D01*
X141502837Y-81532984D01*
X141505732Y-81531140D01*
X141569656Y-81491712D01*
X141569662Y-81491705D01*
X141575325Y-81487229D01*
X141575362Y-81487277D01*
X141581204Y-81482518D01*
X141581164Y-81482471D01*
X141586686Y-81477835D01*
X141586696Y-81477830D01*
X141638185Y-81423253D01*
X141640632Y-81420734D01*
X142735638Y-80325727D01*
X142749267Y-80313950D01*
X142768530Y-80299610D01*
X142800366Y-80261669D01*
X142807683Y-80253684D01*
X142808993Y-80252372D01*
X142811590Y-80249777D01*
X142830811Y-80225467D01*
X142833094Y-80222664D01*
X142881301Y-80165215D01*
X142885272Y-80159179D01*
X142885323Y-80159212D01*
X142889369Y-80152860D01*
X142889317Y-80152828D01*
X142893105Y-80146683D01*
X142893111Y-80146677D01*
X142924829Y-80078655D01*
X142926369Y-80075476D01*
X142960040Y-80008433D01*
X142960043Y-80008417D01*
X142962510Y-80001644D01*
X142962568Y-80001665D01*
X142965043Y-79994546D01*
X142964985Y-79994527D01*
X142967255Y-79987677D01*
X142967256Y-79987673D01*
X142982431Y-79914171D01*
X142983186Y-79910767D01*
X143000500Y-79837721D01*
X143000500Y-79837719D01*
X143000501Y-79837715D01*
X143001339Y-79830548D01*
X143001397Y-79830554D01*
X143002164Y-79823056D01*
X143002104Y-79823051D01*
X143002733Y-79815860D01*
X143001577Y-79776140D01*
X143000552Y-79740889D01*
X143000500Y-79737283D01*
X143000500Y-77377729D01*
X143020185Y-77310690D01*
X143036814Y-77290053D01*
X144260652Y-76066214D01*
X144321973Y-76032731D01*
X144359135Y-76030369D01*
X144502366Y-76042900D01*
X144525999Y-76044968D01*
X144526000Y-76044968D01*
X144526002Y-76044968D01*
X144586625Y-76039664D01*
X144752692Y-76025135D01*
X144972496Y-75966239D01*
X145178734Y-75870068D01*
X145365139Y-75739547D01*
X145526047Y-75578639D01*
X145656568Y-75392234D01*
X145752739Y-75185996D01*
X145811635Y-74966192D01*
X145831468Y-74739500D01*
X145811635Y-74512808D01*
X145752739Y-74293004D01*
X145656568Y-74086766D01*
X145526047Y-73900361D01*
X145526045Y-73900358D01*
X145365141Y-73739454D01*
X145178734Y-73608932D01*
X145178732Y-73608931D01*
X144972497Y-73512761D01*
X144972488Y-73512758D01*
X144752697Y-73453866D01*
X144752693Y-73453865D01*
X144752692Y-73453865D01*
X144752691Y-73453864D01*
X144752686Y-73453864D01*
X144526002Y-73434032D01*
X144525998Y-73434032D01*
X144299313Y-73453864D01*
X144299302Y-73453866D01*
X144079511Y-73512758D01*
X144079502Y-73512761D01*
X143873267Y-73608931D01*
X143873265Y-73608932D01*
X143686858Y-73739454D01*
X143525954Y-73900358D01*
X143395432Y-74086765D01*
X143395431Y-74086767D01*
X143299261Y-74293002D01*
X143299258Y-74293011D01*
X143240366Y-74512802D01*
X143240364Y-74512813D01*
X143220532Y-74739498D01*
X143220532Y-74739503D01*
X143235129Y-74906361D01*
X143221362Y-74974860D01*
X143199282Y-75004848D01*
X141764358Y-76439772D01*
X141750729Y-76451551D01*
X141731469Y-76465890D01*
X141699632Y-76503831D01*
X141692346Y-76511784D01*
X141688407Y-76515724D01*
X141669176Y-76540045D01*
X141666902Y-76542837D01*
X141618694Y-76600290D01*
X141614729Y-76606319D01*
X141614682Y-76606288D01*
X141610630Y-76612647D01*
X141610679Y-76612677D01*
X141606889Y-76618821D01*
X141575192Y-76686794D01*
X141573623Y-76690036D01*
X141539957Y-76757072D01*
X141537488Y-76763857D01*
X141537432Y-76763836D01*
X141534960Y-76770950D01*
X141535015Y-76770969D01*
X141532743Y-76777825D01*
X141517573Y-76851288D01*
X141516793Y-76854804D01*
X141499499Y-76927779D01*
X141498661Y-76934954D01*
X141498601Y-76934947D01*
X141497835Y-76942445D01*
X141497895Y-76942451D01*
X141497265Y-76949640D01*
X141499448Y-77024628D01*
X141499500Y-77028235D01*
X141499500Y-79387770D01*
X141479815Y-79454809D01*
X141463181Y-79475451D01*
X140826451Y-80112181D01*
X140765128Y-80145666D01*
X140738770Y-80148500D01*
X139982660Y-80148500D01*
X139915621Y-80128815D01*
X139885713Y-80101812D01*
X139829512Y-80031338D01*
X139829509Y-80031335D01*
X139829508Y-80031334D01*
X139659996Y-79883235D01*
X139466764Y-79767785D01*
X139348786Y-79723507D01*
X139256023Y-79688692D01*
X139034550Y-79648500D01*
X139034547Y-79648500D01*
X138656731Y-79648500D01*
X138589692Y-79628815D01*
X138543937Y-79576011D01*
X138533993Y-79506853D01*
X138563018Y-79443297D01*
X138597971Y-79415306D01*
X138600126Y-79414146D01*
X138613681Y-79406852D01*
X138789666Y-79266508D01*
X138937765Y-79096996D01*
X139053215Y-78903764D01*
X139132307Y-78693024D01*
X139160655Y-78536819D01*
X139172500Y-78471549D01*
X139172500Y-77302852D01*
X139172500Y-77302845D01*
X139157377Y-77134812D01*
X139152930Y-77118698D01*
X139097496Y-76917839D01*
X139097491Y-76917826D01*
X138999832Y-76715033D01*
X138999828Y-76715025D01*
X138867526Y-76532927D01*
X138867519Y-76532919D01*
X138710808Y-76383087D01*
X138675956Y-76322531D01*
X138672500Y-76293461D01*
X138672500Y-74190230D01*
X138692185Y-74123191D01*
X138708819Y-74102549D01*
X142904799Y-69906569D01*
X142966122Y-69873084D01*
X142992480Y-69870250D01*
X143399337Y-69870250D01*
X143466376Y-69889935D01*
X143500912Y-69923127D01*
X143525954Y-69958891D01*
X143686858Y-70119795D01*
X143686861Y-70119797D01*
X143873266Y-70250318D01*
X144079504Y-70346489D01*
X144299308Y-70405385D01*
X144461230Y-70419551D01*
X144525998Y-70425218D01*
X144526000Y-70425218D01*
X144526002Y-70425218D01*
X144582673Y-70420259D01*
X144752692Y-70405385D01*
X144972496Y-70346489D01*
X145178734Y-70250318D01*
X145365139Y-70119797D01*
X145526047Y-69958889D01*
X145656568Y-69772484D01*
X145752739Y-69566246D01*
X145811635Y-69346442D01*
X145831468Y-69119750D01*
X145811635Y-68893058D01*
X145752739Y-68673254D01*
X145656568Y-68467016D01*
X145526047Y-68280611D01*
X145526045Y-68280608D01*
X145365141Y-68119704D01*
X145178734Y-67989182D01*
X145178732Y-67989181D01*
X144972497Y-67893011D01*
X144972488Y-67893008D01*
X144752697Y-67834116D01*
X144752693Y-67834115D01*
X144752692Y-67834115D01*
X144752691Y-67834114D01*
X144752686Y-67834114D01*
X144526002Y-67814282D01*
X144525998Y-67814282D01*
X144299313Y-67834114D01*
X144299302Y-67834116D01*
X144079511Y-67893008D01*
X144079502Y-67893011D01*
X143873267Y-67989181D01*
X143873265Y-67989182D01*
X143686858Y-68119704D01*
X143525954Y-68280608D01*
X143500912Y-68316373D01*
X143446335Y-68359998D01*
X143399337Y-68369250D01*
X142693955Y-68369250D01*
X142675985Y-68367941D01*
X142652222Y-68364460D01*
X142605093Y-68368584D01*
X142602880Y-68368778D01*
X142592074Y-68369250D01*
X142586534Y-68369250D01*
X142555751Y-68372848D01*
X142552166Y-68373214D01*
X142477449Y-68379751D01*
X142470382Y-68381210D01*
X142470370Y-68381154D01*
X142463013Y-68382785D01*
X142463027Y-68382842D01*
X142455990Y-68384510D01*
X142385481Y-68410171D01*
X142382080Y-68411353D01*
X142310918Y-68434934D01*
X142304376Y-68437985D01*
X142304351Y-68437933D01*
X142297558Y-68441221D01*
X142297584Y-68441272D01*
X142291136Y-68444510D01*
X142228478Y-68485720D01*
X142225441Y-68487655D01*
X142161594Y-68527038D01*
X142155927Y-68531519D01*
X142155891Y-68531473D01*
X142150048Y-68536234D01*
X142150085Y-68536278D01*
X142144560Y-68540914D01*
X142093098Y-68595459D01*
X142090586Y-68598044D01*
X137436358Y-73252272D01*
X137422729Y-73264051D01*
X137403469Y-73278390D01*
X137371632Y-73316331D01*
X137364346Y-73324284D01*
X137360407Y-73328224D01*
X137341176Y-73352545D01*
X137338902Y-73355337D01*
X137290694Y-73412790D01*
X137286729Y-73418819D01*
X137286682Y-73418788D01*
X137282630Y-73425147D01*
X137282679Y-73425177D01*
X137278889Y-73431321D01*
X137247192Y-73499294D01*
X137245623Y-73502536D01*
X137211957Y-73569572D01*
X137209488Y-73576357D01*
X137209432Y-73576336D01*
X137206960Y-73583450D01*
X137207015Y-73583469D01*
X137204743Y-73590325D01*
X137189573Y-73663788D01*
X137188793Y-73667304D01*
X137171499Y-73740279D01*
X137170661Y-73747454D01*
X137170601Y-73747447D01*
X137169835Y-73754945D01*
X137169895Y-73754951D01*
X137169265Y-73762140D01*
X137171448Y-73837128D01*
X137171500Y-73840735D01*
X137171500Y-76298339D01*
X137151815Y-76365378D01*
X137124813Y-76395286D01*
X137054336Y-76451489D01*
X136983186Y-76532927D01*
X136906235Y-76621004D01*
X136866928Y-76686794D01*
X136790787Y-76814232D01*
X136790782Y-76814241D01*
X136768691Y-76873102D01*
X136726705Y-76928950D01*
X136661191Y-76953232D01*
X136592949Y-76938240D01*
X136543645Y-76888733D01*
X136540899Y-76883373D01*
X136459829Y-76715027D01*
X136334726Y-76542837D01*
X136327526Y-76532927D01*
X136327519Y-76532919D01*
X136170808Y-76383087D01*
X136135956Y-76322531D01*
X136132500Y-76293461D01*
X136132500Y-73006229D01*
X136152185Y-72939190D01*
X136168814Y-72918553D01*
X144260652Y-64826714D01*
X144321973Y-64793231D01*
X144359135Y-64790869D01*
X144502366Y-64803400D01*
X144525999Y-64805468D01*
X144526000Y-64805468D01*
X144526002Y-64805468D01*
X144582673Y-64800509D01*
X144752692Y-64785635D01*
X144972496Y-64726739D01*
X145178734Y-64630568D01*
X145365139Y-64500047D01*
X145526047Y-64339139D01*
X145656568Y-64152734D01*
X145752739Y-63946496D01*
X145811635Y-63726692D01*
X145831468Y-63500000D01*
X145811635Y-63273308D01*
X145752739Y-63053504D01*
X145656568Y-62847266D01*
X145526047Y-62660861D01*
X145526045Y-62660858D01*
X145365141Y-62499954D01*
X145178734Y-62369432D01*
X145178732Y-62369431D01*
X144972497Y-62273261D01*
X144972488Y-62273258D01*
X144752697Y-62214366D01*
X144752693Y-62214365D01*
X144752692Y-62214365D01*
X144752691Y-62214364D01*
X144752686Y-62214364D01*
X144526002Y-62194532D01*
X144525998Y-62194532D01*
X144299313Y-62214364D01*
X144299302Y-62214366D01*
X144079511Y-62273258D01*
X144079502Y-62273261D01*
X143873267Y-62369431D01*
X143873265Y-62369432D01*
X143686858Y-62499954D01*
X143525954Y-62660858D01*
X143395432Y-62847265D01*
X143395431Y-62847267D01*
X143299261Y-63053502D01*
X143299258Y-63053511D01*
X143240366Y-63273302D01*
X143240364Y-63273313D01*
X143220532Y-63499998D01*
X143220532Y-63500003D01*
X143235129Y-63666861D01*
X143221362Y-63735360D01*
X143199282Y-63765348D01*
X134896358Y-72068272D01*
X134882729Y-72080051D01*
X134863469Y-72094390D01*
X134831632Y-72132331D01*
X134824346Y-72140284D01*
X134820407Y-72144224D01*
X134801176Y-72168545D01*
X134798902Y-72171337D01*
X134750694Y-72228790D01*
X134746729Y-72234819D01*
X134746682Y-72234788D01*
X134742630Y-72241147D01*
X134742679Y-72241177D01*
X134738889Y-72247321D01*
X134707192Y-72315294D01*
X134705623Y-72318536D01*
X134671957Y-72385572D01*
X134669488Y-72392357D01*
X134669432Y-72392336D01*
X134666960Y-72399450D01*
X134667015Y-72399469D01*
X134664743Y-72406325D01*
X134649573Y-72479788D01*
X134648793Y-72483304D01*
X134631499Y-72556279D01*
X134630661Y-72563454D01*
X134630601Y-72563447D01*
X134629835Y-72570945D01*
X134629895Y-72570951D01*
X134629265Y-72578140D01*
X134631448Y-72653128D01*
X134631500Y-72656735D01*
X134631500Y-76298339D01*
X134611815Y-76365378D01*
X134584813Y-76395286D01*
X134514336Y-76451489D01*
X134443186Y-76532927D01*
X134366235Y-76621004D01*
X134326928Y-76686794D01*
X134250787Y-76814232D01*
X134250782Y-76814241D01*
X134228691Y-76873102D01*
X134186705Y-76928950D01*
X134121191Y-76953232D01*
X134052949Y-76938240D01*
X134003645Y-76888733D01*
X134000899Y-76883373D01*
X133919829Y-76715027D01*
X133794726Y-76542837D01*
X133787526Y-76532927D01*
X133787525Y-76532925D01*
X133761432Y-76507978D01*
X133624825Y-76377368D01*
X133624823Y-76377366D01*
X133436966Y-76253363D01*
X133229995Y-76164899D01*
X133229982Y-76164895D01*
X133010542Y-76114810D01*
X133010538Y-76114809D01*
X133010537Y-76114809D01*
X133010536Y-76114808D01*
X133010531Y-76114808D01*
X132785674Y-76104710D01*
X132785673Y-76104710D01*
X132785670Y-76104710D01*
X132562613Y-76134925D01*
X132562610Y-76134925D01*
X132562609Y-76134926D01*
X132348534Y-76204483D01*
X132150321Y-76311146D01*
X132150318Y-76311148D01*
X131974336Y-76451489D01*
X131903186Y-76532927D01*
X131826235Y-76621004D01*
X131786928Y-76686794D01*
X131710787Y-76814232D01*
X131710782Y-76814241D01*
X131688691Y-76873102D01*
X131646705Y-76928950D01*
X131581191Y-76953232D01*
X131512949Y-76938240D01*
X131463645Y-76888733D01*
X131460899Y-76883373D01*
X131379829Y-76715027D01*
X131254726Y-76542837D01*
X131247526Y-76532927D01*
X131247525Y-76532925D01*
X131221432Y-76507978D01*
X131084825Y-76377368D01*
X131084823Y-76377366D01*
X130896966Y-76253363D01*
X130689995Y-76164899D01*
X130689982Y-76164895D01*
X130470542Y-76114810D01*
X130470538Y-76114809D01*
X130470537Y-76114809D01*
X130470536Y-76114808D01*
X130470531Y-76114808D01*
X130245674Y-76104710D01*
X130245673Y-76104710D01*
X130245670Y-76104710D01*
X130022613Y-76134925D01*
X130022610Y-76134925D01*
X130022609Y-76134926D01*
X129808534Y-76204483D01*
X129610321Y-76311146D01*
X129610318Y-76311148D01*
X129434336Y-76451489D01*
X129363186Y-76532927D01*
X129286235Y-76621004D01*
X129246928Y-76686794D01*
X129170787Y-76814232D01*
X129170782Y-76814241D01*
X129148691Y-76873102D01*
X129106705Y-76928950D01*
X129041191Y-76953232D01*
X128972949Y-76938240D01*
X128923645Y-76888733D01*
X128920899Y-76883373D01*
X128839829Y-76715027D01*
X128714726Y-76542837D01*
X128707526Y-76532927D01*
X128707525Y-76532925D01*
X128681432Y-76507978D01*
X128544825Y-76377368D01*
X128544823Y-76377366D01*
X128356966Y-76253363D01*
X128149995Y-76164899D01*
X128149982Y-76164895D01*
X127930542Y-76114810D01*
X127930538Y-76114809D01*
X127930537Y-76114809D01*
X127930536Y-76114808D01*
X127930531Y-76114808D01*
X127705674Y-76104710D01*
X127705673Y-76104710D01*
X127705670Y-76104710D01*
X127482613Y-76134925D01*
X127482610Y-76134925D01*
X127482609Y-76134926D01*
X127268534Y-76204483D01*
X127070321Y-76311146D01*
X127070318Y-76311148D01*
X126894336Y-76451489D01*
X126823186Y-76532927D01*
X126746235Y-76621004D01*
X126706928Y-76686794D01*
X126630787Y-76814232D01*
X126630782Y-76814241D01*
X126608691Y-76873102D01*
X126566705Y-76928950D01*
X126501191Y-76953232D01*
X126432949Y-76938240D01*
X126383645Y-76888733D01*
X126380899Y-76883373D01*
X126299829Y-76715027D01*
X126174726Y-76542837D01*
X126167526Y-76532927D01*
X126167525Y-76532925D01*
X126141432Y-76507978D01*
X126004825Y-76377368D01*
X126004823Y-76377366D01*
X125816966Y-76253363D01*
X125609995Y-76164899D01*
X125609982Y-76164895D01*
X125390542Y-76114810D01*
X125390538Y-76114809D01*
X125390537Y-76114809D01*
X125390536Y-76114808D01*
X125390531Y-76114808D01*
X125165674Y-76104710D01*
X125165673Y-76104710D01*
X125165670Y-76104710D01*
X124942613Y-76134925D01*
X124942610Y-76134925D01*
X124942609Y-76134926D01*
X124728534Y-76204483D01*
X124530321Y-76311146D01*
X124530318Y-76311148D01*
X124354336Y-76451489D01*
X124283186Y-76532927D01*
X124206235Y-76621004D01*
X124166928Y-76686794D01*
X124090787Y-76814232D01*
X124090782Y-76814241D01*
X124068691Y-76873102D01*
X124026705Y-76928950D01*
X123961191Y-76953232D01*
X123892949Y-76938240D01*
X123843645Y-76888733D01*
X123840899Y-76883373D01*
X123759829Y-76715027D01*
X123634726Y-76542837D01*
X123627526Y-76532927D01*
X123627525Y-76532925D01*
X123601432Y-76507978D01*
X123464825Y-76377368D01*
X123464823Y-76377366D01*
X123276966Y-76253363D01*
X123069995Y-76164899D01*
X123069982Y-76164895D01*
X122850542Y-76114810D01*
X122850538Y-76114809D01*
X122850537Y-76114809D01*
X122850536Y-76114808D01*
X122850531Y-76114808D01*
X122625674Y-76104710D01*
X122625673Y-76104710D01*
X122625670Y-76104710D01*
X122402613Y-76134925D01*
X122402610Y-76134925D01*
X122402609Y-76134926D01*
X122188534Y-76204483D01*
X121990321Y-76311146D01*
X121990318Y-76311148D01*
X121814336Y-76451489D01*
X121743186Y-76532927D01*
X121666235Y-76621004D01*
X121632799Y-76676965D01*
X121550787Y-76814231D01*
X121550787Y-76814232D01*
X121550785Y-76814236D01*
X121536879Y-76851288D01*
X121528449Y-76873750D01*
X121486463Y-76929597D01*
X121420948Y-76953880D01*
X121352706Y-76938888D01*
X121303402Y-76889381D01*
X121300636Y-76883979D01*
X121219401Y-76715290D01*
X121219397Y-76715283D01*
X121087148Y-76533258D01*
X121087142Y-76533250D01*
X120924513Y-76377762D01*
X120736733Y-76253808D01*
X120529830Y-76165375D01*
X120529823Y-76165373D01*
X120392000Y-76133915D01*
X120392000Y-79586549D01*
X120421267Y-79582586D01*
X120421273Y-79582585D01*
X120635268Y-79513054D01*
X120833401Y-79406434D01*
X120833404Y-79406432D01*
X121009320Y-79266145D01*
X121157352Y-79096707D01*
X121157359Y-79096699D01*
X121272759Y-78903553D01*
X121272765Y-78903542D01*
X121295007Y-78844277D01*
X121336991Y-78788428D01*
X121402505Y-78764144D01*
X121470748Y-78779135D01*
X121520053Y-78828640D01*
X121522820Y-78834045D01*
X121604167Y-79002966D01*
X121604171Y-79002974D01*
X121736473Y-79185072D01*
X121736474Y-79185074D01*
X121899176Y-79340633D01*
X122087033Y-79464636D01*
X122294004Y-79553100D01*
X122294007Y-79553101D01*
X122294012Y-79553103D01*
X122513463Y-79603191D01*
X122738330Y-79613290D01*
X122961387Y-79583075D01*
X123175464Y-79513517D01*
X123373681Y-79406852D01*
X123549666Y-79266508D01*
X123697765Y-79096996D01*
X123813215Y-78903764D01*
X123835307Y-78844897D01*
X123877292Y-78789051D01*
X123942806Y-78764767D01*
X124011048Y-78779758D01*
X124060353Y-78829264D01*
X124063120Y-78834668D01*
X124144167Y-79002966D01*
X124144171Y-79002974D01*
X124276473Y-79185072D01*
X124276474Y-79185074D01*
X124439176Y-79340633D01*
X124627033Y-79464636D01*
X124834004Y-79553100D01*
X124834007Y-79553101D01*
X124834012Y-79553103D01*
X125053463Y-79603191D01*
X125278330Y-79613290D01*
X125501387Y-79583075D01*
X125715464Y-79513517D01*
X125913681Y-79406852D01*
X126089666Y-79266508D01*
X126237765Y-79096996D01*
X126353215Y-78903764D01*
X126375307Y-78844897D01*
X126417292Y-78789051D01*
X126482806Y-78764767D01*
X126551048Y-78779758D01*
X126600353Y-78829264D01*
X126603120Y-78834668D01*
X126684167Y-79002966D01*
X126684171Y-79002974D01*
X126816473Y-79185072D01*
X126816474Y-79185074D01*
X126979176Y-79340633D01*
X127167033Y-79464636D01*
X127374004Y-79553100D01*
X127374007Y-79553101D01*
X127374012Y-79553103D01*
X127593463Y-79603191D01*
X127818330Y-79613290D01*
X128041387Y-79583075D01*
X128255464Y-79513517D01*
X128453681Y-79406852D01*
X128629666Y-79266508D01*
X128777765Y-79096996D01*
X128893215Y-78903764D01*
X128915307Y-78844897D01*
X128957292Y-78789051D01*
X129022806Y-78764767D01*
X129091048Y-78779758D01*
X129140353Y-78829264D01*
X129143120Y-78834668D01*
X129224167Y-79002966D01*
X129224171Y-79002974D01*
X129356473Y-79185072D01*
X129356474Y-79185074D01*
X129519176Y-79340633D01*
X129707033Y-79464636D01*
X129914004Y-79553100D01*
X129914007Y-79553101D01*
X129914012Y-79553103D01*
X130133463Y-79603191D01*
X130358330Y-79613290D01*
X130581387Y-79583075D01*
X130795464Y-79513517D01*
X130993681Y-79406852D01*
X131169666Y-79266508D01*
X131317765Y-79096996D01*
X131433215Y-78903764D01*
X131455307Y-78844897D01*
X131497292Y-78789051D01*
X131562806Y-78764767D01*
X131631048Y-78779758D01*
X131680353Y-78829264D01*
X131683120Y-78834668D01*
X131764167Y-79002966D01*
X131764171Y-79002974D01*
X131896473Y-79185072D01*
X131896474Y-79185074D01*
X132059176Y-79340633D01*
X132247033Y-79464636D01*
X132454004Y-79553100D01*
X132454007Y-79553101D01*
X132454012Y-79553103D01*
X132673463Y-79603191D01*
X132898330Y-79613290D01*
X133121387Y-79583075D01*
X133335464Y-79513517D01*
X133533681Y-79406852D01*
X133709666Y-79266508D01*
X133857765Y-79096996D01*
X133973215Y-78903764D01*
X133995307Y-78844897D01*
X134037292Y-78789051D01*
X134102806Y-78764767D01*
X134171048Y-78779758D01*
X134220353Y-78829264D01*
X134223120Y-78834668D01*
X134304167Y-79002966D01*
X134304171Y-79002974D01*
X134436473Y-79185072D01*
X134436474Y-79185074D01*
X134599176Y-79340633D01*
X134787033Y-79464636D01*
X134994004Y-79553100D01*
X134994007Y-79553101D01*
X134994012Y-79553103D01*
X135213463Y-79603191D01*
X135438330Y-79613290D01*
X135661387Y-79583075D01*
X135875464Y-79513517D01*
X136073681Y-79406852D01*
X136249666Y-79266508D01*
X136397765Y-79096996D01*
X136513215Y-78903764D01*
X136535307Y-78844897D01*
X136577292Y-78789051D01*
X136642806Y-78764767D01*
X136711048Y-78779758D01*
X136760353Y-78829264D01*
X136763120Y-78834668D01*
X136844167Y-79002966D01*
X136844171Y-79002974D01*
X136976473Y-79185072D01*
X136976474Y-79185074D01*
X137139176Y-79340633D01*
X137327033Y-79464636D01*
X137442275Y-79513893D01*
X137496183Y-79558341D01*
X137517503Y-79624879D01*
X137499465Y-79692380D01*
X137447797Y-79739414D01*
X137447341Y-79739634D01*
X137278033Y-79821167D01*
X137278025Y-79821171D01*
X137094133Y-79954777D01*
X137028327Y-79978257D01*
X137021248Y-79978459D01*
X136987446Y-79978459D01*
X136987240Y-79978500D01*
X116124500Y-79978500D01*
X116057461Y-79958815D01*
X116011706Y-79906011D01*
X116000500Y-79854500D01*
X116000500Y-78415155D01*
X116351500Y-78415155D01*
X116352438Y-78425572D01*
X116366622Y-78583186D01*
X116366623Y-78583192D01*
X116426503Y-78800160D01*
X116426508Y-78800173D01*
X116524167Y-79002966D01*
X116524171Y-79002974D01*
X116656473Y-79185072D01*
X116656474Y-79185074D01*
X116819176Y-79340633D01*
X117007033Y-79464636D01*
X117214004Y-79553100D01*
X117214007Y-79553101D01*
X117214012Y-79553103D01*
X117433463Y-79603191D01*
X117658330Y-79613290D01*
X117881387Y-79583075D01*
X118095464Y-79513517D01*
X118293681Y-79406852D01*
X118469666Y-79266508D01*
X118617765Y-79096996D01*
X118733215Y-78903764D01*
X118755551Y-78844249D01*
X118797535Y-78788403D01*
X118863049Y-78764119D01*
X118931291Y-78779110D01*
X118980596Y-78828616D01*
X118983363Y-78834020D01*
X119064598Y-79002708D01*
X119064602Y-79002716D01*
X119196851Y-79184741D01*
X119196857Y-79184749D01*
X119359486Y-79340237D01*
X119547266Y-79464191D01*
X119754169Y-79552624D01*
X119754178Y-79552627D01*
X119891999Y-79584084D01*
X119892000Y-79584084D01*
X119892000Y-76131449D01*
X119891999Y-76131449D01*
X119862721Y-76135415D01*
X119648731Y-76204945D01*
X119450598Y-76311565D01*
X119450595Y-76311567D01*
X119274679Y-76451854D01*
X119126647Y-76621292D01*
X119126640Y-76621300D01*
X119011240Y-76814446D01*
X119011239Y-76814448D01*
X118988992Y-76873725D01*
X118947006Y-76929572D01*
X118881491Y-76953855D01*
X118813249Y-76938863D01*
X118763945Y-76889357D01*
X118761191Y-76883979D01*
X118679829Y-76715027D01*
X118554726Y-76542837D01*
X118547526Y-76532927D01*
X118547525Y-76532925D01*
X118521432Y-76507978D01*
X118384825Y-76377368D01*
X118384823Y-76377366D01*
X118196966Y-76253363D01*
X117989995Y-76164899D01*
X117989982Y-76164895D01*
X117770542Y-76114810D01*
X117770538Y-76114809D01*
X117770537Y-76114809D01*
X117770536Y-76114808D01*
X117770531Y-76114808D01*
X117545674Y-76104710D01*
X117545673Y-76104710D01*
X117545670Y-76104710D01*
X117322613Y-76134925D01*
X117322610Y-76134925D01*
X117322609Y-76134926D01*
X117108534Y-76204483D01*
X116910321Y-76311146D01*
X116910318Y-76311148D01*
X116734336Y-76451489D01*
X116663186Y-76532927D01*
X116586235Y-76621004D01*
X116546928Y-76686794D01*
X116496636Y-76770969D01*
X116470785Y-76814236D01*
X116456879Y-76851288D01*
X116391692Y-77024976D01*
X116351500Y-77246450D01*
X116351500Y-77246453D01*
X116351500Y-78415155D01*
X116000500Y-78415155D01*
X116000500Y-64013822D01*
X116020185Y-63946783D01*
X116072989Y-63901028D01*
X116142147Y-63891084D01*
X116205703Y-63920109D01*
X116230613Y-63949668D01*
X116282417Y-64035361D01*
X116282422Y-64035369D01*
X116488064Y-64297851D01*
X116723844Y-64533631D01*
X116986326Y-64739273D01*
X116986331Y-64739276D01*
X116986335Y-64739279D01*
X117271696Y-64911786D01*
X117575770Y-65048639D01*
X117575783Y-65048643D01*
X117575788Y-65048645D01*
X117788005Y-65114773D01*
X117894123Y-65147841D01*
X118222112Y-65207948D01*
X118554955Y-65228081D01*
X118887798Y-65207948D01*
X119215787Y-65147841D01*
X119534140Y-65048639D01*
X119838214Y-64911786D01*
X120123575Y-64739279D01*
X120139583Y-64726738D01*
X120200156Y-64679281D01*
X120386062Y-64533634D01*
X120621848Y-64297848D01*
X120777889Y-64098676D01*
X120827487Y-64035369D01*
X120827487Y-64035367D01*
X120827493Y-64035361D01*
X121000000Y-63750000D01*
X121136853Y-63445926D01*
X121236055Y-63127573D01*
X121296162Y-62799584D01*
X121316295Y-62466741D01*
X121296162Y-62133898D01*
X121236055Y-61805909D01*
X121136853Y-61487556D01*
X121000000Y-61183482D01*
X120827493Y-60898121D01*
X120827490Y-60898117D01*
X120827487Y-60898112D01*
X120621845Y-60635630D01*
X120386065Y-60399850D01*
X120159198Y-60222111D01*
X120118565Y-60165271D01*
X120115113Y-60095486D01*
X120149937Y-60034914D01*
X120211981Y-60002784D01*
X120235671Y-60000500D01*
X165874239Y-60000500D01*
X165941278Y-60020185D01*
G37*
%TD.AperFunction*%
%TD*%
M02*
